<svg width="105" height="90" viewBox="0 0 105 90" fill="none" xmlns="http://www.w3.org/2000/svg">
<g clip-path="url(#clip0_10872_10873)">
<path d="M104.326 63.5422C84.668 -24.0301 46.2621 51.8309 0.0898438 23.5147V34.2798C36.7621 55.9012 70.7398 -10.9981 82.5788 63.5253H104.326V63.5422Z" fill="#E4004A"/>
<path d="M87.1325 72.2733H84.6867L84.186 73.9338H82.8832L85.2571 67.06H86.6859L88.972 73.9338H87.6332L87.1325 72.2733ZM86.8648 71.3092L85.9726 68.095H85.9546L84.9724 71.3092H86.8648ZM90.007 69.7027C90.007 69.3809 89.989 69.0952 89.971 68.8634H91.1501C91.1681 69.1132 91.1861 69.3809 91.1861 69.6307H91.221C91.401 69.3269 91.7576 68.7734 92.6138 68.7734C93.7928 68.7734 94.1495 69.6307 94.1495 70.6488V73.9158H92.8815V70.8805C92.8815 70.1133 92.6858 69.7735 92.1503 69.7735C91.4887 69.7735 91.257 70.309 91.257 70.9525V73.8978H90.0082V69.7015L90.007 69.7027ZM100.488 67.06H101.667V69.6307H101.684C101.864 69.3269 102.221 68.7734 103.077 68.7734C104.274 68.7734 104.612 69.6307 104.612 70.6488V73.9158H103.345V70.8805C103.345 70.0953 103.149 69.7735 102.631 69.7735C101.97 69.7735 101.738 70.309 101.738 70.9525V73.8978H100.47V67.0612L100.488 67.06ZM95.5423 69.1672C96.0593 68.9153 96.6277 68.7866 97.2029 68.7914C98.8275 68.7914 99.2021 69.5598 99.2021 70.8277V73.0405C99.2021 73.3983 99.2381 73.738 99.2741 73.9338H98.131C98.0782 73.7056 98.0544 73.4716 98.0602 73.2374H98.0422C97.7384 73.648 97.3278 74.0047 96.5773 74.0047C95.7561 74.0047 95.0068 73.4692 95.0068 72.523C95.0068 71.1483 96.1667 70.8097 97.7564 70.8097H98.0062V70.6128C98.0062 70.1133 97.7564 69.6487 97.024 69.6487C96.3816 69.6487 95.8281 69.9524 95.5952 70.1482L95.5423 69.1672ZM98.0242 71.452H97.9173C96.8462 71.452 96.2027 71.6658 96.2027 72.3982C96.2027 72.8628 96.5245 73.1665 97.006 73.1665C97.7564 73.1665 98.041 72.6299 98.041 71.7198V71.452H98.0242ZM25.4436 53.6163H21.0694L20.1581 56.4727H17.8213L22.0887 44.5994H24.6392L28.7456 56.4727H26.338L25.4447 53.6152L25.4436 53.6163ZM24.9441 51.9378L23.3364 46.3848H23.3015L21.5509 51.9378H24.9441ZM30.1744 57.8294C30.7111 58.0972 31.7641 58.5787 32.9421 58.5787C35.0853 58.5787 35.4251 57.2039 35.4251 55.8292V54.991H35.389C35.0324 55.6694 34.3889 56.4727 32.9072 56.4727C31.6032 56.4727 29.622 55.6514 29.622 52.1155C29.622 49.7058 30.5502 47.5818 33.0141 47.5818C34.3889 47.5818 35.0144 48.313 35.4959 49.0803H35.5679C35.5679 48.6168 35.6208 48.1702 35.6388 47.7235H37.692C37.656 48.1702 37.6212 48.6348 37.6212 49.0983V55.5614C37.6212 58.294 36.7279 60.2572 33.2818 60.2572C32.1813 60.2557 31.0889 60.0686 30.0507 59.7037L30.1744 57.8294ZM33.4427 54.919C34.8715 54.919 35.4431 53.9729 35.4431 51.9727C35.4431 50.1344 34.6926 49.1523 33.6205 49.1703C32.4425 49.1883 31.9779 50.2053 31.9779 51.9907C31.961 54.0438 32.6754 54.919 33.4427 54.919ZM46.5845 56.026C45.6914 56.4026 44.732 56.5969 43.7628 56.5975C40.7454 56.5975 39.4246 54.5804 39.4246 52.2055C39.4246 49.5809 40.9063 47.5627 43.2982 47.5627C45.3345 47.5627 47.0671 48.6697 47.0671 52.2415V52.6522H41.6207C41.6207 54.1518 42.2631 55.0439 44.0126 55.0439C45.4054 55.0439 46.0658 54.6513 46.4765 54.3655L46.5845 56.026ZM44.8699 51.3303C44.8699 49.7947 44.3164 49.0094 43.2982 49.0094C42.1022 49.0094 41.6207 50.1873 41.6207 51.3303H44.8699ZM48.9234 49.1523C48.9234 48.6168 48.9054 48.0993 48.8514 47.7055H50.9587C50.9767 48.1522 51.0295 48.5988 51.0295 49.0443H51.0835H51.0655C51.4053 48.5268 52.0297 47.5627 53.5654 47.5627C55.7075 47.5627 56.333 49.0454 56.333 50.8128V56.4547H54.0649V51.2054C54.0649 49.8667 53.7083 49.2952 52.7621 49.2952C51.5831 49.2952 51.1544 50.2413 51.1544 51.3483V56.4547H48.9234V49.1512V49.1523ZM64.5999 56.2398C64.0644 56.4367 63.278 56.5975 62.3678 56.5975C59.2616 56.5975 57.9396 54.5804 57.9396 52.0975C57.9396 49.5989 59.3324 47.5638 62.4927 47.5638C63.2071 47.5638 64.0453 47.7595 64.4571 47.9204L64.3322 49.5809C63.9215 49.402 63.368 49.1523 62.7425 49.1523C61.029 49.1523 60.2786 50.2233 60.2786 52.0987C60.2786 53.7232 61.1179 54.9899 62.8494 54.9899C63.4029 54.9899 64.1353 54.7582 64.4571 54.5624L64.5999 56.2398ZM72.8477 56.026C71.9618 56.4028 71.009 56.5972 70.0463 56.5975C67.0098 56.5975 65.689 54.5804 65.689 52.2055C65.689 49.5809 67.1707 47.5627 69.5637 47.5627C71.5989 47.5627 73.3304 48.6697 73.3304 52.2415V52.6522H67.9031C67.9031 54.1518 68.5455 55.0439 70.295 55.0439C71.6878 55.0439 72.3313 54.6513 72.7588 54.3655L72.8477 56.026ZM71.1343 51.3303C71.1343 49.7947 70.5807 49.0094 69.5637 49.0094C68.3666 49.0094 67.8851 50.1873 67.8851 51.3303H71.1343ZM10.963 65.4524C11.6969 65.1161 12.4959 64.9456 13.3031 64.9529C15.6061 64.9529 16.1416 65.9879 16.1416 67.7204V70.7197C16.1416 71.2203 16.1945 71.6658 16.2316 71.9347H14.6228C14.5339 71.6658 14.5171 71.3272 14.5171 70.9874H14.4811C14.0344 71.5409 13.4809 72.0415 12.4098 72.0415C11.2668 72.0415 10.1957 71.3092 10.1957 70.0233C10.1957 68.149 11.8383 67.6844 14.0884 67.6844H14.4451V67.4347C14.4451 66.7563 14.0884 66.1319 13.0702 66.1319C12.1781 66.1319 11.3917 66.5425 11.053 66.7923L10.963 65.4524ZM14.4619 68.5777H14.3022C12.7845 68.5777 11.8743 68.8634 11.8743 69.8804C11.8743 70.5059 12.321 70.9345 13.0162 70.9345C14.0704 70.9345 14.4631 70.2022 14.4631 68.9703V68.5765L14.4619 68.5777ZM18.3377 63.6322L20.1232 63.1315V65.0598H21.6049V66.2748H20.1232V69.8455C20.1232 70.5768 20.409 70.7905 20.9265 70.7905C21.2483 70.7905 21.48 70.7017 21.6049 70.6488V71.8267C21.3371 71.9515 20.9445 72.0595 20.409 72.0595C19.087 72.0595 18.3377 71.488 18.3377 70.0593V66.2917H17.1576V65.0778H18.3389L18.3377 63.6322ZM23.1406 62.1325H24.9801V63.757H23.1406V62.1325ZM23.1766 65.0598H24.9621V71.9515H23.1766V65.0598ZM29.622 64.9529C31.1397 64.9529 32.8712 65.6842 32.8712 68.4877C32.8712 71.38 31.1386 72.0415 29.622 72.0415C28.1223 72.0415 26.3717 71.3632 26.3717 68.4877C26.3717 65.6853 28.1223 64.9529 29.622 64.9529ZM29.622 70.8625C30.7651 70.8625 31.0328 69.6307 31.0328 68.4888C31.0328 67.3458 30.7651 66.1319 29.622 66.1319C28.479 66.1319 28.2112 67.3458 28.2112 68.4877C28.2112 69.6487 28.479 70.8625 29.622 70.8625ZM34.282 66.1848C34.282 65.7573 34.264 65.3635 34.228 65.0429H35.8897C35.9077 65.3995 35.9437 65.7562 35.9437 66.0959H35.9797H35.9617C36.2295 65.6853 36.729 64.9349 37.926 64.9349C39.6035 64.9349 40.1041 66.0959 40.1041 67.4887V71.9335H38.3187V67.8093C38.3187 66.7563 38.0329 66.3097 37.3005 66.3097C36.3543 66.3097 36.0326 67.042 36.0326 67.9173V71.9335H34.2471V66.1848H34.282ZM3.07188 66.1848C3.07188 65.7573 3.05388 65.3635 3.01788 65.0429H4.67846C4.69646 65.3995 4.73246 65.7562 4.73246 66.0959H4.76734H4.75046C5.01823 65.6853 5.49975 64.9349 6.71368 64.9349C8.39226 64.9349 8.89179 66.0959 8.89179 67.4887V71.9335H7.14233V67.8093C7.14233 66.7563 6.85656 66.3097 6.12528 66.3097C5.17798 66.3097 4.85734 67.042 4.85734 67.9173V71.9335H3.07188V66.1848ZM42.1562 65.4524C42.8898 65.1163 43.6884 64.9457 44.4952 64.9529C46.7982 64.9529 47.3157 65.9879 47.3157 67.7204V70.7197C47.3157 71.2203 47.3697 71.6658 47.4237 71.9347H45.816C45.726 71.6658 45.7092 71.3272 45.7092 70.9874H45.6912C45.2445 71.5409 44.691 72.0415 43.6211 72.0415C42.46 72.0415 41.4058 71.3092 41.4058 70.0233C41.4058 68.149 43.0304 67.6844 45.2985 67.6844H45.6552V67.4347C45.6552 66.7563 45.2985 66.1319 44.2804 66.1319C43.3882 66.1319 42.6029 66.5425 42.2451 66.7923L42.1551 65.4535L42.1562 65.4524ZM45.6552 68.5777H45.4954C43.9766 68.5777 43.0664 68.8634 43.0664 69.8804C43.0664 70.5059 43.5131 70.9345 44.1915 70.9345C45.2625 70.9345 45.6383 70.2022 45.6383 68.9703V68.5765L45.6552 68.5777ZM49.0832 61.9177H50.8687V71.9335H49.0832V61.9177ZM57.9576 71.6129C57.583 71.7558 56.8146 72.0595 55.7435 72.0595C53.3505 72.0595 52.3335 70.4699 52.3335 68.6137C52.3335 66.5605 53.4934 64.9709 55.3869 64.9709C56.9755 64.9709 58.3503 65.8462 58.3503 68.6497V68.9703H54.0649C54.0649 70.1482 54.5656 70.8625 55.9404 70.8625C57.0295 70.8625 57.547 70.5588 57.8867 70.327L57.9576 71.6129ZM56.6188 67.8993C56.6188 66.6843 56.1902 66.0599 55.3869 66.0599C54.4576 66.0599 54.0649 66.988 54.0649 67.8993H56.6188ZM9.05267 79.4328V88.1459C9.05267 88.6274 9.07067 89.0572 9.10667 89.3058H7.46409C7.42809 89.11 7.41009 88.7174 7.41009 88.2528H7.37409C7.08945 88.8243 6.5708 89.4127 5.42775 89.4127C3.62541 89.4127 2.875 87.8062 2.875 85.9319C2.875 83.7179 3.82117 82.4332 5.39287 82.4332C6.44592 82.4332 7.01745 82.9855 7.28521 83.503H7.32121V79.4328H9.05379H9.05267ZM5.78551 88.2168C6.82056 88.2168 7.17833 87.1818 7.17833 85.8959C7.17833 84.5752 6.78456 83.611 5.82152 83.611C4.83934 83.611 4.49958 84.4852 4.49958 85.8419C4.49958 87.4315 4.76734 88.2168 5.78551 88.2168ZM20.1412 76.5584H22.4093V89.3058H20.1412V76.5584ZM24.6054 77.0399H26.4257V78.4507L26.0691 81.2542H24.6043L24.6054 77.0399ZM38.7102 81.0573C39.3526 80.7895 40.2459 80.4149 41.6916 80.4149C44.6201 80.4149 45.2985 81.7537 45.2985 83.9317V87.7533C45.2985 88.3945 45.3694 88.9672 45.4234 89.3058H43.3713C43.2644 88.9672 43.2464 88.5385 43.2464 88.1099H43.2104C42.6389 88.8243 41.9245 89.4307 40.5857 89.4307C39.122 89.4307 37.7652 88.5025 37.7652 86.86C37.7652 84.4863 39.8544 83.8788 42.7109 83.8788H43.1575V83.557C43.1575 82.6818 42.7109 81.8965 41.407 81.8965C40.2819 81.8965 39.2649 82.414 38.8362 82.7538L38.7102 81.0573ZM43.1733 85.0207H42.9775C41.0492 85.0207 39.8881 85.3964 39.8881 86.6812C39.8881 87.4855 40.4597 88.0199 41.335 88.0199C42.6918 88.0199 43.1733 87.0918 43.1733 85.5213V85.0207ZM49.6907 76.5584V81.8077H49.7267C50.0474 81.1293 50.7978 80.4149 52.1546 80.4149C54.1909 80.4149 55.4049 82.0754 55.4049 84.9318C55.4049 87.3595 54.4407 89.4318 52.1017 89.4318C50.6369 89.4318 49.9585 88.6814 49.6019 87.931H49.5479C49.5479 88.5205 49.5118 89.038 49.477 89.2878H47.3517C47.4057 88.9672 47.4237 88.4137 47.4237 87.7882V76.5404H49.6907V76.5584ZM51.4762 87.8962C52.797 87.8962 53.1368 86.878 53.1368 84.8609C53.1368 83.1104 52.6901 81.9685 51.4402 81.9685C50.2083 81.9685 49.6907 83.2173 49.6907 84.9138C49.6907 86.5563 50.1554 87.8962 51.4762 87.8962ZM57.2792 76.8262H59.6182V78.8962H57.2781L57.2792 76.8262ZM57.3152 80.5578H59.5822V89.3058H57.3152V80.5578ZM62.6885 78.7544L64.9566 78.112V80.5578H66.832V82.0934H64.9566V86.6463C64.9566 87.5744 65.3144 87.8602 65.9748 87.8602C66.3674 87.8602 66.6712 87.7533 66.832 87.6633V89.1629C66.4923 89.3238 65.9928 89.4487 65.3132 89.4487C63.6358 89.4487 62.6896 88.7343 62.6896 86.8949V82.0934H61.1899V80.5578H62.6896L62.6885 78.7544ZM69.063 81.0573C69.7066 80.7895 70.5987 80.4149 72.0444 80.4149C74.9729 80.4149 75.6513 81.7537 75.6513 83.9317V87.7533C75.6513 88.3945 75.7233 88.9672 75.7773 89.3058H73.723C73.6161 88.9672 73.5992 88.5385 73.5992 88.1099H73.5632C72.9917 88.8243 72.2773 89.4307 70.9385 89.4307C69.4737 89.4307 68.1169 88.5025 68.1169 86.86C68.1169 84.4863 70.2061 83.8788 73.0626 83.8788H73.5272V83.557C73.5272 82.6818 73.0626 81.8965 71.7778 81.8965C70.6347 81.8965 69.6526 82.414 69.2059 82.7538L69.063 81.0573ZM73.5272 85.0207H73.3304C71.402 85.0207 70.2421 85.3964 70.2421 86.6812C70.2421 87.4855 70.8136 88.0199 71.6878 88.0199C73.0446 88.0199 73.5272 87.0918 73.5272 85.5213V85.0207ZM78.2052 78.7544L80.4722 78.112V80.5578H82.3477V82.0934H80.4722V86.6463C80.4722 87.5744 80.83 87.8602 81.4904 87.8602C81.901 87.8602 82.1868 87.7533 82.3477 87.6633V89.1629C82.0079 89.3238 81.5084 89.4487 80.8288 89.4487C79.1525 89.4487 78.2052 88.7343 78.2052 86.8949V82.0934H76.7055V80.5578H78.2052V78.7544ZM28.8716 76.5584H31.0148V81.9505H31.0497C31.3715 81.415 32.0319 80.4858 33.5676 80.4858C35.7277 80.4858 36.3712 81.9505 36.3712 83.6999V89.3058H34.0851V84.0937C34.0851 82.7549 33.7105 82.2014 32.7823 82.2014C31.5864 82.2014 31.1577 83.1295 31.1577 84.2377V89.3069H28.8716V76.5584ZM16.0168 89.002C15.641 89.1449 14.8917 89.4307 13.8375 89.4307C11.4985 89.4307 10.4635 87.8602 10.4635 86.0388C10.4635 84.0217 11.6065 82.45 13.4629 82.45C15.0346 82.45 16.3734 83.3073 16.3734 86.0748V86.3954H12.1769C12.1769 87.5564 12.6776 88.2517 14.0344 88.2517C15.1055 88.2517 15.6241 87.949 15.9447 87.7173L16.0168 89.002ZM14.6779 85.3604C14.6779 84.1645 14.2493 83.557 13.4629 83.557C12.5347 83.557 12.1601 84.4683 12.1601 85.3604H14.6779ZM90.9532 11.2477C90.9532 12.9982 89.3466 14.4089 87.3474 14.4089H76.7944C74.7952 14.4089 73.1875 12.9982 73.1875 11.2477V3.32092C73.1875 1.57154 74.8132 0.159668 76.7944 0.159668H87.3474C89.3286 0.159668 90.9532 1.57154 90.9532 3.32092V11.2477Z" fill="#55849D"/>
</g>
<defs>
<clipPath id="clip0_10872_10873">
<rect width="105" height="90" fill="white"/>
</clipPath>
</defs>
</svg>
