<svg width="375" height="279" viewBox="0 0 375 279" fill="none" xmlns="http://www.w3.org/2000/svg">
<g clip-path="url(#clip0_1405_54382)">
<path d="M99.6315 272.293H99.608C98.7925 272.292 98.0107 271.968 97.4341 271.391C96.8575 270.815 96.5331 270.033 96.5322 269.217V88.6536C96.5331 87.8382 96.8575 87.0564 97.4341 86.4798C98.0107 85.9031 98.7925 85.5788 99.608 85.5779H251.587C252.402 85.5788 253.184 85.9031 253.761 86.4797C254.337 87.0564 254.662 87.8382 254.662 88.6536V229.052C254.662 229.863 254.341 230.641 253.769 231.217C253.198 231.793 252.422 232.12 251.611 232.128L99.6315 272.293Z" fill="#F2F2F2"/>
<path d="M211.964 60.0672H141.402V19.1783C141.403 18.3149 141.747 17.4871 142.357 16.8766C142.968 16.266 143.795 15.9226 144.659 15.9216H208.707C209.57 15.9226 210.398 16.266 211.009 16.8766C211.619 17.4871 211.963 18.3149 211.964 19.1783V60.0672ZM142.126 59.3435H211.24V19.1783C211.239 18.5067 210.972 17.8629 210.497 17.388C210.022 16.9132 209.378 16.6461 208.707 16.6453H144.659C143.987 16.6461 143.343 16.9132 142.869 17.388C142.394 17.8629 142.127 18.5067 142.126 19.1783V59.3435Z" fill="#3F3D56"/>
<path d="M161.485 31.481H191.881C192.648 31.481 193.385 31.7859 193.927 32.3288C194.47 32.8717 194.775 33.608 194.775 34.3758V77.7981H158.59V34.3758C158.59 33.608 158.895 32.8717 159.438 32.3288C159.981 31.7859 160.717 31.481 161.485 31.481Z" fill="#E6E6E6"/>
<path d="M289.369 234.782C289.224 234.782 289.084 234.782 288.94 234.779C279.988 234.68 271.38 231.315 264.733 225.317C264.487 225.094 264.244 224.867 264.002 224.638L263.89 224.531V155.182L263.924 155.108C264.164 154.601 264.407 154.1 264.65 153.6C272.177 138.319 280.955 129.905 289.369 129.905C301.502 129.905 310.912 146.547 315.441 156.468C321.739 170.263 326.137 187.356 326.137 198.037C326.135 207.712 322.317 216.997 315.512 223.875C308.707 230.753 299.464 234.671 289.789 234.779C289.654 234.782 289.509 234.782 289.369 234.782ZM264.614 224.22C264.814 224.41 265.017 224.597 265.219 224.781C271.736 230.661 280.176 233.959 288.953 234.055C289.099 234.059 289.238 234.055 289.378 234.059C289.51 234.059 289.644 234.059 289.775 234.055C309.429 233.837 325.414 217.679 325.414 198.037C325.414 187.449 321.042 170.479 314.782 156.768C310.325 147.006 301.097 130.628 289.369 130.628C281.245 130.628 272.698 138.899 265.3 153.917C265.071 154.39 264.841 154.864 264.614 155.344L264.614 224.22Z" fill="#3F3D56"/>
<path d="M289.366 278.658C289.256 278.658 289.15 278.614 289.072 278.536C288.994 278.458 288.95 278.352 288.95 278.242V193.253C288.95 193.199 288.961 193.144 288.981 193.093C289.002 193.043 289.033 192.996 289.071 192.958C289.11 192.919 289.156 192.888 289.206 192.867C289.257 192.846 289.311 192.835 289.366 192.835C289.421 192.835 289.475 192.846 289.526 192.867C289.576 192.888 289.622 192.919 289.661 192.958C289.699 192.996 289.73 193.043 289.751 193.093C289.771 193.144 289.782 193.199 289.782 193.253V278.242C289.782 278.352 289.738 278.458 289.66 278.536C289.582 278.614 289.476 278.658 289.366 278.658V278.658Z" fill="#CCCCCC"/>
<path d="M73.3391 278.658C73.2286 278.658 73.1227 278.614 73.0446 278.536C72.9665 278.458 72.9226 278.352 72.9226 278.242V193.253C72.9223 193.199 72.9328 193.144 72.9536 193.093C72.9744 193.043 73.005 192.996 73.0437 192.958C73.0824 192.919 73.1285 192.888 73.1791 192.867C73.2298 192.846 73.2842 192.835 73.3391 192.835C73.394 192.835 73.4484 192.846 73.499 192.867C73.5497 192.888 73.5958 192.919 73.6345 192.958C73.6732 192.996 73.7038 193.043 73.7246 193.093C73.7454 193.144 73.7559 193.199 73.7556 193.253V278.242C73.7556 278.352 73.7117 278.458 73.6336 278.536C73.5555 278.614 73.4496 278.658 73.3391 278.658V278.658Z" fill="#CCCCCC"/>
<path d="M289.366 209.132C289.306 209.132 289.247 209.119 289.193 209.094C289.138 209.07 289.09 209.033 289.051 208.988L268.112 184.842C268.04 184.759 268.004 184.65 268.012 184.54C268.02 184.43 268.072 184.328 268.155 184.255C268.238 184.183 268.347 184.147 268.457 184.155C268.567 184.162 268.669 184.213 268.742 184.297L289.68 208.443C289.732 208.503 289.766 208.577 289.777 208.656C289.789 208.735 289.777 208.816 289.744 208.888C289.711 208.961 289.658 209.022 289.591 209.065C289.524 209.109 289.445 209.132 289.366 209.132V209.132Z" fill="#CCCCCC"/>
<path d="M289.367 223.068C289.284 223.068 289.204 223.043 289.135 222.998C289.067 222.952 289.014 222.887 288.982 222.811C288.951 222.735 288.942 222.651 288.958 222.57C288.974 222.49 289.014 222.415 289.072 222.357L300.97 210.459C301.048 210.382 301.153 210.338 301.264 210.338C301.374 210.339 301.479 210.382 301.557 210.46C301.635 210.538 301.679 210.644 301.679 210.754C301.68 210.864 301.636 210.97 301.558 211.048L289.661 222.946C289.622 222.985 289.577 223.015 289.526 223.036C289.476 223.057 289.421 223.068 289.367 223.068V223.068Z" fill="#CCCCCC"/>
<path d="M327.883 278.829H296.763V278.467C296.762 276.423 297.163 274.399 297.945 272.51C298.726 270.621 299.872 268.905 301.317 267.459C302.762 266.013 304.478 264.866 306.366 264.083C308.255 263.301 310.279 262.898 312.323 262.898C314.367 262.898 316.391 263.301 318.279 264.083C320.168 264.866 321.883 266.013 323.328 267.459C324.773 268.905 325.919 270.621 326.701 272.51C327.482 274.399 327.884 276.423 327.883 278.467L327.883 278.829ZM297.491 278.106H327.155C327.061 274.234 325.457 270.553 322.685 267.848C319.914 265.143 316.195 263.629 312.323 263.629C308.451 263.629 304.732 265.143 301.96 267.848C299.189 270.553 297.585 274.234 297.491 278.106H297.491Z" fill="#3F3D56"/>
<path d="M312.323 269.635C312.214 269.635 312.109 269.678 312.032 269.755C311.955 269.832 311.912 269.936 311.912 270.045V274.409L307.661 270.761C307.62 270.725 307.573 270.698 307.521 270.681C307.47 270.665 307.416 270.658 307.362 270.662C307.308 270.666 307.255 270.681 307.207 270.705C307.159 270.729 307.116 270.763 307.081 270.804C307.046 270.845 307.019 270.892 307.002 270.944C306.985 270.995 306.979 271.049 306.983 271.103C306.987 271.157 307.002 271.21 307.026 271.258C307.051 271.306 307.085 271.349 307.126 271.384L311.912 275.492V278.055C311.912 278.109 311.922 278.163 311.943 278.213C311.964 278.263 311.994 278.308 312.032 278.347C312.07 278.385 312.115 278.415 312.165 278.436C312.215 278.457 312.269 278.467 312.323 278.467C312.377 278.467 312.43 278.457 312.48 278.436C312.53 278.415 312.576 278.385 312.614 278.347C312.652 278.308 312.682 278.263 312.703 278.213C312.723 278.163 312.734 278.109 312.734 278.055V270.045C312.734 269.936 312.69 269.832 312.613 269.755C312.536 269.678 312.432 269.635 312.323 269.635Z" fill="#3F3D56"/>
<path d="M66.9877 278.829H35.8666V278.467C35.8656 276.423 36.2674 274.399 37.0489 272.51C37.8305 270.621 38.9765 268.905 40.4215 267.459C41.8665 266.013 43.5823 264.866 45.4706 264.083C47.359 263.301 49.3831 262.898 51.4271 262.898C53.4712 262.898 55.4953 263.301 57.3836 264.083C59.272 264.866 60.9878 266.013 62.4328 267.459C63.8778 268.905 65.0238 270.621 65.8054 272.51C66.5869 274.399 66.9887 276.423 66.9877 278.467L66.9877 278.829ZM36.5946 278.106H66.2597C66.1652 274.234 64.5611 270.553 61.7897 267.848C59.0184 265.143 55.2995 263.629 51.4271 263.629C47.5548 263.629 43.8359 265.143 41.0646 267.848C38.2932 270.553 36.689 274.234 36.5946 278.106H36.5946Z" fill="#3F3D56"/>
<path d="M51.427 269.635C51.3181 269.635 51.2136 269.678 51.1366 269.755C51.0595 269.832 51.0162 269.936 51.0162 270.045V274.409L46.7653 270.761C46.7244 270.725 46.677 270.698 46.6256 270.681C46.5743 270.665 46.5202 270.658 46.4663 270.662C46.4124 270.666 46.3599 270.681 46.3116 270.705C46.2634 270.729 46.2205 270.763 46.1853 270.804C46.1501 270.845 46.1233 270.892 46.1065 270.944C46.0897 270.995 46.0832 271.049 46.0874 271.103C46.0916 271.157 46.1063 271.21 46.1308 271.258C46.1553 271.306 46.1891 271.349 46.2302 271.384L51.0162 275.492V278.055C51.0161 278.109 51.0266 278.163 51.0471 278.213C51.0677 278.263 51.098 278.308 51.1361 278.347C51.1743 278.385 51.2196 278.415 51.2695 278.436C51.3195 278.457 51.373 278.467 51.427 278.467C51.4811 278.467 51.5346 278.457 51.5845 278.436C51.6344 278.415 51.6798 278.385 51.7179 278.347C51.7561 278.308 51.7863 278.263 51.8069 278.213C51.8275 278.163 51.838 278.109 51.8378 278.055V270.045C51.8378 269.936 51.7945 269.832 51.7175 269.755C51.6405 269.678 51.536 269.635 51.427 269.635V269.635Z" fill="#3F3D56"/>
<path d="M73.7028 234.782C73.5586 234.782 73.4182 234.782 73.274 234.779C63.5999 234.669 54.359 230.751 47.5555 223.873C40.7521 216.994 36.9346 207.711 36.9313 198.037C36.9313 187.356 41.33 170.262 47.6282 156.468C52.1575 146.547 61.5679 129.905 73.7028 129.905C78.7011 129.905 83.7342 132.753 88.6624 138.372C88.9068 138.649 89.1517 138.934 89.3931 139.227L89.4759 139.327V231.232L89.2718 231.33C89.0283 231.448 88.7812 231.559 88.5341 231.666C83.9929 233.676 79.0886 234.735 74.1228 234.779C73.9877 234.782 73.8433 234.782 73.7028 234.782ZM73.7028 130.628C61.9726 130.628 52.7437 147.006 48.2865 156.768C42.0268 170.479 37.655 187.449 37.655 198.037C37.655 217.676 53.6395 233.834 73.2871 234.055C73.4335 234.059 73.57 234.06 73.7124 234.059C73.8437 234.059 73.9784 234.059 74.1096 234.055C78.98 234.013 83.7901 232.974 88.2441 231.003C88.4148 230.929 88.5843 230.854 88.7522 230.776V139.588C88.5427 139.336 88.3308 139.09 88.119 138.85C83.3336 133.394 78.4835 130.628 73.7028 130.628V130.628Z" fill="#3F3D56"/>
<path d="M73.7015 209.132C73.6418 209.132 73.5828 209.119 73.5284 209.094C73.4741 209.07 73.4258 209.033 73.3867 208.988L52.4485 184.842C52.3765 184.759 52.3404 184.65 52.3484 184.54C52.3563 184.43 52.4076 184.328 52.4909 184.255C52.5742 184.183 52.6828 184.147 52.7928 184.155C52.9028 184.162 53.0053 184.213 53.0777 184.297L74.0159 208.443C74.0681 208.503 74.1019 208.577 74.1133 208.656C74.1247 208.735 74.1131 208.816 74.08 208.888C74.0469 208.961 73.9936 209.022 73.9265 209.065C73.8594 209.109 73.7813 209.132 73.7015 209.132V209.132Z" fill="#CCCCCC"/>
<path d="M73.7011 223.068C73.6187 223.068 73.5382 223.043 73.4698 222.998C73.4013 222.952 73.348 222.887 73.3165 222.811C73.285 222.735 73.2767 222.651 73.2928 222.57C73.3088 222.49 73.3485 222.415 73.4067 222.357L85.304 210.459C85.3822 210.382 85.4879 210.338 85.5981 210.338C85.7083 210.339 85.814 210.382 85.8919 210.46C85.9698 210.538 86.0137 210.644 86.0138 210.754C86.014 210.864 85.9704 210.97 85.8927 211.048L73.9954 222.946C73.9568 222.985 73.9109 223.015 73.8604 223.036C73.8099 223.057 73.7557 223.068 73.7011 223.068Z" fill="#CCCCCC"/>
<path d="M106.396 62.9625L106.664 63.4908C106.783 63.7188 106.845 63.972 106.845 64.229V78.5221H119.51V64.229C119.51 63.972 119.572 63.7188 119.691 63.4908L119.959 62.9625H106.396ZM118.786 64.229V77.7984H107.569V64.229C107.569 64.0461 107.547 63.8638 107.503 63.6862H118.851C118.808 63.8638 118.786 64.0461 118.786 64.229V64.229ZM122.318 62.9625L122.585 63.4908C122.704 63.7188 122.766 63.972 122.766 64.229V78.5221H135.431V64.229C135.431 63.972 135.494 63.7188 135.612 63.4908L135.88 62.9625H122.318ZM134.708 64.229V77.7984H123.49V64.229C123.49 64.0461 123.468 63.8638 123.425 63.6862H134.773C134.729 63.8638 134.707 64.0461 134.708 64.229V64.229ZM138.239 62.9625L138.507 63.4908C138.626 63.7188 138.688 63.972 138.688 64.229V78.5221H151.353V64.229C151.353 63.972 151.415 63.7188 151.534 63.4908L151.802 62.9625H138.239ZM150.629 64.229V77.7984H139.412V64.229C139.412 64.0461 139.39 63.8638 139.346 63.6862H150.694C150.651 63.8638 150.629 64.0461 150.629 64.229ZM154.161 62.9625L154.429 63.4908C154.547 63.7188 154.609 63.972 154.61 64.229V78.5221H167.274V64.229C167.275 63.972 167.337 63.7188 167.455 63.4908L167.723 62.9625H154.161ZM166.551 64.229V77.7984H155.333V64.229C155.333 64.0461 155.312 63.8638 155.268 63.6862H166.616C166.572 63.8638 166.551 64.0461 166.551 64.229ZM170.082 62.9625L170.35 63.4908C170.469 63.7188 170.531 63.972 170.531 64.229V78.5221H183.196V64.229C183.196 63.972 183.258 63.7188 183.377 63.4908L183.645 62.9625H170.082ZM182.472 64.229V77.7984H171.255V64.229C171.255 64.0461 171.233 63.8638 171.19 63.6862H182.537C182.494 63.8638 182.472 64.0461 182.472 64.229V64.229ZM186.004 62.9625L186.272 63.4908C186.39 63.7188 186.452 63.972 186.453 64.229V78.5221H199.118V64.229C199.118 63.972 199.18 63.7188 199.298 63.4908L199.566 62.9625H186.004ZM198.394 64.229V77.7984H187.176V64.229C187.177 64.0461 187.155 63.8638 187.111 63.6862H198.459C198.416 63.8638 198.394 64.0461 198.394 64.229V64.229ZM201.925 62.9625L202.193 63.4908C202.312 63.7188 202.374 63.972 202.374 64.229V78.5221H215.039V64.229C215.039 63.972 215.101 63.7188 215.22 63.4908L215.488 62.9625H201.925ZM214.315 64.229V77.7984H203.098V64.229C203.098 64.0461 203.076 63.8638 203.033 63.6862H214.381C214.337 63.8638 214.315 64.0461 214.315 64.229ZM217.847 62.9625L218.115 63.4908C218.234 63.7188 218.296 63.972 218.296 64.229V78.5221H230.961V64.229C230.961 63.972 231.023 63.7188 231.142 63.4908L231.409 62.9625H217.847ZM230.237 64.229V77.7984H219.019V64.229C219.02 64.0461 218.998 63.8638 218.954 63.6862H230.302C230.259 63.8638 230.237 64.0461 230.237 64.229ZM233.769 62.9625L234.036 63.4908C234.155 63.7188 234.217 63.972 234.217 64.229V78.5221H246.882V64.229C246.882 63.972 246.944 63.7188 247.063 63.4908L247.331 62.9625H233.769ZM246.158 64.229V77.7984H234.941V64.229C234.941 64.0461 234.919 63.8638 234.876 63.6862H246.224C246.18 63.8638 246.158 64.0461 246.158 64.229ZM233.769 62.9625L234.036 63.4908C234.155 63.7188 234.217 63.972 234.217 64.229V78.5221H246.882V64.229C246.882 63.972 246.944 63.7188 247.063 63.4908L247.331 62.9625H233.769ZM246.158 64.229V77.7984H234.941V64.229C234.941 64.0461 234.919 63.8638 234.876 63.6862H246.224C246.18 63.8638 246.158 64.0461 246.158 64.229ZM217.847 62.9625L218.115 63.4908C218.234 63.7188 218.296 63.972 218.296 64.229V78.5221H230.961V64.229C230.961 63.972 231.023 63.7188 231.142 63.4908L231.409 62.9625H217.847ZM230.237 64.229V77.7984H219.019V64.229C219.02 64.0461 218.998 63.8638 218.954 63.6862H230.302C230.259 63.8638 230.237 64.0461 230.237 64.229ZM201.925 62.9625L202.193 63.4908C202.312 63.7188 202.374 63.972 202.374 64.229V78.5221H215.039V64.229C215.039 63.972 215.101 63.7188 215.22 63.4908L215.488 62.9625H201.925ZM214.315 64.229V77.7984H203.098V64.229C203.098 64.0461 203.076 63.8638 203.033 63.6862H214.381C214.337 63.8638 214.315 64.0461 214.315 64.229ZM186.004 62.9625L186.272 63.4908C186.39 63.7188 186.452 63.972 186.453 64.229V78.5221H199.118V64.229C199.118 63.972 199.18 63.7188 199.298 63.4908L199.566 62.9625H186.004ZM198.394 64.229V77.7984H187.176V64.229C187.177 64.0461 187.155 63.8638 187.111 63.6862H198.459C198.416 63.8638 198.394 64.0461 198.394 64.229V64.229ZM170.082 62.9625L170.35 63.4908C170.469 63.7188 170.531 63.972 170.531 64.229V78.5221H183.196V64.229C183.196 63.972 183.258 63.7188 183.377 63.4908L183.645 62.9625H170.082ZM182.472 64.229V77.7984H171.255V64.229C171.255 64.0461 171.233 63.8638 171.19 63.6862H182.537C182.494 63.8638 182.472 64.0461 182.472 64.229V64.229ZM154.161 62.9625L154.429 63.4908C154.547 63.7188 154.609 63.972 154.61 64.229V78.5221H167.274V64.229C167.275 63.972 167.337 63.7188 167.455 63.4908L167.723 62.9625H154.161ZM166.551 64.229V77.7984H155.333V64.229C155.333 64.0461 155.312 63.8638 155.268 63.6862H166.616C166.572 63.8638 166.551 64.0461 166.551 64.229ZM138.239 62.9625L138.507 63.4908C138.626 63.7188 138.688 63.972 138.688 64.229V78.5221H151.353V64.229C151.353 63.972 151.415 63.7188 151.534 63.4908L151.802 62.9625H138.239ZM150.629 64.229V77.7984H139.412V64.229C139.412 64.0461 139.39 63.8638 139.346 63.6862H150.694C150.651 63.8638 150.629 64.0461 150.629 64.229ZM122.318 62.9625L122.585 63.4908C122.704 63.7188 122.766 63.972 122.766 64.229V78.5221H135.431V64.229C135.431 63.972 135.494 63.7188 135.612 63.4908L135.88 62.9625H122.318ZM134.708 64.229V77.7984H123.49V64.229C123.49 64.0461 123.468 63.8638 123.425 63.6862H134.773C134.729 63.8638 134.707 64.0461 134.708 64.229V64.229ZM106.396 62.9625L106.664 63.4908C106.783 63.7188 106.845 63.972 106.845 64.229V78.5221H119.51V64.229C119.51 63.972 119.572 63.7188 119.691 63.4908L119.959 62.9625H106.396ZM118.786 64.229V77.7984H107.569V64.229C107.569 64.0461 107.547 63.8638 107.503 63.6862H118.851C118.808 63.8638 118.786 64.0461 118.786 64.229V64.229ZM233.769 62.9625L234.036 63.4908C234.155 63.7188 234.217 63.972 234.217 64.229V78.5221H246.882V64.229C246.882 63.972 246.944 63.7188 247.063 63.4908L247.331 62.9625H233.769ZM246.158 64.229V77.7984H234.941V64.229C234.941 64.0461 234.919 63.8638 234.876 63.6862H246.224C246.18 63.8638 246.158 64.0461 246.158 64.229ZM217.847 62.9625L218.115 63.4908C218.234 63.7188 218.296 63.972 218.296 64.229V78.5221H230.961V64.229C230.961 63.972 231.023 63.7188 231.142 63.4908L231.409 62.9625H217.847ZM230.237 64.229V77.7984H219.019V64.229C219.02 64.0461 218.998 63.8638 218.954 63.6862H230.302C230.259 63.8638 230.237 64.0461 230.237 64.229ZM201.925 62.9625L202.193 63.4908C202.312 63.7188 202.374 63.972 202.374 64.229V78.5221H215.039V64.229C215.039 63.972 215.101 63.7188 215.22 63.4908L215.488 62.9625H201.925ZM214.315 64.229V77.7984H203.098V64.229C203.098 64.0461 203.076 63.8638 203.033 63.6862H214.381C214.337 63.8638 214.315 64.0461 214.315 64.229ZM186.004 62.9625L186.272 63.4908C186.39 63.7188 186.452 63.972 186.453 64.229V78.5221H199.118V64.229C199.118 63.972 199.18 63.7188 199.298 63.4908L199.566 62.9625H186.004ZM198.394 64.229V77.7984H187.176V64.229C187.177 64.0461 187.155 63.8638 187.111 63.6862H198.459C198.416 63.8638 198.394 64.0461 198.394 64.229V64.229ZM170.082 62.9625L170.35 63.4908C170.469 63.7188 170.531 63.972 170.531 64.229V78.5221H183.196V64.229C183.196 63.972 183.258 63.7188 183.377 63.4908L183.645 62.9625H170.082ZM182.472 64.229V77.7984H171.255V64.229C171.255 64.0461 171.233 63.8638 171.19 63.6862H182.537C182.494 63.8638 182.472 64.0461 182.472 64.229V64.229ZM154.161 62.9625L154.429 63.4908C154.547 63.7188 154.609 63.972 154.61 64.229V78.5221H167.274V64.229C167.275 63.972 167.337 63.7188 167.455 63.4908L167.723 62.9625H154.161ZM166.551 64.229V77.7984H155.333V64.229C155.333 64.0461 155.312 63.8638 155.268 63.6862H166.616C166.572 63.8638 166.551 64.0461 166.551 64.229ZM138.239 62.9625L138.507 63.4908C138.626 63.7188 138.688 63.972 138.688 64.229V78.5221H151.353V64.229C151.353 63.972 151.415 63.7188 151.534 63.4908L151.802 62.9625H138.239ZM150.629 64.229V77.7984H139.412V64.229C139.412 64.0461 139.39 63.8638 139.346 63.6862H150.694C150.651 63.8638 150.629 64.0461 150.629 64.229ZM122.318 62.9625L122.585 63.4908C122.704 63.7188 122.766 63.972 122.766 64.229V78.5221H135.431V64.229C135.431 63.972 135.494 63.7188 135.612 63.4908L135.88 62.9625H122.318ZM134.708 64.229V77.7984H123.49V64.229C123.49 64.0461 123.468 63.8638 123.425 63.6862H134.773C134.729 63.8638 134.707 64.0461 134.708 64.229V64.229ZM106.396 62.9625L106.664 63.4908C106.783 63.7188 106.845 63.972 106.845 64.229V78.5221H119.51V64.229C119.51 63.972 119.572 63.7188 119.691 63.4908L119.959 62.9625H106.396ZM118.786 64.229V77.7984H107.569V64.229C107.569 64.0461 107.547 63.8638 107.503 63.6862H118.851C118.808 63.8638 118.786 64.0461 118.786 64.229V64.229ZM233.769 62.9625L234.036 63.4908C234.155 63.7188 234.217 63.972 234.217 64.229V78.5221H246.882V64.229C246.882 63.972 246.944 63.7188 247.063 63.4908L247.331 62.9625H233.769ZM246.158 64.229V77.7984H234.941V64.229C234.941 64.0461 234.919 63.8638 234.876 63.6862H246.224C246.18 63.8638 246.158 64.0461 246.158 64.229ZM217.847 62.9625L218.115 63.4908C218.234 63.7188 218.296 63.972 218.296 64.229V78.5221H230.961V64.229C230.961 63.972 231.023 63.7188 231.142 63.4908L231.409 62.9625H217.847ZM230.237 64.229V77.7984H219.019V64.229C219.02 64.0461 218.998 63.8638 218.954 63.6862H230.302C230.259 63.8638 230.237 64.0461 230.237 64.229ZM201.925 62.9625L202.193 63.4908C202.312 63.7188 202.374 63.972 202.374 64.229V78.5221H215.039V64.229C215.039 63.972 215.101 63.7188 215.22 63.4908L215.488 62.9625H201.925ZM214.315 64.229V77.7984H203.098V64.229C203.098 64.0461 203.076 63.8638 203.033 63.6862H214.381C214.337 63.8638 214.315 64.0461 214.315 64.229ZM186.004 62.9625L186.272 63.4908C186.39 63.7188 186.452 63.972 186.453 64.229V78.5221H199.118V64.229C199.118 63.972 199.18 63.7188 199.298 63.4908L199.566 62.9625H186.004ZM198.394 64.229V77.7984H187.176V64.229C187.177 64.0461 187.155 63.8638 187.111 63.6862H198.459C198.416 63.8638 198.394 64.0461 198.394 64.229V64.229ZM170.082 62.9625L170.35 63.4908C170.469 63.7188 170.531 63.972 170.531 64.229V78.5221H183.196V64.229C183.196 63.972 183.258 63.7188 183.377 63.4908L183.645 62.9625H170.082ZM182.472 64.229V77.7984H171.255V64.229C171.255 64.0461 171.233 63.8638 171.19 63.6862H182.537C182.494 63.8638 182.472 64.0461 182.472 64.229V64.229ZM154.161 62.9625L154.429 63.4908C154.547 63.7188 154.609 63.972 154.61 64.229V78.5221H167.274V64.229C167.275 63.972 167.337 63.7188 167.455 63.4908L167.723 62.9625H154.161ZM166.551 64.229V77.7984H155.333V64.229C155.333 64.0461 155.312 63.8638 155.268 63.6862H166.616C166.572 63.8638 166.551 64.0461 166.551 64.229ZM138.239 62.9625L138.507 63.4908C138.626 63.7188 138.688 63.972 138.688 64.229V78.5221H151.353V64.229C151.353 63.972 151.415 63.7188 151.534 63.4908L151.802 62.9625H138.239ZM150.629 64.229V77.7984H139.412V64.229C139.412 64.0461 139.39 63.8638 139.346 63.6862H150.694C150.651 63.8638 150.629 64.0461 150.629 64.229ZM122.318 62.9625L122.585 63.4908C122.704 63.7188 122.766 63.972 122.766 64.229V78.5221H135.431V64.229C135.431 63.972 135.494 63.7188 135.612 63.4908L135.88 62.9625H122.318ZM134.708 64.229V77.7984H123.49V64.229C123.49 64.0461 123.468 63.8638 123.425 63.6862H134.773C134.729 63.8638 134.707 64.0461 134.708 64.229V64.229ZM106.396 62.9625L106.664 63.4908C106.783 63.7188 106.845 63.972 106.845 64.229V78.5221H119.51V64.229C119.51 63.972 119.572 63.7188 119.691 63.4908L119.959 62.9625H106.396ZM118.786 64.229V77.7984H107.569V64.229C107.569 64.0461 107.547 63.8638 107.503 63.6862H118.851C118.808 63.8638 118.786 64.0461 118.786 64.229V64.229ZM233.769 62.9625L234.036 63.4908C234.155 63.7188 234.217 63.972 234.217 64.229V78.5221H246.882V64.229C246.882 63.972 246.944 63.7188 247.063 63.4908L247.331 62.9625H233.769ZM246.158 64.229V77.7984H234.941V64.229C234.941 64.0461 234.919 63.8638 234.876 63.6862H246.224C246.18 63.8638 246.158 64.0461 246.158 64.229ZM217.847 62.9625L218.115 63.4908C218.234 63.7188 218.296 63.972 218.296 64.229V78.5221H230.961V64.229C230.961 63.972 231.023 63.7188 231.142 63.4908L231.409 62.9625H217.847ZM230.237 64.229V77.7984H219.019V64.229C219.02 64.0461 218.998 63.8638 218.954 63.6862H230.302C230.259 63.8638 230.237 64.0461 230.237 64.229ZM201.925 62.9625L202.193 63.4908C202.312 63.7188 202.374 63.972 202.374 64.229V78.5221H215.039V64.229C215.039 63.972 215.101 63.7188 215.22 63.4908L215.488 62.9625H201.925ZM214.315 64.229V77.7984H203.098V64.229C203.098 64.0461 203.076 63.8638 203.033 63.6862H214.381C214.337 63.8638 214.315 64.0461 214.315 64.229ZM186.004 62.9625L186.272 63.4908C186.39 63.7188 186.452 63.972 186.453 64.229V78.5221H199.118V64.229C199.118 63.972 199.18 63.7188 199.298 63.4908L199.566 62.9625H186.004ZM198.394 64.229V77.7984H187.176V64.229C187.177 64.0461 187.155 63.8638 187.111 63.6862H198.459C198.416 63.8638 198.394 64.0461 198.394 64.229V64.229ZM170.082 62.9625L170.35 63.4908C170.469 63.7188 170.531 63.972 170.531 64.229V78.5221H183.196V64.229C183.196 63.972 183.258 63.7188 183.377 63.4908L183.645 62.9625H170.082ZM182.472 64.229V77.7984H171.255V64.229C171.255 64.0461 171.233 63.8638 171.19 63.6862H182.537C182.494 63.8638 182.472 64.0461 182.472 64.229V64.229ZM154.161 62.9625L154.429 63.4908C154.547 63.7188 154.609 63.972 154.61 64.229V78.5221H167.274V64.229C167.275 63.972 167.337 63.7188 167.455 63.4908L167.723 62.9625H154.161ZM166.551 64.229V77.7984H155.333V64.229C155.333 64.0461 155.312 63.8638 155.268 63.6862H166.616C166.572 63.8638 166.551 64.0461 166.551 64.229ZM138.239 62.9625L138.507 63.4908C138.626 63.7188 138.688 63.972 138.688 64.229V78.5221H151.353V64.229C151.353 63.972 151.415 63.7188 151.534 63.4908L151.802 62.9625H138.239ZM150.629 64.229V77.7984H139.412V64.229C139.412 64.0461 139.39 63.8638 139.346 63.6862H150.694C150.651 63.8638 150.629 64.0461 150.629 64.229ZM122.318 62.9625L122.585 63.4908C122.704 63.7188 122.766 63.972 122.766 64.229V78.5221H135.431V64.229C135.431 63.972 135.494 63.7188 135.612 63.4908L135.88 62.9625H122.318ZM134.708 64.229V77.7984H123.49V64.229C123.49 64.0461 123.468 63.8638 123.425 63.6862H134.773C134.729 63.8638 134.707 64.0461 134.708 64.229V64.229ZM106.396 62.9625L106.664 63.4908C106.783 63.7188 106.845 63.972 106.845 64.229V78.5221H119.51V64.229C119.51 63.972 119.572 63.7188 119.691 63.4908L119.959 62.9625H106.396ZM118.786 64.229V77.7984H107.569V64.229C107.569 64.0461 107.547 63.8638 107.503 63.6862H118.851C118.808 63.8638 118.786 64.0461 118.786 64.229V64.229ZM233.769 62.9625L234.036 63.4908C234.155 63.7188 234.217 63.972 234.217 64.229V78.5221H246.882V64.229C246.882 63.972 246.944 63.7188 247.063 63.4908L247.331 62.9625H233.769ZM246.158 64.229V77.7984H234.941V64.229C234.941 64.0461 234.919 63.8638 234.876 63.6862H246.224C246.18 63.8638 246.158 64.0461 246.158 64.229ZM218.115 63.4908C218.234 63.7188 218.296 63.972 218.296 64.229V78.5221H230.961V64.229C230.961 63.972 231.023 63.7188 231.142 63.4908L231.409 62.9625H217.847L218.115 63.4908ZM230.302 63.6862C230.259 63.8638 230.237 64.0461 230.237 64.229V77.7984H219.019V64.229C219.02 64.0461 218.998 63.8638 218.954 63.6862H230.302ZM202.193 63.4908C202.312 63.7188 202.374 63.972 202.374 64.229V78.5221H215.039V64.229C215.039 63.972 215.101 63.7188 215.22 63.4908L215.488 62.9625H201.925L202.193 63.4908ZM214.381 63.6862C214.337 63.8638 214.315 64.0461 214.315 64.229V77.7984H203.098V64.229C203.098 64.0461 203.076 63.8638 203.033 63.6862H214.381ZM186.272 63.4908C186.39 63.7188 186.452 63.972 186.453 64.229V78.5221H199.118V64.229C199.118 63.972 199.18 63.7188 199.298 63.4908L199.566 62.9625H186.004L186.272 63.4908ZM198.459 63.6862C198.416 63.8638 198.394 64.0461 198.394 64.229V77.7984H187.176V64.229C187.177 64.0461 187.155 63.8638 187.111 63.6862H198.459ZM170.35 63.4908C170.469 63.7188 170.531 63.972 170.531 64.229V78.5221H183.196V64.229C183.196 63.972 183.258 63.7188 183.377 63.4908L183.645 62.9625H170.082L170.35 63.4908ZM182.537 63.6862C182.494 63.8638 182.472 64.0461 182.472 64.229V77.7984H171.255V64.229C171.255 64.0461 171.233 63.8638 171.19 63.6862H182.537ZM154.429 63.4908C154.547 63.7188 154.609 63.972 154.61 64.229V78.5221H167.274V64.229C167.275 63.972 167.337 63.7188 167.455 63.4908L167.723 62.9625H154.161L154.429 63.4908ZM166.616 63.6862C166.572 63.8638 166.551 64.0461 166.551 64.229V77.7984H155.333V64.229C155.333 64.0461 155.312 63.8638 155.268 63.6862H166.616ZM138.507 63.4908C138.626 63.7188 138.688 63.972 138.688 64.229V78.5221H151.353V64.229C151.353 63.972 151.415 63.7188 151.534 63.4908L151.802 62.9625H138.239L138.507 63.4908ZM150.694 63.6862C150.651 63.8638 150.629 64.0461 150.629 64.229V77.7984H139.412V64.229C139.412 64.0461 139.39 63.8638 139.346 63.6862H150.694ZM122.585 63.4908C122.704 63.7188 122.766 63.972 122.766 64.229V78.5221H135.431V64.229C135.431 63.972 135.494 63.7188 135.612 63.4908L135.88 62.9625H122.318L122.585 63.4908ZM134.773 63.6862C134.729 63.8638 134.707 64.0461 134.708 64.229V77.7984H123.49V64.229C123.49 64.0461 123.468 63.8638 123.425 63.6862H134.773ZM106.664 63.4908C106.783 63.7188 106.845 63.972 106.845 64.229V78.5221H119.51V64.229C119.51 63.972 119.572 63.7188 119.691 63.4908L119.959 62.9625H106.396L106.664 63.4908ZM118.851 63.6862C118.808 63.8638 118.786 64.0461 118.786 64.229V77.7984H107.569V64.229C107.569 64.0461 107.547 63.8638 107.503 63.6862H118.851ZM234.036 63.4908C234.155 63.7188 234.217 63.972 234.217 64.229V78.5221H246.882V64.229C246.882 63.972 246.944 63.7188 247.063 63.4908L247.331 62.9625H233.769L234.036 63.4908ZM246.224 63.6862C246.18 63.8638 246.158 64.0461 246.158 64.229V77.7984H234.941V64.229C234.941 64.0461 234.919 63.8638 234.876 63.6862H246.224ZM218.115 63.4908C218.234 63.7188 218.296 63.972 218.296 64.229V78.5221H230.961V64.229C230.961 63.972 231.023 63.7188 231.142 63.4908L231.409 62.9625H217.847L218.115 63.4908ZM230.302 63.6862C230.259 63.8638 230.237 64.0461 230.237 64.229V77.7984H219.019V64.229C219.02 64.0461 218.998 63.8638 218.954 63.6862H230.302ZM202.193 63.4908C202.312 63.7188 202.374 63.972 202.374 64.229V78.5221H215.039V64.229C215.039 63.972 215.101 63.7188 215.22 63.4908L215.488 62.9625H201.925L202.193 63.4908ZM214.381 63.6862C214.337 63.8638 214.315 64.0461 214.315 64.229V77.7984H203.098V64.229C203.098 64.0461 203.076 63.8638 203.033 63.6862H214.381ZM186.272 63.4908C186.39 63.7188 186.452 63.972 186.453 64.229V78.5221H199.118V64.229C199.118 63.972 199.18 63.7188 199.298 63.4908L199.566 62.9625H186.004L186.272 63.4908ZM198.459 63.6862C198.416 63.8638 198.394 64.0461 198.394 64.229V77.7984H187.176V64.229C187.177 64.0461 187.155 63.8638 187.111 63.6862H198.459ZM170.35 63.4908C170.469 63.7188 170.531 63.972 170.531 64.229V78.5221H183.196V64.229C183.196 63.972 183.258 63.7188 183.377 63.4908L183.645 62.9625H170.082L170.35 63.4908ZM182.537 63.6862C182.494 63.8638 182.472 64.0461 182.472 64.229V77.7984H171.255V64.229C171.255 64.0461 171.233 63.8638 171.19 63.6862H182.537ZM154.429 63.4908C154.547 63.7188 154.609 63.972 154.61 64.229V78.5221H167.274V64.229C167.275 63.972 167.337 63.7188 167.455 63.4908L167.723 62.9625H154.161L154.429 63.4908ZM166.616 63.6862C166.572 63.8638 166.551 64.0461 166.551 64.229V77.7984H155.333V64.229C155.333 64.0461 155.312 63.8638 155.268 63.6862H166.616ZM138.507 63.4908C138.626 63.7188 138.688 63.972 138.688 64.229V78.5221H151.353V64.229C151.353 63.972 151.415 63.7188 151.534 63.4908L151.802 62.9625H138.239L138.507 63.4908ZM150.694 63.6862C150.651 63.8638 150.629 64.0461 150.629 64.229V77.7984H139.412V64.229C139.412 64.0461 139.39 63.8638 139.346 63.6862H150.694ZM122.585 63.4908C122.704 63.7188 122.766 63.972 122.766 64.229V78.5221H135.431V64.229C135.431 63.972 135.494 63.7188 135.612 63.4908L135.88 62.9625H122.318L122.585 63.4908ZM134.773 63.6862C134.729 63.8638 134.707 64.0461 134.708 64.229V77.7984H123.49V64.229C123.49 64.0461 123.468 63.8638 123.425 63.6862H134.773ZM106.664 63.4908C106.783 63.7188 106.845 63.972 106.845 64.229V78.5221H119.51V64.229C119.51 63.972 119.572 63.7188 119.691 63.4908L119.959 62.9625H106.396L106.664 63.4908ZM118.851 63.6862C118.808 63.8638 118.786 64.0461 118.786 64.229V77.7984H107.569V64.229C107.569 64.0461 107.547 63.8638 107.503 63.6862H118.851ZM261.356 80.6932H257.043C256.805 79.8607 256.303 79.1282 255.613 78.6061C254.922 78.0839 254.08 77.8004 253.215 77.7984H250.863V64.229C250.864 63.9377 250.808 63.6489 250.7 63.3786C251.11 63.1372 251.429 62.7675 251.608 62.3267C251.787 61.8859 251.816 61.3984 251.69 60.9394C251.565 60.4804 251.292 60.0756 250.913 59.7872C250.535 59.4989 250.072 59.3431 249.596 59.344H104.131C103.655 59.3431 103.192 59.4989 102.814 59.7872C102.435 60.0756 102.162 60.4804 102.037 60.9394C101.911 61.3983 101.94 61.8859 102.119 62.3267C102.298 62.7675 102.617 63.1372 103.027 63.3786C102.919 63.6489 102.864 63.9377 102.864 64.229V77.7984H100.512C99.6467 77.8004 98.8051 78.0839 98.1145 78.6061C97.424 79.1282 96.9219 79.8607 96.684 80.6932H92.0089C91.1456 80.6945 90.318 81.038 89.7075 81.6484C89.097 82.2589 88.7535 83.0865 88.7522 83.9498V275.007C88.7541 275.87 89.0978 276.697 89.7081 277.307C90.3185 277.918 91.1457 278.261 92.0089 278.263H261.356C262.22 278.262 263.047 277.919 263.658 277.308C264.268 276.698 264.612 275.87 264.613 275.007V83.9498C264.612 83.0865 264.268 82.2589 263.658 81.6484C263.047 81.038 262.22 80.6945 261.356 80.6932V80.6932ZM263.889 275.007C263.889 275.524 263.73 276.028 263.434 276.453C263.139 276.877 262.721 277.201 262.236 277.38C261.955 277.487 261.657 277.541 261.356 277.54H92.0089C91.7084 277.541 91.4103 277.487 91.1295 277.38C90.6447 277.201 90.2264 276.877 89.9308 276.453C89.6352 276.028 89.4765 275.524 89.4759 275.007V83.9498C89.4767 83.2783 89.7438 82.6344 90.2186 82.1596C90.6935 81.6847 91.3373 81.4176 92.0089 81.4169H97.263L97.321 81.1274C97.4731 80.3928 97.8733 79.7329 98.4545 79.2585C99.0356 78.7841 99.7623 78.5241 100.512 78.5221H103.588V64.229C103.588 63.9345 103.668 63.6456 103.82 63.3931L104.044 63.0204L103.635 62.8684C103.316 62.7526 103.047 62.5277 102.877 62.2334C102.707 61.9392 102.646 61.5943 102.706 61.2596C102.765 60.925 102.94 60.6219 103.201 60.4039C103.462 60.1858 103.791 60.0668 104.131 60.0677H249.596C249.936 60.0668 250.265 60.1858 250.526 60.4039C250.787 60.6219 250.962 60.925 251.021 61.2596C251.081 61.5943 251.02 61.9392 250.85 62.2334C250.68 62.5277 250.411 62.7526 250.092 62.8684L249.683 63.0204L249.907 63.3931C250.059 63.6456 250.139 63.9345 250.139 64.229V78.5221H253.215C253.965 78.524 254.691 78.7841 255.273 79.2585C255.854 79.7329 256.254 80.3928 256.406 81.1274L256.464 81.4169H261.356C262.028 81.4176 262.672 81.6847 263.147 82.1596C263.621 82.6344 263.889 83.2783 263.889 83.9498L263.889 275.007ZM106.396 62.9625L106.664 63.4908C106.783 63.7188 106.845 63.972 106.845 64.229V78.5221H119.51V64.229C119.51 63.972 119.572 63.7188 119.691 63.4908L119.959 62.9625H106.396ZM118.786 64.229V77.7984H107.569V64.229C107.569 64.0461 107.547 63.8638 107.503 63.6862H118.851C118.808 63.8638 118.786 64.0461 118.786 64.229V64.229ZM122.318 62.9625L122.585 63.4908C122.704 63.7188 122.766 63.972 122.766 64.229V78.5221H135.431V64.229C135.431 63.972 135.494 63.7188 135.612 63.4908L135.88 62.9625H122.318ZM134.708 64.229V77.7984H123.49V64.229C123.49 64.0461 123.468 63.8638 123.425 63.6862H134.773C134.729 63.8638 134.707 64.0461 134.708 64.229V64.229ZM138.239 62.9625L138.507 63.4908C138.626 63.7188 138.688 63.972 138.688 64.229V78.5221H151.353V64.229C151.353 63.972 151.415 63.7188 151.534 63.4908L151.802 62.9625H138.239ZM150.629 64.229V77.7984H139.412V64.229C139.412 64.0461 139.39 63.8638 139.346 63.6862H150.694C150.651 63.8638 150.629 64.0461 150.629 64.229V64.229ZM154.161 62.9625L154.429 63.4908C154.547 63.7188 154.609 63.972 154.61 64.229V78.5221H167.274V64.229C167.275 63.972 167.337 63.7188 167.455 63.4908L167.723 62.9625H154.161ZM166.551 64.229V77.7984H155.333V64.229C155.333 64.0461 155.312 63.8638 155.268 63.6862H166.616C166.572 63.8638 166.551 64.0461 166.551 64.229V64.229ZM170.082 62.9625L170.35 63.4908C170.469 63.7188 170.531 63.972 170.531 64.229V78.5221H183.196V64.229C183.196 63.972 183.258 63.7188 183.377 63.4908L183.645 62.9625H170.082ZM182.472 64.229V77.7984H171.255V64.229C171.255 64.0461 171.233 63.8638 171.19 63.6862H182.537C182.494 63.8638 182.472 64.0461 182.472 64.229V64.229ZM186.004 62.9625L186.272 63.4908C186.39 63.7188 186.452 63.972 186.453 64.229V78.5221H199.118V64.229C199.118 63.972 199.18 63.7188 199.298 63.4908L199.566 62.9625H186.004ZM198.394 64.229V77.7984H187.176V64.229C187.177 64.0461 187.155 63.8638 187.111 63.6862H198.459C198.416 63.8638 198.394 64.0461 198.394 64.229V64.229ZM201.925 62.9625L202.193 63.4908C202.312 63.7188 202.374 63.972 202.374 64.229V78.5221H215.039V64.229C215.039 63.972 215.101 63.7188 215.22 63.4908L215.488 62.9625H201.925ZM214.315 64.229V77.7984H203.098V64.229C203.098 64.0461 203.076 63.8638 203.033 63.6862H214.381C214.337 63.8638 214.315 64.0461 214.315 64.229V64.229ZM217.847 62.9625L218.115 63.4908C218.234 63.7188 218.296 63.972 218.296 64.229V78.5221H230.961V64.229C230.961 63.972 231.023 63.7188 231.142 63.4908L231.409 62.9625H217.847ZM230.237 64.229V77.7984H219.019V64.229C219.02 64.0461 218.998 63.8638 218.954 63.6862H230.302C230.259 63.8638 230.237 64.0461 230.237 64.229V64.229ZM233.769 62.9625L234.036 63.4908C234.155 63.7188 234.217 63.972 234.217 64.229V78.5221H246.882V64.229C246.882 63.972 246.944 63.7188 247.063 63.4908L247.331 62.9625H233.769ZM246.158 64.229V77.7984H234.941V64.229C234.941 64.0461 234.919 63.8638 234.876 63.6862H246.224C246.18 63.8638 246.158 64.0461 246.158 64.229V64.229ZM106.396 62.9625L106.664 63.4908C106.783 63.7188 106.845 63.972 106.845 64.229V78.5221H119.51V64.229C119.51 63.972 119.572 63.7188 119.691 63.4908L119.959 62.9625H106.396ZM118.786 64.229V77.7984H107.569V64.229C107.569 64.0461 107.547 63.8638 107.503 63.6862H118.851C118.808 63.8638 118.786 64.0461 118.786 64.229V64.229ZM122.318 62.9625L122.585 63.4908C122.704 63.7188 122.766 63.972 122.766 64.229V78.5221H135.431V64.229C135.431 63.972 135.494 63.7188 135.612 63.4908L135.88 62.9625H122.318ZM134.708 64.229V77.7984H123.49V64.229C123.49 64.0461 123.468 63.8638 123.425 63.6862H134.773C134.729 63.8638 134.707 64.0461 134.708 64.229V64.229ZM138.239 62.9625L138.507 63.4908C138.626 63.7188 138.688 63.972 138.688 64.229V78.5221H151.353V64.229C151.353 63.972 151.415 63.7188 151.534 63.4908L151.802 62.9625H138.239ZM150.629 64.229V77.7984H139.412V64.229C139.412 64.0461 139.39 63.8638 139.346 63.6862H150.694C150.651 63.8638 150.629 64.0461 150.629 64.229V64.229ZM154.161 62.9625L154.429 63.4908C154.547 63.7188 154.609 63.972 154.61 64.229V78.5221H167.274V64.229C167.275 63.972 167.337 63.7188 167.455 63.4908L167.723 62.9625H154.161ZM166.551 64.229V77.7984H155.333V64.229C155.333 64.0461 155.312 63.8638 155.268 63.6862H166.616C166.572 63.8638 166.551 64.0461 166.551 64.229V64.229ZM170.082 62.9625L170.35 63.4908C170.469 63.7188 170.531 63.972 170.531 64.229V78.5221H183.196V64.229C183.196 63.972 183.258 63.7188 183.377 63.4908L183.645 62.9625H170.082ZM182.472 64.229V77.7984H171.255V64.229C171.255 64.0461 171.233 63.8638 171.19 63.6862H182.537C182.494 63.8638 182.472 64.0461 182.472 64.229V64.229ZM186.004 62.9625L186.272 63.4908C186.39 63.7188 186.452 63.972 186.453 64.229V78.5221H199.118V64.229C199.118 63.972 199.18 63.7188 199.298 63.4908L199.566 62.9625H186.004ZM198.394 64.229V77.7984H187.176V64.229C187.177 64.0461 187.155 63.8638 187.111 63.6862H198.459C198.416 63.8638 198.394 64.0461 198.394 64.229V64.229ZM201.925 62.9625L202.193 63.4908C202.312 63.7188 202.374 63.972 202.374 64.229V78.5221H215.039V64.229C215.039 63.972 215.101 63.7188 215.22 63.4908L215.488 62.9625H201.925ZM214.315 64.229V77.7984H203.098V64.229C203.098 64.0461 203.076 63.8638 203.033 63.6862H214.381C214.337 63.8638 214.315 64.0461 214.315 64.229V64.229ZM217.847 62.9625L218.115 63.4908C218.234 63.7188 218.296 63.972 218.296 64.229V78.5221H230.961V64.229C230.961 63.972 231.023 63.7188 231.142 63.4908L231.409 62.9625H217.847ZM230.237 64.229V77.7984H219.019V64.229C219.02 64.0461 218.998 63.8638 218.954 63.6862H230.302C230.259 63.8638 230.237 64.0461 230.237 64.229V64.229ZM233.769 62.9625L234.036 63.4908C234.155 63.7188 234.217 63.972 234.217 64.229V78.5221H246.882V64.229C246.882 63.972 246.944 63.7188 247.063 63.4908L247.331 62.9625H233.769ZM246.158 64.229V77.7984H234.941V64.229C234.941 64.0461 234.919 63.8638 234.876 63.6862H246.224C246.18 63.8638 246.158 64.0461 246.158 64.229V64.229ZM106.396 62.9625L106.664 63.4908C106.783 63.7188 106.845 63.972 106.845 64.229V78.5221H119.51V64.229C119.51 63.972 119.572 63.7188 119.691 63.4908L119.959 62.9625H106.396ZM118.786 64.229V77.7984H107.569V64.229C107.569 64.0461 107.547 63.8638 107.503 63.6862H118.851C118.808 63.8638 118.786 64.0461 118.786 64.229V64.229ZM122.318 62.9625L122.585 63.4908C122.704 63.7188 122.766 63.972 122.766 64.229V78.5221H135.431V64.229C135.431 63.972 135.494 63.7188 135.612 63.4908L135.88 62.9625H122.318ZM134.708 64.229V77.7984H123.49V64.229C123.49 64.0461 123.468 63.8638 123.425 63.6862H134.773C134.729 63.8638 134.707 64.0461 134.708 64.229V64.229ZM138.239 62.9625L138.507 63.4908C138.626 63.7188 138.688 63.972 138.688 64.229V78.5221H151.353V64.229C151.353 63.972 151.415 63.7188 151.534 63.4908L151.802 62.9625H138.239ZM150.629 64.229V77.7984H139.412V64.229C139.412 64.0461 139.39 63.8638 139.346 63.6862H150.694C150.651 63.8638 150.629 64.0461 150.629 64.229V64.229ZM154.161 62.9625L154.429 63.4908C154.547 63.7188 154.609 63.972 154.61 64.229V78.5221H167.274V64.229C167.275 63.972 167.337 63.7188 167.455 63.4908L167.723 62.9625H154.161ZM166.551 64.229V77.7984H155.333V64.229C155.333 64.0461 155.312 63.8638 155.268 63.6862H166.616C166.572 63.8638 166.551 64.0461 166.551 64.229V64.229ZM170.082 62.9625L170.35 63.4908C170.469 63.7188 170.531 63.972 170.531 64.229V78.5221H183.196V64.229C183.196 63.972 183.258 63.7188 183.377 63.4908L183.645 62.9625H170.082ZM182.472 64.229V77.7984H171.255V64.229C171.255 64.0461 171.233 63.8638 171.19 63.6862H182.537C182.494 63.8638 182.472 64.0461 182.472 64.229V64.229ZM186.004 62.9625L186.272 63.4908C186.39 63.7188 186.452 63.972 186.453 64.229V78.5221H199.118V64.229C199.118 63.972 199.18 63.7188 199.298 63.4908L199.566 62.9625H186.004ZM198.394 64.229V77.7984H187.176V64.229C187.177 64.0461 187.155 63.8638 187.111 63.6862H198.459C198.416 63.8638 198.394 64.0461 198.394 64.229V64.229ZM201.925 62.9625L202.193 63.4908C202.312 63.7188 202.374 63.972 202.374 64.229V78.5221H215.039V64.229C215.039 63.972 215.101 63.7188 215.22 63.4908L215.488 62.9625H201.925ZM214.315 64.229V77.7984H203.098V64.229C203.098 64.0461 203.076 63.8638 203.033 63.6862H214.381C214.337 63.8638 214.315 64.0461 214.315 64.229V64.229ZM217.847 62.9625L218.115 63.4908C218.234 63.7188 218.296 63.972 218.296 64.229V78.5221H230.961V64.229C230.961 63.972 231.023 63.7188 231.142 63.4908L231.409 62.9625H217.847ZM230.237 64.229V77.7984H219.019V64.229C219.02 64.0461 218.998 63.8638 218.954 63.6862H230.302C230.259 63.8638 230.237 64.0461 230.237 64.229V64.229ZM233.769 62.9625L234.036 63.4908C234.155 63.7188 234.217 63.972 234.217 64.229V78.5221H246.882V64.229C246.882 63.972 246.944 63.7188 247.063 63.4908L247.331 62.9625H233.769ZM246.158 64.229V77.7984H234.941V64.229C234.941 64.0461 234.919 63.8638 234.876 63.6862H246.224C246.18 63.8638 246.158 64.0461 246.158 64.229V64.229ZM106.396 62.9625L106.664 63.4908C106.783 63.7188 106.845 63.972 106.845 64.229V78.5221H119.51V64.229C119.51 63.972 119.572 63.7188 119.691 63.4908L119.959 62.9625H106.396ZM118.786 64.229V77.7984H107.569V64.229C107.569 64.0461 107.547 63.8638 107.503 63.6862H118.851C118.808 63.8638 118.786 64.0461 118.786 64.229V64.229ZM122.318 62.9625L122.585 63.4908C122.704 63.7188 122.766 63.972 122.766 64.229V78.5221H135.431V64.229C135.431 63.972 135.494 63.7188 135.612 63.4908L135.88 62.9625H122.318ZM134.708 64.229V77.7984H123.49V64.229C123.49 64.0461 123.468 63.8638 123.425 63.6862H134.773C134.729 63.8638 134.707 64.0461 134.708 64.229V64.229ZM138.239 62.9625L138.507 63.4908C138.626 63.7188 138.688 63.972 138.688 64.229V78.5221H151.353V64.229C151.353 63.972 151.415 63.7188 151.534 63.4908L151.802 62.9625H138.239ZM150.629 64.229V77.7984H139.412V64.229C139.412 64.0461 139.39 63.8638 139.346 63.6862H150.694C150.651 63.8638 150.629 64.0461 150.629 64.229V64.229ZM154.161 62.9625L154.429 63.4908C154.547 63.7188 154.609 63.972 154.61 64.229V78.5221H167.274V64.229C167.275 63.972 167.337 63.7188 167.455 63.4908L167.723 62.9625H154.161ZM166.551 64.229V77.7984H155.333V64.229C155.333 64.0461 155.312 63.8638 155.268 63.6862H166.616C166.572 63.8638 166.551 64.0461 166.551 64.229V64.229ZM170.082 62.9625L170.35 63.4908C170.469 63.7188 170.531 63.972 170.531 64.229V78.5221H183.196V64.229C183.196 63.972 183.258 63.7188 183.377 63.4908L183.645 62.9625H170.082ZM182.472 64.229V77.7984H171.255V64.229C171.255 64.0461 171.233 63.8638 171.19 63.6862H182.537C182.494 63.8638 182.472 64.0461 182.472 64.229V64.229ZM186.004 62.9625L186.272 63.4908C186.39 63.7188 186.452 63.972 186.453 64.229V78.5221H199.118V64.229C199.118 63.972 199.18 63.7188 199.298 63.4908L199.566 62.9625H186.004ZM198.394 64.229V77.7984H187.176V64.229C187.177 64.0461 187.155 63.8638 187.111 63.6862H198.459C198.416 63.8638 198.394 64.0461 198.394 64.229V64.229ZM201.925 62.9625L202.193 63.4908C202.312 63.7188 202.374 63.972 202.374 64.229V78.5221H215.039V64.229C215.039 63.972 215.101 63.7188 215.22 63.4908L215.488 62.9625H201.925ZM214.315 64.229V77.7984H203.098V64.229C203.098 64.0461 203.076 63.8638 203.033 63.6862H214.381C214.337 63.8638 214.315 64.0461 214.315 64.229V64.229ZM217.847 62.9625L218.115 63.4908C218.234 63.7188 218.296 63.972 218.296 64.229V78.5221H230.961V64.229C230.961 63.972 231.023 63.7188 231.142 63.4908L231.409 62.9625H217.847ZM230.237 64.229V77.7984H219.019V64.229C219.02 64.0461 218.998 63.8638 218.954 63.6862H230.302C230.259 63.8638 230.237 64.0461 230.237 64.229V64.229ZM233.769 62.9625L234.036 63.4908C234.155 63.7188 234.217 63.972 234.217 64.229V78.5221H246.882V64.229C246.882 63.972 246.944 63.7188 247.063 63.4908L247.331 62.9625H233.769ZM246.158 64.229V77.7984H234.941V64.229C234.941 64.0461 234.919 63.8638 234.876 63.6862H246.224C246.18 63.8638 246.158 64.0461 246.158 64.229V64.229Z" fill="#3F3D56"/>
<path d="M190.025 126.286H163.34C162.778 126.285 162.24 126.062 161.842 125.664C161.445 125.267 161.221 124.728 161.221 124.166V109.952C161.221 109.39 161.445 108.851 161.842 108.453C162.24 108.056 162.778 107.832 163.34 107.832H190.025C190.587 107.832 191.126 108.056 191.523 108.453C191.92 108.851 192.144 109.39 192.145 109.952V124.166C192.144 124.728 191.92 125.267 191.523 125.664C191.126 126.062 190.587 126.285 190.025 126.286V126.286Z" fill="#6C63FF"/>
<path d="M237.232 126.286H210.547C209.985 126.285 209.446 126.062 209.049 125.664C208.652 125.267 208.428 124.728 208.427 124.166V109.952C208.428 109.39 208.652 108.851 209.049 108.453C209.446 108.056 209.985 107.832 210.547 107.832H237.232C237.794 107.832 238.333 108.056 238.73 108.453C239.127 108.851 239.351 109.39 239.352 109.952V124.166C239.351 124.728 239.127 125.267 238.73 125.664C238.333 126.062 237.794 126.285 237.232 126.286V126.286Z" fill="#6C63FF"/>
<path d="M142.788 173.689H116.104C115.542 173.688 115.003 173.464 114.605 173.067C114.208 172.67 113.984 172.131 113.984 171.569V157.354C113.984 156.792 114.208 156.253 114.605 155.856C115.003 155.458 115.542 155.235 116.104 155.234H142.788C143.35 155.235 143.888 155.458 144.286 155.856C144.683 156.253 144.907 156.792 144.907 157.354V171.569C144.907 172.131 144.683 172.67 144.286 173.067C143.888 173.464 143.35 173.688 142.788 173.689V173.689Z" fill="#6C63FF"/>
<path d="M190.025 173.689H163.34C162.778 173.688 162.24 173.464 161.842 173.067C161.445 172.67 161.221 172.131 161.221 171.569V157.354C161.221 156.792 161.445 156.253 161.842 155.856C162.24 155.458 162.778 155.235 163.34 155.234H190.025C190.587 155.235 191.126 155.458 191.523 155.856C191.92 156.253 192.144 156.792 192.145 157.354V171.569C192.144 172.131 191.92 172.67 191.523 173.067C191.126 173.464 190.587 173.688 190.025 173.689V173.689Z" fill="#6C63FF"/>
<path d="M237.232 173.689H210.547C209.985 173.688 209.446 173.464 209.049 173.067C208.652 172.67 208.428 172.131 208.427 171.569V157.354C208.428 156.792 208.652 156.253 209.049 155.856C209.446 155.458 209.985 155.235 210.547 155.234H237.232C237.794 155.235 238.333 155.458 238.73 155.856C239.127 156.253 239.351 156.792 239.352 157.354V171.569C239.351 172.131 239.127 172.67 238.73 173.067C238.333 173.464 237.794 173.688 237.232 173.689V173.689Z" fill="#6C63FF"/>
<path d="M142.788 221.092H116.104C115.542 221.091 115.003 220.868 114.605 220.47C114.208 220.073 113.984 219.534 113.984 218.972V204.756C113.984 204.194 114.208 203.655 114.605 203.258C115.003 202.861 115.542 202.637 116.104 202.636H142.788C143.35 202.637 143.888 202.861 144.286 203.258C144.683 203.655 144.907 204.194 144.907 204.756V218.972C144.907 219.534 144.683 220.073 144.286 220.47C143.888 220.868 143.35 221.091 142.788 221.092V221.092Z" fill="#6C63FF"/>
<path d="M190.025 221.092H163.34C162.778 221.091 162.24 220.868 161.842 220.47C161.445 220.073 161.221 219.534 161.221 218.972V204.756C161.221 204.194 161.445 203.655 161.842 203.258C162.24 202.861 162.778 202.637 163.34 202.636H190.025C190.587 202.637 191.126 202.861 191.523 203.258C191.92 203.655 192.144 204.194 192.145 204.756V218.972C192.144 219.534 191.92 220.073 191.523 220.47C191.126 220.868 190.587 221.091 190.025 221.092V221.092Z" fill="#6C63FF"/>
<path d="M237.232 221.092H210.547C209.985 221.091 209.446 220.868 209.049 220.47C208.652 220.073 208.428 219.534 208.427 218.972V204.756C208.428 204.194 208.652 203.655 209.049 203.258C209.446 202.861 209.985 202.637 210.547 202.636H237.232C237.794 202.637 238.333 202.861 238.73 203.258C239.127 203.655 239.351 204.194 239.352 204.756V218.972C239.351 219.534 239.127 220.073 238.73 220.47C238.333 220.868 237.794 221.091 237.232 221.092V221.092Z" fill="#6C63FF"/>
<path d="M145.098 128.109H114.186C113.439 128.109 112.723 127.811 112.194 127.283C111.666 126.755 111.369 126.039 111.368 125.292V108.826C111.369 108.079 111.666 107.362 112.194 106.834C112.723 106.306 113.439 106.009 114.186 106.008H145.098C145.845 106.009 146.561 106.306 147.089 106.834C147.617 107.362 147.915 108.079 147.915 108.826V125.292C147.915 126.039 147.617 126.755 147.089 127.283C146.561 127.811 145.845 128.109 145.098 128.109V128.109ZM114.186 106.732C113.631 106.732 113.098 106.953 112.706 107.346C112.313 107.738 112.093 108.27 112.092 108.826V125.292C112.093 125.847 112.313 126.379 112.706 126.772C113.098 127.164 113.631 127.385 114.186 127.386H145.098C145.653 127.385 146.185 127.164 146.578 126.772C146.97 126.379 147.191 125.847 147.192 125.292V108.826C147.191 108.27 146.97 107.738 146.578 107.346C146.185 106.953 145.653 106.732 145.098 106.732H114.186Z" fill="#3F3D56"/>
<path d="M192.139 128.109H161.226C160.479 128.109 159.763 127.811 159.235 127.283C158.707 126.755 158.41 126.039 158.409 125.292V108.826C158.41 108.079 158.707 107.362 159.235 106.834C159.763 106.306 160.479 106.009 161.226 106.008H192.139C192.886 106.009 193.602 106.306 194.13 106.834C194.658 107.362 194.956 108.079 194.956 108.826V125.292C194.956 126.039 194.658 126.755 194.13 127.283C193.602 127.811 192.886 128.109 192.139 128.109ZM161.226 106.732C160.671 106.732 160.139 106.953 159.746 107.346C159.354 107.738 159.133 108.27 159.132 108.826V125.292C159.133 125.847 159.354 126.379 159.746 126.772C160.139 127.164 160.671 127.385 161.226 127.386H192.139C192.694 127.385 193.226 127.164 193.619 126.772C194.011 126.379 194.232 125.847 194.233 125.292V108.826C194.232 108.27 194.011 107.738 193.619 107.346C193.226 106.953 192.694 106.732 192.139 106.732H161.226Z" fill="#3F3D56"/>
<path d="M239.18 128.109H208.267C207.52 128.109 206.804 127.811 206.276 127.283C205.748 126.755 205.451 126.039 205.45 125.292V108.826C205.451 108.079 205.748 107.362 206.276 106.834C206.804 106.306 207.52 106.009 208.267 106.008H239.18C239.927 106.009 240.643 106.306 241.171 106.834C241.699 107.362 241.996 108.079 241.997 108.826V125.292C241.996 126.039 241.699 126.755 241.171 127.283C240.643 127.811 239.927 128.109 239.18 128.109ZM208.267 106.732C207.712 106.732 207.18 106.953 206.788 107.346C206.395 107.738 206.174 108.27 206.174 108.826V125.292C206.174 125.847 206.395 126.379 206.788 126.772C207.18 127.164 207.712 127.385 208.267 127.386H239.18C239.735 127.385 240.267 127.164 240.66 126.772C241.052 126.379 241.273 125.847 241.273 125.292V108.826C241.273 108.27 241.052 107.738 240.66 107.346C240.267 106.953 239.735 106.732 239.18 106.732H208.267Z" fill="#3F3D56"/>
<path d="M145.098 175.512H114.186C113.439 175.512 112.723 175.214 112.194 174.686C111.666 174.158 111.369 173.442 111.368 172.695V156.228C111.369 155.481 111.666 154.765 112.194 154.236C112.723 153.708 113.439 153.411 114.186 153.41H145.098C145.845 153.411 146.561 153.708 147.089 154.236C147.617 154.765 147.915 155.481 147.915 156.228V172.695C147.915 173.442 147.617 174.158 147.089 174.686C146.561 175.214 145.845 175.512 145.098 175.512V175.512ZM114.186 154.134C113.631 154.134 113.098 154.355 112.706 154.748C112.313 155.14 112.093 155.673 112.092 156.228V172.695C112.093 173.25 112.313 173.782 112.706 174.175C113.098 174.567 113.631 174.788 114.186 174.789H145.098C145.653 174.788 146.185 174.567 146.578 174.175C146.97 173.782 147.191 173.25 147.192 172.695V156.228C147.191 155.673 146.97 155.14 146.578 154.748C146.185 154.355 145.653 154.134 145.098 154.134H114.186Z" fill="#3F3D56"/>
<path d="M192.139 175.512H161.226C160.479 175.512 159.763 175.214 159.235 174.686C158.707 174.158 158.41 173.442 158.409 172.695V156.228C158.41 155.481 158.707 154.765 159.235 154.236C159.763 153.708 160.479 153.411 161.226 153.41H192.139C192.886 153.411 193.602 153.708 194.13 154.236C194.658 154.765 194.956 155.481 194.956 156.228V172.695C194.956 173.442 194.658 174.158 194.13 174.686C193.602 175.214 192.886 175.512 192.139 175.512ZM161.226 154.134C160.671 154.134 160.139 154.355 159.746 154.748C159.354 155.14 159.133 155.673 159.132 156.228V172.695C159.133 173.25 159.354 173.782 159.746 174.175C160.139 174.567 160.671 174.788 161.226 174.789H192.139C192.694 174.788 193.226 174.567 193.619 174.175C194.011 173.782 194.232 173.25 194.233 172.695V156.228C194.232 155.673 194.011 155.14 193.619 154.748C193.226 154.355 192.694 154.134 192.139 154.134H161.226Z" fill="#3F3D56"/>
<path d="M239.18 175.512H208.267C207.52 175.512 206.804 175.214 206.276 174.686C205.748 174.158 205.451 173.442 205.45 172.695V156.228C205.451 155.481 205.748 154.765 206.276 154.236C206.804 153.708 207.52 153.411 208.267 153.41H239.18C239.927 153.411 240.643 153.708 241.171 154.236C241.699 154.765 241.996 155.481 241.997 156.228V172.695C241.996 173.442 241.699 174.158 241.171 174.686C240.643 175.214 239.927 175.512 239.18 175.512ZM208.267 154.134C207.712 154.134 207.18 154.355 206.788 154.748C206.395 155.14 206.174 155.673 206.174 156.228V172.695C206.174 173.25 206.395 173.782 206.788 174.175C207.18 174.567 207.712 174.788 208.267 174.789H239.18C239.735 174.788 240.267 174.567 240.66 174.175C241.052 173.782 241.273 173.25 241.273 172.695V156.228C241.273 155.673 241.052 155.14 240.66 154.748C240.267 154.355 239.735 154.134 239.18 154.134H208.267Z" fill="#3F3D56"/>
<path d="M145.098 222.915H114.186C113.439 222.914 112.723 222.617 112.194 222.089C111.666 221.56 111.369 220.844 111.368 220.097V203.63C111.369 202.883 111.666 202.167 112.194 201.639C112.723 201.111 113.439 200.814 114.186 200.813H145.098C145.845 200.814 146.561 201.111 147.089 201.639C147.617 202.167 147.915 202.883 147.915 203.63V220.097C147.915 220.844 147.617 221.56 147.089 222.089C146.561 222.617 145.845 222.914 145.098 222.915V222.915ZM114.186 201.536C113.631 201.537 113.098 201.758 112.706 202.15C112.313 202.543 112.093 203.075 112.092 203.63V220.097C112.093 220.652 112.313 221.185 112.706 221.577C113.098 221.97 113.631 222.19 114.186 222.191H145.098C145.653 222.191 146.185 221.97 146.578 221.577C146.97 221.185 147.191 220.652 147.192 220.097V203.63C147.191 203.075 146.97 202.543 146.578 202.15C146.185 201.758 145.653 201.537 145.098 201.536H114.186Z" fill="#3F3D56"/>
<path d="M192.139 222.915H161.226C160.479 222.914 159.763 222.617 159.235 222.089C158.707 221.56 158.41 220.844 158.409 220.097V203.63C158.41 202.883 158.707 202.167 159.235 201.639C159.763 201.111 160.479 200.814 161.226 200.813H192.139C192.886 200.814 193.602 201.111 194.13 201.639C194.658 202.167 194.956 202.883 194.956 203.63V220.097C194.956 220.844 194.658 221.56 194.13 222.089C193.602 222.617 192.886 222.914 192.139 222.915V222.915ZM161.226 201.536C160.671 201.537 160.139 201.758 159.746 202.15C159.354 202.543 159.133 203.075 159.132 203.63V220.097C159.133 220.652 159.354 221.185 159.746 221.577C160.139 221.97 160.671 222.191 161.226 222.191H192.139C192.694 222.191 193.226 221.97 193.619 221.577C194.011 221.185 194.232 220.652 194.233 220.097V203.63C194.232 203.075 194.011 202.543 193.619 202.15C193.226 201.758 192.694 201.537 192.139 201.536H161.226Z" fill="#3F3D56"/>
<path d="M239.18 222.915H208.267C207.52 222.914 206.804 222.617 206.276 222.089C205.748 221.56 205.451 220.844 205.45 220.097V203.63C205.451 202.883 205.748 202.167 206.276 201.639C206.804 201.111 207.52 200.814 208.267 200.813H239.18C239.927 200.814 240.643 201.111 241.171 201.639C241.699 202.167 241.996 202.883 241.997 203.63V220.097C241.996 220.844 241.699 221.56 241.171 222.089C240.643 222.617 239.927 222.914 239.18 222.915V222.915ZM208.267 201.536C207.712 201.537 207.18 201.758 206.788 202.15C206.395 202.543 206.174 203.075 206.174 203.63V220.097C206.174 220.652 206.395 221.185 206.788 221.577C207.18 221.97 207.712 222.191 208.267 222.191H239.18C239.735 222.191 240.267 221.97 240.66 221.577C241.052 221.185 241.273 220.652 241.273 220.097V203.63C241.273 203.075 241.052 202.543 240.66 202.15C240.267 201.758 239.735 201.537 239.18 201.536H208.267Z" fill="#3F3D56"/>
<path d="M365.11 278.806H0.361853C0.265884 278.806 0.173845 278.768 0.105984 278.7C0.0381234 278.632 0 278.541 0 278.445C0 278.349 0.0381234 278.257 0.105984 278.19C0.173845 278.122 0.265884 278.084 0.361853 278.084H365.11C365.206 278.084 365.298 278.122 365.366 278.19C365.434 278.257 365.472 278.349 365.472 278.445C365.472 278.541 365.434 278.632 365.366 278.7C365.298 278.768 365.206 278.806 365.11 278.806Z" fill="#3F3D56"/>
<path d="M194.956 243.785C194.966 242.959 194.648 242.163 194.071 241.572C193.494 240.981 192.706 240.643 191.881 240.633H176.683V278.084H194.956V243.785Z" fill="#3F3D56"/>
<path d="M177.044 277.721H158.047V243.886C158.048 242.975 158.41 242.101 159.055 241.456C159.699 240.812 160.573 240.449 161.484 240.448H177.044V277.721ZM158.77 276.998H176.321V241.172H161.484C160.765 241.173 160.075 241.459 159.566 241.968C159.057 242.477 158.771 243.166 158.77 243.886V276.998Z" fill="#3F3D56"/>
<path d="M160.399 261.617C160.999 261.617 161.485 261.131 161.485 260.533C161.485 259.934 160.999 259.448 160.399 259.448C159.8 259.448 159.313 259.934 159.313 260.533C159.313 261.131 159.8 261.617 160.399 261.617Z" fill="#3F3D56"/>
<path d="M129.384 134.479C138.841 134.479 146.508 126.813 146.508 117.356C146.508 107.899 138.841 100.233 129.384 100.233C119.927 100.233 112.261 107.899 112.261 117.356C112.261 126.813 119.927 134.479 129.384 134.479Z" fill="#FF6584"/>
<path d="M140.61 128.169V128.171C140.61 128.173 140.608 128.173 140.606 128.173L140.61 128.169ZM145.512 113.375C145.52 113.424 145.53 113.472 145.538 113.521C145.53 113.472 145.52 113.424 145.51 113.375H145.512ZM145.756 115.168C145.762 115.242 145.768 115.316 145.772 115.39C145.768 115.316 145.762 115.242 145.754 115.168C145.754 115.155 145.754 115.141 145.752 115.127C145.754 115.141 145.754 115.155 145.756 115.168V115.168ZM140.61 128.171C140.61 128.173 140.608 128.173 140.606 128.173L140.61 128.169V128.171ZM145.512 113.375C145.52 113.424 145.53 113.472 145.538 113.521C145.53 113.472 145.52 113.424 145.51 113.375H145.512ZM145.772 115.39C145.768 115.316 145.762 115.242 145.754 115.168C145.754 115.155 145.754 115.141 145.752 115.127C145.754 115.141 145.754 115.155 145.756 115.168C145.762 115.242 145.768 115.316 145.772 115.39V115.39ZM84.978 151.129C85.0162 151.089 85.057 151.052 85.1 151.017L85.1019 151.015L94.8466 142.896L95.0985 142.686L96.0568 141.887L96.2969 141.687L97.6626 140.549L98.0364 140.238L98.8098 139.593L99.2053 139.263L102.936 136.156L105.075 134.375L105.363 134.136L111.666 128.884C111.569 128.748 111.475 128.612 111.382 128.474C111.307 128.36 111.233 128.247 111.158 128.132C111.15 128.119 111.14 128.105 111.132 128.092C111.089 128.026 111.048 127.958 111.006 127.892C110.983 127.857 110.961 127.822 110.941 127.787C110.91 127.738 110.878 127.688 110.849 127.637C110.819 127.588 110.79 127.538 110.76 127.487C110.623 127.26 110.493 127.031 110.367 126.8L110.355 126.778L110.255 126.59C110.192 126.475 110.131 126.359 110.072 126.242C110.069 126.239 110.068 126.236 110.068 126.232C110.007 126.114 109.946 125.993 109.889 125.873C109.887 125.871 109.887 125.867 109.885 125.865C109.812 125.716 109.741 125.566 109.672 125.413C109.654 125.378 109.639 125.343 109.623 125.308C109.558 125.16 109.493 125.01 109.43 124.861C109.365 124.707 109.302 124.552 109.241 124.396C109.18 124.241 109.119 124.084 109.062 123.928C108.954 123.631 108.852 123.333 108.757 123.035C108.753 123.017 108.748 123.001 108.741 122.984C108.692 122.825 108.645 122.667 108.598 122.508C108.568 122.405 108.541 122.304 108.513 122.201C108.493 122.127 108.474 122.053 108.456 121.98C108.446 121.951 108.44 121.923 108.432 121.894C108.407 121.795 108.383 121.698 108.36 121.599C108.356 121.583 108.352 121.566 108.348 121.55C108.301 121.35 108.255 121.148 108.214 120.948C108.192 120.847 108.173 120.746 108.153 120.645C108.116 120.443 108.078 120.241 108.047 120.039C108.031 119.944 108.017 119.848 108.003 119.753C107.99 119.668 107.978 119.582 107.966 119.499C107.95 119.39 107.937 119.283 107.925 119.174C107.874 118.745 107.836 118.318 107.813 117.888C107.805 117.76 107.799 117.632 107.793 117.502C107.787 117.352 107.783 117.204 107.781 117.055C107.779 116.93 107.777 116.804 107.777 116.68C107.777 116.305 107.787 115.932 107.807 115.557C107.838 114.956 107.895 114.359 107.978 113.764C108.683 108.676 111.219 104.009 115.122 100.616C119.025 97.2226 124.035 95.3293 129.235 95.2822C134.436 95.235 139.48 97.0372 143.446 100.359C147.411 103.681 150.034 108.301 150.833 113.375C150.853 113.503 150.872 113.633 150.89 113.764C150.955 114.23 151.004 114.698 151.036 115.168C151.046 115.298 151.053 115.427 151.059 115.557C151.234 118.851 150.633 122.14 149.304 125.167C147.975 128.194 145.953 130.875 143.399 133.001C142.922 133.397 142.434 133.77 141.935 134.12C141.933 134.122 141.931 134.122 141.929 134.124C141.761 134.241 141.594 134.355 141.425 134.468C141.155 134.643 140.884 134.814 140.61 134.977C140.589 134.989 140.567 135.002 140.545 135.014C140.309 135.154 140.071 135.288 139.833 135.418H139.831C138.945 135.899 138.025 136.317 137.078 136.669C134.301 137.701 131.338 138.16 128.374 138.017H128.368C124.909 137.852 121.54 136.868 118.547 135.148C118.112 134.899 117.683 134.633 117.264 134.349C117.16 134.279 117.053 134.208 116.951 134.136C116.825 134.048 116.699 133.957 116.573 133.866C116.571 133.866 116.571 133.864 116.569 133.864C116.56 133.856 116.55 133.849 116.54 133.842C116.455 133.778 116.369 133.714 116.286 133.652C116.264 133.636 116.243 133.621 116.221 133.603C116.215 133.599 116.21 133.595 116.205 133.59C116.156 133.555 116.109 133.516 116.06 133.479C116.011 133.442 115.963 133.403 115.914 133.364C115.906 133.359 115.898 133.353 115.89 133.347C115.835 133.302 115.78 133.259 115.725 133.215C115.668 133.17 115.613 133.123 115.56 133.079C115.505 133.034 115.452 132.989 115.397 132.943C115.349 132.904 115.3 132.863 115.253 132.82C115.237 132.809 115.223 132.795 115.208 132.782C115.202 132.776 115.195 132.771 115.188 132.766C115.123 132.712 115.06 132.655 114.997 132.599C114.981 132.585 114.968 132.572 114.952 132.558C114.855 132.473 114.759 132.387 114.665 132.298C114.643 132.278 114.619 132.257 114.598 132.238C114.576 132.218 114.556 132.199 114.535 132.179C114.507 132.152 114.478 132.127 114.45 132.1C114.379 132.034 114.31 131.966 114.239 131.898L114.007 132.092L113.923 132.162H113.921L113.895 132.185L113.803 132.261L112.429 133.407L112.4 133.432L112.376 133.45L112.22 133.58L111.91 133.84L111.599 134.099L111.553 134.136L110.107 135.34L109.906 135.507L108.511 136.669L101.289 142.686L101.037 142.896L91.153 151.129L88.6184 153.241L87.6759 154.026C87.4758 154.193 87.2443 154.32 86.9946 154.398C86.745 154.477 86.4821 154.507 86.2209 154.485C85.9597 154.463 85.7054 154.391 85.4726 154.272C85.2397 154.153 85.0329 153.991 84.8638 153.793C84.7223 153.629 84.6098 153.442 84.5313 153.241C84.3884 152.884 84.3545 152.494 84.4339 152.119C84.5133 151.744 84.7025 151.4 84.978 151.129V151.129ZM141.98 106.093C140.006 103.784 137.41 102.073 134.493 101.158C131.575 100.243 128.455 100.161 125.493 100.923C122.53 101.684 119.847 103.258 117.752 105.461C115.657 107.664 114.236 110.408 113.653 113.375C113.627 113.505 113.604 113.633 113.582 113.764C113.502 114.228 113.442 114.698 113.407 115.168C113.397 115.298 113.387 115.427 113.381 115.557C113.364 115.848 113.356 116.142 113.356 116.433C113.355 118.201 113.651 119.956 114.234 121.628V121.63C114.884 123.504 115.883 125.242 117.179 126.755C117.207 126.786 117.235 126.819 117.264 126.85C117.524 127.153 117.797 127.445 118.079 127.723C118.081 127.724 118.083 127.728 118.085 127.73C118.181 127.826 118.279 127.923 118.378 128.012C118.579 128.204 118.783 128.387 118.992 128.562C119.305 128.832 119.625 129.085 119.954 129.321C120.064 129.401 120.174 129.479 120.287 129.557C120.397 129.634 120.509 129.708 120.621 129.782C120.845 129.93 121.074 130.071 121.304 130.205C121.418 130.273 121.536 130.339 121.652 130.404C121.768 130.47 121.886 130.532 122.005 130.592C122.123 130.654 122.241 130.714 122.361 130.773C122.599 130.891 122.839 131.002 123.083 131.105C123.205 131.159 123.327 131.21 123.449 131.256C123.526 131.288 123.6 131.319 123.677 131.346C123.707 131.36 123.738 131.371 123.77 131.381C123.811 131.398 123.852 131.414 123.894 131.427C123.907 131.433 123.921 131.439 123.935 131.443C124.02 131.476 124.102 131.505 124.189 131.534C124.313 131.579 124.437 131.62 124.563 131.659C124.689 131.699 124.813 131.738 124.939 131.773C125.064 131.812 125.192 131.847 125.318 131.88C125.446 131.915 125.572 131.948 125.7 131.977C125.836 132.012 125.972 132.043 126.109 132.072C126.229 132.1 126.348 132.123 126.468 132.144C126.58 132.168 126.694 132.187 126.806 132.207C126.963 132.234 127.121 132.259 127.28 132.28C127.367 132.294 127.451 132.306 127.538 132.313C127.575 132.319 127.611 132.323 127.646 132.327C127.756 132.343 127.867 132.354 127.975 132.364C128.004 132.366 128.032 132.37 128.06 132.372C128.18 132.383 128.302 132.393 128.422 132.403C128.679 132.42 128.935 132.432 129.193 132.438C129.323 132.44 129.455 132.442 129.585 132.442C129.714 132.442 129.844 132.44 129.974 132.436C129.974 132.436 129.974 132.438 129.976 132.436C129.978 132.438 129.978 132.438 129.98 132.436C129.98 132.436 129.981 132.436 129.981 132.436C129.981 132.437 129.982 132.437 129.982 132.437C129.982 132.437 129.983 132.437 129.983 132.436C129.983 132.436 129.984 132.436 129.984 132.436C129.99 132.438 129.997 132.438 130.004 132.436C130.096 132.436 130.189 132.432 130.279 132.426C130.346 132.424 130.415 132.422 130.484 132.416C130.576 132.412 130.669 132.407 130.761 132.399C130.791 132.399 130.82 132.395 130.85 132.393C130.864 132.393 130.878 132.391 130.891 132.389C130.986 132.381 131.082 132.374 131.177 132.364C131.224 132.36 131.273 132.356 131.32 132.35C131.464 132.335 131.607 132.317 131.749 132.298C131.911 132.278 132.072 132.255 132.231 132.226C132.306 132.216 132.379 132.203 132.452 132.189C132.548 132.173 132.644 132.156 132.741 132.137C132.841 132.117 132.942 132.098 133.042 132.074C133.123 132.057 133.205 132.039 133.286 132.02C133.325 132.012 133.365 132.003 133.402 131.993C133.609 131.944 133.813 131.892 134.016 131.833C134.144 131.799 134.272 131.762 134.398 131.723C134.571 131.67 134.742 131.614 134.913 131.554C134.98 131.532 135.045 131.509 135.112 131.484C135.179 131.462 135.244 131.437 135.311 131.412C135.372 131.391 135.433 131.367 135.492 131.344C135.59 131.307 135.687 131.268 135.783 131.229C135.982 131.15 136.177 131.066 136.372 130.977C136.482 130.924 136.592 130.874 136.7 130.821C137.127 130.617 137.548 130.391 137.962 130.141C138.064 130.081 138.166 130.017 138.269 129.953C138.397 129.875 138.52 129.794 138.644 129.712C138.713 129.665 138.78 129.621 138.847 129.574C138.971 129.489 139.093 129.401 139.213 129.314C139.276 129.269 139.339 129.222 139.4 129.176C139.619 129.013 139.833 128.842 140.044 128.667C140.144 128.583 140.244 128.498 140.343 128.41C140.384 128.375 140.425 128.338 140.467 128.302C140.514 128.259 140.561 128.218 140.606 128.173L140.61 128.169C140.679 128.109 140.748 128.045 140.815 127.981C140.919 127.884 141.022 127.785 141.12 127.684C141.222 127.585 141.321 127.482 141.417 127.381C141.515 127.28 141.61 127.177 141.702 127.072C141.797 126.969 141.889 126.864 141.98 126.757C142.068 126.656 142.155 126.551 142.238 126.448C142.438 126.203 142.63 125.954 142.812 125.7C142.897 125.584 142.978 125.467 143.056 125.348C143.141 125.228 143.222 125.106 143.298 124.983C143.379 124.861 143.456 124.736 143.531 124.61C143.532 124.606 143.535 124.602 143.538 124.599C143.686 124.352 143.828 124.103 143.96 123.851C144.095 123.594 144.223 123.335 144.343 123.073C144.404 122.943 144.463 122.811 144.518 122.679C144.633 122.413 144.739 122.147 144.837 121.877C144.886 121.747 144.932 121.616 144.977 121.484C144.978 121.476 144.981 121.467 144.985 121.459C145.075 121.191 145.158 120.921 145.231 120.649C145.233 120.645 145.233 120.641 145.235 120.637C145.272 120.503 145.307 120.369 145.339 120.233C145.37 120.115 145.398 119.996 145.424 119.876C145.453 119.742 145.483 119.608 145.508 119.472C145.522 119.402 145.536 119.332 145.548 119.262C145.559 119.203 145.569 119.143 145.579 119.085C145.589 119.027 145.599 118.966 145.609 118.906C145.628 118.788 145.646 118.669 145.662 118.551C145.681 118.411 145.697 118.271 145.713 118.129C145.731 117.96 145.746 117.791 145.76 117.62C145.77 117.505 145.776 117.389 145.782 117.272C145.788 117.165 145.794 117.059 145.795 116.952C145.797 116.946 145.797 116.94 145.795 116.934C145.796 116.934 145.796 116.934 145.796 116.933C145.796 116.933 145.796 116.933 145.796 116.932C145.796 116.932 145.796 116.932 145.796 116.931C145.796 116.931 145.796 116.931 145.795 116.93C145.797 116.928 145.797 116.928 145.795 116.926C145.796 116.926 145.796 116.926 145.796 116.926C145.796 116.925 145.796 116.925 145.796 116.925C145.796 116.924 145.796 116.924 145.796 116.923C145.796 116.923 145.796 116.923 145.795 116.923C145.797 116.88 145.799 116.837 145.799 116.794C145.803 116.668 145.805 116.542 145.805 116.416C145.805 116.301 145.803 116.188 145.801 116.074C145.797 115.914 145.792 115.755 145.784 115.596C145.784 115.561 145.78 115.528 145.778 115.493C145.776 115.458 145.774 115.425 145.772 115.39C145.768 115.316 145.762 115.242 145.754 115.168C145.754 115.155 145.754 115.141 145.752 115.127C145.746 115.044 145.738 114.96 145.731 114.877C145.715 114.71 145.695 114.541 145.674 114.374C145.662 114.29 145.652 114.207 145.638 114.123C145.63 114.065 145.62 114.005 145.611 113.944C145.603 113.884 145.593 113.824 145.581 113.764C145.567 113.684 145.553 113.602 145.538 113.521C145.53 113.472 145.52 113.424 145.51 113.375C145.473 113.181 145.431 112.987 145.386 112.792C145.341 112.596 145.29 112.402 145.235 112.207C145.182 112.011 145.123 111.815 145.06 111.619C145.03 111.52 144.999 111.423 144.963 111.325C144.898 111.129 144.829 110.935 144.753 110.743C144.717 110.647 144.68 110.55 144.638 110.455C144.56 110.263 144.477 110.07 144.392 109.882C144.349 109.787 144.306 109.692 144.259 109.596C144.17 109.408 144.078 109.219 143.977 109.035C143.881 108.846 143.777 108.662 143.67 108.479C143.564 108.297 143.454 108.114 143.338 107.933C143.285 107.844 143.226 107.753 143.165 107.665C143.046 107.486 142.922 107.308 142.797 107.133C142.543 106.779 142.269 106.432 141.98 106.093ZM145.756 115.168C145.762 115.242 145.768 115.316 145.772 115.39C145.768 115.316 145.762 115.242 145.754 115.168C145.754 115.155 145.754 115.141 145.752 115.127C145.754 115.141 145.754 115.155 145.756 115.168ZM145.512 113.375C145.52 113.424 145.53 113.472 145.538 113.521C145.53 113.472 145.52 113.424 145.51 113.375H145.512ZM140.61 128.169V128.171C140.61 128.173 140.608 128.173 140.606 128.173L140.61 128.169Z" fill="#3F3D56"/>
</g>
<g clip-path="url(#clip1_1405_54382)">
<path d="M339.675 248.895H246.927V276.388H339.675V248.895Z" fill="#F0F0F0"/>
<path d="M298.708 254.576H287.894V276.388H298.708V254.576Z" fill="#CACACA"/>
<path d="M334.267 216.451H252.334V241.746H334.267V216.451Z" fill="#F0F0F0"/>
<path d="M342.574 218.009H244.028C243.863 218.009 243.702 217.96 243.566 217.868C243.43 217.776 243.324 217.645 243.262 217.492C243.201 217.34 243.187 217.172 243.221 217.011C243.256 216.851 243.337 216.704 243.456 216.59L270.389 190.702V179.426C270.389 179.207 270.476 178.997 270.631 178.843C270.785 178.688 270.995 178.601 271.214 178.601H276.529C276.748 178.601 276.958 178.688 277.112 178.843C277.267 178.997 277.354 179.207 277.354 179.426V184.007L279.389 182.052C282.717 178.852 287.134 177.03 291.751 176.954C296.368 176.877 300.842 178.55 304.276 181.638L343.126 216.571C343.25 216.682 343.337 216.829 343.376 216.991C343.415 217.154 343.404 217.324 343.345 217.48C343.285 217.635 343.179 217.769 343.042 217.864C342.904 217.959 342.741 218.009 342.574 218.009V218.009Z" fill="#CACACA"/>
<path d="M273.963 222.867C274.649 222.867 275.329 223.002 275.963 223.264C276.596 223.527 277.172 223.912 277.657 224.397C278.142 224.882 278.527 225.458 278.79 226.091C279.052 226.725 279.187 227.405 279.187 228.091V235.147H268.74V228.091C268.74 227.405 268.875 226.725 269.137 226.091C269.4 225.458 269.784 224.882 270.27 224.397C270.755 223.912 271.331 223.527 271.964 223.264C272.598 223.002 273.277 222.867 273.963 222.867V222.867Z" fill="white"/>
<path d="M293.301 222.958C294.687 222.958 296.015 223.509 296.995 224.489C297.975 225.468 298.525 226.797 298.525 228.182V235.239H288.077V228.182C288.077 226.797 288.628 225.468 289.607 224.489C290.587 223.509 291.916 222.958 293.301 222.958V222.958Z" fill="white"/>
<path d="M312.639 223.05C314.024 223.05 315.353 223.6 316.333 224.58C317.313 225.56 317.863 226.888 317.863 228.274V235.331H307.415V228.274C307.415 226.888 307.965 225.56 308.945 224.58C309.925 223.6 311.253 223.05 312.639 223.05V223.05Z" fill="white"/>
<path d="M320.338 254.302C321.723 254.302 323.052 254.852 324.032 255.832C325.011 256.811 325.562 258.14 325.562 259.526V266.583H315.114V259.526C315.114 258.14 315.664 256.811 316.644 255.832C317.623 254.852 318.952 254.302 320.338 254.302Z" fill="white"/>
<path d="M268.648 254.302C270.033 254.302 271.362 254.852 272.342 255.832C273.321 256.811 273.872 258.14 273.872 259.526V266.583H263.424V259.526C263.424 258.84 263.559 258.16 263.822 257.527C264.084 256.893 264.469 256.317 264.954 255.832C265.439 255.347 266.015 254.962 266.649 254.699C267.283 254.437 267.962 254.302 268.648 254.302V254.302Z" fill="white"/>
<path d="M353.225 249.324L335.827 241.625C335.733 241.584 335.632 241.563 335.53 241.563H252.612C252.517 241.562 252.423 241.581 252.336 241.616L233.397 249.315C233.24 249.379 233.109 249.496 233.029 249.645C232.948 249.795 232.921 249.968 232.954 250.135C232.987 250.302 233.076 250.452 233.207 250.56C233.339 250.668 233.503 250.727 233.673 250.727H238.587V276.022H238.037V278.588H348.565V276.022H347.648V250.727H352.929C353.097 250.727 353.26 250.669 353.39 250.564C353.521 250.458 353.611 250.31 353.646 250.146C353.681 249.981 353.658 249.81 353.581 249.66C353.505 249.51 353.379 249.392 353.225 249.324ZM346.182 276.022H240.053V250.727H346.182V276.022Z" fill="#CACACA"/>
<path d="M280.47 234.139H267.089V236.339H280.47V234.139Z" fill="#CACACA"/>
<path d="M300.083 234.139H286.702V236.339H300.083V234.139Z" fill="#CACACA"/>
<path d="M319.696 234.139H306.316V236.339H319.696V234.139Z" fill="#CACACA"/>
<path d="M327.027 265.849H313.647V268.048H327.027V265.849Z" fill="#CACACA"/>
<path d="M275.155 265.849H261.774V268.048H275.155V265.849Z" fill="#CACACA"/>
<path d="M323.534 216.074C323.534 216.218 323.532 216.364 323.529 216.508C323.527 216.681 323.523 216.851 323.516 217.024C323.509 217.175 323.502 217.323 323.493 217.471C323.466 217.968 323.424 218.462 323.365 218.958C323.352 219.084 323.336 219.207 323.318 219.333C323.305 219.43 323.291 219.529 323.275 219.627C323.26 219.738 323.244 219.848 323.226 219.958C323.19 220.191 323.15 220.425 323.105 220.658C323.082 220.775 323.06 220.892 323.035 221.009C322.988 221.24 322.936 221.474 322.882 221.705C322.878 221.723 322.873 221.743 322.869 221.761C322.842 221.876 322.815 221.988 322.786 222.103C322.777 222.136 322.77 222.168 322.759 222.202C322.739 222.287 322.716 222.372 322.694 222.458C322.662 222.577 322.631 222.693 322.597 222.812C322.543 222.997 322.489 223.179 322.433 223.363C322.426 223.382 322.42 223.401 322.415 223.421C322.307 223.769 322.193 224.113 322.067 224.454C322.002 224.634 321.932 224.816 321.863 224.996C321.793 225.175 321.721 225.355 321.647 225.533C321.575 225.706 321.501 225.878 321.427 226.049C321.409 226.09 321.391 226.13 321.371 226.17C321.292 226.348 321.211 226.521 321.128 226.694C321.126 226.696 321.126 226.701 321.124 226.703C321.059 226.842 320.989 226.981 320.919 227.118C320.919 227.122 320.918 227.126 320.915 227.13C320.847 227.264 320.778 227.399 320.706 227.532L320.591 227.749L320.578 227.774C320.434 228.041 320.286 228.306 320.129 228.569C320.095 228.628 320.061 228.686 320.028 228.742C319.994 228.801 319.958 228.859 319.922 228.915C319.9 228.956 319.875 228.996 319.848 229.036C319.801 229.113 319.753 229.191 319.704 229.268C319.695 229.284 319.684 229.299 319.675 229.315C319.59 229.448 319.504 229.578 319.419 229.71C319.313 229.87 319.205 230.027 319.095 230.184L316.656 234.088L316.55 234L316.521 233.973H316.519L316.422 233.893L316.157 233.668C316.077 233.747 315.998 233.825 315.917 233.902C315.886 233.933 315.852 233.962 315.82 233.994C315.796 234.016 315.773 234.039 315.749 234.061C311.531 238.179 305.922 240.564 300.03 240.743H300.023C295.563 240.866 291.148 239.824 287.213 237.72C287.126 237.675 287.04 237.63 286.955 237.578C286.443 237.3 285.942 237.006 285.45 236.691C285.448 236.689 285.446 236.689 285.443 236.687C284.873 236.282 284.316 235.851 283.772 235.393C280.856 232.935 278.549 229.835 277.032 226.336C275.515 222.837 274.829 219.034 275.028 215.225C275.035 215.075 275.044 214.926 275.055 214.776C275.091 214.232 275.146 213.691 275.221 213.152C275.241 213.001 275.264 212.851 275.286 212.703H323.305C323.399 213.39 323.464 214.081 323.5 214.776C323.523 215.209 323.534 215.641 323.534 216.074Z" fill="#F0F0F0"/>
<path d="M286.032 226.75V226.752C286.032 226.753 286.034 226.753 286.036 226.753L286.032 226.75ZM281.187 211.939C281.179 211.988 281.169 212.036 281.162 212.085C281.169 212.036 281.179 211.988 281.189 211.939H281.187ZM280.946 213.734C280.94 213.808 280.934 213.882 280.93 213.956C280.934 213.882 280.94 213.808 280.948 213.734C280.947 213.721 280.948 213.707 280.95 213.693C280.948 213.707 280.948 213.721 280.946 213.734V213.734ZM286.032 226.752C286.032 226.753 286.034 226.753 286.036 226.753L286.032 226.75V226.752ZM281.187 211.939C281.179 211.988 281.169 212.036 281.162 212.085C281.169 212.036 281.179 211.988 281.189 211.939H281.187ZM280.93 213.956C280.934 213.882 280.94 213.808 280.948 213.734C280.947 213.721 280.948 213.707 280.95 213.693C280.948 213.707 280.948 213.721 280.946 213.734C280.94 213.808 280.934 213.882 280.93 213.956V213.956ZM341.017 249.734C340.979 249.694 340.939 249.657 340.896 249.622L340.894 249.62L331.263 241.492L331.014 241.282L330.067 240.482L329.83 240.282L328.48 239.142L328.11 238.831L327.346 238.186L326.955 237.855L323.267 234.745L321.153 232.962L320.869 232.722L314.64 227.465C314.735 227.329 314.828 227.193 314.92 227.055C314.994 226.94 315.068 226.827 315.141 226.713C315.149 226.699 315.159 226.685 315.167 226.672C315.21 226.606 315.25 226.538 315.291 226.471C315.315 226.436 315.336 226.401 315.355 226.366C315.387 226.318 315.418 226.267 315.447 226.217C315.476 226.168 315.505 226.117 315.534 226.067C315.67 225.839 315.799 225.61 315.923 225.378L315.935 225.357L316.034 225.168C316.096 225.054 316.157 224.937 316.215 224.82C316.217 224.818 316.219 224.814 316.219 224.811C316.279 224.692 316.34 224.571 316.396 224.451C316.398 224.449 316.398 224.445 316.4 224.443C316.472 224.293 316.542 224.143 316.61 223.99C316.627 223.955 316.643 223.92 316.659 223.885C316.723 223.737 316.787 223.587 316.849 223.437C316.913 223.284 316.976 223.128 317.036 222.973C317.096 222.817 317.156 222.659 317.213 222.504C317.32 222.206 317.42 221.908 317.514 221.609C317.519 221.592 317.524 221.575 317.53 221.559C317.578 221.399 317.625 221.242 317.672 221.082C317.701 220.979 317.728 220.878 317.755 220.775C317.775 220.701 317.794 220.627 317.812 220.553C317.822 220.524 317.827 220.497 317.835 220.468C317.86 220.368 317.884 220.271 317.907 220.172C317.911 220.156 317.915 220.139 317.919 220.123C317.965 219.923 318.01 219.721 318.051 219.52C318.072 219.419 318.092 219.318 318.111 219.217C318.148 219.015 318.185 218.812 318.216 218.61C318.232 218.515 318.246 218.42 318.259 218.324C318.273 218.239 318.284 218.153 318.296 218.069C318.312 217.961 318.325 217.854 318.337 217.745C318.388 217.315 318.424 216.887 318.448 216.457C318.456 216.329 318.461 216.2 318.467 216.07C318.473 215.92 318.477 215.773 318.479 215.623C318.481 215.498 318.483 215.372 318.483 215.247C318.483 214.872 318.473 214.499 318.454 214.123C318.423 213.522 318.366 212.924 318.284 212.328C317.588 207.235 315.081 202.563 311.224 199.166C307.366 195.769 302.414 193.874 297.274 193.827C292.134 193.779 287.149 195.584 283.229 198.909C279.31 202.235 276.718 206.86 275.928 211.939C275.908 212.068 275.889 212.198 275.871 212.328C275.807 212.795 275.759 213.264 275.727 213.734C275.718 213.865 275.71 213.993 275.704 214.123C275.532 217.421 276.126 220.714 277.439 223.744C278.753 226.774 280.751 229.458 283.276 231.587C283.746 231.983 284.229 232.357 284.723 232.707C284.725 232.709 284.727 232.709 284.729 232.711C284.894 232.827 285.059 232.942 285.226 233.055C285.493 233.23 285.761 233.401 286.032 233.564C286.053 233.576 286.074 233.59 286.096 233.601C286.329 233.741 286.565 233.876 286.8 234.006H286.802C287.678 234.488 288.587 234.906 289.523 235.259C292.268 236.291 295.196 236.751 298.125 236.608H298.131C301.55 236.443 304.88 235.458 307.838 233.736C308.268 233.487 308.692 233.22 309.106 232.936C309.209 232.866 309.314 232.794 309.416 232.722C309.54 232.635 309.664 232.543 309.789 232.452C309.791 232.452 309.791 232.45 309.793 232.45C309.802 232.442 309.812 232.435 309.822 232.429C309.906 232.364 309.991 232.3 310.073 232.238C310.094 232.223 310.116 232.207 310.137 232.189C310.143 232.186 310.148 232.181 310.153 232.176C310.201 232.141 310.248 232.102 310.297 232.065C310.345 232.028 310.392 231.989 310.441 231.95C310.449 231.945 310.457 231.939 310.464 231.933C310.518 231.888 310.573 231.845 310.627 231.8C310.684 231.756 310.738 231.709 310.791 231.664C310.845 231.62 310.898 231.575 310.952 231.528C310.999 231.489 311.047 231.448 311.094 231.406C311.11 231.394 311.123 231.38 311.139 231.367C311.145 231.361 311.151 231.356 311.158 231.351C311.222 231.297 311.285 231.24 311.347 231.184C311.362 231.17 311.376 231.157 311.392 231.143C311.487 231.057 311.582 230.972 311.676 230.882C311.697 230.863 311.72 230.842 311.742 230.822C311.763 230.803 311.783 230.783 311.804 230.764C311.831 230.737 311.86 230.711 311.888 230.684C311.958 230.618 312.026 230.55 312.096 230.482L312.325 230.676L312.409 230.746H312.411L312.436 230.77L312.527 230.846L313.885 231.993L313.914 232.018L313.938 232.036L314.091 232.166L314.398 232.427L314.706 232.685L314.751 232.722L316.18 233.928L316.378 234.095L317.757 235.259L324.895 241.282L325.144 241.492L334.914 249.734L337.419 251.849L338.35 252.634C338.548 252.802 338.777 252.928 339.024 253.007C339.27 253.086 339.53 253.115 339.788 253.094C340.046 253.072 340.298 253 340.528 252.881C340.758 252.762 340.963 252.599 341.13 252.401C341.27 252.237 341.381 252.05 341.458 251.849C341.6 251.492 341.633 251.101 341.555 250.725C341.476 250.349 341.289 250.005 341.017 249.734V249.734ZM284.678 204.65C286.629 202.337 289.195 200.624 292.078 199.708C294.962 198.792 298.046 198.711 300.973 199.473C303.901 200.236 306.554 201.811 308.624 204.016C310.695 206.222 312.099 208.969 312.675 211.939C312.701 212.069 312.724 212.198 312.745 212.328C312.825 212.793 312.883 213.264 312.918 213.734C312.928 213.865 312.938 213.993 312.944 214.123C312.961 214.415 312.969 214.709 312.969 215C312.97 216.77 312.677 218.528 312.102 220.201V220.203C311.458 222.079 310.471 223.819 309.19 225.334C309.163 225.365 309.135 225.398 309.106 225.429C308.85 225.732 308.579 226.024 308.301 226.302C308.299 226.304 308.297 226.308 308.295 226.31C308.2 226.405 308.103 226.503 308.005 226.592C307.807 226.785 307.605 226.967 307.399 227.142C307.089 227.413 306.772 227.666 306.448 227.903C306.339 227.983 306.23 228.06 306.119 228.138C306.01 228.216 305.899 228.29 305.788 228.364C305.567 228.512 305.341 228.654 305.113 228.788C305.001 228.856 304.884 228.922 304.769 228.986C304.654 229.052 304.538 229.115 304.421 229.175C304.304 229.237 304.188 229.297 304.069 229.356C303.834 229.474 303.596 229.585 303.355 229.688C303.235 229.743 303.114 229.793 302.993 229.84C302.918 229.871 302.844 229.902 302.768 229.929C302.738 229.943 302.708 229.955 302.676 229.965C302.636 229.982 302.595 229.998 302.554 230.011C302.541 230.017 302.527 230.022 302.513 230.027C302.429 230.06 302.348 230.089 302.262 230.118C302.14 230.163 302.017 230.204 301.893 230.243C301.768 230.283 301.646 230.322 301.521 230.357C301.397 230.396 301.27 230.431 301.146 230.464C301.019 230.499 300.895 230.532 300.768 230.562C300.634 230.597 300.5 230.628 300.364 230.657C300.245 230.684 300.128 230.707 300.01 230.729C299.899 230.752 299.786 230.772 299.675 230.791C299.52 230.818 299.364 230.844 299.207 230.865C299.121 230.879 299.037 230.89 298.952 230.898C298.915 230.904 298.88 230.908 298.845 230.912C298.736 230.927 298.627 230.939 298.52 230.949C298.491 230.951 298.464 230.954 298.436 230.956C298.318 230.968 298.197 230.978 298.079 230.988C297.824 231.005 297.571 231.017 297.316 231.023C297.188 231.024 297.057 231.026 296.929 231.026C296.801 231.026 296.672 231.024 296.544 231.021C296.544 231.021 296.544 231.023 296.542 231.021C296.54 231.023 296.54 231.023 296.538 231.021C296.538 231.021 296.538 231.021 296.537 231.021C296.537 231.021 296.537 231.021 296.536 231.021C296.536 231.021 296.535 231.021 296.535 231.021C296.535 231.021 296.535 231.021 296.534 231.021C296.528 231.023 296.521 231.023 296.515 231.021C296.423 231.021 296.332 231.017 296.243 231.011C296.176 231.009 296.108 231.007 296.04 231.001C295.949 230.997 295.857 230.991 295.766 230.984C295.737 230.984 295.708 230.98 295.679 230.978C295.665 230.977 295.651 230.976 295.638 230.974C295.544 230.966 295.449 230.958 295.356 230.949C295.309 230.945 295.26 230.941 295.214 230.935C295.072 230.919 294.93 230.902 294.79 230.883C294.63 230.863 294.471 230.84 294.313 230.811C294.239 230.801 294.167 230.787 294.095 230.774C294 230.758 293.905 230.741 293.809 230.721C293.71 230.702 293.611 230.682 293.512 230.659C293.432 230.641 293.35 230.624 293.271 230.604C293.232 230.597 293.193 230.587 293.156 230.577C292.952 230.529 292.749 230.476 292.549 230.418C292.423 230.383 292.296 230.346 292.172 230.307C292.001 230.254 291.831 230.198 291.662 230.138C291.596 230.116 291.532 230.093 291.466 230.068C291.4 230.046 291.335 230.021 291.269 229.996C291.209 229.974 291.149 229.951 291.09 229.928C290.993 229.891 290.898 229.852 290.803 229.813C290.606 229.733 290.414 229.649 290.221 229.56C290.112 229.507 290.003 229.457 289.896 229.404C289.474 229.2 289.059 228.973 288.649 228.724C288.548 228.663 288.447 228.599 288.346 228.535C288.22 228.457 288.097 228.376 287.975 228.294C287.907 228.247 287.84 228.202 287.774 228.156C287.652 228.07 287.531 227.983 287.413 227.895C287.35 227.85 287.288 227.804 287.228 227.757C287.012 227.594 286.8 227.423 286.592 227.247C286.493 227.164 286.393 227.078 286.296 226.991C286.255 226.956 286.214 226.919 286.174 226.882C286.127 226.839 286.08 226.798 286.035 226.753L286.032 226.75C285.964 226.689 285.895 226.625 285.829 226.561C285.726 226.464 285.625 226.365 285.528 226.263C285.427 226.164 285.33 226.061 285.234 225.96C285.137 225.859 285.044 225.756 284.952 225.651C284.859 225.548 284.767 225.443 284.678 225.336C284.59 225.235 284.505 225.129 284.423 225.026C284.225 224.781 284.035 224.532 283.855 224.278C283.772 224.161 283.692 224.044 283.614 223.926C283.53 223.805 283.451 223.682 283.375 223.56C283.295 223.437 283.219 223.313 283.145 223.187C283.143 223.182 283.141 223.178 283.138 223.175C282.992 222.928 282.852 222.679 282.721 222.426C282.587 222.169 282.461 221.91 282.342 221.648C282.282 221.518 282.223 221.386 282.169 221.253C282.056 220.987 281.951 220.72 281.854 220.45C281.805 220.32 281.761 220.189 281.716 220.057C281.714 220.048 281.712 220.04 281.708 220.032C281.619 219.763 281.537 219.493 281.465 219.221C281.463 219.217 281.463 219.213 281.461 219.209C281.424 219.075 281.389 218.941 281.358 218.805C281.327 218.686 281.3 218.567 281.274 218.447C281.245 218.313 281.216 218.178 281.191 218.042C281.177 217.972 281.163 217.902 281.152 217.832C281.14 217.774 281.13 217.714 281.121 217.655C281.111 217.597 281.101 217.537 281.091 217.476C281.072 217.358 281.055 217.239 281.039 217.12C281.02 216.98 281.004 216.84 280.988 216.698C280.971 216.529 280.955 216.36 280.942 216.189C280.932 216.074 280.926 215.957 280.92 215.841C280.914 215.734 280.909 215.627 280.907 215.52C280.905 215.514 280.905 215.508 280.907 215.502C280.906 215.502 280.906 215.502 280.906 215.501C280.906 215.501 280.906 215.501 280.906 215.5C280.906 215.5 280.906 215.5 280.906 215.499C280.906 215.499 280.906 215.499 280.907 215.498C280.905 215.496 280.905 215.496 280.907 215.494C280.906 215.494 280.906 215.494 280.906 215.494C280.906 215.493 280.906 215.493 280.906 215.493C280.906 215.492 280.906 215.492 280.906 215.491C280.906 215.491 280.906 215.491 280.907 215.491C280.905 215.448 280.903 215.405 280.903 215.362C280.899 215.236 280.897 215.109 280.897 214.983C280.897 214.868 280.899 214.755 280.901 214.641C280.905 214.481 280.911 214.322 280.918 214.162C280.918 214.127 280.922 214.094 280.924 214.059C280.926 214.024 280.928 213.991 280.93 213.956C280.934 213.882 280.94 213.808 280.948 213.734C280.947 213.721 280.948 213.707 280.95 213.693C280.955 213.61 280.963 213.526 280.971 213.443C280.986 213.275 281.006 213.106 281.027 212.939C281.039 212.855 281.049 212.772 281.062 212.688C281.07 212.63 281.08 212.569 281.09 212.509C281.097 212.449 281.107 212.388 281.119 212.328C281.132 212.248 281.146 212.167 281.161 212.085C281.169 212.036 281.179 211.988 281.189 211.939C281.226 211.745 281.267 211.55 281.311 211.356C281.356 211.159 281.407 210.965 281.461 210.77C281.514 210.574 281.572 210.377 281.634 210.181C281.663 210.082 281.694 209.985 281.729 209.887C281.794 209.691 281.862 209.496 281.938 209.304C281.973 209.209 282.009 209.111 282.05 209.016C282.128 208.823 282.21 208.631 282.293 208.442C282.336 208.347 282.379 208.252 282.426 208.156C282.513 207.968 282.605 207.779 282.704 207.594C282.799 207.406 282.902 207.221 283.007 207.038C283.112 206.855 283.221 206.672 283.336 206.492C283.388 206.402 283.447 206.311 283.507 206.223C283.624 206.044 283.746 205.865 283.871 205.69C284.122 205.336 284.392 204.988 284.678 204.65ZM280.946 213.734C280.94 213.808 280.934 213.882 280.93 213.956C280.934 213.882 280.94 213.808 280.948 213.734C280.947 213.721 280.948 213.707 280.95 213.693C280.948 213.707 280.948 213.721 280.946 213.734ZM281.187 211.939C281.179 211.988 281.169 212.036 281.162 212.085C281.169 212.036 281.179 211.988 281.189 211.939H281.187ZM286.032 226.75V226.752C286.032 226.753 286.034 226.753 286.036 226.753L286.032 226.75Z" fill="#3F3D56"/>
<path opacity="0.3" d="M287.602 230.382C284.049 227.384 281.754 223.159 281.172 218.547C280.59 213.935 281.763 209.272 284.46 205.486C284.105 205.842 283.763 206.216 283.433 206.606C281.864 208.465 280.677 210.614 279.94 212.932C279.202 215.249 278.928 217.689 279.133 220.112C279.339 222.536 280.019 224.895 281.136 227.055C282.253 229.215 283.785 231.134 285.644 232.703C289.397 235.87 294.256 237.417 299.15 237.002C304.044 236.588 308.573 234.246 311.741 230.492C312.07 230.101 312.381 229.701 312.672 229.291C309.393 232.586 304.994 234.527 300.35 234.729C295.706 234.931 291.155 233.379 287.602 230.382V230.382Z" fill="black"/>
<path d="M296.842 231.614C305.923 231.614 313.285 224.253 313.285 215.172C313.285 206.091 305.923 198.73 296.842 198.73C287.761 198.73 280.399 206.091 280.399 215.172C280.399 224.253 287.761 231.614 296.842 231.614Z" fill="#FF6584"/>
</g>
<defs>
<clipPath id="clip0_1405_54382">
<rect width="365.472" height="278.829" fill="white"/>
</clipPath>
<clipPath id="clip1_1405_54382">
<rect width="204.174" height="101.749" fill="white" transform="translate(170.826 176.951)"/>
</clipPath>
</defs>
</svg>
