<svg width="90" height="90" viewBox="0 0 90 90" fill="none" xmlns="http://www.w3.org/2000/svg">
  <path fill-rule="evenodd" clip-rule="evenodd" d="M66.375 85.5C65.7547 85.5 65.25 84.9953 65.25 84.375C65.25 83.7546 65.7547 83.25 66.375 83.25C66.9953 83.25 67.5 83.7546 67.5 84.375C67.5 84.9953 66.9953 85.5 66.375 85.5Z" fill="#ECECFE"/>
  <path fill-rule="evenodd" clip-rule="evenodd" d="M75.375 13.5C74.7547 13.5 74.25 12.9953 74.25 12.375C74.25 11.7546 74.7547 11.25 75.375 11.25C75.9953 11.25 76.5 11.7546 76.5 12.375C76.5 12.9953 75.9953 13.5 75.375 13.5Z" fill="#ECECFE"/>
  <path fill-rule="evenodd" clip-rule="evenodd" d="M10.125 18C9.50467 18 9 17.4953 9 16.875C9 16.2546 9.50467 15.75 10.125 15.75C10.7453 15.75 11.25 16.2546 11.25 16.875C11.25 17.4953 10.7453 18 10.125 18Z" fill="#ECECFE"/>
  <path d="M41.625 25.875C41.625 25.2537 41.1213 24.75 40.5 24.75H27L26.8688 24.7576C26.3093 24.8226 25.875 25.2981 25.875 25.875C25.875 26.4963 26.3787 27 27 27H40.5L40.6312 26.9924C41.1907 26.9274 41.625 26.4519 41.625 25.875Z" fill="#E1000F"/>
  <path d="M43.875 45C42.6324 45 41.625 46.0074 41.625 47.25C41.625 50.0479 42.7597 51.75 45 51.75C45.6213 51.75 46.125 51.2463 46.125 50.625C46.125 50.0037 45.6213 49.5 45 49.5L44.8941 49.4962C44.7599 49.4862 44.6392 49.4563 44.5319 49.4026C45.4541 49.1216 46.125 48.2641 46.125 47.25C46.125 46.0074 45.1176 45 43.875 45Z" fill="#E1000F"/>
  <path d="M48.375 47.25C48.375 46.0074 49.3824 45 50.625 45C51.8676 45 52.875 46.0074 52.875 47.25C52.875 48.2641 52.2041 49.1216 51.2819 49.4026C51.3892 49.4563 51.5099 49.4862 51.6441 49.4962L51.75 49.5C52.3713 49.5 52.875 50.0037 52.875 50.625C52.875 51.2463 52.3713 51.75 51.75 51.75C49.5097 51.75 48.375 50.0479 48.375 47.25Z" fill="#E1000F"/>
  <path d="M38.25 29.25C38.8713 29.25 39.375 29.7537 39.375 30.375C39.375 30.9519 38.9407 31.4274 38.3812 31.4924L38.25 31.5H27C26.3787 31.5 25.875 30.9963 25.875 30.375C25.875 29.7981 26.3093 29.3226 26.8688 29.2576L27 29.25H38.25Z" fill="#E1000F"/>
  <path d="M34.875 34.875C34.875 34.2537 34.3713 33.75 33.75 33.75H27L26.8688 33.7576C26.3093 33.8226 25.875 34.2981 25.875 34.875C25.875 35.4963 26.3787 36 27 36H33.75L33.8812 35.9924C34.4407 35.9274 34.875 35.4519 34.875 34.875Z" fill="#E1000F"/>
  <path d="M63 56.25C63.6213 56.25 64.125 56.7537 64.125 57.375C64.125 57.9519 63.6907 58.4274 63.1312 58.4924L63 58.5H42.75C42.1287 58.5 41.625 57.9963 41.625 57.375C41.625 56.7981 42.0593 56.3226 42.6188 56.2576L42.75 56.25H63Z" fill="#E1000F"/>
  <path d="M59.625 61.875C59.625 61.2537 59.1213 60.75 58.5 60.75H42.75L42.6188 60.7576C42.0593 60.8226 41.625 61.2981 41.625 61.875C41.625 62.4963 42.1287 63 42.75 63H58.5L58.6312 62.9924C59.1907 62.9274 59.625 62.4519 59.625 61.875Z" fill="#E1000F"/>
  <path d="M36 13.5C43.7108 13.5 49.8239 18.0643 52.7939 25.4556C53.0255 26.0321 52.746 26.6872 52.1694 26.9189C51.5929 27.1505 50.9378 26.871 50.7061 26.2944C48.0643 19.7198 42.7474 15.75 36 15.75C26.6802 15.75 19.125 23.3052 19.125 32.625C19.125 36.2428 20.265 39.6858 22.349 42.5476C22.6132 42.9104 22.634 43.3908 22.4143 43.7717L22.3321 43.8947L18.0304 49.5H24.75C25.3269 49.5 25.8024 49.9343 25.8674 50.4938L25.875 50.625C25.875 51.2019 25.4407 51.6774 24.8812 51.7424L24.75 51.75H15.75C14.8597 51.75 14.3385 50.7752 14.7868 50.043L14.8575 49.9402L20.0475 43.1753L19.9839 43.0812C18.0572 40.1363 16.9719 36.7077 16.8812 33.1158L16.875 32.625C16.875 22.0626 25.4376 13.5 36 13.5Z" fill="#000091"/>
  <path d="M52.875 31.5C65.3014 31.5 75.375 41.5736 75.375 54C75.375 57.522 74.5643 60.9305 73.0279 64.016C72.751 64.5722 72.0756 64.7986 71.5194 64.5217C70.9632 64.2447 70.7369 63.5694 71.0138 63.0132C72.3959 60.2374 73.125 57.172 73.125 54C73.125 42.8162 64.0588 33.75 52.875 33.75C41.6912 33.75 32.625 42.8162 32.625 54C32.625 65.0595 41.4909 74.0483 52.503 74.2467L52.875 74.25H72.1474L68.8139 69.249C68.4939 68.769 68.5915 68.1324 69.021 67.768L69.126 67.6889C69.606 67.3689 70.2426 67.4665 70.607 67.896L70.6861 68.001L75.1861 74.751C75.6607 75.463 75.1972 76.4052 74.3758 76.4933L74.25 76.5H52.875C40.4486 76.5 30.375 66.4264 30.375 54C30.375 41.5736 40.4486 31.5 52.875 31.5Z" fill="#000091"/>
  <path d="M61.875 21.375C61.875 21.9953 62.3797 22.5 63 22.5C63.6203 22.5 64.125 21.9953 64.125 21.375C64.125 20.7546 63.6203 20.25 63 20.25C62.3797 20.25 61.875 20.7546 61.875 21.375Z" fill="#000091"/>
  <path d="M67.5 22.5C66.8797 22.5 66.375 21.9953 66.375 21.375C66.375 20.7546 66.8797 20.25 67.5 20.25C68.1203 20.25 68.625 20.7546 68.625 21.375C68.625 21.9953 68.1203 22.5 67.5 22.5Z" fill="#000091"/>
  <path d="M70.875 21.375C70.875 21.9953 71.3797 22.5 72 22.5C72.6203 22.5 73.125 21.9953 73.125 21.375C73.125 20.7546 72.6203 20.25 72 20.25C71.3797 20.25 70.875 20.7546 70.875 21.375Z" fill="#000091"/>
  <path fill-rule="evenodd" clip-rule="evenodd" d="M76.5 15.75H58.5C57.8787 15.75 57.375 16.2537 57.375 16.875V25.875L57.3826 26.0062C57.4476 26.5657 57.9231 27 58.5 27H67.0331L71.2045 31.1705L71.2997 31.2561C72.0163 31.8346 73.125 31.3337 73.125 30.375V27H76.5C77.1213 27 77.625 26.4963 77.625 25.875V16.875C77.625 16.2537 77.1213 15.75 76.5 15.75ZM75.375 18V24.75H72L71.8688 24.7576C71.3093 24.8226 70.875 25.2981 70.875 25.875V27.6581L68.2955 25.0795L68.184 24.9818C67.9888 24.8323 67.7486 24.75 67.5 24.75H59.625V18H75.375Z" fill="#000091"/>
  <path d="M18 65.25C18.6213 65.25 19.125 65.7537 19.125 66.375C19.125 66.9519 18.6907 67.4274 18.1312 67.4924L18 67.5H13.5C12.8787 67.5 12.375 66.9963 12.375 66.375C12.375 65.7981 12.8093 65.3226 13.3688 65.2576L13.5 65.25H18Z" fill="#000091"/>
  <path d="M21.375 66.375C21.375 66.9953 21.8797 67.5 22.5 67.5C23.1203 67.5 23.625 66.9953 23.625 66.375C23.625 65.7546 23.1203 65.25 22.5 65.25C21.8797 65.25 21.375 65.7546 21.375 66.375Z" fill="#000091"/>
  <path d="M27 67.5C26.3797 67.5 25.875 66.9953 25.875 66.375C25.875 65.7546 26.3797 65.25 27 65.25C27.6203 65.25 28.125 65.7546 28.125 66.375C28.125 66.9953 27.6203 67.5 27 67.5Z" fill="#000091"/>
</svg>
