<svg width="150" height="150" viewBox="0 0 150 150" fill="none" xmlns="http://www.w3.org/2000/svg">
  <path fill-rule="evenodd" clip-rule="evenodd" d="M142.5 131.25C141.466 131.25 140.625 130.409 140.625 129.375C140.625 128.341 141.466 127.5 142.5 127.5C143.534 127.5 144.375 128.341 144.375 129.375C144.375 130.409 143.534 131.25 142.5 131.25Z" fill="#ECECFE"/>
  <path fill-rule="evenodd" clip-rule="evenodd" d="M73.125 7.5C72.0911 7.5 71.25 6.65888 71.25 5.625C71.25 4.59104 72.0911 3.75 73.125 3.75C74.1589 3.75 75 4.59104 75 5.625C75 6.65888 74.1589 7.5 73.125 7.5Z" fill="#ECECFE"/>
  <path fill-rule="evenodd" clip-rule="evenodd" d="M7.5 116.25C6.46612 116.25 5.625 115.409 5.625 114.375C5.625 113.341 6.46612 112.5 7.5 112.5C8.53388 112.5 9.375 113.341 9.375 114.375C9.375 115.409 8.53388 116.25 7.5 116.25Z" fill="#ECECFE"/>
  <path d="M127.875 127.223C129.739 127.223 131.25 125.712 131.25 123.848C131.25 121.984 129.739 120.473 127.875 120.473C126.011 120.473 124.5 121.984 124.5 123.848C124.5 125.712 126.011 127.223 127.875 127.223Z" fill="#E1000F"/>
  <path fill-rule="evenodd" clip-rule="evenodd" d="M36.6168 26.2384C37.393 26.9239 37.4665 28.1088 36.7811 28.885L23.9054 43.465C23.22 44.2411 22.0351 44.3147 21.2589 43.6292C20.4827 42.9438 20.4091 41.7589 21.0946 40.9827L33.9702 26.4027C34.6557 25.6265 35.8406 25.5529 36.6168 26.2384Z" fill="#E1000F"/>
  <path fill-rule="evenodd" clip-rule="evenodd" d="M48.8458 25.7727C49.345 25.7402 49.8365 25.9085 50.2109 26.2402L108.042 77.4727C108.297 77.6987 108.485 77.99 108.587 78.3152L119.657 113.618C119.852 114.239 119.711 114.917 119.283 115.409C118.856 115.9 118.204 116.135 117.561 116.028L81.4488 110.038C81.1036 109.981 80.7813 109.828 80.5184 109.597L31.3278 66.3969C30.5497 65.7136 30.4729 64.5289 31.1562 63.7508C31.8395 62.9727 33.0242 62.8959 33.8023 63.5792L82.5907 106.426L115.167 111.83L105.165 79.9342L49.1405 30.3019L37.7598 43.3867C37.0802 44.168 35.8959 44.2505 35.1145 43.5709C34.3332 42.8914 34.2507 41.707 34.9303 40.9257L47.5528 26.4132C47.8811 26.0357 48.3466 25.8051 48.8458 25.7727Z" fill="#000091"/>
  <path fill-rule="evenodd" clip-rule="evenodd" d="M108.039 77.4706C108.815 78.1561 108.889 79.341 108.203 80.1172L95.3278 94.6972C94.6423 95.4734 93.4574 95.5469 92.6812 94.8615C91.905 94.176 91.8315 92.9911 92.517 92.2149L105.393 77.6349C106.078 76.8587 107.263 76.7852 108.039 77.4706Z" fill="#000091"/>
  <path fill-rule="evenodd" clip-rule="evenodd" d="M62.8668 61.8633C63.643 62.5487 63.7165 63.7337 63.0311 64.5098L50.1554 79.0899C49.47 79.866 48.2851 79.9396 47.5089 79.2541C46.7327 78.5687 46.6591 77.3838 47.3446 76.6076L60.2202 62.0276C60.9057 61.2514 62.0906 61.1778 62.8668 61.8633Z" fill="#000091"/>
  <path fill-rule="evenodd" clip-rule="evenodd" d="M111.106 93.262C111.885 93.9451 111.962 95.1298 111.279 95.9081L97.3569 111.771C96.6738 112.549 95.4891 112.626 94.7108 111.943C93.9325 111.26 93.8553 110.075 94.5384 109.297L108.46 93.4344C109.143 92.6561 110.328 92.5789 111.106 93.262Z" fill="#000091"/>
  <path fill-rule="evenodd" clip-rule="evenodd" d="M48.3749 123.848C48.3749 122.813 49.2143 121.973 50.2499 121.973H117.75C118.785 121.973 119.625 122.813 119.625 123.848C119.625 124.884 118.785 125.723 117.75 125.723H50.2499C49.2143 125.723 48.3749 124.884 48.3749 123.848Z" fill="#000091"/>
  <path fill-rule="evenodd" clip-rule="evenodd" d="M28.125 123.848C28.125 122.813 28.9645 121.973 30 121.973H43.9219C44.9574 121.973 45.7969 122.813 45.7969 123.848C45.7969 124.884 44.9574 125.723 43.9219 125.723H30C28.9645 125.723 28.125 124.884 28.125 123.848Z" fill="#000091"/>
  <path fill-rule="evenodd" clip-rule="evenodd" d="M57.9856 24.9957C58.6784 24.226 59.8639 24.1636 60.6336 24.8563L98.1336 58.6063C98.9033 59.2991 98.9657 60.4846 98.273 61.2543C97.5802 62.024 96.3947 62.0864 95.625 61.3937L58.125 27.6437C57.3553 26.951 57.2929 25.7654 57.9856 24.9957Z" fill="#000091"/>
</svg>
