<svg width="150" height="150" viewBox="0 0 150 150" fill="none" xmlns="http://www.w3.org/2000/svg">
  <path fill-rule="evenodd" clip-rule="evenodd" d="M9.37524 112.5C8.34137 112.5 7.50024 111.659 7.50024 110.625C7.50024 109.591 8.34137 108.75 9.37524 108.75C10.4091 108.75 11.2502 109.591 11.2502 110.625C11.2502 111.659 10.4091 112.5 9.37524 112.5Z" fill="#ECECFE"/>
  <path fill-rule="evenodd" clip-rule="evenodd" d="M30 11.25C28.9661 11.25 28.125 10.4089 28.125 9.375C28.125 8.34104 28.9661 7.5 30 7.5C31.0339 7.5 31.875 8.34104 31.875 9.375C31.875 10.4089 31.0339 11.25 30 11.25Z" fill="#ECECFE"/>
  <path fill-rule="evenodd" clip-rule="evenodd" d="M5.625 48.75C4.59112 48.75 3.75 47.9089 3.75 46.875C3.75 45.841 4.59112 45 5.625 45C6.65888 45 7.5 45.841 7.5 46.875C7.5 47.9089 6.65888 48.75 5.625 48.75Z" fill="#ECECFE"/>
  <path fill-rule="evenodd" clip-rule="evenodd" d="M144.375 105C143.341 105 142.5 104.159 142.5 103.125C142.5 102.091 143.341 101.25 144.375 101.25C145.409 101.25 146.25 102.091 146.25 103.125C146.25 104.159 145.409 105 144.375 105Z" fill="#ECECFE"/>
  <path fill-rule="evenodd" clip-rule="evenodd" d="M140.625 41.2499C139.591 41.2499 138.75 40.4088 138.75 39.3749C138.75 38.3409 139.591 37.4999 140.625 37.4999C141.659 37.4999 142.5 38.3409 142.5 39.3749C142.5 40.4088 141.659 41.2499 140.625 41.2499Z" fill="#ECECFE"/>
  <path d="M75 35.625C75 34.5895 74.1605 33.75 73.125 33.75H43.125L42.9063 33.7626C41.9738 33.8709 41.25 34.6634 41.25 35.625C41.25 36.6605 42.0895 37.5 43.125 37.5H73.125L73.3437 37.4874C74.2762 37.3791 75 36.5866 75 35.625Z" fill="#E1000F"/>
  <path d="M95.625 123.75L95.4063 123.763C94.4738 123.871 93.75 124.663 93.75 125.625C93.75 126.661 94.5895 127.5 95.625 127.5H110.625L110.844 127.487C111.776 127.379 112.5 126.587 112.5 125.625C112.5 124.589 111.661 123.75 110.625 123.75H95.625Z" fill="#E1000F"/>
  <path d="M103.125 101.25C104.087 101.25 104.879 101.974 104.987 102.906L105 103.125V113.598L109.299 109.299C110.031 108.567 111.219 108.567 111.951 109.299C112.627 109.975 112.679 111.039 112.107 111.774L111.951 111.951L104.451 119.451C104.27 119.632 104.061 119.768 103.839 119.859C103.647 119.938 103.439 119.987 103.221 119.998L103.179 119.999C103.161 120 103.143 120 103.125 120C103.093 120 103.062 119.999 103.03 119.998C102.81 119.987 102.6 119.938 102.407 119.858C102.255 119.795 102.11 119.711 101.976 119.607C101.915 119.559 101.856 119.507 101.799 119.451L94.2992 111.951C93.567 111.219 93.567 110.031 94.2992 109.299C94.9751 108.623 96.0386 108.571 96.7742 109.143L96.9508 109.299L101.25 113.598V103.125C101.25 102.089 102.089 101.25 103.125 101.25Z" fill="#E1000F"/>
  <path fill-rule="evenodd" clip-rule="evenodd" d="M103.125 90C89.6631 90 78.75 100.913 78.75 114.375C78.75 127.837 89.6631 138.75 103.125 138.75C116.587 138.75 127.5 127.837 127.5 114.375C127.5 100.913 116.587 90 103.125 90ZM103.125 93.75C114.516 93.75 123.75 102.984 123.75 114.375C123.75 125.766 114.516 135 103.125 135C91.7341 135 82.5 125.766 82.5 114.375C82.5 102.984 91.7341 93.75 103.125 93.75Z" fill="#E1000F"/>
  <path d="M91.875 45C92.9105 45 93.75 45.8395 93.75 46.875C93.75 47.8366 93.0262 48.6291 92.0937 48.7374L91.875 48.75H43.125C42.0895 48.75 41.25 47.9105 41.25 46.875C41.25 45.9134 41.9738 45.1209 42.9063 45.0126L43.125 45H91.875Z" fill="#E1000F"/>
  <path d="M82.5 58.125C82.5 57.0895 81.6605 56.25 80.625 56.25H43.125L42.9063 56.2626C41.9738 56.3709 41.25 57.1634 41.25 58.125C41.25 59.1605 42.0895 60 43.125 60H80.625L80.8437 59.9874C81.7762 59.8791 82.5 59.0866 82.5 58.125Z" fill="#E1000F"/>
  <path d="M103.125 22.5C104.087 22.5 104.879 23.2238 104.987 24.1563L105 24.375V84.375C105 85.4105 104.161 86.25 103.125 86.25C102.163 86.25 101.371 85.5262 101.263 84.5937L101.25 84.375V26.25H33.75V123.75H73.125C74.0866 123.75 74.8791 124.474 74.9874 125.406L75 125.625C75 126.587 74.2762 127.379 73.3437 127.487L73.125 127.5H31.875C30.9134 127.5 30.1209 126.776 30.0126 125.844L30 125.625V24.375C30 23.4134 30.7238 22.6209 31.6563 22.5126L31.875 22.5H103.125Z" fill="#000091"/>
  <path d="M91.875 67.5C92.9105 67.5 93.75 68.3395 93.75 69.375C93.75 70.3366 93.0262 71.1291 92.0937 71.2374L91.875 71.25H43.125C42.0895 71.25 41.25 70.4105 41.25 69.375C41.25 68.4134 41.9738 67.6209 42.9063 67.5126L43.125 67.5H91.875Z" fill="#000091"/>
  <path d="M78.75 91.875C78.75 90.8395 77.9105 90 76.875 90H43.125L42.9063 90.0126C41.9738 90.1209 41.25 90.9134 41.25 91.875C41.25 92.9105 42.0895 93.75 43.125 93.75H76.875L77.0937 93.7374C78.0262 93.6291 78.75 92.8366 78.75 91.875Z" fill="#000091"/>
  <path d="M110.625 22.5C111.587 22.5 112.379 23.2238 112.487 24.1563L112.5 24.375V84.375C112.5 85.4105 111.661 86.25 110.625 86.25C109.663 86.25 108.871 85.5262 108.763 84.5937L108.75 84.375V24.375C108.75 23.3395 109.589 22.5 110.625 22.5Z" fill="#000091"/>
  <path d="M86.25 80.625C86.25 79.5895 85.4105 78.75 84.375 78.75H43.125L42.9063 78.7626C41.9738 78.8709 41.25 79.6634 41.25 80.625C41.25 81.6605 42.0895 82.5 43.125 82.5H84.375L84.5937 82.4874C85.5262 82.3791 86.25 81.5866 86.25 80.625Z" fill="#000091"/>
  <path d="M61.875 112.5C62.9105 112.5 63.75 113.339 63.75 114.375C63.75 115.337 63.0262 116.129 62.0937 116.237L61.875 116.25H43.125C42.0895 116.25 41.25 115.411 41.25 114.375C41.25 113.413 41.9738 112.621 42.9063 112.513L43.125 112.5H61.875Z" fill="#000091"/>
  <path d="M71.25 103.125C71.25 102.089 70.4105 101.25 69.375 101.25H43.125L42.9063 101.263C41.9738 101.371 41.25 102.163 41.25 103.125C41.25 104.161 42.0895 105 43.125 105H69.375L69.5937 104.987C70.5262 104.879 71.25 104.087 71.25 103.125Z" fill="#000091"/>
</svg>
