<svg width="374" height="396" viewBox="0 0 374 396" fill="none" xmlns="http://www.w3.org/2000/svg">
  <path fill-rule="evenodd" clip-rule="evenodd" d="M279.5 60C278.121 60 277 58.8785 277 57.5C277 56.1214 278.121 55 279.5 55C280.879 55 282 56.1214 282 57.5C282 58.8785 280.879 60 279.5 60Z" fill="#ECECFE"/>
  <path fill-rule="evenodd" clip-rule="evenodd" d="M159.5 200C158.121 200 157 198.879 157 197.5C157 196.121 158.121 195 159.5 195C160.879 195 162 196.121 162 197.5C162 198.879 160.879 200 159.5 200Z" fill="#ECECFE"/>
  <path fill-rule="evenodd" clip-rule="evenodd" d="M124.5 25C123.121 25 122 23.8785 122 22.5C122 21.1214 123.121 20 124.5 20C125.879 20 127 21.1214 127 22.5C127 23.8785 125.879 25 124.5 25Z" fill="#ECECFE"/>
  <path d="M260.88 173.314C248.003 183.741 229.113 181.756 218.686 168.88C208.259 156.003 210.244 137.113 223.12 126.686C235.997 116.259 254.887 118.244 265.314 131.12C266.183 132.193 266.018 133.768 264.945 134.637C263.872 135.505 262.298 135.34 261.429 134.267C252.74 123.537 236.997 121.882 226.267 130.571C215.537 139.26 213.882 155.003 222.571 165.733C231.26 176.463 247.003 178.118 257.733 169.429C264.552 163.907 267.893 155.342 266.798 146.796C266.622 145.427 267.59 144.174 268.96 143.999C270.329 143.823 271.582 144.791 271.757 146.161C273.07 156.408 269.06 166.69 260.88 173.314Z" fill="#E1000F"/>
  <path d="M232.103 149.641L237.928 156.528L253.097 138.772C254.105 137.592 255.862 137.492 256.99 138.556C258.008 139.516 258.162 141.101 257.33 142.296L257.196 142.468L240.775 161.691C239.43 163.266 237.063 163.452 235.488 162.107C235.335 161.976 235.192 161.832 235.061 161.678L227.987 153.317C227.016 152.169 227.113 150.431 228.211 149.406C229.266 148.421 230.878 148.439 231.955 149.481L232.103 149.641Z" fill="#E1000F"/>
  <path d="M144.5 25C145.782 25 146.839 25.9651 146.983 27.2084L147 27.5V35H227V27.5C227 26.1193 228.119 25 229.5 25C230.782 25 231.839 25.9651 231.983 27.2084L232 27.5V35H249.5C256.222 35 261.705 40.3058 261.988 46.9578L262 47.5V112.5C262 113.881 260.881 115 259.5 115C258.218 115 257.161 114.035 257.017 112.792L257 112.5V70H244.5C243.119 70 242 68.8807 242 67.5C242 66.2179 242.965 65.1612 244.208 65.0168L244.5 65H257V47.5C257 43.5058 253.878 40.2408 249.941 40.0127L249.5 40H232V47.5C232 48.8807 230.881 50 229.5 50C228.218 50 227.161 49.0349 227.017 47.7916L227 47.5V40H147V47.5C147 48.8807 145.881 50 144.5 50C143.218 50 142.161 49.0349 142.017 47.7916L142 47.5V40H124.5C120.506 40 117.241 43.1223 117.013 47.0593L117 47.5V65H142V62.5C142 61.1193 143.119 60 144.5 60C145.782 60 146.839 60.9651 146.983 62.2084L147 62.5V65H229.5C230.881 65 232 66.1193 232 67.5C232 68.7821 231.035 69.8388 229.792 69.9832L229.5 70H147V72.5C147 73.8807 145.881 75 144.5 75C143.218 75 142.161 74.0349 142.017 72.7916L142 72.5V70H117V152.5C117 156.494 120.122 159.759 124.059 159.987L124.5 160H194.5C195.881 160 197 161.119 197 162.5C197 163.782 196.035 164.839 194.792 164.983L194.5 165H124.5C117.778 165 112.295 159.694 112.012 153.042L112 152.5V47.5C112 40.7781 117.306 35.2955 123.958 35.0115L124.5 35H142V27.5C142 26.1193 143.119 25 144.5 25Z" fill="#000091"/>
  <path d="M204.5 160C203.119 160 202 161.119 202 162.5C202 163.881 203.119 165 204.5 165C205.881 165 207 163.881 207 162.5C207 161.119 205.881 160 204.5 160Z" fill="#000091"/>
  <path fill-rule="evenodd" clip-rule="evenodd" d="M162 92.5C162 88.3579 158.642 85 154.5 85H139.5C135.358 85 132 88.3579 132 92.5V102.5C132 106.642 135.358 110 139.5 110H154.5C158.642 110 162 106.642 162 102.5V92.5ZM137 92.5C137 91.1193 138.119 90 139.5 90H154.5C155.881 90 157 91.1193 157 92.5V102.5C157 103.881 155.881 105 154.5 105H139.5C138.119 105 137 103.881 137 102.5V92.5Z" fill="#000091"/>
  <path fill-rule="evenodd" clip-rule="evenodd" d="M234.5 85C238.642 85 242 88.3579 242 92.5V102.5C242 106.642 238.642 110 234.5 110H219.5C215.358 110 212 106.642 212 102.5V92.5C212 88.3579 215.358 85 219.5 85H234.5ZM219.5 90C218.119 90 217 91.1193 217 92.5V102.5C217 103.881 218.119 105 219.5 105H234.5C235.881 105 237 103.881 237 102.5V92.5C237 91.1193 235.881 90 234.5 90H219.5Z" fill="#000091"/>
  <path fill-rule="evenodd" clip-rule="evenodd" d="M194.5 85H179.5C175.358 85 172 88.3579 172 92.5V102.5C172 106.642 175.358 110 179.5 110H194.5C198.642 110 202 106.642 202 102.5V92.5C202 88.3579 198.642 85 194.5 85ZM179.5 90H194.5C195.881 90 197 91.1193 197 92.5V102.5C197 103.881 195.881 105 194.5 105H179.5C178.119 105 177 103.881 177 102.5V92.5C177 91.1193 178.119 90 179.5 90Z" fill="#000091"/>
  <path fill-rule="evenodd" clip-rule="evenodd" d="M154.5 120C158.642 120 162 123.358 162 127.5V137.5C162 141.642 158.642 145 154.5 145H139.5C135.358 145 132 141.642 132 137.5V127.5C132 123.358 135.358 120 139.5 120H154.5ZM139.5 125C138.119 125 137 126.119 137 127.5V137.5C137 138.881 138.119 140 139.5 140H154.5C155.881 140 157 138.881 157 137.5V127.5C157 126.119 155.881 125 154.5 125H139.5Z" fill="#000091"/>
  <path fill-rule="evenodd" clip-rule="evenodd" d="M194.5 120H179.5C175.358 120 172 123.358 172 127.5V137.5C172 141.642 175.358 145 179.5 145H194.5C198.642 145 202 141.642 202 137.5V127.5C202 123.358 198.642 120 194.5 120ZM179.5 125H194.5C195.881 125 197 126.119 197 127.5V137.5C197 138.881 195.881 140 194.5 140H179.5C178.119 140 177 138.881 177 137.5V127.5C177 126.119 178.119 125 179.5 125Z" fill="#000091"/>
  <path d="M7.2 262.2L8.88 231H42.24V240.76H19.2L18.56 252.44H22.88C37.76 252.44 44.32 259.24 44.32 270.12C44.32 281.56 35.36 288.6 23.84 288.6C13.44 288.6 6.56 284.04 1.92 275.96L11.36 270.12C14.56 276.28 18.4 279 23.84 279C29.36 279 33.28 275.72 33.28 270.52C33.28 265.24 29.36 262.2 22.4 262.2H7.2ZM71.8906 229.4C86.6106 229.4 93.4906 242.2 93.4906 259C93.4906 275.8 86.6106 288.6 71.8906 288.6C57.1706 288.6 50.2906 275.8 50.2906 259C50.2906 242.2 57.1706 229.4 71.8906 229.4ZM71.8906 239.4C64.7706 239.4 61.3306 247.24 61.3306 259C61.3306 270.84 64.7706 278.6 71.8906 278.6C78.9306 278.6 82.3706 270.76 82.3706 259C82.3706 247.16 78.9306 239.4 71.8906 239.4ZM123.502 287V227H133.662V249.88C136.462 247.16 140.222 245.08 145.582 245.08C154.302 245.08 161.262 251.08 161.262 263V287H151.022V263.4C151.022 258.04 148.062 254.68 143.022 254.68C137.902 254.68 135.182 258.12 133.662 260.68V287H123.502ZM209.919 280.44C206.159 285.48 199.919 288.6 192.319 288.6C177.999 288.6 169.919 278.6 169.919 266.84C169.919 254.92 177.439 245.08 190.639 245.08C201.839 245.08 209.199 252.68 209.199 263.24C209.199 265.48 208.879 267.56 208.559 268.92H180.319C181.279 276.44 185.919 279.48 192.239 279.48C196.639 279.48 200.479 277.56 202.639 274.68L209.919 280.44ZM190.399 253.4C185.199 253.4 181.759 256.28 180.639 261.56H199.199C199.039 257.48 196.079 253.4 190.399 253.4ZM245.218 269.56V246.68H255.458V269.08C255.458 281.16 248.418 288.6 236.578 288.6C224.738 288.6 217.778 281.16 217.778 269.08V246.68H228.018V269.56C228.018 275.4 231.058 279 236.658 279C242.178 279 245.218 275.4 245.218 269.56ZM266.705 287V246.68H276.865V250.68C279.505 247.96 282.945 245.88 287.505 245.88C288.865 245.88 290.065 246.12 291.025 246.44V256.44C289.745 256.12 288.385 255.88 286.545 255.88C281.585 255.88 278.385 258.6 276.865 261.16V287H266.705ZM334.606 280.44C330.846 285.48 324.606 288.6 317.006 288.6C302.686 288.6 294.606 278.6 294.606 266.84C294.606 254.92 302.126 245.08 315.326 245.08C326.526 245.08 333.886 252.68 333.886 263.24C333.886 265.48 333.566 267.56 333.246 268.92H305.006C305.966 276.44 310.606 279.48 316.926 279.48C321.326 279.48 325.166 277.56 327.326 274.68L334.606 280.44ZM315.086 253.4C309.886 253.4 306.446 256.28 305.326 261.56H323.886C323.726 257.48 320.766 253.4 315.086 253.4ZM339.748 281.16L346.468 275.08C348.947 278.2 351.908 280.44 355.748 280.44C359.028 280.44 360.707 278.52 360.707 276.12C360.707 269.08 341.428 271.72 341.428 257.56C341.428 250.44 347.428 245.08 355.828 245.08C361.988 245.08 367.588 248.04 370.468 251.96L363.748 257.88C361.668 255.32 359.028 253.24 355.908 253.24C352.708 253.24 351.188 255 351.188 257.08C351.188 263.96 370.468 261.56 370.468 275.48C370.308 283.96 363.508 288.6 355.908 288.6C348.708 288.6 343.588 285.72 339.748 281.16Z" fill="#161616"/>
  <path d="M63.1353 319.96C63.1353 317.02 65.1553 314.52 68.3153 314.52C69.8153 314.52 70.9953 315.1 71.8953 316.12V310H73.5953V325H71.8953V323.8C70.9953 324.82 69.8153 325.4 68.3153 325.4C65.1553 325.4 63.1353 322.9 63.1353 319.96ZM64.9353 319.96C64.9353 322.1 66.3753 323.8 68.5153 323.8C69.9153 323.8 71.1553 323.12 71.8953 321.94V317.98C71.1153 316.78 69.8953 316.12 68.5153 316.12C66.3753 316.12 64.9353 317.82 64.9353 319.96ZM86.1389 323.34C85.1989 324.6 83.6989 325.4 81.8189 325.4C78.4189 325.4 76.3189 322.9 76.3189 319.96C76.3189 316.9 78.2789 314.52 81.3989 314.52C84.1389 314.52 85.9189 316.44 85.9189 318.92C85.9189 319.32 85.8589 319.7 85.7989 319.98H78.0589C78.1189 322.4 79.6589 323.86 81.8189 323.86C83.1189 323.86 84.2189 323.26 84.8789 322.36L86.1389 323.34ZM81.3589 315.96C79.6989 315.96 78.5389 316.94 78.1789 318.68H84.2189C84.1589 317.2 83.1389 315.96 81.3589 315.96ZM94.7706 321.62V316.46H92.8706V314.92H94.7706V312.4H96.4906V314.92H99.9906V316.46H96.4906V321.62C96.4906 323.2 97.2906 323.64 98.5106 323.64C99.1706 323.64 99.6306 323.56 100.011 323.4V324.92C99.5306 325.12 98.9906 325.2 98.2706 325.2C96.0306 325.2 94.7706 324.08 94.7706 321.62ZM102.589 325V314.92H104.289V316.18C105.029 315.3 105.949 314.72 107.229 314.72C107.549 314.72 107.849 314.76 108.089 314.84V316.5C107.789 316.42 107.489 316.38 107.089 316.38C105.769 316.38 104.909 317.06 104.289 318.08V325H102.589ZM112.829 325.28C110.849 325.28 109.509 324.18 109.509 322.46C109.509 320.94 110.669 319.86 112.809 319.5L116.209 318.94V318.24C116.209 316.84 115.209 316.04 113.769 316.04C112.609 316.04 111.669 316.58 111.049 317.44L109.769 316.46C110.649 315.26 112.069 314.52 113.829 314.52C116.389 314.52 117.909 316.02 117.909 318.24V325H116.209V323.72C115.449 324.7 114.129 325.28 112.829 325.28ZM111.229 322.4C111.229 323.26 111.929 323.88 113.109 323.88C114.449 323.88 115.549 323.24 116.209 322.16V320.18L113.229 320.68C111.849 320.92 111.229 321.54 111.229 322.4ZM119.702 314.92H121.542L124.762 323.22L127.982 314.92H129.822L125.882 325H123.642L119.702 314.92ZM134.45 325.28C132.47 325.28 131.13 324.18 131.13 322.46C131.13 320.94 132.29 319.86 134.43 319.5L137.83 318.94V318.24C137.83 316.84 136.83 316.04 135.39 316.04C134.23 316.04 133.29 316.58 132.67 317.44L131.39 316.46C132.27 315.26 133.69 314.52 135.45 314.52C138.01 314.52 139.53 316.02 139.53 318.24V325H137.83V323.72C137.07 324.7 135.75 325.28 134.45 325.28ZM132.85 322.4C132.85 323.26 133.55 323.88 134.73 323.88C136.07 323.88 137.17 323.24 137.83 322.16V320.18L134.85 320.68C133.47 320.92 132.85 321.54 132.85 322.4ZM143.801 312.3C143.141 312.3 142.601 311.76 142.601 311.1C142.601 310.46 143.141 309.92 143.801 309.92C144.461 309.92 144.981 310.46 144.981 311.1C144.981 311.76 144.461 312.3 143.801 312.3ZM142.941 325V314.92H144.641V325H142.941ZM148.234 325V310H149.934V325H148.234ZM164.037 313.32H162.377L164.457 310H166.377L164.037 313.32ZM167.877 323.34C166.937 324.6 165.437 325.4 163.557 325.4C160.157 325.4 158.057 322.9 158.057 319.96C158.057 316.9 160.017 314.52 163.137 314.52C165.877 314.52 167.657 316.44 167.657 318.92C167.657 319.32 167.597 319.7 167.537 319.98H159.797C159.857 322.4 161.397 323.86 163.557 323.86C164.857 323.86 165.957 323.26 166.617 322.36L167.877 323.34ZM163.097 315.96C161.437 315.96 160.277 316.94 159.917 318.68H165.957C165.897 317.2 164.877 315.96 163.097 315.96ZM175.139 323.8C176.379 323.8 177.399 323.2 178.019 322.32L179.359 323.34C178.419 324.6 176.959 325.4 175.119 325.4C171.779 325.4 169.639 322.9 169.639 319.96C169.639 317.02 171.779 314.52 175.119 314.52C176.939 314.52 178.419 315.34 179.359 316.58L178.019 317.6C177.399 316.72 176.379 316.12 175.119 316.12C172.959 316.12 171.419 317.82 171.419 319.96C171.419 322.12 172.959 323.8 175.139 323.8ZM185.9 314.52C189.14 314.52 191.36 317.02 191.36 319.96C191.36 322.9 189.14 325.4 185.9 325.4C182.64 325.4 180.44 322.9 180.44 319.96C180.44 317.02 182.64 314.52 185.9 314.52ZM185.92 323.8C188.02 323.8 189.56 322.04 189.56 319.96C189.56 317.86 188.02 316.12 185.92 316.12C183.76 316.12 182.22 317.86 182.22 319.96C182.22 322.06 183.76 323.8 185.92 323.8ZM194.093 325V314.92H195.793V316.06C196.613 315.16 197.653 314.52 199.153 314.52C201.413 314.52 203.093 316.04 203.093 318.9V325H201.393V318.96C201.393 317.16 200.373 316.12 198.813 316.12C197.353 316.12 196.433 316.96 195.793 318.02V325H194.093ZM211.115 314.52C214.355 314.52 216.575 317.02 216.575 319.96C216.575 322.9 214.355 325.4 211.115 325.4C207.855 325.4 205.655 322.9 205.655 319.96C205.655 317.02 207.855 314.52 211.115 314.52ZM211.135 323.8C213.235 323.8 214.775 322.04 214.775 319.96C214.775 317.86 213.235 316.12 211.135 316.12C208.975 316.12 207.435 317.86 207.435 319.96C207.435 322.06 208.975 323.8 211.135 323.8ZM219.308 325V314.92H221.008V316.02C221.768 315.14 222.768 314.52 224.168 314.52C225.628 314.52 226.828 315.18 227.448 316.46C228.248 315.36 229.308 314.52 231.048 314.52C233.208 314.52 234.788 315.96 234.788 318.7V325H233.088V318.76C233.088 317.08 232.148 316.12 230.708 316.12C229.428 316.12 228.528 316.84 227.868 318.02C227.888 318.24 227.908 318.46 227.908 318.7V325H226.208V318.76C226.208 317.08 225.288 316.12 223.828 316.12C222.448 316.12 221.588 316.98 221.008 318.02V325H219.308ZM239.074 312.3C238.414 312.3 237.874 311.76 237.874 311.1C237.874 310.46 238.414 309.92 239.074 309.92C239.734 309.92 240.254 310.46 240.254 311.1C240.254 311.76 239.734 312.3 239.074 312.3ZM238.214 325V314.92H239.914V325H238.214ZM242.349 323.62L243.549 322.6C244.249 323.48 245.089 323.98 246.109 323.98C247.229 323.98 247.869 323.3 247.869 322.42C247.869 320.16 242.829 320.96 242.829 317.4C242.829 315.82 244.169 314.52 246.109 314.52C247.549 314.52 248.789 315.2 249.489 316.18L248.309 317.18C247.769 316.42 247.009 315.94 246.129 315.94C245.049 315.94 244.469 316.58 244.469 317.36C244.469 319.62 249.529 318.9 249.529 322.34C249.509 324.22 248.009 325.4 246.129 325.4C244.529 325.4 243.269 324.76 242.349 323.62ZM257.299 313.32H255.639L257.719 310H259.639L257.299 313.32ZM261.139 323.34C260.199 324.6 258.699 325.4 256.819 325.4C253.419 325.4 251.319 322.9 251.319 319.96C251.319 316.9 253.279 314.52 256.399 314.52C259.139 314.52 260.919 316.44 260.919 318.92C260.919 319.32 260.859 319.7 260.799 319.98H253.059C253.119 322.4 254.659 323.86 256.819 323.86C258.119 323.86 259.219 323.26 259.879 322.36L261.139 323.34ZM256.359 315.96C254.699 315.96 253.539 316.94 253.179 318.68H259.219C259.159 317.2 258.139 315.96 256.359 315.96ZM272.721 323.34C271.781 324.6 270.281 325.4 268.401 325.4C265.001 325.4 262.901 322.9 262.901 319.96C262.901 316.9 264.861 314.52 267.981 314.52C270.721 314.52 272.501 316.44 272.501 318.92C272.501 319.32 272.441 319.7 272.381 319.98H264.641C264.701 322.4 266.241 323.86 268.401 323.86C269.701 323.86 270.801 323.26 271.461 322.36L272.721 323.34ZM267.941 315.96C266.281 315.96 265.121 316.94 264.761 318.68H270.801C270.741 317.2 269.721 315.96 267.941 315.96ZM274.224 323.62L275.424 322.6C276.124 323.48 276.964 323.98 277.984 323.98C279.104 323.98 279.744 323.3 279.744 322.42C279.744 320.16 274.704 320.96 274.704 317.4C274.704 315.82 276.044 314.52 277.984 314.52C279.424 314.52 280.664 315.2 281.364 316.18L280.184 317.18C279.644 316.42 278.884 315.94 278.004 315.94C276.924 315.94 276.344 316.58 276.344 317.36C276.344 319.62 281.404 318.9 281.404 322.34C281.384 324.22 279.884 325.4 278.004 325.4C276.404 325.4 275.144 324.76 274.224 323.62ZM298.522 323.34C297.582 324.6 296.082 325.4 294.202 325.4C290.802 325.4 288.702 322.9 288.702 319.96C288.702 316.9 290.662 314.52 293.782 314.52C296.522 314.52 298.302 316.44 298.302 318.92C298.302 319.32 298.242 319.7 298.182 319.98H290.442C290.502 322.4 292.042 323.86 294.202 323.86C295.502 323.86 296.602 323.26 297.262 322.36L298.522 323.34ZM293.742 315.96C292.082 315.96 290.922 316.94 290.562 318.68H296.602C296.542 317.2 295.522 315.96 293.742 315.96ZM301.183 325V314.92H302.883V316.06C303.703 315.16 304.743 314.52 306.243 314.52C308.503 314.52 310.183 316.04 310.183 318.9V325H308.483V318.96C308.483 317.16 307.463 316.12 305.903 316.12C304.443 316.12 303.523 316.96 302.883 318.02V325H301.183ZM81.113 352.68V346.92H82.813V352.62C82.813 355.64 81.073 357.4 78.333 357.4C75.613 357.4 73.873 355.64 73.873 352.62V346.92H75.573V352.68C75.573 354.66 76.633 355.8 78.353 355.8C80.033 355.8 81.113 354.66 81.113 352.68ZM86.8214 353.62V348.46H84.9214V346.92H86.8214V344.4H88.5414V346.92H92.0414V348.46H88.5414V353.62C88.5414 355.2 89.3414 355.64 90.5614 355.64C91.2214 355.64 91.6814 355.56 92.0614 355.4V356.92C91.5814 357.12 91.0414 357.2 90.3214 357.2C88.0814 357.2 86.8214 356.08 86.8214 353.62ZM95.4998 344.3C94.8398 344.3 94.2998 343.76 94.2998 343.1C94.2998 342.46 94.8398 341.92 95.4998 341.92C96.1598 341.92 96.6798 342.46 96.6798 343.1C96.6798 343.76 96.1598 344.3 95.4998 344.3ZM94.6398 357V346.92H96.3398V357H94.6398ZM99.9328 357V342H101.633V357H99.9328ZM106.086 344.3C105.426 344.3 104.886 343.76 104.886 343.1C104.886 342.46 105.426 341.92 106.086 341.92C106.746 341.92 107.266 342.46 107.266 343.1C107.266 343.76 106.746 344.3 106.086 344.3ZM105.226 357V346.92H106.926V357H105.226ZM109.361 355.62L110.561 354.6C111.261 355.48 112.101 355.98 113.121 355.98C114.241 355.98 114.881 355.3 114.881 354.42C114.881 352.16 109.841 352.96 109.841 349.4C109.841 347.82 111.181 346.52 113.121 346.52C114.561 346.52 115.801 347.2 116.501 348.18L115.321 349.18C114.781 348.42 114.021 347.94 113.141 347.94C112.061 347.94 111.481 348.58 111.481 349.36C111.481 351.62 116.541 350.9 116.541 354.34C116.521 356.22 115.021 357.4 113.141 357.4C111.541 357.4 110.281 356.76 109.361 355.62ZM122.009 357.28C120.029 357.28 118.689 356.18 118.689 354.46C118.689 352.94 119.849 351.86 121.989 351.5L125.389 350.94V350.24C125.389 348.84 124.389 348.04 122.949 348.04C121.789 348.04 120.849 348.58 120.229 349.44L118.949 348.46C119.829 347.26 121.249 346.52 123.009 346.52C125.569 346.52 127.089 348.02 127.089 350.24V357H125.389V355.72C124.629 356.7 123.309 357.28 122.009 357.28ZM120.409 354.4C120.409 355.26 121.109 355.88 122.289 355.88C123.629 355.88 124.729 355.24 125.389 354.16V352.18L122.409 352.68C121.029 352.92 120.409 353.54 120.409 354.4ZM130.499 357V346.92H132.199V348.06C133.019 347.16 134.059 346.52 135.559 346.52C137.819 346.52 139.499 348.04 139.499 350.9V357H137.799V350.96C137.799 349.16 136.779 348.12 135.219 348.12C133.759 348.12 132.839 348.96 132.199 350.02V357H130.499ZM143.501 353.62V348.46H141.601V346.92H143.501V344.4H145.221V346.92H148.721V348.46H145.221V353.62C145.221 355.2 146.021 355.64 147.241 355.64C147.901 355.64 148.361 355.56 148.741 355.4V356.92C148.261 357.12 147.721 357.2 147.001 357.2C144.761 357.2 143.501 356.08 143.501 353.62ZM156.01 357V355.28L164.69 344.72H156.21V343H166.97V344.72L158.29 355.28H167.17V357H156.01ZM174.799 345.32H173.139L175.219 342H177.139L174.799 345.32ZM178.639 355.34C177.699 356.6 176.199 357.4 174.319 357.4C170.919 357.4 168.819 354.9 168.819 351.96C168.819 348.9 170.779 346.52 173.899 346.52C176.639 346.52 178.419 348.44 178.419 350.92C178.419 351.32 178.359 351.7 178.299 351.98H170.559C170.619 354.4 172.159 355.86 174.319 355.86C175.619 355.86 176.719 355.26 177.379 354.36L178.639 355.34ZM173.859 347.96C172.199 347.96 171.039 348.94 170.679 350.68H176.719C176.659 349.2 175.639 347.96 173.859 347.96ZM181.3 357V346.92H183V348.18C183.74 347.3 184.66 346.72 185.94 346.72C186.26 346.72 186.56 346.76 186.8 346.84V348.5C186.5 348.42 186.2 348.38 185.8 348.38C184.48 348.38 183.62 349.06 183 350.08V357H181.3ZM193.244 346.52C196.484 346.52 198.704 349.02 198.704 351.96C198.704 354.9 196.484 357.4 193.244 357.4C189.984 357.4 187.784 354.9 187.784 351.96C187.784 349.02 189.984 346.52 193.244 346.52ZM193.264 355.8C195.364 355.8 196.904 354.04 196.904 351.96C196.904 349.86 195.364 348.12 193.264 348.12C191.104 348.12 189.564 349.86 189.564 351.96C189.564 354.06 191.104 355.8 193.264 355.8ZM207.247 357V343H209.127V355.28H214.767V357H207.247ZM221.759 346.52C224.999 346.52 227.219 349.02 227.219 351.96C227.219 354.9 224.999 357.4 221.759 357.4C218.499 357.4 216.299 354.9 216.299 351.96C216.299 349.02 218.499 346.52 221.759 346.52ZM221.779 355.8C223.879 355.8 225.419 354.04 225.419 351.96C225.419 349.86 223.879 348.12 221.779 348.12C219.619 348.12 218.079 349.86 218.079 351.96C218.079 354.06 219.619 355.8 221.779 355.8ZM228.714 358.82C228.714 357.8 229.214 356.98 230.214 356.28C229.754 355.92 229.514 355.38 229.514 354.84C229.514 354.04 229.934 353.38 230.714 352.88C229.834 352.22 229.314 351.2 229.314 350.08C229.314 348.14 230.834 346.5 233.234 346.5C233.974 346.5 234.634 346.66 235.174 346.92H238.914V348.4H236.734C237.014 348.9 237.154 349.48 237.154 350.08C237.154 352 235.654 353.64 233.234 353.64C232.734 353.64 232.254 353.56 231.834 353.44C231.414 353.74 231.174 354.1 231.174 354.48C231.174 354.9 231.394 355.2 232.014 355.2H234.894C237.554 355.2 238.794 356.5 238.794 358.3C238.794 360.42 236.674 362 233.654 362C230.674 362 228.714 360.84 228.714 358.82ZM233.254 352.3C234.714 352.3 235.554 351.3 235.554 350.08C235.554 348.84 234.714 347.84 233.254 347.84C231.754 347.84 230.934 348.84 230.934 350.08C230.934 351.32 231.754 352.3 233.254 352.3ZM230.374 358.62C230.374 359.84 231.634 360.58 233.634 360.58C235.754 360.58 237.094 359.74 237.094 358.42C237.094 357.46 236.554 356.7 234.754 356.7H231.494C230.794 357.22 230.374 357.82 230.374 358.62ZM249.498 355.34C248.558 356.6 247.058 357.4 245.178 357.4C241.778 357.4 239.678 354.9 239.678 351.96C239.678 348.9 241.638 346.52 244.758 346.52C247.498 346.52 249.278 348.44 249.278 350.92C249.278 351.32 249.218 351.7 249.158 351.98H241.418C241.478 354.4 243.018 355.86 245.178 355.86C246.478 355.86 247.578 355.26 248.238 354.36L249.498 355.34ZM244.718 347.96C243.058 347.96 241.898 348.94 241.538 350.68H247.578C247.518 349.2 246.498 347.96 244.718 347.96ZM252.159 357V346.92H253.859V348.02C254.619 347.14 255.619 346.52 257.019 346.52C258.479 346.52 259.679 347.18 260.299 348.46C261.099 347.36 262.159 346.52 263.899 346.52C266.059 346.52 267.639 347.96 267.639 350.7V357H265.939V350.76C265.939 349.08 264.999 348.12 263.559 348.12C262.279 348.12 261.379 348.84 260.719 350.02C260.739 350.24 260.759 350.46 260.759 350.7V357H259.059V350.76C259.059 349.08 258.139 348.12 256.679 348.12C255.299 348.12 254.439 348.98 253.859 350.02V357H252.159ZM280.026 355.34C279.086 356.6 277.586 357.4 275.706 357.4C272.306 357.4 270.206 354.9 270.206 351.96C270.206 348.9 272.166 346.52 275.286 346.52C278.026 346.52 279.806 348.44 279.806 350.92C279.806 351.32 279.746 351.7 279.686 351.98H271.946C272.006 354.4 273.546 355.86 275.706 355.86C277.006 355.86 278.106 355.26 278.766 354.36L280.026 355.34ZM275.246 347.96C273.586 347.96 272.426 348.94 272.066 350.68H278.106C278.046 349.2 277.026 347.96 275.246 347.96ZM282.687 357V346.92H284.387V348.06C285.207 347.16 286.247 346.52 287.747 346.52C290.007 346.52 291.687 348.04 291.687 350.9V357H289.987V350.96C289.987 349.16 288.967 348.12 287.407 348.12C285.947 348.12 285.027 348.96 284.387 350.02V357H282.687ZM295.689 353.62V348.46H293.789V346.92H295.689V344.4H297.409V346.92H300.909V348.46H297.409V353.62C297.409 355.2 298.209 355.64 299.429 355.64C300.089 355.64 300.549 355.56 300.929 355.4V356.92C300.449 357.12 299.909 357.2 299.189 357.2C296.949 357.2 295.689 356.08 295.689 353.62ZM153.585 375H155.585L160.425 387.1L165.265 375H167.265L161.665 389H159.185L153.585 375ZM171.159 389.28C169.179 389.28 167.839 388.18 167.839 386.46C167.839 384.94 168.999 383.86 171.139 383.5L174.539 382.94V382.24C174.539 380.84 173.539 380.04 172.099 380.04C170.939 380.04 169.999 380.58 169.379 381.44L168.099 380.46C168.979 379.26 170.399 378.52 172.159 378.52C174.719 378.52 176.239 380.02 176.239 382.24V389H174.539V387.72C173.779 388.7 172.459 389.28 171.159 389.28ZM169.559 386.4C169.559 387.26 170.259 387.88 171.439 387.88C172.779 387.88 173.879 387.24 174.539 386.16V384.18L171.559 384.68C170.179 384.92 169.559 385.54 169.559 386.4ZM184.29 387.8C185.53 387.8 186.55 387.2 187.17 386.32L188.51 387.34C187.57 388.6 186.11 389.4 184.27 389.4C180.93 389.4 178.79 386.9 178.79 383.96C178.79 381.02 180.93 378.52 184.27 378.52C186.09 378.52 187.57 379.34 188.51 380.58L187.17 381.6C186.55 380.72 185.53 380.12 184.27 380.12C182.11 380.12 180.57 381.82 180.57 383.96C180.57 386.12 182.11 387.8 184.29 387.8ZM193.444 389.28C191.464 389.28 190.124 388.18 190.124 386.46C190.124 384.94 191.284 383.86 193.424 383.5L196.824 382.94V382.24C196.824 380.84 195.824 380.04 194.384 380.04C193.224 380.04 192.284 380.58 191.664 381.44L190.384 380.46C191.264 379.26 192.684 378.52 194.444 378.52C197.004 378.52 198.524 380.02 198.524 382.24V389H196.824V387.72C196.064 388.7 194.744 389.28 193.444 389.28ZM191.844 386.4C191.844 387.26 192.544 387.88 193.724 387.88C195.064 387.88 196.164 387.24 196.824 386.16V384.18L193.844 384.68C192.464 384.92 191.844 385.54 191.844 386.4ZM201.935 389V378.92H203.635V380.06C204.455 379.16 205.495 378.52 206.995 378.52C209.255 378.52 210.935 380.04 210.935 382.9V389H209.235V382.96C209.235 381.16 208.215 380.12 206.655 380.12C205.195 380.12 204.275 380.96 203.635 382.02V389H201.935ZM214.937 385.62V380.46H213.037V378.92H214.937V376.4H216.657V378.92H220.157V380.46H216.657V385.62C216.657 387.2 217.457 387.64 218.677 387.64C219.337 387.64 219.797 387.56 220.177 387.4V388.92C219.697 389.12 219.157 389.2 218.437 389.2C216.197 389.2 214.937 388.08 214.937 385.62Z" fill="#161616"/>
</svg>
