<svg width="167" height="150" viewBox="0 0 167 150" fill="none" xmlns="http://www.w3.org/2000/svg">
<path d="M116.543 86.8172L93.4971 59.5024L47.2378 59.9236L19.1763 87.1551L19.7433 87.5181H19.5408V144.16H116.48V87.5181L116.543 86.8172Z" fill="#3F3D56"/>
<path d="M93.521 59.5605L64.7307 93.1892V144.16H116.48V86.792L93.521 59.5605Z" fill="#6A6AF4"/>
<path d="M95.0318 115.972H84.4631V125.279H95.0318V115.972Z" fill="white"/>
<path d="M95.0318 99.8628H84.4631V109.022H95.0318V99.8628Z" fill="white"/>
<path d="M48.064 113.502H37.4954V122.809H48.064V113.502Z" fill="white"/>
<path d="M48.064 97.3936H37.4954V106.553H48.064V97.3936Z" fill="white"/>
<path d="M129.872 55.051H59.7049C59.3604 55.0506 59.0301 54.9141 58.7865 54.6714C58.543 54.4287 58.4059 54.0997 58.4055 53.7565V21.6574C58.4059 21.3141 58.543 20.9851 58.7865 20.7424C59.0301 20.4997 59.3604 20.3632 59.7049 20.3628H129.872C130.216 20.3632 130.547 20.4997 130.79 20.7424C131.034 20.9851 131.171 21.3141 131.171 21.6574V53.7565C131.171 54.0997 131.034 54.4287 130.79 54.6714C130.547 54.9141 130.216 55.0506 129.872 55.051V55.051ZM59.7049 20.8806C59.4982 20.8808 59.3 20.9628 59.1539 21.1084C59.0077 21.254 58.9255 21.4514 58.9253 21.6574V53.7565C58.9255 53.9624 59.0077 54.1598 59.1539 54.3055C59.3 54.4511 59.4982 54.533 59.7049 54.5332H129.872C130.079 54.533 130.277 54.4511 130.423 54.3055C130.569 54.1598 130.651 53.9624 130.651 53.7565V21.6574C130.651 21.4514 130.569 21.254 130.423 21.1084C130.277 20.9628 130.079 20.8808 129.872 20.8806H59.7049Z" fill="#E6E6E6"/>
<path d="M70.0874 37.0073C73.0107 37.0073 75.3805 34.6463 75.3805 31.7339C75.3805 28.8214 73.0107 26.4604 70.0874 26.4604C67.1642 26.4604 64.7944 28.8214 64.7944 31.7339C64.7944 34.6463 67.1642 37.0073 70.0874 37.0073Z" fill="#6A6AF4"/>
<path d="M82.312 28.2183C82.196 28.2181 82.0811 28.2407 81.974 28.2848C81.8668 28.3289 81.7694 28.3936 81.6873 28.4752C81.6053 28.5569 81.5402 28.6538 81.4957 28.7605C81.4513 28.8672 81.4285 28.9816 81.4285 29.0972C81.4285 29.2127 81.4513 29.3271 81.4957 29.4338C81.5402 29.5405 81.6053 29.6375 81.6873 29.7191C81.7694 29.8007 81.8668 29.8655 81.974 29.9095C82.0811 29.9536 82.196 29.9762 82.312 29.9761H123.9C124.134 29.9761 124.358 29.8835 124.524 29.7186C124.689 29.5538 124.782 29.3303 124.782 29.0972C124.782 28.8641 124.689 28.6405 124.524 28.4757C124.358 28.3109 124.134 28.2183 123.9 28.2183H82.312Z" fill="#E6E6E6"/>
<path d="M82.312 33.4917C82.196 33.4915 82.0811 33.5141 81.974 33.5582C81.8668 33.6023 81.7694 33.667 81.6873 33.7487C81.6053 33.8303 81.5402 33.9272 81.4957 34.034C81.4513 34.1407 81.4285 34.2551 81.4285 34.3706C81.4285 34.4861 81.4513 34.6005 81.4957 34.7072C81.5402 34.814 81.6053 34.9109 81.6873 34.9925C81.7694 35.0742 81.8668 35.1389 81.974 35.183C82.0811 35.2271 82.196 35.2497 82.312 35.2495H100.207C100.323 35.2497 100.438 35.2271 100.545 35.183C100.653 35.1389 100.75 35.0742 100.832 34.9925C100.914 34.9109 100.979 34.814 101.024 34.7072C101.068 34.6005 101.091 34.4861 101.091 34.3706C101.091 34.2551 101.068 34.1407 101.024 34.034C100.979 33.9272 100.914 33.8303 100.832 33.7487C100.75 33.667 100.653 33.6023 100.545 33.5582C100.438 33.5141 100.323 33.4915 100.207 33.4917H82.312Z" fill="#E6E6E6"/>
<path d="M66.0277 41.9224C65.3566 41.9224 64.8105 42.3167 64.8105 42.8013C64.8105 43.2859 65.3566 43.6802 66.0277 43.6802H123.406C124.077 43.6802 124.623 43.2858 124.623 42.8013C124.623 42.3167 124.077 41.9224 123.406 41.9224H66.0277Z" fill="#E6E6E6"/>
<path d="M66.0277 47.1958C65.3566 47.1958 64.8105 47.5901 64.8105 48.0747C64.8105 48.5593 65.3566 48.9536 66.0277 48.9536H123.406C124.077 48.9536 124.623 48.5593 124.623 48.0747C124.623 47.5901 124.077 47.1958 123.406 47.1958H66.0277Z" fill="#E6E6E6"/>
<path d="M117.234 18.757C122.433 18.757 126.648 14.5581 126.648 9.3785C126.648 4.1989 122.433 0 117.234 0C112.036 0 107.821 4.1989 107.821 9.3785C107.821 14.5581 112.036 18.757 117.234 18.757Z" fill="#6A6AF4"/>
<path d="M117.234 24.6246L114.291 19.5455L111.348 14.4663H117.234H123.121L120.178 19.5455L117.234 24.6246Z" fill="#6A6AF4"/>
<path d="M117.31 12.6848C119.176 12.6848 120.688 11.1783 120.688 9.31994C120.688 7.46158 119.176 5.95508 117.31 5.95508C115.445 5.95508 113.933 7.46158 113.933 9.31994C113.933 11.1783 115.445 12.6848 117.31 12.6848Z" fill="white"/>
</svg>
