<svg width="120" height="120" viewBox="0 0 120 120" fill="none" xmlns="http://www.w3.org/2000/svg">
<path fill-rule="evenodd" clip-rule="evenodd" d="M112.5 93.0001C111.673 93.0001 111 92.3272 111 91.5001C111 90.673 111.673 90.0001 112.5 90.0001C113.327 90.0001 114 90.673 114 91.5001C114 92.3272 113.327 93.0001 112.5 93.0001Z" fill="#ECECFE"/>
<path fill-rule="evenodd" clip-rule="evenodd" d="M88.5 9.00012C87.6729 9.00012 87 8.32722 87 7.50012C87 6.67295 87.6729 6.00012 88.5 6.00012C89.3271 6.00012 90 6.67295 90 7.50012C90 8.32722 89.3271 9.00012 88.5 9.00012Z" fill="#ECECFE"/>
<path fill-rule="evenodd" clip-rule="evenodd" d="M15 102C14.1729 102 13.5 101.327 13.5 100.5C13.5 99.673 14.1729 99.0001 15 99.0001C15.8271 99.0001 16.5 99.673 16.5 100.5C16.5 101.327 15.8271 102 15 102Z" fill="#ECECFE"/>
<path d="M18 39.0001C18 39.8272 18.6729 40.5001 19.5 40.5001C20.3271 40.5001 21 39.8272 21 39.0001C21 38.173 20.3271 37.5001 19.5 37.5001C18.6729 37.5001 18 38.173 18 39.0001Z" fill="#E1000F"/>
<path d="M24 40.5001C23.1729 40.5001 22.5 39.8272 22.5 39.0001C22.5 38.173 23.1729 37.5001 24 37.5001C24.8271 37.5001 25.5 38.173 25.5 39.0001C25.5 39.8272 24.8271 40.5001 24 40.5001Z" fill="#E1000F"/>
<path d="M27 39.0001C27 39.8272 27.6729 40.5001 28.5 40.5001C29.3271 40.5001 30 39.8272 30 39.0001C30 38.173 29.3271 37.5001 28.5 37.5001C27.6729 37.5001 27 38.173 27 39.0001Z" fill="#E1000F"/>
<path fill-rule="evenodd" clip-rule="evenodd" d="M13.5 31.5001H34.5C35.3284 31.5001 36 32.1717 36 33.0001V45.0001C36 45.8286 35.3284 46.5001 34.5 46.5001H30V48.0001C30 49.0565 28.9468 49.763 27.9879 49.4105L27.8292 49.3418L22.146 46.5001H13.5C12.7307 46.5001 12.0967 45.9211 12.0101 45.1751L12 45.0001V33.0001C12 32.1717 12.6716 31.5001 13.5 31.5001ZM28.5 43.5001H33V34.5001H15V43.5001H22.5C22.6747 43.5001 22.8475 43.5306 23.0109 43.5898L23.1708 43.6585L27 45.5731V45.0001C27 44.2309 27.5791 43.5969 28.3251 43.5102L28.5 43.5001Z" fill="#E1000F"/>
<path d="M76.5 43.5001C75.6716 43.5001 75 44.1717 75 45.0001C75 45.8286 75.6716 46.5001 76.5 46.5001C77.3284 46.5001 78 45.8286 78 45.0001C78 44.1717 77.3284 43.5001 76.5 43.5001Z" fill="#E1000F"/>
<path fill-rule="evenodd" clip-rule="evenodd" d="M76.5 37.5001C72.3579 37.5001 69 40.858 69 45.0001C69 49.1423 72.3579 52.5001 76.5 52.5001C80.6421 52.5001 84 49.1423 84 45.0001C84 40.858 80.6421 37.5001 76.5 37.5001ZM76.5 40.5001C78.9853 40.5001 81 42.5148 81 45.0001C81 47.4854 78.9853 49.5001 76.5 49.5001C74.0147 49.5001 72 47.4854 72 45.0001C72 42.5148 74.0147 40.5001 76.5 40.5001Z" fill="#E1000F"/>
<path fill-rule="evenodd" clip-rule="evenodd" d="M65.9999 31.5001C65.9999 25.7795 64.0323 22.5001 59.9999 22.5001C55.9675 22.5001 53.9999 25.7795 53.9999 31.5001C53.9999 31.6882 54.0345 31.8681 54.0977 32.034C45.7121 33.7011 40.9586 39.3099 39.4843 49.3866L39.3463 50.4218C39.0714 52.6978 38.9536 55.1895 38.9893 57.9024L39.0002 58.5324L38.9937 59.8321L39.0173 60.5425C39.051 63.4984 37.9195 67.2842 36.2709 69.6401L30.4338 77.7647L30.2887 77.9921C30.02 78.4559 29.8809 78.9725 29.8809 79.5001C29.8809 81.157 31.224 82.5001 32.8809 82.5001L47.9999 82.5001C47.9999 90.3286 52.1714 94.5001 59.9999 94.5001C67.8283 94.5001 71.9999 90.3286 71.9999 82.5001L87.1189 82.5001L87.3815 82.4886C87.9041 82.4427 88.4071 82.2604 88.8393 81.9578C90.1966 81.0077 90.5267 79.1371 89.5766 77.7797L83.7181 69.6249L83.4375 69.2072C81.9714 66.9261 80.9975 63.8219 80.9976 61.2769L80.9993 60.0424L81.021 59.0522C81.0311 58.3983 81.0324 57.757 81.0251 57.128C81.0154 56.2997 80.336 55.636 79.5077 55.6457C78.6793 55.6553 78.0156 56.3347 78.0253 57.1631C78.0358 58.066 78.0276 58.9975 78.0005 59.9578L77.9976 61.2766L78.0082 61.8079C78.1359 65.0224 79.3985 68.6937 81.2723 71.3622L87.1184 79.4986L32.8809 79.5001L38.7181 71.3753L38.9916 70.9688C40.9637 67.9212 42.1923 63.4421 41.9976 59.9174L41.9947 59.8452L41.9995 58.4678L41.9889 57.8634C41.7625 41.2612 47.2157 34.5001 59.9999 34.5001C63.6502 34.5001 66.6834 35.1318 69.1417 36.3885C69.8793 36.7655 70.7829 36.4733 71.16 35.7356C71.5371 34.998 71.2448 34.0943 70.5072 33.7173C69.1014 32.9986 67.5596 32.4572 65.8797 32.0893C65.9571 31.9085 65.9999 31.7093 65.9999 31.5001ZM63.0065 31.6416C63.0021 31.595 62.9999 31.5478 62.9999 31.5001C62.9999 27.2208 61.9675 25.5001 59.9999 25.5001C58.0323 25.5001 56.9999 27.2208 56.9999 31.5001C56.9999 31.5427 56.9981 31.5848 56.9946 31.6265C57.9561 31.542 58.9577 31.5001 59.9999 31.5001C61.0408 31.5001 62.0429 31.5471 63.0065 31.6416ZM50.9999 82.5001C50.9999 88.6717 53.8283 91.5001 59.9999 91.5001C66.1714 91.5001 68.9999 88.6717 68.9999 82.5001H50.9999Z" fill="#000091"/>
<path d="M59.9999 102C65.2696 102 69.8026 100.319 73.0605 97.0608C73.6463 96.475 73.6463 95.5253 73.0605 94.9395C72.4747 94.3537 71.525 94.3537 70.9392 94.9395C68.2749 97.6038 64.5104 99.0001 59.9999 99.0001C59.1714 99.0001 58.4999 99.6717 58.4999 100.5C58.4999 101.329 59.1714 102 59.9999 102Z" fill="#000091"/>
<path d="M76.4999 93.0001C75.6728 93.0001 74.9999 92.3272 74.9999 91.5001C74.9999 90.673 75.6728 90.0001 76.4999 90.0001C77.327 90.0001 77.9999 90.673 77.9999 91.5001C77.9999 92.3272 77.327 93.0001 76.4999 93.0001Z" fill="#000091"/>
<path d="M100.5 52.5001C101.328 52.5001 102 53.1717 102 54.0001C102 54.7694 101.421 55.4034 100.675 55.49L100.5 55.5001H94.4999C93.6715 55.5001 92.9999 54.8285 92.9999 54.0001C92.9999 53.2309 93.5789 52.5969 94.3249 52.5102L94.4999 52.5001H100.5Z" fill="#000091"/>
<path fill-rule="evenodd" clip-rule="evenodd" d="M88.4999 46.5001H106.5C107.328 46.5001 108 47.1717 108 48.0001V60.0001L107.99 60.1751C107.903 60.9211 107.269 61.5001 106.5 61.5001H100.854L95.1707 64.3418L95.012 64.4105C94.0531 64.763 92.9999 64.0565 92.9999 63.0001V61.5001H88.4999C87.6715 61.5001 86.9999 60.8285 86.9999 60.0001V48.0001C86.9999 47.1717 87.6715 46.5001 88.4999 46.5001ZM89.9999 49.5001V58.5001H94.4999L94.6748 58.5102C95.4208 58.5969 95.9999 59.2309 95.9999 60.0001V60.5731L99.8291 58.6585L99.989 58.5898C100.152 58.5306 100.325 58.5001 100.5 58.5001H105V49.5001H89.9999Z" fill="#000091"/>
</svg>

