<svg width="279" height="428" viewBox="0 0 279 428" fill="none" xmlns="http://www.w3.org/2000/svg">
  <path fill-rule="evenodd" clip-rule="evenodd" d="M187 190C185.621 190 184.5 188.879 184.5 187.5C184.5 186.121 185.621 185 187 185C188.379 185 189.5 186.121 189.5 187.5C189.5 188.879 188.379 190 187 190Z" fill="#ECECFE"/>
  <path fill-rule="evenodd" clip-rule="evenodd" d="M207 30C205.621 30 204.5 28.8785 204.5 27.5C204.5 26.1214 205.621 25 207 25C208.379 25 209.5 26.1214 209.5 27.5C209.5 28.8785 208.379 30 207 30Z" fill="#ECECFE"/>
  <path fill-rule="evenodd" clip-rule="evenodd" d="M62 40C60.6215 40 59.5 38.8785 59.5 37.5C59.5 36.1214 60.6215 35 62 35C63.3785 35 64.5 36.1214 64.5 37.5C64.5 38.8785 63.3785 40 62 40Z" fill="#ECECFE"/>
  <path d="M132 57.5C132 56.1193 130.881 55 129.5 55H99.5L99.2084 55.0168C97.9651 55.1612 97 56.2179 97 57.5C97 58.8807 98.1193 60 99.5 60H129.5L129.792 59.9832C131.035 59.8388 132 58.7821 132 57.5Z" fill="#E1000F"/>
  <path d="M137 100C134.239 100 132 102.239 132 105C132 111.218 134.522 115 139.5 115C140.881 115 142 113.881 142 112.5C142 111.119 140.881 110 139.5 110L139.265 109.992C138.966 109.969 138.698 109.903 138.46 109.784C140.509 109.159 142 107.254 142 105C142 102.239 139.761 100 137 100Z" fill="#E1000F"/>
  <path d="M147 105C147 102.239 149.239 100 152 100C154.761 100 157 102.239 157 105C157 107.254 155.509 109.159 153.46 109.784C153.698 109.903 153.966 109.969 154.265 109.992L154.5 110C155.881 110 157 111.119 157 112.5C157 113.881 155.881 115 154.5 115C149.522 115 147 111.218 147 105Z" fill="#E1000F"/>
  <path d="M124.5 65C125.881 65 127 66.1193 127 67.5C127 68.7821 126.035 69.8388 124.792 69.9832L124.5 70H99.5C98.1193 70 97 68.8807 97 67.5C97 66.2179 97.9651 65.1612 99.2084 65.0168L99.5 65H124.5Z" fill="#E1000F"/>
  <path d="M117 77.5C117 76.1193 115.881 75 114.5 75H99.5L99.2084 75.0168C97.9651 75.1612 97 76.2179 97 77.5C97 78.8807 98.1193 80 99.5 80H114.5L114.792 79.9832C116.035 79.8388 117 78.7821 117 77.5Z" fill="#E1000F"/>
  <path d="M179.5 125C180.881 125 182 126.119 182 127.5C182 128.782 181.035 129.839 179.792 129.983L179.5 130H134.5C133.119 130 132 128.881 132 127.5C132 126.218 132.965 125.161 134.208 125.017L134.5 125H179.5Z" fill="#E1000F"/>
  <path d="M172 137.5C172 136.119 170.881 135 169.5 135H134.5L134.208 135.017C132.965 135.161 132 136.218 132 137.5C132 138.881 133.119 140 134.5 140H169.5L169.792 139.983C171.035 139.839 172 138.782 172 137.5Z" fill="#E1000F"/>
  <path d="M119.5 30C136.635 30 150.22 40.1428 156.82 56.5679C157.335 57.849 156.713 59.3049 155.432 59.8197C154.151 60.3345 152.695 59.7133 152.18 58.4321C146.31 43.8218 134.494 35 119.5 35C98.7893 35 82 51.7893 82 72.5C82 80.5396 84.5332 88.1906 89.1644 94.5502C89.7515 95.3565 89.7978 96.424 89.3094 97.2704L89.1268 97.5437L79.5675 110H94.5C95.7821 110 96.8388 110.965 96.9832 112.208L97 112.5C97 113.782 96.0349 114.839 94.7916 114.983L94.5 115H74.5C72.5214 115 71.3632 112.834 72.3595 111.207L72.5166 110.978L84.05 95.945L83.9087 95.7359C79.627 89.1919 77.2154 81.5727 77.0138 73.5906L77 72.5C77 49.0279 96.0279 30 119.5 30Z" fill="#000091"/>
  <path d="M157 70C184.614 70 207 92.3858 207 120C207 127.827 205.198 135.401 201.784 142.258C201.169 143.494 199.668 143.997 198.432 143.382C197.196 142.766 196.693 141.265 197.308 140.029C200.38 133.861 202 127.049 202 120C202 95.1472 181.853 75 157 75C132.147 75 112 95.1472 112 120C112 144.577 131.702 164.552 156.173 164.993L157 165H199.827L192.42 153.887C191.709 152.82 191.926 151.405 192.88 150.596L193.113 150.42C194.18 149.709 195.595 149.926 196.404 150.88L196.58 151.113L206.58 166.113C207.635 167.696 206.605 169.789 204.78 169.985L204.5 170H157C129.386 170 107 147.614 107 120C107 92.3858 129.386 70 157 70Z" fill="#000091"/>
  <path d="M177 47.5C177 48.8785 178.122 50 179.5 50C180.878 50 182 48.8785 182 47.5C182 46.1214 180.878 45 179.5 45C178.122 45 177 46.1214 177 47.5Z" fill="#000091"/>
  <path d="M189.5 50C188.122 50 187 48.8785 187 47.5C187 46.1214 188.122 45 189.5 45C190.878 45 192 46.1214 192 47.5C192 48.8785 190.878 50 189.5 50Z" fill="#000091"/>
  <path d="M197 47.5C197 48.8785 198.122 50 199.5 50C200.878 50 202 48.8785 202 47.5C202 46.1214 200.878 45 199.5 45C198.122 45 197 46.1214 197 47.5Z" fill="#000091"/>
  <path fill-rule="evenodd" clip-rule="evenodd" d="M209.5 35H169.5C168.119 35 167 36.1193 167 37.5V57.5L167.017 57.7916C167.161 59.0349 168.218 60 169.5 60H188.462L197.732 69.2678L197.944 69.4581C199.536 70.7436 202 69.6304 202 67.5V60H209.5C210.881 60 212 58.8807 212 57.5V37.5C212 36.1193 210.881 35 209.5 35ZM207 40V55H199.5L199.208 55.0168C197.965 55.1612 197 56.2179 197 57.5V61.4625L191.268 55.7322L191.02 55.5152C190.586 55.1829 190.053 55 189.5 55H172V40H207Z" fill="#000091"/>
  <path d="M79.5 145C80.8807 145 82 146.119 82 147.5C82 148.782 81.0349 149.839 79.7916 149.983L79.5 150H69.5C68.1193 150 67 148.881 67 147.5C67 146.218 67.9651 145.161 69.2084 145.017L69.5 145H79.5Z" fill="#000091"/>
  <path d="M87 147.5C87 148.878 88.1215 150 89.5 150C90.8785 150 92 148.878 92 147.5C92 146.121 90.8785 145 89.5 145C88.1215 145 87 146.121 87 147.5Z" fill="#000091"/>
  <path d="M99.5 150C98.1215 150 97 148.878 97 147.5C97 146.121 98.1215 145 99.5 145C100.879 145 102 146.121 102 147.5C102 148.878 100.879 150 99.5 150Z" fill="#000091"/>
  <path d="M17.12 286.92V242.04L5.52 248.6L0.16 240.92L17.44 230.92H27.92V286.92H17.12ZM64.5956 287V227H74.7556V249.88C77.5556 247.16 81.3156 245.08 86.6756 245.08C95.3956 245.08 102.356 251.08 102.356 263V287H92.1156V263.4C92.1156 258.04 89.1556 254.68 84.1156 254.68C78.9956 254.68 76.2756 258.12 74.7556 260.68V287H64.5956ZM151.013 280.44C147.253 285.48 141.013 288.6 133.413 288.6C119.093 288.6 111.013 278.6 111.013 266.84C111.013 254.92 118.533 245.08 131.733 245.08C142.933 245.08 150.293 252.68 150.293 263.24C150.293 265.48 149.973 267.56 149.653 268.92H121.413C122.373 276.44 127.013 279.48 133.333 279.48C137.733 279.48 141.573 277.56 143.733 274.68L151.013 280.44ZM131.493 253.4C126.293 253.4 122.853 256.28 121.733 261.56H140.293C140.133 257.48 137.173 253.4 131.493 253.4ZM186.312 269.56V246.68H196.552V269.08C196.552 281.16 189.512 288.6 177.672 288.6C165.832 288.6 158.872 281.16 158.872 269.08V246.68H169.112V269.56C169.112 275.4 172.152 279 177.752 279C183.272 279 186.312 275.4 186.312 269.56ZM207.799 287V246.68H217.959V250.68C220.599 247.96 224.039 245.88 228.599 245.88C229.959 245.88 231.159 246.12 232.119 246.44V256.44C230.839 256.12 229.479 255.88 227.639 255.88C222.679 255.88 219.479 258.6 217.959 261.16V287H207.799ZM275.7 280.44C271.94 285.48 265.7 288.6 258.1 288.6C243.78 288.6 235.7 278.6 235.7 266.84C235.7 254.92 243.22 245.08 256.42 245.08C267.62 245.08 274.98 252.68 274.98 263.24C274.98 265.48 274.66 267.56 274.34 268.92H246.1C247.06 276.44 251.7 279.48 258.02 279.48C262.42 279.48 266.26 277.56 268.42 274.68L275.7 280.44ZM256.18 253.4C250.98 253.4 247.54 256.28 246.42 261.56H264.98C264.82 257.48 261.86 253.4 256.18 253.4Z" fill="#161616"/>
  <path d="M33.4425 321.62V316.46H31.5425V314.92H33.4425V312.4H35.1625V314.92H38.6625V316.46H35.1625V321.62C35.1625 323.2 35.9625 323.64 37.1825 323.64C37.8425 323.64 38.3025 323.56 38.6825 323.4V324.92C38.2025 325.12 37.6625 325.2 36.9425 325.2C34.7025 325.2 33.4425 324.08 33.4425 321.62ZM50.0256 323.34C49.0856 324.6 47.5856 325.4 45.7056 325.4C42.3056 325.4 40.2056 322.9 40.2056 319.96C40.2056 316.9 42.1656 314.52 45.2856 314.52C48.0256 314.52 49.8056 316.44 49.8056 318.92C49.8056 319.32 49.7456 319.7 49.6856 319.98H41.9456C42.0056 322.4 43.5456 323.86 45.7056 323.86C47.0056 323.86 48.1056 323.26 48.7656 322.36L50.0256 323.34ZM45.2456 315.96C43.5856 315.96 42.4256 316.94 42.0656 318.68H48.1056C48.0456 317.2 47.0256 315.96 45.2456 315.96ZM52.6867 325V314.92H54.3867V316.02C55.1467 315.14 56.1467 314.52 57.5467 314.52C59.0067 314.52 60.2067 315.18 60.8267 316.46C61.6267 315.36 62.6867 314.52 64.4267 314.52C66.5867 314.52 68.1667 315.96 68.1667 318.7V325H66.4667V318.76C66.4667 317.08 65.5267 316.12 64.0867 316.12C62.8067 316.12 61.9067 316.84 61.2467 318.02C61.2667 318.24 61.2867 318.46 61.2867 318.7V325H59.5867V318.76C59.5867 317.08 58.6667 316.12 57.2067 316.12C55.8267 316.12 54.9667 316.98 54.3867 318.02V325H52.6867ZM71.593 329.92V314.92H73.293V316.12C74.193 315.1 75.373 314.52 76.873 314.52C80.033 314.52 82.053 317.02 82.053 319.96C82.053 322.9 80.033 325.4 76.873 325.4C75.373 325.4 74.193 324.82 73.293 323.8V329.92H71.593ZM76.673 316.12C75.273 316.12 74.053 316.8 73.293 318V321.92C74.073 323.14 75.293 323.8 76.673 323.8C78.813 323.8 80.273 322.1 80.273 319.96C80.273 317.82 78.813 316.12 76.673 316.12ZM83.4427 323.62L84.6427 322.6C85.3427 323.48 86.1827 323.98 87.2027 323.98C88.3227 323.98 88.9627 323.3 88.9627 322.42C88.9627 320.16 83.9227 320.96 83.9227 317.4C83.9227 315.82 85.2627 314.52 87.2027 314.52C88.6427 314.52 89.8827 315.2 90.5827 316.18L89.4027 317.18C88.8627 316.42 88.1027 315.94 87.2227 315.94C86.1427 315.94 85.5627 316.58 85.5627 317.36C85.5627 319.62 90.6227 318.9 90.6227 322.34C90.6027 324.22 89.1027 325.4 87.2227 325.4C85.6227 325.4 84.3627 324.76 83.4427 323.62ZM98.7805 325V314.92H100.48V316.06C101.3 315.16 102.34 314.52 103.84 314.52C106.1 314.52 107.78 316.04 107.78 318.9V325H106.08V318.96C106.08 317.16 105.06 316.12 103.5 316.12C102.04 316.12 101.12 316.96 100.48 318.02V325H98.7805ZM116.322 313.32H114.662L116.742 310H118.662L116.322 313.32ZM120.162 323.34C119.222 324.6 117.722 325.4 115.842 325.4C112.442 325.4 110.342 322.9 110.342 319.96C110.342 316.9 112.302 314.52 115.422 314.52C118.162 314.52 119.942 316.44 119.942 318.92C119.942 319.32 119.882 319.7 119.822 319.98H112.082C112.142 322.4 113.682 323.86 115.842 323.86C117.142 323.86 118.242 323.26 118.902 322.36L120.162 323.34ZM115.382 315.96C113.722 315.96 112.562 316.94 112.202 318.68H118.242C118.182 317.2 117.162 315.96 115.382 315.96ZM127.424 323.8C128.664 323.8 129.684 323.2 130.304 322.32L131.644 323.34C130.704 324.6 129.244 325.4 127.404 325.4C124.064 325.4 121.924 322.9 121.924 319.96C121.924 317.02 124.064 314.52 127.404 314.52C129.224 314.52 130.704 315.34 131.644 316.58L130.304 317.6C129.684 316.72 128.664 316.12 127.404 316.12C125.244 316.12 123.704 317.82 123.704 319.96C123.704 322.12 125.244 323.8 127.424 323.8ZM142.545 323.34C141.605 324.6 140.105 325.4 138.225 325.4C134.825 325.4 132.725 322.9 132.725 319.96C132.725 316.9 134.685 314.52 137.805 314.52C140.545 314.52 142.325 316.44 142.325 318.92C142.325 319.32 142.265 319.7 142.205 319.98H134.465C134.525 322.4 136.065 323.86 138.225 323.86C139.525 323.86 140.625 323.26 141.285 322.36L142.545 323.34ZM137.765 315.96C136.105 315.96 134.945 316.94 134.585 318.68H140.625C140.565 317.2 139.545 315.96 137.765 315.96ZM144.048 323.62L145.248 322.6C145.948 323.48 146.788 323.98 147.808 323.98C148.928 323.98 149.568 323.3 149.568 322.42C149.568 320.16 144.528 320.96 144.528 317.4C144.528 315.82 145.868 314.52 147.808 314.52C149.248 314.52 150.488 315.2 151.188 316.18L150.008 317.18C149.468 316.42 148.708 315.94 147.828 315.94C146.748 315.94 146.168 316.58 146.168 317.36C146.168 319.62 151.228 318.9 151.228 322.34C151.208 324.22 149.708 325.4 147.828 325.4C146.228 325.4 144.968 324.76 144.048 323.62ZM152.837 323.62L154.037 322.6C154.737 323.48 155.577 323.98 156.597 323.98C157.717 323.98 158.357 323.3 158.357 322.42C158.357 320.16 153.317 320.96 153.317 317.4C153.317 315.82 154.657 314.52 156.597 314.52C158.037 314.52 159.277 315.2 159.977 316.18L158.797 317.18C158.257 316.42 157.497 315.94 156.617 315.94C155.537 315.94 154.957 316.58 154.957 317.36C154.957 319.62 160.017 318.9 160.017 322.34C159.997 324.22 158.497 325.4 156.617 325.4C155.017 325.4 153.757 324.76 152.837 323.62ZM165.485 325.28C163.505 325.28 162.165 324.18 162.165 322.46C162.165 320.94 163.325 319.86 165.465 319.5L168.865 318.94V318.24C168.865 316.84 167.865 316.04 166.425 316.04C165.265 316.04 164.325 316.58 163.705 317.44L162.425 316.46C163.305 315.26 164.725 314.52 166.485 314.52C169.045 314.52 170.565 316.02 170.565 318.24V325H168.865V323.72C168.105 324.7 166.785 325.28 165.485 325.28ZM163.885 322.4C163.885 323.26 164.585 323.88 165.765 323.88C167.105 323.88 168.205 323.24 168.865 322.16V320.18L165.885 320.68C164.505 320.92 163.885 321.54 163.885 322.4ZM174.836 312.3C174.176 312.3 173.636 311.76 173.636 311.1C173.636 310.46 174.176 309.92 174.836 309.92C175.496 309.92 176.016 310.46 176.016 311.1C176.016 311.76 175.496 312.3 174.836 312.3ZM173.976 325V314.92H175.676V325H173.976ZM179.269 325V314.92H180.969V316.18C181.709 315.3 182.629 314.72 183.909 314.72C184.229 314.72 184.529 314.76 184.769 314.84V316.5C184.469 316.42 184.169 316.38 183.769 316.38C182.449 316.38 181.589 317.06 180.969 318.08V325H179.269ZM195.573 323.34C194.633 324.6 193.133 325.4 191.253 325.4C187.853 325.4 185.753 322.9 185.753 319.96C185.753 316.9 187.713 314.52 190.833 314.52C193.573 314.52 195.353 316.44 195.353 318.92C195.353 319.32 195.293 319.7 195.233 319.98H187.493C187.553 322.4 189.093 323.86 191.253 323.86C192.553 323.86 193.653 323.26 194.313 322.36L195.573 323.34ZM190.793 315.96C189.133 315.96 187.973 316.94 187.613 318.68H193.653C193.593 317.2 192.573 315.96 190.793 315.96ZM203.624 329.92V314.92H205.324V316.12C206.224 315.1 207.404 314.52 208.904 314.52C212.064 314.52 214.084 317.02 214.084 319.96C214.084 322.9 212.064 325.4 208.904 325.4C207.404 325.4 206.224 324.82 205.324 323.8V329.92H203.624ZM208.704 316.12C207.304 316.12 206.084 316.8 205.324 318V321.92C206.104 323.14 207.324 323.8 208.704 323.8C210.844 323.8 212.304 322.1 212.304 319.96C212.304 317.82 210.844 316.12 208.704 316.12ZM221.525 314.52C224.765 314.52 226.985 317.02 226.985 319.96C226.985 322.9 224.765 325.4 221.525 325.4C218.265 325.4 216.065 322.9 216.065 319.96C216.065 317.02 218.265 314.52 221.525 314.52ZM221.545 323.8C223.645 323.8 225.185 322.04 225.185 319.96C225.185 317.86 223.645 316.12 221.545 316.12C219.385 316.12 217.845 317.86 217.845 319.96C217.845 322.06 219.385 323.8 221.545 323.8ZM236.738 320.68V314.92H238.438V320.62C238.438 323.64 236.698 325.4 233.958 325.4C231.238 325.4 229.498 323.64 229.498 320.62V314.92H231.198V320.68C231.198 322.66 232.258 323.8 233.978 323.8C235.658 323.8 236.738 322.66 236.738 320.68ZM241.788 325V314.92H243.488V316.18C244.228 315.3 245.148 314.72 246.428 314.72C246.748 314.72 247.048 314.76 247.288 314.84V316.5C246.988 316.42 246.688 316.38 246.288 316.38C244.968 316.38 244.108 317.06 243.488 318.08V325H241.788ZM10.7336 361.92V346.92H12.4336V348.12C13.3336 347.1 14.5136 346.52 16.0136 346.52C19.1736 346.52 21.1936 349.02 21.1936 351.96C21.1936 354.9 19.1736 357.4 16.0136 357.4C14.5136 357.4 13.3336 356.82 12.4336 355.8V361.92H10.7336ZM15.8136 348.12C14.4136 348.12 13.1936 348.8 12.4336 350V353.92C13.2136 355.14 14.4336 355.8 15.8136 355.8C17.9536 355.8 19.4136 354.1 19.4136 351.96C19.4136 349.82 17.9536 348.12 15.8136 348.12ZM23.9367 357V346.92H25.6367V348.18C26.3767 347.3 27.2967 346.72 28.5767 346.72C28.8967 346.72 29.1967 346.76 29.4367 346.84V348.5C29.1367 348.42 28.8367 348.38 28.4367 348.38C27.1167 348.38 26.2567 349.06 25.6367 350.08V357H23.9367ZM40.2405 355.34C39.3005 356.6 37.8005 357.4 35.9205 357.4C32.5205 357.4 30.4205 354.9 30.4205 351.96C30.4205 348.9 32.3805 346.52 35.5005 346.52C38.2405 346.52 40.0205 348.44 40.0205 350.92C40.0205 351.32 39.9605 351.7 39.9005 351.98H32.1605C32.2205 354.4 33.7605 355.86 35.9205 355.86C37.2205 355.86 38.3205 355.26 38.9805 354.36L40.2405 355.34ZM35.4605 347.96C33.8005 347.96 32.6405 348.94 32.2805 350.68H38.3205C38.2605 349.2 37.2405 347.96 35.4605 347.96ZM42.9016 357V346.92H44.6016V348.06C45.4216 347.16 46.4616 346.52 47.9616 346.52C50.2216 346.52 51.9016 348.04 51.9016 350.9V357H50.2016V350.96C50.2016 349.16 49.1816 348.12 47.6216 348.12C46.1616 348.12 45.2416 348.96 44.6016 350.02V357H42.9016ZM54.4634 351.96C54.4634 349.02 56.4834 346.52 59.6434 346.52C61.1434 346.52 62.3234 347.1 63.2234 348.12V342H64.9234V357H63.2234V355.8C62.3234 356.82 61.1434 357.4 59.6434 357.4C56.4834 357.4 54.4634 354.9 54.4634 351.96ZM56.2634 351.96C56.2634 354.1 57.7034 355.8 59.8434 355.8C61.2434 355.8 62.4834 355.12 63.2234 353.94V349.98C62.4434 348.78 61.2234 348.12 59.8434 348.12C57.7034 348.12 56.2634 349.82 56.2634 351.96ZM68.507 357V346.92H70.207V348.18C70.947 347.3 71.867 346.72 73.147 346.72C73.467 346.72 73.767 346.76 74.007 346.84V348.5C73.707 348.42 73.407 348.38 73.007 348.38C71.687 348.38 70.827 349.06 70.207 350.08V357H68.507ZM84.8108 355.34C83.8708 356.6 82.3708 357.4 80.4908 357.4C77.0908 357.4 74.9908 354.9 74.9908 351.96C74.9908 348.9 76.9508 346.52 80.0708 346.52C82.8108 346.52 84.5908 348.44 84.5908 350.92C84.5908 351.32 84.5308 351.7 84.4708 351.98H76.7308C76.7908 354.4 78.3308 355.86 80.4908 355.86C81.7908 355.86 82.8908 355.26 83.5508 354.36L84.8108 355.34ZM80.0308 347.96C78.3708 347.96 77.2108 348.94 76.8508 350.68H82.8908C82.8308 349.2 81.8108 347.96 80.0308 347.96ZM101.823 355.34C100.883 356.6 99.3825 357.4 97.5025 357.4C94.1025 357.4 92.0025 354.9 92.0025 351.96C92.0025 348.9 93.9625 346.52 97.0825 346.52C99.8225 346.52 101.603 348.44 101.603 350.92C101.603 351.32 101.543 351.7 101.483 351.98H93.7425C93.8025 354.4 95.3425 355.86 97.5025 355.86C98.8025 355.86 99.9025 355.26 100.563 354.36L101.823 355.34ZM97.0425 347.96C95.3825 347.96 94.2225 348.94 93.8625 350.68H99.9025C99.8425 349.2 98.8225 347.96 97.0425 347.96ZM104.484 357V346.92H106.184V348.06C107.004 347.16 108.044 346.52 109.544 346.52C111.804 346.52 113.484 348.04 113.484 350.9V357H111.784V350.96C111.784 349.16 110.764 348.12 109.204 348.12C107.744 348.12 106.824 348.96 106.184 350.02V357H104.484ZM122.296 357V346.92H123.996V348.02C124.756 347.14 125.756 346.52 127.156 346.52C128.616 346.52 129.816 347.18 130.436 348.46C131.236 347.36 132.296 346.52 134.036 346.52C136.196 346.52 137.776 347.96 137.776 350.7V357H136.076V350.76C136.076 349.08 135.136 348.12 133.696 348.12C132.416 348.12 131.516 348.84 130.856 350.02C130.876 350.24 130.896 350.46 130.896 350.7V357H129.196V350.76C129.196 349.08 128.276 348.12 126.816 348.12C125.436 348.12 124.576 348.98 123.996 350.02V357H122.296ZM143.942 357.28C141.962 357.28 140.622 356.18 140.622 354.46C140.622 352.94 141.782 351.86 143.922 351.5L147.322 350.94V350.24C147.322 348.84 146.322 348.04 144.882 348.04C143.722 348.04 142.782 348.58 142.162 349.44L140.882 348.46C141.762 347.26 143.182 346.52 144.942 346.52C147.502 346.52 149.022 348.02 149.022 350.24V357H147.322V355.72C146.562 356.7 145.242 357.28 143.942 357.28ZM142.342 354.4C142.342 355.26 143.042 355.88 144.222 355.88C145.562 355.88 146.662 355.24 147.322 354.16V352.18L144.342 352.68C142.962 352.92 142.342 353.54 142.342 354.4ZM153.293 344.3C152.633 344.3 152.093 343.76 152.093 343.1C152.093 342.46 152.633 341.92 153.293 341.92C153.953 341.92 154.473 342.46 154.473 343.1C154.473 343.76 153.953 344.3 153.293 344.3ZM152.433 357V346.92H154.133V357H152.433ZM157.726 357V346.92H159.426V348.06C160.246 347.16 161.286 346.52 162.786 346.52C165.046 346.52 166.726 348.04 166.726 350.9V357H165.026V350.96C165.026 349.16 164.006 348.12 162.446 348.12C160.986 348.12 160.066 348.96 159.426 350.02V357H157.726ZM175.538 357V342H177.238V357H175.538ZM182.569 348.36H181.089L180.849 343H182.789L182.569 348.36ZM190.295 346.52C193.535 346.52 195.755 349.02 195.755 351.96C195.755 354.9 193.535 357.4 190.295 357.4C187.035 357.4 184.835 354.9 184.835 351.96C184.835 349.02 187.035 346.52 190.295 346.52ZM190.315 355.8C192.415 355.8 193.955 354.04 193.955 351.96C193.955 349.86 192.415 348.12 190.315 348.12C188.155 348.12 186.615 349.86 186.615 351.96C186.615 354.06 188.155 355.8 190.315 355.8ZM205.508 352.68V346.92H207.208V352.62C207.208 355.64 205.468 357.4 202.728 357.4C200.008 357.4 198.268 355.64 198.268 352.62V346.92H199.968V352.68C199.968 354.66 201.028 355.8 202.748 355.8C204.428 355.8 205.508 354.66 205.508 352.68ZM211.216 353.62V348.46H209.316V346.92H211.216V344.4H212.936V346.92H216.436V348.46H212.936V353.62C212.936 355.2 213.736 355.64 214.956 355.64C215.616 355.64 216.076 355.56 216.456 355.4V356.92C215.976 357.12 215.436 357.2 214.716 357.2C212.476 357.2 211.216 356.08 211.216 353.62ZM219.894 344.3C219.234 344.3 218.694 343.76 218.694 343.1C218.694 342.46 219.234 341.92 219.894 341.92C220.554 341.92 221.074 342.46 221.074 343.1C221.074 343.76 220.554 344.3 219.894 344.3ZM219.034 357V346.92H220.734V357H219.034ZM224.327 357V342H226.027V357H224.327ZM234.311 357V355.28L242.991 344.72H234.511V343H245.271V344.72L236.591 355.28H245.471V357H234.311ZM248.79 357V343H250.67V355.28H256.31V357H248.79ZM255.841 343H257.841L262.681 355.1L267.521 343H269.521L263.921 357H261.441L255.841 343ZM9.52203 383.96C9.52203 381.02 11.542 378.52 14.702 378.52C16.202 378.52 17.382 379.1 18.282 380.12V374H19.982V389H18.282V387.8C17.382 388.82 16.202 389.4 14.702 389.4C11.542 389.4 9.52203 386.9 9.52203 383.96ZM11.322 383.96C11.322 386.1 12.762 387.8 14.902 387.8C16.302 387.8 17.542 387.12 18.282 385.94V381.98C17.502 380.78 16.282 380.12 14.902 380.12C12.762 380.12 11.322 381.82 11.322 383.96ZM26.3056 389.28C24.3256 389.28 22.9856 388.18 22.9856 386.46C22.9856 384.94 24.1456 383.86 26.2856 383.5L29.6856 382.94V382.24C29.6856 380.84 28.6856 380.04 27.2456 380.04C26.0856 380.04 25.1456 380.58 24.5256 381.44L23.2456 380.46C24.1256 379.26 25.5456 378.52 27.3056 378.52C29.8656 378.52 31.3856 380.02 31.3856 382.24V389H29.6856V387.72C28.9256 388.7 27.6056 389.28 26.3056 389.28ZM24.7056 386.4C24.7056 387.26 25.4056 387.88 26.5856 387.88C27.9256 387.88 29.0256 387.24 29.6856 386.16V384.18L26.7056 384.68C25.3256 384.92 24.7056 385.54 24.7056 386.4ZM34.7961 389V378.92H36.4961V380.06C37.3161 379.16 38.3561 378.52 39.8561 378.52C42.1161 378.52 43.7961 380.04 43.7961 382.9V389H42.0961V382.96C42.0961 381.16 41.0761 380.12 39.5161 380.12C38.0561 380.12 37.1361 380.96 36.4961 382.02V389H34.7961ZM46.138 387.62L47.338 386.6C48.038 387.48 48.878 387.98 49.898 387.98C51.018 387.98 51.658 387.3 51.658 386.42C51.658 384.16 46.618 384.96 46.618 381.4C46.618 379.82 47.958 378.52 49.898 378.52C51.338 378.52 52.578 379.2 53.278 380.18L52.098 381.18C51.558 380.42 50.798 379.94 49.918 379.94C48.838 379.94 48.258 380.58 48.258 381.36C48.258 383.62 53.318 382.9 53.318 386.34C53.298 388.22 51.798 389.4 49.918 389.4C48.318 389.4 47.058 388.76 46.138 387.62ZM61.4758 389V374H63.1758V389H61.4758ZM75.7288 387.34C74.7888 388.6 73.2888 389.4 71.4088 389.4C68.0088 389.4 65.9088 386.9 65.9088 383.96C65.9088 380.9 67.8688 378.52 70.9888 378.52C73.7288 378.52 75.5088 380.44 75.5088 382.92C75.5088 383.32 75.4488 383.7 75.3888 383.98H67.6488C67.7088 386.4 69.2488 387.86 71.4088 387.86C72.7088 387.86 73.8088 387.26 74.4688 386.36L75.7288 387.34ZM70.9488 379.96C69.2888 379.96 68.1288 380.94 67.7688 382.68H73.8088C73.7488 381.2 72.7288 379.96 70.9488 379.96ZM88.4205 387.8C89.6605 387.8 90.6805 387.2 91.3005 386.32L92.6405 387.34C91.7005 388.6 90.2405 389.4 88.4005 389.4C85.0605 389.4 82.9205 386.9 82.9205 383.96C82.9205 381.02 85.0605 378.52 88.4005 378.52C90.2205 378.52 91.7005 379.34 92.6405 380.58L91.3005 381.6C90.6805 380.72 89.6605 380.12 88.4005 380.12C86.2405 380.12 84.7005 381.82 84.7005 383.96C84.7005 386.12 86.2405 387.8 88.4205 387.8ZM97.5752 389.28C95.5952 389.28 94.2552 388.18 94.2552 386.46C94.2552 384.94 95.4152 383.86 97.5552 383.5L100.955 382.94V382.24C100.955 380.84 99.9552 380.04 98.5152 380.04C97.3552 380.04 96.4152 380.58 95.7952 381.44L94.5152 380.46C95.3952 379.26 96.8152 378.52 98.5752 378.52C101.135 378.52 102.655 380.02 102.655 382.24V389H100.955V387.72C100.195 388.7 98.8752 389.28 97.5752 389.28ZM95.9752 386.4C95.9752 387.26 96.6752 387.88 97.8552 387.88C99.1952 387.88 100.295 387.24 100.955 386.16V384.18L97.9752 384.68C96.5952 384.92 95.9752 385.54 95.9752 386.4ZM105.206 383.96C105.206 381.02 107.226 378.52 110.386 378.52C111.886 378.52 113.066 379.1 113.966 380.12V374H115.666V389H113.966V387.8C113.066 388.82 111.886 389.4 110.386 389.4C107.226 389.4 105.206 386.9 105.206 383.96ZM107.006 383.96C107.006 386.1 108.446 387.8 110.586 387.8C111.986 387.8 113.226 387.12 113.966 385.94V381.98C113.186 380.78 111.966 380.12 110.586 380.12C108.446 380.12 107.006 381.82 107.006 383.96ZM119.249 389V378.92H120.949V380.18C121.689 379.3 122.609 378.72 123.889 378.72C124.209 378.72 124.509 378.76 124.749 378.84V380.5C124.449 380.42 124.149 380.38 123.749 380.38C122.429 380.38 121.569 381.06 120.949 382.08V389H119.249ZM135.553 387.34C134.613 388.6 133.113 389.4 131.233 389.4C127.833 389.4 125.733 386.9 125.733 383.96C125.733 380.9 127.693 378.52 130.813 378.52C133.553 378.52 135.333 380.44 135.333 382.92C135.333 383.32 135.273 383.7 135.213 383.98H127.473C127.533 386.4 129.073 387.86 131.233 387.86C132.533 387.86 133.633 387.26 134.293 386.36L135.553 387.34ZM130.773 379.96C129.113 379.96 127.953 380.94 127.593 382.68H133.633C133.573 381.2 132.553 379.96 130.773 379.96ZM142.745 383.96C142.745 381.02 144.765 378.52 147.925 378.52C149.425 378.52 150.605 379.1 151.505 380.12V374H153.205V389H151.505V387.8C150.605 388.82 149.425 389.4 147.925 389.4C144.765 389.4 142.745 386.9 142.745 383.96ZM144.545 383.96C144.545 386.1 145.985 387.8 148.125 387.8C149.525 387.8 150.765 387.12 151.505 385.94V381.98C150.725 380.78 149.505 380.12 148.125 380.12C145.985 380.12 144.545 381.82 144.545 383.96ZM158.526 380.36H157.046L156.806 375H158.746L158.526 380.36ZM169.277 384.68V378.92H170.977V384.62C170.977 387.64 169.237 389.4 166.497 389.4C163.777 389.4 162.037 387.64 162.037 384.62V378.92H163.737V384.68C163.737 386.66 164.797 387.8 166.517 387.8C168.197 387.8 169.277 386.66 169.277 384.68ZM174.327 389V378.92H176.027V380.06C176.847 379.16 177.887 378.52 179.387 378.52C181.647 378.52 183.327 380.04 183.327 382.9V389H181.627V382.96C181.627 381.16 180.607 380.12 179.047 380.12C177.587 380.12 176.667 380.96 176.027 382.02V389H174.327ZM195.709 387.34C194.769 388.6 193.269 389.4 191.389 389.4C187.989 389.4 185.889 386.9 185.889 383.96C185.889 380.9 187.849 378.52 190.969 378.52C193.709 378.52 195.489 380.44 195.489 382.92C195.489 383.32 195.429 383.7 195.369 383.98H187.629C187.689 386.4 189.229 387.86 191.389 387.86C192.689 387.86 193.789 387.26 194.449 386.36L195.709 387.34ZM190.929 379.96C189.269 379.96 188.109 380.94 187.749 382.68H193.789C193.729 381.2 192.709 379.96 190.929 379.96ZM202.681 387.62L203.881 386.6C204.581 387.48 205.421 387.98 206.441 387.98C207.561 387.98 208.201 387.3 208.201 386.42C208.201 384.16 203.161 384.96 203.161 381.4C203.161 379.82 204.501 378.52 206.441 378.52C207.881 378.52 209.121 379.2 209.821 380.18L208.641 381.18C208.101 380.42 207.341 379.94 206.461 379.94C205.381 379.94 204.801 380.58 204.801 381.36C204.801 383.62 209.861 382.9 209.861 386.34C209.841 388.22 208.341 389.4 206.461 389.4C204.861 389.4 203.601 388.76 202.681 387.62ZM221.471 387.34C220.531 388.6 219.031 389.4 217.151 389.4C213.751 389.4 211.651 386.9 211.651 383.96C211.651 380.9 213.611 378.52 216.731 378.52C219.471 378.52 221.251 380.44 221.251 382.92C221.251 383.32 221.191 383.7 221.131 383.98H213.391C213.451 386.4 214.991 387.86 217.151 387.86C218.451 387.86 219.551 387.26 220.211 386.36L221.471 387.34ZM216.691 379.96C215.031 379.96 213.871 380.94 213.511 382.68H219.551C219.491 381.2 218.471 379.96 216.691 379.96ZM222.974 387.62L224.174 386.6C224.874 387.48 225.714 387.98 226.734 387.98C227.854 387.98 228.494 387.3 228.494 386.42C228.494 384.16 223.454 384.96 223.454 381.4C223.454 379.82 224.794 378.52 226.734 378.52C228.174 378.52 229.414 379.2 230.114 380.18L228.934 381.18C228.394 380.42 227.634 379.94 226.754 379.94C225.674 379.94 225.094 380.58 225.094 381.36C225.094 383.62 230.154 382.9 230.154 386.34C230.134 388.22 228.634 389.4 226.754 389.4C225.154 389.4 223.894 388.76 222.974 387.62ZM231.763 387.62L232.963 386.6C233.663 387.48 234.503 387.98 235.523 387.98C236.643 387.98 237.283 387.3 237.283 386.42C237.283 384.16 232.243 384.96 232.243 381.4C232.243 379.82 233.583 378.52 235.523 378.52C236.963 378.52 238.203 379.2 238.903 380.18L237.723 381.18C237.183 380.42 236.423 379.94 235.543 379.94C234.463 379.94 233.883 380.58 233.883 381.36C233.883 383.62 238.943 382.9 238.943 386.34C238.923 388.22 237.423 389.4 235.543 389.4C233.943 389.4 232.683 388.76 231.763 387.62ZM242.57 376.3C241.91 376.3 241.37 375.76 241.37 375.1C241.37 374.46 241.91 373.92 242.57 373.92C243.23 373.92 243.75 374.46 243.75 375.1C243.75 375.76 243.23 376.3 242.57 376.3ZM241.71 389V378.92H243.41V389H241.71ZM251.603 378.52C254.843 378.52 257.063 381.02 257.063 383.96C257.063 386.9 254.843 389.4 251.603 389.4C248.343 389.4 246.143 386.9 246.143 383.96C246.143 381.02 248.343 378.52 251.603 378.52ZM251.623 387.8C253.723 387.8 255.263 386.04 255.263 383.96C255.263 381.86 253.723 380.12 251.623 380.12C249.463 380.12 247.923 381.86 247.923 383.96C247.923 386.06 249.463 387.8 251.623 387.8ZM259.796 389V378.92H261.496V380.06C262.316 379.16 263.356 378.52 264.856 378.52C267.116 378.52 268.796 380.04 268.796 382.9V389H267.096V382.96C267.096 381.16 266.076 380.12 264.516 380.12C263.056 380.12 262.136 380.96 261.496 382.02V389H259.796ZM60.6353 415.96C60.6353 413.02 62.6553 410.52 65.8153 410.52C67.3153 410.52 68.4953 411.1 69.3953 412.12V406H71.0953V421H69.3953V419.8C68.4953 420.82 67.3153 421.4 65.8153 421.4C62.6553 421.4 60.6353 418.9 60.6353 415.96ZM62.4353 415.96C62.4353 418.1 63.8753 419.8 66.0153 419.8C67.4153 419.8 68.6553 419.12 69.3953 417.94V413.98C68.6153 412.78 67.3953 412.12 66.0153 412.12C63.8753 412.12 62.4353 413.82 62.4353 415.96ZM83.6389 419.34C82.6989 420.6 81.1989 421.4 79.3189 421.4C75.9189 421.4 73.8189 418.9 73.8189 415.96C73.8189 412.9 75.7789 410.52 78.8989 410.52C81.6389 410.52 83.4189 412.44 83.4189 414.92C83.4189 415.32 83.3589 415.7 83.2989 415.98H75.5589C75.6189 418.4 77.1589 419.86 79.3189 419.86C80.6189 419.86 81.7189 419.26 82.3789 418.36L83.6389 419.34ZM78.8589 411.96C77.1989 411.96 76.0389 412.94 75.6789 414.68H81.7189C81.6589 413.2 80.6389 411.96 78.8589 411.96ZM91.6906 425.92V410.92H93.3906V412.12C94.2906 411.1 95.4706 410.52 96.9706 410.52C100.131 410.52 102.151 413.02 102.151 415.96C102.151 418.9 100.131 421.4 96.9706 421.4C95.4706 421.4 94.2906 420.82 93.3906 419.8V425.92H91.6906ZM96.7706 412.12C95.3706 412.12 94.1506 412.8 93.3906 414V417.92C94.1706 419.14 95.3906 419.8 96.7706 419.8C98.9106 419.8 100.371 418.1 100.371 415.96C100.371 413.82 98.9106 412.12 96.7706 412.12ZM104.894 421V410.92H106.594V412.18C107.334 411.3 108.254 410.72 109.534 410.72C109.854 410.72 110.154 410.76 110.394 410.84V412.5C110.094 412.42 109.794 412.38 109.394 412.38C108.074 412.38 107.214 413.06 106.594 414.08V421H104.894ZM113.703 408.3C113.043 408.3 112.503 407.76 112.503 407.1C112.503 406.46 113.043 405.92 113.703 405.92C114.363 405.92 114.883 406.46 114.883 407.1C114.883 407.76 114.363 408.3 113.703 408.3ZM112.843 421V410.92H114.543V421H112.843ZM116.978 419.62L118.178 418.6C118.878 419.48 119.718 419.98 120.738 419.98C121.858 419.98 122.498 419.3 122.498 418.42C122.498 416.16 117.458 416.96 117.458 413.4C117.458 411.82 118.798 410.52 120.738 410.52C122.178 410.52 123.418 411.2 124.118 412.18L122.938 413.18C122.398 412.42 121.638 411.94 120.758 411.94C119.678 411.94 119.098 412.58 119.098 413.36C119.098 415.62 124.158 414.9 124.158 418.34C124.138 420.22 122.638 421.4 120.758 421.4C119.158 421.4 117.898 420.76 116.978 419.62ZM135.768 419.34C134.828 420.6 133.328 421.4 131.448 421.4C128.048 421.4 125.948 418.9 125.948 415.96C125.948 412.9 127.908 410.52 131.028 410.52C133.768 410.52 135.548 412.44 135.548 414.92C135.548 415.32 135.488 415.7 135.428 415.98H127.688C127.748 418.4 129.288 419.86 131.448 419.86C132.748 419.86 133.848 419.26 134.508 418.36L135.768 419.34ZM130.988 411.96C129.328 411.96 128.168 412.94 127.808 414.68H133.848C133.788 413.2 132.768 411.96 130.988 411.96ZM152.78 419.34C151.84 420.6 150.34 421.4 148.46 421.4C145.06 421.4 142.96 418.9 142.96 415.96C142.96 412.9 144.92 410.52 148.04 410.52C150.78 410.52 152.56 412.44 152.56 414.92C152.56 415.32 152.5 415.7 152.44 415.98H144.7C144.76 418.4 146.3 419.86 148.46 419.86C149.76 419.86 150.86 419.26 151.52 418.36L152.78 419.34ZM148 411.96C146.34 411.96 145.18 412.94 144.82 414.68H150.86C150.8 413.2 149.78 411.96 148 411.96ZM155.441 421V410.92H157.141V412.06C157.961 411.16 159.001 410.52 160.501 410.52C162.761 410.52 164.441 412.04 164.441 414.9V421H162.741V414.96C162.741 413.16 161.721 412.12 160.161 412.12C158.701 412.12 157.781 412.96 157.141 414.02V421H155.441ZM173.253 421V410.92H174.953V412.02C175.713 411.14 176.713 410.52 178.113 410.52C179.573 410.52 180.773 411.18 181.393 412.46C182.193 411.36 183.253 410.52 184.993 410.52C187.153 410.52 188.733 411.96 188.733 414.7V421H187.033V414.76C187.033 413.08 186.093 412.12 184.653 412.12C183.373 412.12 182.473 412.84 181.813 414.02C181.833 414.24 181.853 414.46 181.853 414.7V421H180.153V414.76C180.153 413.08 179.233 412.12 177.773 412.12C176.393 412.12 175.533 412.98 174.953 414.02V421H173.253ZM194.899 421.28C192.919 421.28 191.579 420.18 191.579 418.46C191.579 416.94 192.739 415.86 194.879 415.5L198.279 414.94V414.24C198.279 412.84 197.279 412.04 195.839 412.04C194.679 412.04 193.739 412.58 193.119 413.44L191.839 412.46C192.719 411.26 194.139 410.52 195.899 410.52C198.459 410.52 199.979 412.02 199.979 414.24V421H198.279V419.72C197.519 420.7 196.199 421.28 194.899 421.28ZM193.299 418.4C193.299 419.26 193.999 419.88 195.179 419.88C196.519 419.88 197.619 419.24 198.279 418.16V416.18L195.299 416.68C193.919 416.92 193.299 417.54 193.299 418.4ZM204.25 408.3C203.59 408.3 203.05 407.76 203.05 407.1C203.05 406.46 203.59 405.92 204.25 405.92C204.91 405.92 205.43 406.46 205.43 407.1C205.43 407.76 204.91 408.3 204.25 408.3ZM203.39 421V410.92H205.09V421H203.39ZM208.683 421V410.92H210.383V412.06C211.203 411.16 212.243 410.52 213.743 410.52C216.003 410.52 217.683 412.04 217.683 414.9V421H215.983V414.96C215.983 413.16 214.963 412.12 213.403 412.12C211.943 412.12 211.023 412.96 210.383 414.02V421H208.683Z" fill="#161616"/>
</svg>
