<svg width="181" height="200" viewBox="0 0 181 200" fill="none" xmlns="http://www.w3.org/2000/svg">
<g clip-path="url(#clip0_1149_54688)">
<path d="M171.828 188.512C170.704 188.905 169.498 189.003 168.324 188.798C167.151 188.592 166.051 188.09 165.129 187.339C162.783 185.382 162.046 182.158 161.449 179.173L159.678 170.342L163.385 172.879C166.051 174.703 168.776 176.585 170.622 179.227C172.468 181.869 173.273 185.475 171.79 188.334" fill="#E6E6E6"/>
<path d="M171.512 199.203C171.887 196.487 172.273 193.737 172.009 190.992C171.776 188.555 171.028 186.174 169.504 184.222C168.695 183.188 167.711 182.301 166.596 181.603C166.305 181.421 166.038 181.879 166.327 182.06C168.256 183.272 169.749 185.061 170.589 187.17C171.517 189.516 171.666 192.072 171.505 194.564C171.408 196.07 171.203 197.567 170.996 199.062C170.98 199.13 170.99 199.201 171.024 199.262C171.059 199.322 171.116 199.367 171.183 199.388C171.251 199.406 171.323 199.397 171.385 199.362C171.446 199.327 171.491 199.27 171.51 199.203L171.512 199.203Z" fill="#F2F2F2"/>
<path d="M158.078 154.099H3.00684V0H158.078V154.099Z" fill="white"/>
<path d="M158.078 154.099H3.00684V0H158.078V154.099ZM5.29798 151.822H155.787V2.2768H5.29798V151.822Z" fill="#E5E5E5"/>
<path d="M130.606 24.1089H63.4543V26.1876H130.606V24.1089Z" fill="#E5E5E5"/>
<path d="M130.606 29.5134H63.4543V31.5921H130.606V29.5134Z" fill="#E5E5E5"/>
<path d="M130.606 34.9182H63.4543V36.9969H130.606V34.9182Z" fill="#E5E5E5"/>
<path d="M130.606 70.5173H63.4543V72.596H130.606V70.5173Z" fill="#E5E5E5"/>
<path d="M130.606 75.9221H63.4543V78.0008H130.606V75.9221Z" fill="#E5E5E5"/>
<path d="M130.606 81.3267H63.4543V83.4054H130.606V81.3267Z" fill="#E5E5E5"/>
<path d="M130.606 116.926H63.4543V119.005H130.606V116.926Z" fill="#E5E5E5"/>
<path d="M130.606 122.331H63.4543V124.409H130.606V122.331Z" fill="#E5E5E5"/>
<path d="M130.606 127.735H63.4543V129.814H130.606V127.735Z" fill="#E5E5E5"/>
<path d="M42.32 26.147C41.6751 24.3057 40.6337 22.6264 39.2685 21.2262C37.9033 19.826 36.2472 18.7385 34.4156 18.0397C32.5841 17.3408 30.6212 17.0474 28.6638 17.1799C26.7064 17.3124 24.8016 17.8676 23.0823 18.8068C21.3631 19.7459 19.8706 21.0465 18.7091 22.6177C17.5476 24.189 16.745 25.9931 16.3572 27.9043C15.9694 29.8154 16.0058 31.7876 16.4639 33.6834C16.9219 35.5791 17.7906 37.3528 19.0093 38.8806C19.1304 39.0322 19.2563 39.1838 19.3847 39.3306C19.3944 39.3402 19.4016 39.3498 19.4113 39.3595C19.7269 39.7209 20.0624 40.0647 20.4162 40.3893C20.5083 40.4735 20.6051 40.5602 20.7019 40.642C20.8859 40.8056 21.0748 40.962 21.271 41.1112C21.3484 41.1713 21.4235 41.2315 21.5034 41.2893C21.8133 41.5226 22.1354 41.7392 22.4671 41.9461L22.4817 41.9533C22.576 42.0111 22.673 42.0689 22.7698 42.1242C22.9441 42.2277 23.1233 42.3263 23.3025 42.4202L23.4163 42.4779C23.6778 42.6127 23.9442 42.7402 24.2178 42.8581C24.2735 42.8822 24.334 42.9062 24.3897 42.9303C24.3946 42.9327 24.3969 42.9327 24.4018 42.9351C24.5302 42.988 24.6585 43.0386 24.7892 43.0867C25.2187 43.2497 25.6568 43.3895 26.1016 43.5054C27.2367 43.806 28.4064 43.9581 29.5811 43.9577C30.0097 43.9577 30.4335 43.9385 30.8524 43.8976C31.8095 43.8098 32.7544 43.6202 33.6709 43.3321C33.6733 43.3321 33.6758 43.3297 33.6781 43.3297C34.2571 43.1464 34.8226 42.9237 35.3707 42.6632C35.3731 42.6608 35.3779 42.6608 35.3804 42.6584C35.5039 42.6006 35.6226 42.5381 35.7436 42.4779L35.8017 42.449C35.8985 42.3985 35.9955 42.348 36.0923 42.295C36.3344 42.1627 36.5717 42.0231 36.8065 41.874C36.8719 41.8354 36.9349 41.7945 37.0003 41.7512C37.0923 41.6911 37.1843 41.6285 37.2739 41.5635C37.3925 41.4817 37.5112 41.3975 37.6274 41.3109C37.6637 41.2844 37.7025 41.258 37.7388 41.2291C40.0073 39.518 41.6724 37.1371 42.4954 34.4277C43.3184 31.7183 43.257 28.8196 42.32 26.147V26.147ZM37.2933 40.6444C37.2134 40.7069 37.1311 40.7671 37.0487 40.8224C36.9688 40.8826 36.8889 40.9403 36.8065 40.9933C36.7363 41.0438 36.6661 41.0919 36.5935 41.1376L36.5717 41.1521C36.5184 41.1882 36.4652 41.2218 36.4119 41.2555C36.2109 41.3807 36.0075 41.501 35.8017 41.6165L35.7363 41.6526C35.6443 41.7031 35.5523 41.7512 35.4603 41.7994C35.4482 41.8066 35.4336 41.8114 35.4216 41.8186L35.407 41.8258C35.2908 41.886 35.1721 41.9437 35.0535 41.9991C34.5957 42.2182 34.1241 42.4079 33.6418 42.5669C33.5788 42.5886 33.5159 42.6103 33.453 42.6295C32.5856 42.9037 31.691 43.0844 30.7846 43.1685C30.3875 43.2046 29.9855 43.2238 29.5812 43.2238C28.4701 43.2261 27.3636 43.0821 26.2905 42.7955C25.7398 42.6527 25.2001 42.471 24.6755 42.2517C24.6488 42.2397 24.6197 42.2301 24.5931 42.218C24.5641 42.206 24.5374 42.1964 24.5108 42.1844C24.4817 42.1723 24.4551 42.1603 24.426 42.1459C24.1984 42.0472 23.9732 41.9389 23.7529 41.8258L23.6464 41.7705C23.3775 41.6309 23.1136 41.4817 22.857 41.3229C22.7819 41.2772 22.7044 41.2291 22.6317 41.1785C22.6125 41.1665 22.5954 41.1545 22.576 41.1425C22.4041 41.0294 22.2322 40.9115 22.0652 40.7887C21.9514 40.7045 21.8376 40.6203 21.7262 40.5337C21.5397 40.3941 21.3605 40.2449 21.1862 40.0909C21.0942 40.0139 21.0046 39.9297 20.9175 39.8503C20.5741 39.5353 20.2491 39.2011 19.9441 38.8494C19.8424 38.7338 19.7431 38.6184 19.6486 38.498C19.6271 38.4742 19.6069 38.4493 19.5881 38.4235C18.0148 36.4506 17.0685 34.0569 16.8699 31.5475C16.6712 29.038 17.2292 26.5267 18.4727 24.3337C19.7161 22.1407 21.5887 20.3654 23.8516 19.2343C26.1145 18.1031 28.6652 17.6674 31.1783 17.9826C33.6914 18.2979 36.0531 19.3498 37.9621 21.0043C39.8712 22.6587 41.2411 24.8407 41.8971 27.272C42.5532 29.7033 42.4656 32.2737 41.6457 34.6553C40.8257 37.037 39.3105 39.122 37.2933 40.6444L37.2933 40.6444Z" fill="#3F3D56"/>
<path d="M42.32 72.5557C41.6751 70.7144 40.6337 69.0351 39.2685 67.6349C37.9033 66.2346 36.2472 65.1472 34.4156 64.4484C32.5841 63.7495 30.6212 63.4561 28.6638 63.5886C26.7064 63.7211 24.8016 64.2763 23.0823 65.2155C21.363 66.1546 19.8706 67.4552 18.7091 69.0264C17.5476 70.5977 16.745 72.4018 16.3572 74.3129C15.9694 76.2241 16.0058 78.1963 16.4639 80.0921C16.9219 81.9878 17.7906 83.7615 19.0093 85.2893C19.1304 85.4409 19.2563 85.5925 19.3846 85.7393C19.3943 85.7489 19.4015 85.7585 19.4112 85.7681C19.7269 86.1295 20.0624 86.4733 20.4162 86.798C20.5081 86.8822 20.605 86.9688 20.7018 87.0507C20.8859 87.2143 21.0747 87.3707 21.2709 87.5199C21.6538 87.8198 22.0531 88.0986 22.467 88.3548L22.4815 88.362C22.7503 88.5281 23.0239 88.6821 23.3024 88.8289L23.4162 88.8866C23.6777 89.0214 23.9441 89.1489 24.2177 89.2668C24.2734 89.2908 24.3339 89.3149 24.3896 89.339C24.3944 89.3414 24.3969 89.3414 24.4018 89.3438C24.9546 89.5722 25.5225 89.7628 26.1016 89.914C27.2366 90.2147 28.4063 90.3667 29.581 90.3664C30.0096 90.3664 30.4334 90.3472 30.8522 90.3062C31.8094 90.2185 32.7543 90.0289 33.6708 89.7408C33.6733 89.7408 33.6756 89.7384 33.678 89.7384C34.2569 89.5551 34.8225 89.3324 35.3706 89.0719C35.373 89.0695 35.3779 89.0695 35.3803 89.0671C35.5037 89.0093 35.6224 88.9468 35.7435 88.8866L35.8017 88.8577C35.8985 88.8072 35.9953 88.7566 36.0922 88.7037C36.3343 88.5714 36.5716 88.4318 36.8065 88.2826C36.8719 88.2441 36.9348 88.2032 37.0002 88.1599C37.2132 88.0203 37.4239 87.8711 37.6273 87.7196C37.6637 87.6931 37.7024 87.6666 37.7388 87.6378C40.0072 85.9266 41.6723 83.5457 42.4953 80.8364C43.3182 78.127 43.2569 75.2282 42.32 72.5556V72.5557Z" fill="white"/>
<path d="M34.0326 82.4871C35.1491 82.4871 36.0542 81.5877 36.0542 80.4782C36.0542 79.3687 35.1491 78.4692 34.0326 78.4692C32.9161 78.4692 32.011 79.3687 32.011 80.4782C32.011 81.5877 32.9161 82.4871 34.0326 82.4871Z" fill="#2F2E41"/>
<path d="M34.5958 78.5245C34.9457 78.5245 35.2897 78.6148 35.5939 78.7864C35.8982 78.9581 36.1525 79.2053 36.3318 79.5038C36.5112 79.8024 36.6095 80.1421 36.6172 80.4897C36.6248 80.8373 36.5416 81.181 36.3756 81.487C36.5508 81.2691 36.6784 81.0173 36.7503 80.7477C36.8222 80.478 36.8367 80.1965 36.7931 79.9209C36.7494 79.6454 36.6485 79.3819 36.4967 79.1473C36.3449 78.9126 36.1456 78.712 35.9115 78.5581C35.6774 78.4042 35.4136 78.3005 35.1369 78.2535C34.8602 78.2066 34.5767 78.2174 34.3044 78.2853C34.0322 78.3532 33.7771 78.4767 33.5556 78.648C33.334 78.8193 33.1508 79.0345 33.0176 79.2801C33.2066 79.0443 33.4467 78.8539 33.72 78.723C33.9933 78.5922 34.2927 78.5244 34.5961 78.5245L34.5958 78.5245Z" fill="#2F2E41"/>
<path d="M30.2546 80.4738C33.5345 80.4738 36.1933 77.8317 36.1933 74.5724C36.1933 71.3131 33.5345 68.6709 30.2546 68.6709C26.9748 68.6709 24.3159 71.3131 24.3159 74.5724C24.3159 77.8317 26.9748 80.4738 30.2546 80.4738Z" fill="#2F2E41"/>
<path d="M25.5937 70.9109C26.6169 69.7672 28.0473 69.0634 29.5829 68.948C31.1185 68.8325 32.6391 69.3144 33.8239 70.292C33.7755 70.246 33.7271 70.1998 33.677 70.1553C32.5038 69.1109 30.9613 68.5725 29.3886 68.6583C27.8159 68.7442 26.342 69.4473 25.291 70.6131C24.2401 71.7789 23.6982 73.3118 23.7846 74.8746C23.871 76.4374 24.5786 77.9021 25.7517 78.9465C25.763 78.9565 25.7743 78.9665 25.7857 78.9764C25.836 79.021 25.8878 79.0631 25.9394 79.1057C24.8237 78.0509 24.164 76.6066 24.0995 75.0777C24.0351 73.5487 24.5709 72.0547 25.5939 70.9108L25.5937 70.9109Z" fill="#2F2E41"/>
<path d="M30.2042 80.4237C32.3166 80.4237 34.029 78.722 34.029 76.6229C34.029 74.5237 32.3166 72.822 30.2042 72.822C28.0918 72.822 26.3794 74.5237 26.3794 76.6229C26.3794 78.722 28.0918 80.4237 30.2042 80.4237Z" fill="#A0616A"/>
<path d="M37.0487 86.5259V87.8012C36.8137 87.9504 36.5764 88.09 36.3343 88.2223C36.2375 88.2752 36.1406 88.3258 36.0438 88.3763L35.9856 88.4052C35.8646 88.4653 35.7459 88.5279 35.6224 88.5856C35.6201 88.5881 35.6151 88.5881 35.6127 88.5904C35.0646 88.851 34.4991 89.0737 33.9201 89.257C33.9178 89.257 33.9154 89.2594 33.9129 89.2594C32.9964 89.5475 32.0515 89.737 31.0944 89.8248C30.6755 89.8658 30.2517 89.885 29.8232 89.885C28.6485 89.8853 27.4788 89.7333 26.3437 89.4326C25.7647 89.2813 25.1967 89.0908 24.6439 88.8624C24.639 88.86 24.6366 88.86 24.6317 88.8575C24.576 88.8335 24.5155 88.8094 24.4598 88.7854C24.1862 88.6675 23.9198 88.5399 23.6583 88.4052L23.5446 88.3474C23.266 88.2007 22.9924 88.0467 22.7237 87.8806L22.7091 87.8734C22.2953 87.6172 21.896 87.3384 21.513 87.0385C21.3168 86.8893 21.128 86.7329 20.9439 86.5692C20.8471 86.4874 20.7503 86.4008 20.6583 86.3166C20.3045 85.9919 19.969 85.6481 19.6533 85.2867C19.6952 85.0361 19.7567 84.7891 19.8374 84.548L19.8398 84.5456C19.8543 84.5045 19.8712 84.4644 19.8906 84.4253C19.904 84.3908 19.9193 84.357 19.9366 84.3243C20.37 83.5182 21.1546 83.3185 22.128 83.2751C22.6777 83.2511 23.2854 83.2776 23.9272 83.2703C24.2661 83.2679 24.6172 83.2559 24.9683 83.2246C27.1839 83.0249 26.782 81.7256 26.8812 81.0253C26.9805 80.3468 27.5956 80.9339 27.6367 80.9724L27.6391 80.9748C28.8928 81.5579 30.28 81.7995 31.6586 81.675C31.8959 81.6461 32.1332 81.6293 32.3705 81.6221C32.9952 81.6149 32.8596 81.7929 32.6442 81.9397C32.5396 82.0081 32.4304 82.0692 32.3173 82.1226C32.3173 82.1226 32.218 82.7241 32.1163 83.6241C32.0194 84.4855 33.6805 84.8897 33.8185 84.921C33.8213 84.9229 33.8247 84.9237 33.8282 84.9234C34.4348 84.7671 35.0734 84.7838 35.6709 84.9715H35.6733C36.0147 85.0963 36.3193 85.3038 36.5595 85.5753C36.7997 85.8467 36.9678 86.1735 37.0487 86.5259V86.5259Z" fill="#6A6AF4"/>
<path d="M24.668 88.0732C24.668 88.2512 24.6632 88.4221 24.6559 88.5833C24.6535 88.6796 24.6487 88.7734 24.6439 88.8624C24.639 88.86 24.6365 88.86 24.6317 88.8576C24.576 88.8335 24.5154 88.8095 24.4598 88.7854C24.1862 88.6675 23.9198 88.54 23.6583 88.4052L23.5445 88.3475C23.266 88.2007 22.9924 88.0467 22.7236 87.8807C22.7309 87.7965 22.743 87.7123 22.7551 87.628C22.7817 87.4428 22.8036 87.2551 22.8181 87.0698C22.9133 85.7681 22.6759 84.4637 22.128 83.2776V83.2752C22.0795 83.1789 22.0505 83.126 22.0505 83.126C22.0505 83.126 22.7551 82.5244 23.7599 83.126C23.8241 83.1635 23.8808 83.2124 23.9271 83.2704C24.5325 83.9802 24.6971 86.3672 24.668 88.0732Z" fill="#2F2E41"/>
<path d="M35.6637 87.7461C35.654 88.0156 35.6395 88.2971 35.6226 88.5835V88.5859C35.6202 88.5883 35.6153 88.5883 35.6129 88.5907C35.0648 88.8512 34.4992 89.0739 33.9203 89.2572C33.9179 89.2572 33.9156 89.2596 33.9131 89.2596L33.8865 88.5835L33.884 88.4944L33.7557 85.2027C33.7523 85.1282 33.7641 85.0538 33.7904 84.9839C33.8167 84.9141 33.857 84.8502 33.9088 84.7963C33.9606 84.7423 34.0229 84.6993 34.0919 84.6699C34.1609 84.6405 34.2352 84.6253 34.3102 84.6252H35.5378C35.5983 84.6252 35.642 84.748 35.6711 84.9693V84.9717C35.7306 85.8957 35.7282 86.8225 35.6637 87.7461V87.7461Z" fill="#2F2E41"/>
<path d="M26.9331 71.8718V75.6736H27.8189L28.946 74.4734L28.7952 75.6736H32.7105L32.4684 74.4734L32.9527 75.6736H33.5769V71.8718H26.9331Z" fill="#2F2E41"/>
<path d="M26.329 76.3728C26.4958 76.3728 26.631 76.1265 26.631 75.8228C26.631 75.519 26.4958 75.2727 26.329 75.2727C26.1623 75.2727 26.0271 75.519 26.0271 75.8228C26.0271 76.1265 26.1623 76.3728 26.329 76.3728Z" fill="#A0616A"/>
<path d="M34.0798 76.3728C34.2465 76.3728 34.3817 76.1265 34.3817 75.8228C34.3817 75.519 34.2465 75.2727 34.0798 75.2727C33.913 75.2727 33.7778 75.519 33.7778 75.8228C33.7778 76.1265 33.913 76.3728 34.0798 76.3728Z" fill="#A0616A"/>
<path d="M37.8695 87.2384C37.6662 87.39 37.4555 87.5391 37.2425 87.6787C37.1771 87.722 37.1142 87.7629 37.0488 87.8014C36.8139 87.9506 36.5766 88.0902 36.3344 88.2225C36.2376 88.2754 36.1408 88.326 36.0439 88.3765V85.7249C36.0439 85.7249 36.4313 86.0329 37.0488 86.5454C37.1262 86.6103 37.2061 86.6777 37.2909 86.7499C37.47 86.8991 37.6638 87.0627 37.8695 87.2384Z" fill="#6A6AF4"/>
<path d="M42.32 72.5557C41.6751 70.7144 40.6337 69.0351 39.2685 67.6349C37.9033 66.2346 36.2472 65.1472 34.4156 64.4484C32.5841 63.7495 30.6212 63.4561 28.6638 63.5886C26.7064 63.7211 24.8016 64.2763 23.0823 65.2155C21.363 66.1546 19.8706 67.4552 18.7091 69.0264C17.5476 70.5977 16.745 72.4018 16.3572 74.3129C15.9694 76.2241 16.0058 78.1963 16.4639 80.0921C16.9219 81.9878 17.7906 83.7615 19.0093 85.2893C19.1304 85.4409 19.2563 85.5925 19.3846 85.7393C19.3943 85.7489 19.4015 85.7585 19.4112 85.7681C19.7269 86.1295 20.0624 86.4733 20.4162 86.798C20.5081 86.8822 20.605 86.9688 20.7018 87.0507C20.8859 87.2143 21.0747 87.3707 21.2709 87.5199C21.6538 87.8198 22.0531 88.0986 22.467 88.3548L22.4815 88.362C22.7503 88.5281 23.0239 88.6821 23.3024 88.8289L23.4162 88.8866C23.6777 89.0214 23.9441 89.1489 24.2177 89.2668C24.2734 89.2908 24.3339 89.3149 24.3896 89.339C24.3944 89.3414 24.3969 89.3414 24.4018 89.3438C24.9546 89.5722 25.5225 89.7628 26.1016 89.914C27.2366 90.2147 28.4063 90.3667 29.581 90.3664C30.0096 90.3664 30.4334 90.3472 30.8522 90.3062C31.8094 90.2185 32.7543 90.0289 33.6708 89.7408C33.6733 89.7408 33.6756 89.7384 33.678 89.7384C34.2569 89.5551 34.8225 89.3324 35.3706 89.0719C35.373 89.0695 35.3779 89.0695 35.3803 89.0671C35.5037 89.0093 35.6224 88.9468 35.7435 88.8866L35.8017 88.8577C35.8985 88.8072 35.9953 88.7566 36.0922 88.7037C36.3343 88.5714 36.5716 88.4318 36.8065 88.2826C36.8719 88.2441 36.9348 88.2032 37.0002 88.1599C37.2132 88.0203 37.4239 87.8711 37.6273 87.7196C37.6637 87.6931 37.7024 87.6666 37.7388 87.6378C40.0072 85.9266 41.6723 83.5457 42.4953 80.8364C43.3182 78.127 43.2569 75.2282 42.32 72.5556V72.5557ZM37.2932 87.0531C37.2132 87.1156 37.1309 87.1758 37.0487 87.2311C36.9687 87.2913 36.8888 87.349 36.8065 87.4019C36.7363 87.4525 36.6661 87.5006 36.5934 87.5463C36.5328 87.5872 36.4723 87.6257 36.4117 87.6642C36.2109 87.7894 36.0075 87.9097 35.8017 88.0252L35.7362 88.0613C35.6442 88.1118 35.5522 88.1599 35.4602 88.208C35.448 88.2152 35.4335 88.2201 35.4215 88.2273L35.4069 88.2345C35.2907 88.2947 35.1721 88.3524 35.0534 88.4078C34.5955 88.6269 34.124 88.8165 33.6417 88.9756C33.5788 88.9973 33.5158 89.0189 33.4529 89.0382C32.5854 89.3123 31.6908 89.493 30.7845 89.5772C30.3874 89.6133 29.9854 89.6325 29.581 89.6325C28.4699 89.6348 27.3634 89.4908 26.2904 89.2042C25.7397 89.0614 25.2 88.8796 24.6753 88.6604C24.6197 88.6387 24.564 88.6147 24.5106 88.593C24.4817 88.581 24.455 88.569 24.4259 88.5545C24.1983 88.4559 23.9732 88.3476 23.7528 88.2345L23.6463 88.1792C23.3775 88.0396 23.1135 87.8904 22.8568 87.7316C22.7625 87.6738 22.668 87.6137 22.576 87.5511C22.2854 87.361 22.0021 87.1565 21.7261 86.9424C21.5396 86.8028 21.3605 86.6536 21.1861 86.4996C21.0941 86.4226 21.0045 86.3384 20.9173 86.259C20.574 85.944 20.2491 85.6098 19.9439 85.258C19.8423 85.1425 19.743 85.027 19.6485 84.9067C19.627 84.8829 19.6068 84.858 19.5879 84.8321C18.0147 82.8593 17.0684 80.4656 16.8698 77.9561C16.6711 75.4467 17.2291 72.9354 18.4725 70.7423C19.716 68.5493 21.5886 66.7741 23.8515 65.6429C26.1144 64.5118 28.665 64.0761 31.1782 64.3913C33.6913 64.7066 36.0529 65.7585 37.962 67.4129C39.871 69.0674 41.2409 71.2494 41.897 73.6807C42.5531 76.112 42.4655 78.6823 41.6456 81.064C40.8256 83.4456 39.3104 85.5306 37.2932 87.0531V87.0531Z" fill="#3F3D56"/>
<path d="M29.6574 129.395C32.5762 129.395 34.9424 127.044 34.9424 124.143C34.9424 121.242 32.5762 118.891 29.6574 118.891C26.7385 118.891 24.3723 121.242 24.3723 124.143C24.3723 127.044 26.7385 129.395 29.6574 129.395Z" fill="#2F2E41"/>
<path d="M25.532 121.312C26.386 120.463 26.5591 119.259 25.9186 118.622C25.278 117.986 24.0664 118.158 23.2124 119.007C22.3584 119.855 22.1853 121.059 22.8258 121.696C23.4663 122.332 24.6779 122.16 25.532 121.312Z" fill="#2F2E41"/>
<path d="M35.1658 119.644C35.5216 118.816 34.9097 117.762 33.799 117.291C32.6883 116.82 31.4994 117.108 31.1436 117.936C30.7877 118.764 31.3997 119.817 32.5104 120.289C33.6211 120.76 34.8099 120.471 35.1658 119.644Z" fill="#2F2E41"/>
<path d="M35.9789 134.331L35.3562 133.357C35.092 132.77 34.6047 132.312 34.0009 132.082C33.3971 131.851 32.7262 131.868 32.135 132.129C31.5438 132.389 31.0806 132.872 30.8467 133.471C30.6129 134.07 30.6276 134.737 30.8875 135.325L31.0646 135.956L31.2661 136.672C32.0819 136.57 32.8868 136.395 33.6713 136.15C33.6736 136.15 33.6758 136.149 33.6774 136.147C34.2573 135.965 34.8235 135.742 35.3716 135.48C35.3746 135.477 35.3776 135.477 35.3807 135.474C35.5028 135.416 35.6218 135.356 35.7439 135.295C35.7638 135.286 35.7832 135.276 35.8019 135.265C35.8995 135.216 35.9973 135.165 36.0919 135.113C36.1895 135.062 36.2841 135.007 36.3757 134.949L35.9789 134.331Z" fill="#CACACA"/>
<path d="M29.825 129.854C32.3022 129.854 34.3103 127.859 34.3103 125.397C34.3103 122.935 32.3022 120.94 29.825 120.94C27.3478 120.94 25.3396 122.935 25.3396 125.397C25.3396 127.859 27.3478 129.854 29.825 129.854Z" fill="#FFB6B6"/>
<path d="M36.3027 134.139C35.8079 133.322 35.1938 132.582 34.4803 131.943C33.9917 131.509 33.3592 131.27 32.7039 131.27H26.3855C26.0214 131.27 25.6611 131.344 25.327 131.488C24.9928 131.631 24.6919 131.841 24.4427 132.105C24.1936 132.369 24.0015 132.681 23.8784 133.021C23.7552 133.362 23.7037 133.724 23.7268 134.085C23.7406 134.289 23.7775 134.49 23.8368 134.685C23.8819 134.827 23.938 134.965 24.0047 135.098L24.316 135.717C24.3404 135.726 24.3649 135.738 24.3892 135.747C24.3953 135.75 24.3984 135.75 24.4014 135.753C24.5296 135.805 24.6579 135.856 24.789 135.905C25.2186 136.068 25.6568 136.208 26.1016 136.323C26.8178 136.514 27.5488 136.645 28.287 136.715C28.7175 136.754 29.1479 136.775 29.5813 136.775C30.0117 136.775 30.4329 136.754 30.8541 136.715C30.9915 136.703 31.1288 136.687 31.2662 136.672C32.082 136.57 32.887 136.395 33.6715 136.15C33.6738 136.15 33.6759 136.149 33.6776 136.147C34.2575 135.965 34.8236 135.742 35.3717 135.48C35.3747 135.477 35.3777 135.477 35.3808 135.474C35.5029 135.416 35.622 135.356 35.744 135.295C35.764 135.286 35.7833 135.276 35.802 135.265C35.8996 135.216 35.9974 135.165 36.092 135.113C36.1897 135.062 36.2842 135.007 36.3758 134.949C36.4736 134.898 36.5651 134.84 36.6597 134.782C36.5438 134.555 36.4247 134.343 36.3027 134.139Z" fill="#CACACA"/>
<path d="M27.5299 132.083C26.9451 131.811 26.2759 131.78 25.6685 131.997C25.0611 132.215 24.5649 132.662 24.2884 133.242L23.7266 134.085L23.458 134.488L23.0491 135.101C23.1345 135.146 23.2169 135.192 23.3024 135.237L23.4153 135.295C23.6779 135.429 23.9433 135.556 24.2182 135.674C24.2486 135.689 24.2823 135.702 24.3158 135.717C24.3402 135.726 24.3647 135.738 24.389 135.747C24.3951 135.75 24.3982 135.75 24.4012 135.753C24.5293 135.805 24.6577 135.856 24.7888 135.905C25.2183 136.068 25.6565 136.208 26.1014 136.323C26.8176 136.514 27.5486 136.645 28.2868 136.715L28.5005 135.996L28.7082 135.31C28.9818 134.727 29.0114 134.059 28.7905 133.454C28.5696 132.849 28.1162 132.356 27.5299 132.083V132.083Z" fill="#CACACA"/>
<path d="M25.1118 122.593C26.1368 123.295 27.3533 123.669 28.5982 123.664C28.1541 123.97 27.6486 124.177 27.1165 124.27C28.7716 124.623 30.4821 124.632 32.1411 124.298C32.5098 124.239 32.8657 124.118 33.1929 123.939C33.356 123.848 33.4981 123.725 33.61 123.576C33.7218 123.427 33.8009 123.257 33.8422 123.076C33.9524 122.45 33.4617 121.882 32.9517 121.498C32.1709 120.921 31.2706 120.523 30.316 120.333C29.3614 120.144 28.3764 120.167 27.4321 120.402C26.8029 120.528 26.2304 120.85 25.7974 121.32C25.5878 121.56 25.4613 121.86 25.4366 122.176C25.4118 122.493 25.4901 122.809 25.6598 123.078L25.1118 122.593Z" fill="#2F2E41"/>
<path d="M42.3217 118.964C41.6768 117.123 40.6355 115.443 39.2704 114.043C37.9052 112.642 36.249 111.555 34.4174 110.856C32.5857 110.157 30.6227 109.863 28.6651 109.996C26.7076 110.128 24.8027 110.683 23.0833 111.622C21.3639 112.562 19.8713 113.862 18.7097 115.434C17.5482 117.005 16.7455 118.809 16.3578 120.721C15.9701 122.632 16.0066 124.604 16.4648 126.5C16.923 128.396 17.7919 130.17 19.0108 131.698C19.1298 131.849 19.2581 132.001 19.3863 132.147C19.3936 132.157 19.4018 132.167 19.4107 132.177C19.7268 132.538 20.0631 132.881 20.4179 133.205C20.5094 133.29 20.6041 133.378 20.7019 133.46C20.8849 133.624 21.0742 133.778 21.2725 133.927C21.3489 133.988 21.4252 134.048 21.5046 134.106C21.8128 134.34 22.1364 134.555 22.4661 134.764C22.4717 134.764 22.4771 134.766 22.4813 134.77C22.5759 134.828 22.6737 134.886 22.7713 134.94C22.8628 134.995 22.9575 135.049 23.0491 135.101C23.1345 135.146 23.2169 135.192 23.3025 135.237L23.4153 135.295C23.6779 135.428 23.9434 135.556 24.2182 135.674C24.2486 135.689 24.2823 135.701 24.3158 135.717C24.3403 135.726 24.3647 135.738 24.389 135.747C24.3951 135.75 24.3982 135.75 24.4012 135.753C24.5294 135.805 24.6577 135.856 24.7889 135.905C25.2184 136.068 25.6566 136.208 26.1015 136.323C26.8176 136.514 27.5487 136.645 28.2869 136.715C28.7173 136.754 29.1477 136.775 29.5811 136.775C30.0116 136.775 30.4328 136.754 30.854 136.715C30.9914 136.702 31.1286 136.687 31.2661 136.672C32.0818 136.57 32.8868 136.395 33.6713 136.15C33.6736 136.15 33.6758 136.149 33.6774 136.147C34.2573 135.965 34.8234 135.742 35.3716 135.48C35.3745 135.477 35.3775 135.477 35.3806 135.474C35.5027 135.416 35.6218 135.356 35.7439 135.295C35.7638 135.286 35.7832 135.276 35.8018 135.265C35.8995 135.216 35.9972 135.165 36.0919 135.113C36.1895 135.061 36.2841 135.007 36.3756 134.949C36.4734 134.898 36.5649 134.84 36.6596 134.782C36.7085 134.752 36.7573 134.722 36.8061 134.691C36.8733 134.652 36.9343 134.613 37.0015 134.567C37.093 134.509 37.1847 134.446 37.273 134.382C37.3921 134.3 37.5112 134.215 37.6272 134.127C37.6662 134.102 37.7039 134.075 37.7401 134.045C40.0069 132.333 41.6707 129.952 42.4936 127.243C43.3165 124.535 43.2563 121.637 42.3217 118.964L42.3217 118.964ZM37.2945 133.46C37.2151 133.524 37.1326 133.584 37.0504 133.639C36.9678 133.7 36.8885 133.757 36.8061 133.812C36.7359 133.86 36.6657 133.909 36.5925 133.954C36.5859 133.96 36.5787 133.965 36.5711 133.97C36.5192 134.006 36.4642 134.039 36.4123 134.073C36.3757 134.094 36.3392 134.118 36.3025 134.139C36.1956 134.206 36.0888 134.27 35.9789 134.33C35.9209 134.367 35.8598 134.4 35.8019 134.434C35.7805 134.446 35.7591 134.458 35.7378 134.47C35.6431 134.522 35.5516 134.567 35.4599 134.616C35.4479 134.625 35.4325 134.628 35.4234 134.637C35.4177 134.637 35.4123 134.639 35.4081 134.643C35.2921 134.704 35.173 134.761 35.0541 134.816C34.5958 135.035 34.1237 135.224 33.6407 135.383C33.5798 135.404 33.5157 135.428 33.4546 135.447C32.6761 135.692 31.8758 135.863 31.0646 135.956C30.973 135.968 30.8784 135.978 30.7838 135.987C30.387 136.023 29.9871 136.041 29.5812 136.041C29.2209 136.041 28.8577 136.026 28.5006 135.996C27.754 135.934 27.0145 135.806 26.2908 135.614C25.7399 135.471 25.2002 135.288 24.6761 135.068C24.6485 135.055 24.6211 135.046 24.5937 135.034C24.5631 135.022 24.5387 135.013 24.5112 135.001C24.4807 134.989 24.4562 134.977 24.4257 134.961C24.2273 134.876 24.0289 134.782 23.8367 134.685C23.8091 134.67 23.7817 134.658 23.7543 134.643L23.6474 134.588C23.5833 134.555 23.5192 134.522 23.4581 134.488C23.2536 134.379 23.0521 134.261 22.8569 134.139C22.7836 134.094 22.7043 134.045 22.6309 133.997L22.5759 133.96C22.405 133.845 22.2342 133.73 22.0662 133.606C21.9532 133.521 21.8373 133.439 21.7274 133.351C21.5413 133.211 21.3611 133.063 21.1872 132.908C21.0955 132.832 21.004 132.747 20.9186 132.668C20.5749 132.354 20.2498 132.019 19.9449 131.667C19.8442 131.552 19.7434 131.437 19.6488 131.315C19.6275 131.291 19.6091 131.267 19.5877 131.24C18.0141 129.267 17.0675 126.873 16.8686 124.363C16.6697 121.853 17.2276 119.341 18.4711 117.148C19.7146 114.955 21.5874 113.179 23.8505 112.048C26.1136 110.916 28.6646 110.48 31.1781 110.795C33.6915 111.111 36.0536 112.163 37.963 113.817C39.8723 115.472 41.2425 117.654 41.8987 120.086C42.5549 122.517 42.4674 125.088 41.6474 127.47C40.8274 129.852 39.312 131.937 37.2946 133.46H37.2945Z" fill="#3F3D56"/>
<path d="M52.1486 53.4727C47.4516 49.5342 41.704 47.0372 35.605 46.2856C29.506 45.5341 23.3187 46.5603 17.7959 49.2394C12.2731 51.9186 7.65303 56.1351 4.49782 61.376C1.34261 66.6168 -0.211685 72.656 0.024075 78.7587C0.259835 84.8614 2.27548 90.7644 5.82574 95.7495C9.376 100.735 14.3078 104.587 20.021 106.837C25.7342 109.088 31.9825 109.639 38.0056 108.425C44.0286 107.211 49.5667 104.284 53.946 99.9991L92.8333 132.606C93.4253 133.101 94.1905 133.342 94.961 133.277C95.7316 133.211 96.4447 132.845 96.944 132.258C97.4433 131.671 97.6881 130.912 97.6246 130.146C97.5612 129.38 97.1947 128.67 96.6056 128.172L96.6013 128.169L57.714 95.5616C62.2315 89.1187 64.1649 81.2316 63.1354 73.4459C62.1059 65.6602 58.1877 58.5371 52.1486 53.4727V53.4727ZM49.6417 92.4217C46.6122 95.9895 42.5861 98.5845 38.0725 99.8785C33.5589 101.172 28.7605 101.107 24.2841 99.6914C19.8078 98.2754 15.8545 95.5721 12.9242 91.9234C9.99384 88.2747 8.21813 83.8444 7.82157 79.1929C7.425 74.5413 8.4254 69.8773 10.6962 65.7908C12.9671 61.7042 16.4064 58.3785 20.5792 56.2344C24.7521 54.0902 29.471 53.2238 34.1394 53.7448C38.8077 54.2658 43.2158 56.1507 46.8061 59.1612V59.1612C51.6206 63.1982 54.624 68.9703 55.1558 75.2079C55.6876 81.4454 53.7041 87.6374 49.6417 92.4217V92.4217Z" fill="#3F3D56"/>
<path opacity="0.3" d="M16.1711 95.2395C11.6146 91.4184 8.67069 86.0342 7.92402 80.1561C7.17735 74.2779 8.68252 68.3357 12.1406 63.5093C11.6865 63.9638 11.2475 64.4398 10.8235 64.9372C8.81203 67.3062 7.28976 70.0456 6.34364 72.9992C5.39752 75.9528 5.04608 79.0626 5.30939 82.1511C5.5727 85.2396 6.4456 88.2464 7.87826 90.9997C9.31091 93.753 11.2752 96.1989 13.6591 98.1978C16.043 100.197 18.7998 101.709 21.772 102.65C24.7441 103.59 27.8736 103.939 30.9816 103.677C34.0896 103.416 37.1153 102.548 39.886 101.125C42.6567 99.701 45.118 97.7489 47.1295 95.38C47.5525 94.8819 47.9508 94.3717 48.3244 93.8496C44.1186 98.049 38.4773 100.523 32.5208 100.781C26.5642 101.038 20.7281 99.0601 16.1711 95.2395Z" fill="black"/>
<path d="M130.545 133.825C130.849 133.457 131.068 133.027 131.186 132.565C131.304 132.103 131.319 131.622 131.23 131.154C131.141 130.686 130.949 130.243 130.669 129.856C130.389 129.47 130.027 129.149 129.608 128.916L122.52 100.086L117.349 101.726L125.003 130.36C124.657 131.084 124.59 131.91 124.815 132.68C125.041 133.45 125.542 134.112 126.225 134.539C126.908 134.966 127.725 135.129 128.522 134.998C129.318 134.866 130.038 134.449 130.545 133.825H130.545Z" fill="#FFB6B6"/>
<path d="M126.882 115.384L123.103 118.623L117.816 123.152L115.481 111.28L115.237 110.046L115.044 109.066L120.401 99.7935L124.867 100.048L125.172 100.066L125.178 100.133L125.249 100.755L126.164 108.938L126.186 109.136L126.882 115.384Z" fill="#3F3D56"/>
<path d="M102.182 195.969L98.4401 195.969L96.6597 181.625L102.183 181.626L102.182 195.969Z" fill="#FFB6B6"/>
<path d="M103.137 199.574L91.0703 199.574V199.422C91.0704 198.184 91.5653 196.997 92.446 196.122C93.3268 195.247 94.5213 194.755 95.7668 194.755H95.7672L103.137 194.755L103.137 199.574Z" fill="#2F2E41"/>
<path d="M141.252 196.273L137.51 196.273L135.73 181.929L141.253 181.929L141.252 196.273Z" fill="#FFB6B6"/>
<path d="M142.207 199.877L130.141 199.877V199.725C130.141 198.488 130.636 197.301 131.516 196.425C132.397 195.55 133.592 195.058 134.837 195.058H134.837L142.207 195.059L142.207 199.877Z" fill="#2F2E41"/>
<path d="M144.244 190.563L134.171 192.08L119.516 142.796L103.952 192.383L92.6584 190.866L107.31 133.235V128.685L109.294 121.86L109.086 120.013L107.642 107.094L107.017 101.492L106.976 101.13C106.942 100.826 107.023 100.521 107.203 100.273C107.383 100.026 107.65 99.8535 107.951 99.7904V99.7904L112.651 98.8076H120.334L124.867 100.048L125.178 100.133L125.319 100.173L125.249 100.755L124.186 109.606L124.128 110.091L123.103 118.624L122.877 120.495C131.729 126.865 132.034 133.235 132.034 133.235L144.244 190.563Z" fill="#2F2E41"/>
<path d="M115.564 94.9699C119.705 94.9699 123.061 91.6345 123.061 87.52C123.061 83.4055 119.705 80.0701 115.564 80.0701C111.424 80.0701 108.067 83.4055 108.067 87.52C108.067 91.6345 111.424 94.9699 115.564 94.9699Z" fill="#FFB6B6"/>
<path d="M123.439 118.783L108.608 120.71L108.885 122.816L123.716 120.889L123.439 118.783Z" fill="#3F3D56"/>
<path d="M88.7156 121.345C88.8574 121.436 88.9918 121.538 89.1174 121.651L103.786 117.935L104.787 114.418L110.325 115.225L109.162 121.622C109.068 122.138 108.808 122.611 108.421 122.968C108.034 123.326 107.54 123.549 107.015 123.604L89.8874 125.396C89.6083 125.98 89.1568 126.466 88.5931 126.789C88.0293 127.112 87.38 127.256 86.7315 127.203C86.0831 127.151 85.4661 126.903 84.9628 126.493C84.4594 126.083 84.0935 125.531 83.9138 124.91C83.734 124.288 83.7489 123.627 83.9564 123.014C84.164 122.402 84.5543 121.866 85.0756 121.479C85.5969 121.092 86.2244 120.872 86.8746 120.848C87.5248 120.824 88.1669 120.998 88.7156 121.345V121.345Z" fill="#FFB6B6"/>
<path d="M111.278 101.689L108.683 99.7175C107.982 99.4531 107.021 100.204 106.852 100.931L103.189 115.794L110.82 121.254L111.888 119.585L111.278 101.689Z" fill="#3F3D56"/>
<g opacity="0.2">
<path opacity="0.2" d="M126.164 108.939C125.517 109.194 124.857 109.417 124.186 109.606C123.973 109.67 123.753 109.73 123.536 109.788C122.108 110.182 120.64 110.418 119.159 110.492C118.522 110.518 117.883 110.501 117.248 110.44C116.567 110.373 115.893 110.241 115.237 110.046C115.215 110.04 115.191 110.034 115.17 110.028C113.805 109.642 112.554 108.936 111.522 107.968C111.292 107.745 111.076 107.507 110.878 107.255C110.308 106.561 109.89 105.757 109.65 104.894C109.411 104.031 109.355 103.127 109.486 102.241C109.512 102.081 109.546 101.922 109.59 101.765C109.705 101.338 109.857 100.922 110.045 100.521C110.127 100.333 110.219 100.148 110.316 99.9663L113.766 98.8076H120.334L124.867 100.048L125.172 100.066L125.178 100.133L125.319 100.173L125.249 100.755L126.164 108.939Z" fill="black"/>
</g>
<path d="M109.82 81.3522C108.418 81.1814 106.879 81.3022 105.786 82.1916C104.693 83.081 104.341 84.9299 105.375 85.8855C106.291 86.7315 107.724 86.5326 108.951 86.7732C110.007 87.0086 110.954 87.5895 111.64 88.423C112.325 89.2565 112.709 90.2944 112.73 91.3705C112.712 94.4566 109.732 96.7936 109.196 99.8335C108.831 101.908 109.712 104.092 111.234 105.557C112.756 107.023 114.849 107.815 116.957 108.029C119.066 108.244 121.198 107.916 123.247 107.378C125.305 106.837 127.33 106.07 129.057 104.833C130.784 103.597 132.199 101.853 132.753 99.8111C133.308 97.769 132.91 95.4278 131.481 93.8599C129.845 92.0645 127.124 91.4471 125.709 89.4752C124.123 87.2646 124.71 84.1166 123.426 81.72C122.569 80.1199 120.946 79.0286 119.216 78.4537C117.486 77.8787 115.639 77.7653 113.816 77.7096C112.858 77.6803 111.87 77.6706 110.977 78.0177C110.084 78.3649 109.3 79.1562 109.253 80.1078C109.207 81.0595 109.82 81.3522 109.82 81.3522Z" fill="#2F2E41"/>
<path d="M180.006 200H63.7103C63.6293 200 63.5517 199.968 63.4944 199.911C63.4372 199.854 63.405 199.777 63.405 199.697C63.405 199.616 63.4372 199.539 63.4944 199.482C63.5517 199.425 63.6293 199.393 63.7103 199.393H180.006C180.087 199.393 180.164 199.425 180.221 199.482C180.279 199.539 180.311 199.616 180.311 199.697C180.311 199.777 180.279 199.854 180.221 199.911C180.164 199.968 180.087 200 180.006 200Z" fill="#CACACA"/>
<path d="M28.6323 37.3428H31.3323V23.3428H28.7123L24.3923 25.8428L25.7323 27.7628L28.6323 26.1228V37.3428Z" fill="black"/>
</g>
<defs>
<clipPath id="clip0_1149_54688">
<rect width="180.311" height="200" fill="white"/>
</clipPath>
</defs>
</svg>
