<svg width="32" height="32" viewBox="0 0 32 32" fill="none" xmlns="http://www.w3.org/2000/svg">
<path d="M13.3334 4H18.6667C21.4957 4 24.2088 5.12381 26.2092 7.12419C28.2096 9.12458 29.3334 11.8377 29.3334 14.6667C29.3334 17.4956 28.2096 20.2088 26.2092 22.2091C24.2088 24.2095 21.4957 25.3333 18.6667 25.3333V30C12.0001 27.3333 2.66675 23.3333 2.66675 14.6667C2.66675 11.8377 3.79055 9.12458 5.79094 7.12419C7.79133 5.12381 10.5044 4 13.3334 4ZM16.0001 22.6667H18.6667C19.7173 22.6667 20.7576 22.4597 21.7282 22.0577C22.6988 21.6557 23.5807 21.0664 24.3236 20.3235C25.0665 19.5807 25.6557 18.6987 26.0578 17.7281C26.4598 16.7575 26.6667 15.7172 26.6667 14.6667C26.6667 13.6161 26.4598 12.5758 26.0578 11.6052C25.6557 10.6346 25.0665 9.75268 24.3236 9.00981C23.5807 8.26694 22.6988 7.67767 21.7282 7.27563C20.7576 6.87359 19.7173 6.66667 18.6667 6.66667H13.3334C11.2117 6.66667 9.17685 7.50952 7.67656 9.00981C6.17627 10.5101 5.33341 12.5449 5.33341 14.6667C5.33341 19.48 8.61608 22.6213 16.0001 25.9733V22.6667Z" fill="#6A6AF4"/>
<path d="M15.6001 19.3333L12.7364 14.6667L15.6001 10H12.5092L9.60008 14.6667L12.5092 19.3333H15.6001ZM21.6001 19.3333L18.7364 14.6667L21.6001 10H18.5092L15.6001 14.6667L18.5092 19.3333H21.6001Z" fill="#6A6AF4"/>
</svg>
