<svg width="186" height="150" viewBox="0 0 186 150" fill="none" xmlns="http://www.w3.org/2000/svg">
<g clip-path="url(#clip0_1152_55791)">
<path d="M121.843 83.9822C117.937 86.3325 110.977 89.2773 103.865 86.2509L99.2678 84.2946L108.481 73.934C101.129 65.802 97.0617 55.2134 97.0729 44.235C97.0841 33.2567 101.173 22.6765 108.541 14.5596C115.91 6.44271 126.029 1.37172 136.923 0.336447C147.818 -0.69883 158.706 2.3759 167.462 8.96049C176.219 15.5451 182.215 25.1669 184.281 35.9479C186.347 46.7289 184.334 57.8953 178.635 67.2674C172.936 76.6396 163.96 83.5449 153.459 86.6355C142.958 89.7261 131.686 88.7801 121.843 83.9822V83.9822ZM104.191 44.2103C104.171 49.2711 105.195 54.2813 107.198 58.9259C109.202 63.5705 112.142 67.749 115.833 71.1985L118.374 73.5942L112.577 80.1136C115.597 79.4989 118.227 77.8601 119.56 76.9083L121.39 75.602L123.358 76.6869C128.799 79.675 134.901 81.241 141.103 81.2403C161.456 81.2403 178.015 64.6288 178.015 44.2103C178.015 23.7919 161.456 7.18026 141.103 7.18026C120.75 7.18026 104.191 23.7919 104.191 44.2103V44.2103Z" fill="#3F3D56"/>
<path d="M100.613 44.2105C100.613 21.7766 118.741 3.59033 141.103 3.59033C163.465 3.59033 181.594 21.7766 181.594 44.2105C181.594 66.6445 163.465 84.8307 141.103 84.8307C134.297 84.8407 127.6 83.1217 121.635 79.8339C118.836 81.8317 112.008 85.8166 105.263 82.9462L113.382 73.8151C109.346 70.0211 106.13 65.4357 103.933 60.3431C101.737 55.2505 100.606 49.7594 100.613 44.2105V44.2105Z" fill="#00AC8C"/>
<path opacity="0.1" d="M174.696 44.2984C174.696 23.0746 158.47 5.65573 137.784 3.83794C138.964 3.7343 140.157 3.67822 141.363 3.67822C163.725 3.67822 181.853 21.8645 181.853 44.2984C181.853 66.7324 163.725 84.9186 141.363 84.9186C140.158 84.9186 138.968 84.8618 137.79 84.7584C158.473 82.938 174.696 65.5203 174.696 44.2984Z" fill="black"/>
<path d="M47.7973 140.412C37.68 140.417 27.8685 136.933 20.0071 130.544C12.1456 124.155 6.71199 115.25 4.6168 105.32C2.52162 95.3905 3.8922 85.04 8.49884 76.0035C13.1055 66.9669 20.6683 59.7934 29.9197 55.6851C39.1712 51.5768 49.5491 50.7834 59.3143 53.4379C69.0794 56.0923 77.6384 62.0333 83.5568 70.2652C89.4753 78.4971 92.3934 88.5197 91.8223 98.6532C91.2512 108.787 87.2255 118.415 80.4199 125.926L89.6327 136.286L85.0353 138.243C77.9233 141.269 70.9635 138.324 67.0572 135.974C61.0538 138.894 54.469 140.411 47.7973 140.412V140.412ZM47.7973 59.1719C27.4441 59.1719 10.8855 75.7836 10.8855 96.202C10.8855 116.62 27.4441 133.232 47.7973 133.232C53.9995 133.233 60.102 131.667 65.5422 128.679L67.5103 127.594L69.3402 128.9C70.6738 129.852 73.3039 131.491 76.3236 132.105L70.5263 125.586L73.0675 123.19C76.7588 119.741 79.6987 115.562 81.7022 110.918C83.7056 106.273 84.7294 101.263 84.7091 96.202C84.7091 75.7836 68.1505 59.1719 47.7973 59.1719V59.1719Z" fill="#3F3D56"/>
<path d="M88.2877 96.2022C88.2877 73.7683 70.1595 55.582 47.7972 55.582C25.435 55.582 7.30676 73.7683 7.30676 96.2022C7.30676 118.636 25.435 136.822 47.7972 136.822C54.6031 136.832 61.3006 135.113 67.2654 131.826C70.0644 133.823 76.8924 137.808 83.6378 134.938L75.5182 125.807C79.5545 122.013 82.7707 117.427 84.9673 112.335C87.1639 107.242 88.2941 101.751 88.2877 96.2022Z" fill="#6A6AF4"/>
<path opacity="0.1" d="M14.4642 95.9967C14.4642 74.7729 30.6903 57.354 51.376 55.5362C50.1965 55.4325 49.0035 55.3765 47.7973 55.3765C25.435 55.3765 7.30676 73.5627 7.30676 95.9967C7.30676 118.431 25.435 136.617 47.7973 136.617C49.0017 136.617 50.1926 136.56 51.3703 136.457C30.6874 134.636 14.4642 117.219 14.4642 95.9967Z" fill="black"/>
<path d="M150.609 31.3053C147.959 26.8146 142.718 26.6053 142.718 26.6053C142.718 26.6053 137.611 25.9501 134.335 32.7895C131.281 39.1644 127.066 45.3195 133.656 46.8118L134.846 43.0951L135.584 47.0885C136.522 47.1562 137.463 47.1723 138.403 47.1369C145.46 46.9083 152.181 47.2037 151.965 44.6632C151.677 41.2859 153.158 35.6263 150.609 31.3053Z" fill="#2F2E41"/>
<path d="M133.28 70.6329C133.202 71.1268 133.089 71.6145 132.942 72.0923C132.776 72.5599 132.52 72.9924 132.369 73.4649C131.885 74.971 132.555 76.6502 133.625 77.8126C134.553 78.8167 135.75 79.5301 137.073 79.8666C138.047 80.0757 139.04 80.1804 140.036 80.179C142.79 80.2727 145.615 80.3565 148.225 79.4686C149.049 79.1812 149.845 78.8183 150.604 78.3844C150.843 78.27 151.054 78.1034 151.221 77.8968C151.396 77.5942 151.473 77.2449 151.444 76.8965C151.438 75.7252 151.201 74.56 151.257 73.3901C151.288 72.7421 151.409 72.0946 151.35 71.4486C151.267 70.7149 150.961 70.0247 150.473 69.4724C149.984 68.9201 149.338 68.5327 148.621 68.3633C147.881 68.2038 147.113 68.2907 146.359 68.3634C144.403 68.552 142.438 68.6402 140.473 68.6275C138.465 68.6146 136.469 68.3071 134.471 68.275C133.88 68.2655 133.892 68.4482 133.704 69.0219C133.531 69.55 133.389 70.0879 133.28 70.6329V70.6329Z" fill="#2F2E41"/>
<path d="M138.978 41.712C138.882 42.2189 138.778 42.7443 138.474 43.1609C138.125 43.6401 137.555 43.914 137.179 44.3726C136.614 45.063 136.581 46.0345 136.579 46.9282C136.577 47.7515 136.593 48.6297 137.051 49.3131C137.377 49.7376 137.781 50.0951 138.242 50.3661C139.958 51.5265 141.812 52.7076 143.882 52.7459C144.739 52.7617 145.658 52.5396 146.223 51.8917C146.466 51.5874 146.658 51.2446 146.789 50.8774C147.318 49.5689 147.639 48.1851 147.74 46.7767C147.816 46.1146 147.754 45.4439 147.559 44.8069C147.307 44.1038 146.799 43.5252 146.463 42.8586C146.066 42.0659 145.921 41.1701 146.047 40.292C146.064 40.2301 146.059 40.1644 146.032 40.106C146.005 40.0747 145.97 40.0502 145.932 40.0345C145.893 40.0188 145.851 40.0123 145.81 40.0155L141.707 39.7192C141.325 39.7001 140.944 39.6564 140.568 39.5884C140.346 39.5433 139.762 39.2282 139.551 39.312C139.161 39.4671 139.058 41.2916 138.978 41.712Z" fill="#A0616A"/>
<path opacity="0.1" d="M138.978 41.8404C138.882 42.3473 138.778 42.8727 138.474 43.2893C138.125 43.7686 137.555 44.0424 137.179 44.5011C136.614 45.1915 136.581 46.1629 136.579 47.0566C136.577 47.8799 136.593 48.7581 137.051 49.4415C137.377 49.866 137.781 50.2236 138.242 50.4946C139.958 51.6549 141.812 52.836 143.882 52.8743C144.739 52.8902 145.658 52.668 146.223 52.0201C146.466 51.7158 146.658 51.373 146.789 51.0058C147.318 49.6973 147.639 48.3136 147.74 46.9052C147.816 46.243 147.754 45.5723 147.559 44.9353C147.307 44.2322 146.799 43.6536 146.463 42.987C146.066 42.1943 145.921 41.2985 146.047 40.4204C146.064 40.3585 146.059 40.2928 146.032 40.2344C146.005 40.2031 145.97 40.1786 145.932 40.163C145.893 40.1473 145.851 40.1407 145.81 40.1439L141.707 39.8476C141.325 39.8285 140.944 39.7849 140.568 39.7168C140.346 39.6717 139.762 39.3566 139.551 39.4404C139.161 39.5955 139.058 41.42 138.978 41.8404Z" fill="black"/>
<path d="M142.902 42.2639C146.227 42.2639 148.922 39.5602 148.922 36.225C148.922 32.8898 146.227 30.186 142.902 30.186C139.578 30.186 136.883 32.8898 136.883 36.225C136.883 39.5602 139.578 42.2639 142.902 42.2639Z" fill="#A0616A"/>
<path d="M139.823 49.7506C140.12 50.0961 140.479 50.3835 140.88 50.5982C141.299 50.7718 141.748 50.8576 142.201 50.8505C143.286 50.8811 144.462 50.6817 145.217 49.8991C146.19 48.8902 146.158 47.2631 146.921 46.0862C146.982 45.9795 147.066 45.8875 147.167 45.8165C147.295 45.7466 147.439 45.7133 147.585 45.7201C148.548 45.7111 149.387 46.3378 150.144 46.9351C150.501 47.1812 150.807 47.4938 151.045 47.8558C151.195 48.1489 151.298 48.4639 151.349 48.7892C151.725 50.6295 151.847 52.5112 151.967 54.3859C152.034 55.4213 152.101 56.4578 152.096 57.4954C152.08 60.9139 151.288 64.2752 150.5 67.6011C150.398 68.0297 150.26 68.5087 149.871 68.7139C149.698 68.792 149.512 68.8376 149.322 68.8483C147.067 69.1141 144.806 69.3802 142.535 69.4153C141.649 69.429 140.763 69.4074 139.877 69.3507C139.725 69.3487 139.574 69.3223 139.429 69.2724C139.234 69.1782 139.066 69.035 138.941 68.8566C137.713 67.3036 137.64 65.1565 137.648 63.174C137.667 58.3268 137.84 53.4834 138.166 48.6439C138.193 48.2445 138.199 47.7594 137.912 47.4452C138.471 48.2757 139.111 49.0481 139.823 49.7506V49.7506Z" fill="white"/>
<path d="M138.548 42.778C138.344 43.1472 136.845 44.064 136.556 44.37C134.939 46.0797 131.988 46.0155 130.51 47.8467C129.989 48.491 129.719 49.3005 129.52 50.1053C129.239 51.2436 129.089 52.485 129.56 53.5583C130.013 54.591 130.967 55.305 131.615 56.2275C132.326 57.2404 132.646 58.4703 132.952 59.6705C133.179 60.5567 133.407 61.4648 133.319 62.3753C133.219 63.4106 132.719 64.3585 132.424 65.3557C132.129 66.3528 132.079 67.5405 132.76 68.3241C133.261 68.8998 134.047 69.1281 134.798 69.2565C135.759 69.4014 136.729 69.4861 137.701 69.5101C138.56 69.5481 139.506 69.5555 140.166 69.0035C140.686 68.5679 140.913 67.8611 140.942 67.1816C140.971 66.5022 140.83 65.8287 140.742 65.1544C140.65 64.4553 140.615 63.7502 140.586 63.0458C140.454 59.8852 140.436 56.7225 140.532 53.5579C140.58 52.9001 140.548 52.2389 140.436 51.589C140.252 50.7425 139.796 49.9859 139.415 49.2081C138.655 47.743 138.31 46.0965 138.42 44.4483C138.535 42.7546 139.271 41.4642 138.548 42.778Z" fill="white"/>
<path d="M147.001 42.9063C147.31 43.2256 148.363 43.3308 148.757 43.5365C149.127 43.7082 149.514 43.8425 149.911 43.9374C151.348 44.3532 152.715 44.9825 153.966 45.8044C154.226 45.957 154.456 46.1561 154.644 46.392C154.842 46.7157 154.97 47.0778 155.019 47.4546C155.212 48.4132 155.406 49.3832 155.362 50.3601C155.316 51.3971 155.005 52.4014 154.696 53.3921L153.542 57.0937C152.681 59.8567 151.814 62.647 151.571 65.5318C151.437 67.1306 151.497 68.7398 151.749 70.3242C151.772 70.4013 151.78 70.4826 151.769 70.5626C151.759 70.6427 151.733 70.7196 151.691 70.7884C151.615 70.8638 151.514 70.91 151.408 70.9189C150.851 71.0063 150.312 70.7213 149.807 70.4692C148.265 69.6991 146.618 69.1587 144.92 68.8651C145.584 67.9031 146.096 66.8444 146.438 65.7261C146.633 65.0161 146.786 64.2953 146.897 63.5674L147.434 60.4522C147.652 59.3136 147.806 58.1634 147.894 57.0073C147.935 56.5734 147.91 56.1359 147.819 55.7096C147.696 55.3039 147.531 54.9118 147.329 54.5393C146.444 52.6929 146.029 50.5857 146.377 48.567C146.53 47.6835 146.826 46.7989 146.702 45.9109C146.583 45.0572 146.707 44.3936 146.489 43.5487C145.592 40.0795 146.418 42.3056 147.001 42.9063Z" fill="white"/>
<path d="M130.494 50.7662C130.091 51.6059 129.417 52.3213 129.187 53.2246C129.098 53.6468 129.06 54.0782 129.073 54.5095C129.033 55.1596 129.097 55.8119 129.263 56.4417C129.391 56.84 129.6 57.2074 129.75 57.5979C129.959 58.1435 130.052 58.7269 130.024 59.3108C129.983 60.1197 129.709 60.9049 129.688 61.7145C129.654 62.9878 130.241 64.1847 130.814 65.3214C130.958 64.9632 131.178 64.641 131.46 64.3772C131.741 64.1134 132.076 63.9145 132.442 63.7943C132.808 63.6741 133.196 63.6356 133.578 63.6814C133.96 63.7272 134.328 63.8563 134.656 64.0596C134.787 63.898 134.849 63.6909 134.829 63.4834C134.871 62.0063 134.912 60.5291 134.951 59.0519C135.013 56.7673 135.072 54.4522 134.548 52.2279C134.312 51.2237 133.944 50.2233 133.269 49.4444C132.914 49.0343 131.708 47.954 131.125 48.4134C130.863 48.6201 130.924 49.1825 130.882 49.4673C130.82 49.9175 130.689 50.3555 130.494 50.7662V50.7662Z" fill="white"/>
<path d="M155.48 48.3461C155.643 48.9516 155.712 49.5784 155.686 50.205C155.694 51.4819 155.677 52.7587 155.636 54.0353C155.642 54.69 155.559 55.3425 155.388 55.9745C155.257 56.3854 155.056 56.7708 154.922 57.1804C154.519 58.4078 154.739 59.7391 154.774 61.031C154.798 61.4492 154.762 61.8686 154.668 62.2766C154.455 63.0775 153.883 63.7247 153.484 64.4504C153.105 65.1396 152.876 65.9122 152.424 66.5551C151.971 67.1981 151.187 67.7075 150.428 67.5102C149.852 67.3606 149.443 66.8495 149.16 66.3249C148.543 65.1715 148.332 63.8428 148.561 62.5541C148.845 60.9861 149.763 59.595 150.095 58.0363C150.549 55.8959 149.858 53.6872 149.879 51.4988C149.869 51.1558 149.916 50.8135 150.016 50.4854C150.19 49.9856 150.563 49.5864 150.907 49.1855C151.338 48.6845 151.738 48.1578 152.105 47.6084C152.352 47.2393 152.687 46.29 153.124 46.2111C154.101 46.0348 155.238 47.5893 155.48 48.3461Z" fill="white"/>
<path d="M125.428 69.6808C124.888 69.5446 124.331 69.4853 123.775 69.5045C123.19 69.5369 122.619 69.6938 122.1 69.9648C121.58 70.2358 121.124 70.6146 120.762 71.0761C120.399 71.5376 120.139 72.0711 119.998 72.6413C119.858 73.2115 119.839 73.8052 119.945 74.383C120.08 75.0089 120.3 75.613 120.6 76.1784C121.038 77.0708 121.564 77.9611 122.375 78.533C122.864 78.8474 123.391 79.0988 123.942 79.2812L128.216 80.8964C128.845 81.134 129.474 81.3716 130.109 81.592C133.298 82.6981 136.624 83.3613 139.993 83.5633C141.018 83.6597 142.052 83.6072 143.062 83.4073C143.306 83.3754 143.53 83.254 143.691 83.0667C143.772 82.9243 143.82 82.7651 143.831 82.6013L144.094 80.7544C144.153 80.4972 144.145 80.2291 144.072 79.9758C143.951 79.6654 143.649 79.4701 143.362 79.3042C140.552 77.6853 137.271 76.7921 134.906 74.5702C134.349 74.0471 133.884 73.2179 133.207 72.8626C132.44 72.4597 131.537 72.2297 130.744 71.8584C129.01 71.0467 127.306 70.114 125.428 69.6808Z" fill="#2F2E41"/>
<path opacity="0.1" d="M129.694 72.1705C131.205 72.6454 137.583 75.9352 138.676 77.0839C138.529 77.1368 133.558 74.3418 133.409 74.2968C132.041 73.9201 130.702 73.4467 129.401 72.8801C129.142 72.7599 127.718 72.195 127.783 71.867C127.855 71.497 129.426 72.0862 129.694 72.1705Z" fill="black"/>
<path d="M148.54 84.5214C148.626 84.5277 148.711 84.5025 148.779 84.4507C148.81 84.4118 148.832 84.3674 148.845 84.32C148.857 84.2725 148.861 84.223 148.854 84.1742L148.847 81.658C148.126 81.3132 147.319 81.2027 146.527 81.0965L142.832 80.6011C142.917 80.6125 142.255 82.1976 142.356 82.4092C142.535 82.7822 143.904 83.1127 144.29 83.2888C145.633 83.9011 147.028 84.5741 148.54 84.5214Z" fill="#A0616A"/>
<path d="M136.947 81.649C136.25 81.7605 135.471 81.859 135.019 82.4038C134.446 83.0947 134.69 84.1246 134.964 84.9805C134.98 85.0909 135.019 85.1969 135.077 85.2922C135.135 85.3874 135.212 85.47 135.302 85.535C135.393 85.6 135.496 85.6461 135.604 85.6706C135.713 85.6951 135.825 85.6974 135.935 85.6776C136.571 85.718 137.248 85.7497 137.804 85.4366C138.056 85.2697 138.298 85.0889 138.53 84.8951C138.94 84.6215 139.391 84.4148 139.865 84.2828C140.738 84.0076 141.635 83.822 142.545 83.7288C142.904 83.7124 143.258 83.6497 143.601 83.5421C143.772 83.4868 143.928 83.3927 144.057 83.2672C144.186 83.1416 144.284 82.9879 144.344 82.818C144.473 82.3607 144.208 81.8945 143.954 81.4935C143.661 80.9683 143.281 80.4971 142.83 80.1002C142.142 79.5637 141.801 79.9756 141.108 80.3189C139.795 80.9688 138.393 81.4172 136.947 81.649V81.649Z" fill="#A0616A"/>
<path d="M135.124 82.2796L130.695 80.9662C130.163 80.7806 129.608 80.6726 129.046 80.6457C128.765 80.6341 128.484 80.6829 128.223 80.7888C127.962 80.8948 127.727 81.0553 127.532 81.2599C127.189 81.6643 127.091 82.2171 127.005 82.7414L126.822 83.863C126.7 84.4284 126.665 85.0094 126.719 85.5854C126.749 85.8735 126.843 86.151 126.996 86.3969C127.148 86.6428 127.355 86.8506 127.599 87.0044C128.212 87.3399 128.963 87.176 129.648 87.0357C131.029 86.7523 132.435 86.6011 133.845 86.5841C134.375 86.5777 134.932 86.5844 135.4 86.3353C135.672 86.1736 135.901 85.9476 136.066 85.6772C136.231 85.4067 136.327 85.0999 136.347 84.7834C136.435 83.8253 136.116 82.5738 135.124 82.2796Z" fill="#2F2E41"/>
<path d="M150.281 81.1349C150.855 81.034 151.362 80.7066 151.912 80.5133C152.687 80.2413 153.526 80.2413 154.347 80.2443C154.649 80.2166 154.952 80.2776 155.22 80.4196C155.581 80.6611 155.674 81.1442 155.735 81.5754L156.106 84.1772C156.205 84.6626 156.215 85.1621 156.136 85.6512C156.027 86.1334 155.7 86.5982 155.223 86.7226C154.644 86.8736 154.076 86.5024 153.529 86.2586C152.162 85.6491 150.573 85.8049 149.148 85.3494C149.011 85.322 148.883 85.2659 148.77 85.1848C148.656 85.1037 148.562 84.9995 148.492 84.879C148.443 84.7345 148.426 84.5812 148.441 84.4294C148.465 83.5931 148.29 82.4511 148.541 81.6518C148.766 80.933 149.64 81.1349 150.281 81.1349Z" fill="#2F2E41"/>
<path d="M159.655 68.6336C160.54 68.4109 161.458 68.348 162.365 68.4479C163.089 68.5279 163.836 68.7302 164.365 69.2332C165.008 69.8454 165.215 70.7922 165.233 71.682C165.261 73.4541 164.675 75.1811 163.575 76.568C163.306 76.9187 162.987 77.2272 162.627 77.4832C162.239 77.7266 161.826 77.9265 161.394 78.0792L151.823 81.8664C149.306 82.8627 146.779 83.8619 144.152 84.5187C144.081 84.5535 144.003 84.5735 143.923 84.5776C143.843 84.5817 143.764 84.5697 143.689 84.5424C143.614 84.5152 143.545 84.4732 143.486 84.4188C143.428 84.3645 143.381 84.299 143.348 84.2261C142.509 83.0245 141.806 81.7335 141.25 80.3766C141.224 80.3444 141.206 80.3063 141.197 80.2655C141.189 80.2247 141.19 80.1824 141.201 80.1423C141.213 80.1022 141.233 80.0654 141.262 80.035C141.29 80.0046 141.325 79.9815 141.365 79.9676L148.134 76.0656C148.631 75.8058 149.093 75.486 149.512 75.1132C149.805 74.8287 150.044 74.4941 150.219 74.1252C150.36 73.8311 150.373 73.1373 150.552 72.9199C150.728 72.7071 151.328 72.6902 151.605 72.6065C151.996 72.4863 152.379 72.3411 152.752 72.1717C154.266 71.4921 155.614 70.5046 157.066 69.7089C157.88 69.2419 158.75 68.8805 159.655 68.6336V68.6336Z" fill="#2F2E41"/>
<path opacity="0.1" d="M155.817 71.5474C154.654 72.4237 153.149 73.2293 151.996 74.1287C151.602 74.4356 145.044 78.1345 144.952 78.6257C146.027 78.8075 152.877 73.9998 153.857 73.52C154.838 73.0403 155.706 72.3638 156.567 71.6923C156.787 71.5211 157.717 71.0066 157.087 70.8154C156.732 70.7077 156.079 71.3722 155.817 71.5474Z" fill="black"/>
<path d="M147.815 42.9912H137.606C137.191 42.9912 136.793 43.1565 136.5 43.4507C136.206 43.745 136.042 44.144 136.042 44.5602V45.1347H135.931V46.4196H136.042V47.319H135.931V48.0899H136.042V57.5705C136.042 57.9866 136.206 58.3856 136.5 58.6799C136.793 58.9741 137.191 59.1394 137.606 59.1394H147.815C148.23 59.1394 148.627 58.9741 148.921 58.6799C149.214 58.3856 149.379 57.9866 149.379 57.5705V44.5601C149.379 44.144 149.214 43.745 148.921 43.4507C148.627 43.1565 148.23 42.9912 147.815 42.9912V42.9912Z" fill="#D0CDE1"/>
<path d="M149.438 30.8725L144.259 28.1514L137.109 29.2646L135.629 35.8199L139.312 35.6776L140.341 33.2694V35.6381L142.04 35.5725L143.026 31.7381L143.643 35.8199L149.684 35.6961L149.438 30.8725Z" fill="#2F2E41"/>
<path d="M131.849 67.7845C132.083 68.1839 132.416 68.5161 132.816 68.7491C133.078 68.8692 133.364 68.9276 133.652 68.9198C133.94 68.9121 134.222 68.8384 134.477 68.7044C134.987 68.4302 135.404 68.0105 135.676 67.4984C136.239 66.5014 136.356 65.3085 136.285 64.165C136.215 63.0215 135.972 61.8954 135.864 60.7549C135.786 59.9257 135.779 59.0917 135.773 58.2588C135.754 58.0837 135.79 57.9069 135.878 57.7541C136.028 57.604 136.223 57.5065 136.433 57.476C137.568 57.1374 138.322 56.0694 138.863 55.0117C139.224 54.3054 139.538 53.5333 139.468 52.7427C139.398 51.9521 138.832 51.1556 138.045 51.0749C137.396 51.0084 136.797 51.4219 136.329 51.8776C135.148 53.0344 134.389 54.5558 134.174 56.1974C134.071 57.0013 134.101 57.827 133.883 58.6074C133.418 60.2738 131.961 61.2954 131.236 62.7948C130.436 64.447 130.878 66.3226 131.849 67.7845Z" fill="#A0616A"/>
<path d="M153.276 61.4183C153.11 61.8047 152.869 62.154 152.567 62.4454C152.264 62.7369 151.907 62.9646 151.515 63.1152C151.029 63.3113 150.492 63.3443 149.985 63.2092C149.734 63.1393 149.502 63.0121 149.307 62.8376C149.113 62.6632 148.961 62.4461 148.864 62.2033C148.786 61.9587 148.744 61.7043 148.738 61.4477C148.665 60.324 148.693 59.166 149.1 58.1166C149.257 57.7118 149.468 57.3279 149.592 56.9117C149.714 56.431 149.776 55.9372 149.778 55.4413L149.911 52.3753C149.933 52.1527 149.918 51.9279 149.866 51.7105C149.733 51.2668 149.319 50.9785 148.94 50.714C148.024 50.075 147.119 49.3294 146.675 48.3027C146.523 47.9936 146.468 47.6451 146.519 47.3039C146.644 46.6951 147.256 46.301 147.862 46.1682C148.258 46.0813 148.667 46.0758 149.066 46.1519C149.464 46.228 149.843 46.3842 150.179 46.6111C150.516 46.838 150.803 47.1309 151.024 47.4721C151.244 47.8134 151.394 48.1959 151.463 48.5966C151.523 48.9426 151.522 49.296 151.557 49.6455C151.632 50.3867 151.866 51.1011 152.013 51.8314C152.374 53.6302 152.187 55.4896 152.544 57.288C152.843 58.7918 153.97 59.773 153.276 61.4183Z" fill="#A0616A"/>
<path d="M142.847 49.8886C143.554 49.8886 144.128 49.3133 144.128 48.6037C144.128 47.8941 143.554 47.3188 142.847 47.3188C142.14 47.3188 141.566 47.8941 141.566 48.6037C141.566 49.3133 142.14 49.8886 142.847 49.8886Z" fill="#6A6AF4"/>
<path d="M3.77849 94.7826C5.86509 94.7826 7.55661 93.0856 7.55661 90.9924C7.55661 88.8991 5.86509 87.2021 3.77849 87.2021C1.69189 87.2021 0.000366211 88.8991 0.000366211 90.9924C0.000366211 93.0856 1.69189 94.7826 3.77849 94.7826Z" fill="#2F2E41"/>
<path d="M17.4736 102.244L15.5707 100.389L11.7494 101.579L12.1164 106.018L19.9735 105.652L17.5597 102.362L17.4736 102.244Z" fill="#FBBEBE"/>
<path d="M13.3116 102.206C16.685 102.206 19.4197 99.4627 19.4197 96.0785C19.4197 92.6942 16.685 89.9507 13.3116 89.9507C9.9381 89.9507 7.20337 92.6942 7.20337 96.0785C7.20337 99.4627 9.9381 102.206 13.3116 102.206Z" fill="#FBBEBE"/>
<path d="M51.2315 110.109C51.2315 110.109 58.7355 123.046 60.5214 124.989C61.3707 125.945 62.2755 126.849 63.2312 127.698C63.2312 127.698 62.3914 130.492 61.0543 130.392C60.2922 130.346 59.5448 130.161 58.8486 129.847C58.8486 129.847 58.2518 128.295 57.2108 127.614C56.1697 126.933 47.6647 118.539 47.8635 115.857C48.0623 113.174 51.2315 110.109 51.2315 110.109Z" fill="#2F2E41"/>
<path d="M24.5074 128.571C24.5074 128.571 32.5084 134.801 43.382 128.947L44.3191 128.255C44.3191 128.255 42.7377 131.824 42.591 132.792C42.4209 133.914 38.3037 140.486 37.6318 140.801C36.9599 141.116 36.8119 141.406 36.8119 141.406L39.6631 144.554L40.7173 143.776C40.7173 143.776 44.8279 137.933 46.0301 136.865C47.2324 135.796 52.9606 124.774 52.9606 124.774C52.9606 124.774 55.1506 120.621 49.6849 120.309C44.2192 119.996 41.7042 121.491 41.7042 121.491L32.004 123.037L24.5074 128.571Z" fill="#2F2E41"/>
<path d="M63.324 127.086L67.3709 129.895C67.3709 129.895 72.5339 131.518 69.3535 132.598C66.1732 133.678 57.7924 134.068 57.6022 132.578C57.4121 131.088 57.9328 128.743 58.3509 128.871C58.769 129 61.671 129.756 63.324 127.086Z" fill="#2F2E41"/>
<path d="M41.0754 142.811L41.8245 146.938C41.8245 146.938 43.9543 151.024 41.3971 149.756C38.8398 148.488 33.5712 143.672 34.3492 142.662C35.1272 141.653 36.8443 140.558 37.0187 140.887C37.1931 141.216 38.4838 143.419 41.0754 142.811Z" fill="#2F2E41"/>
<path d="M33.3588 124.391C33.3588 124.391 27.9199 130.762 24.6179 129.214C21.3159 127.667 7.80673 109.743 9.34925 106.431C10.8918 103.118 11.409 103.823 11.409 103.823L18.3842 104.47L16.3772 101.242C16.3772 101.242 17.3143 100.55 18.2072 101.522C19.1002 102.493 22.6851 104.918 23.934 108.344C25.1829 111.769 28.8495 111.598 28.8495 111.598L33.3588 124.391Z" fill="white"/>
<path d="M55.3226 111.256L45.8946 121.295L37.4489 106.336L45.4779 96.6045L55.3226 111.256Z" fill="#3F3D56"/>
<path d="M54.6109 111.147L46.0957 119.969L38.3794 106.374L45.4559 97.436L54.6109 111.147Z" fill="white"/>
<path d="M45.4326 120.912L45.8946 121.296L45.5983 121.877L32.4151 125.813L32.2904 125.36L32.8902 124.737L45.4326 120.912Z" fill="#B3B3B3"/>
<path d="M46.0117 121.209L32.36 125.491L24.0381 109.716L37.4489 106.336L46.0117 121.209Z" fill="#D0CDE1"/>
<path d="M44.984 119.07L44.3982 119.502L37.8978 108.179L38.5697 107.864L44.984 119.07Z" fill="#3F3D56"/>
<path d="M43.6401 119.699L37.8652 121.427L31.3094 109.782L37.0226 108.463L43.6401 119.699Z" fill="#3F3D56"/>
<path d="M27.3709 111.06L28.5666 110.72C28.5666 110.72 35.2346 109.964 35.3319 112.066C35.4292 114.168 27.6716 113.193 27.6716 113.193L26.6372 111.782L27.3709 111.06Z" fill="#FBBEBE"/>
<path d="M33.2195 120.509L34.8837 119.824C34.8837 119.824 39.9072 117.564 38.4661 116.092C37.0251 114.62 32.5806 117.177 32.5806 117.177L31.7297 117.986L33.2195 120.509Z" fill="#FBBEBE"/>
<path d="M31.7363 117.257C31.7363 117.257 34.4461 119.966 33.8295 120.602C33.2129 121.239 23.1019 129.609 20.5955 126.931C18.0891 124.253 5.87741 110.806 10.6292 109.653C15.3809 108.499 16.6364 111.195 16.6364 111.195L22.9092 121.962L31.7363 117.257Z" fill="white"/>
<path d="M23.6224 109.026L28.0736 110.541L28.0009 113.764L23.2933 113.255L23.6224 109.026Z" fill="white"/>
<path opacity="0.2" d="M27.6344 118.926L22.8386 121.742L17.3593 113.288L22.6484 120.252L27.6344 118.926Z" fill="black"/>
<path d="M10.6305 101.597C14.6466 101.597 17.9022 98.3312 17.9022 94.3023C17.9022 90.2734 14.6466 87.0073 10.6305 87.0073C6.61452 87.0073 3.35889 90.2734 3.35889 94.3023C3.35889 98.3312 6.61452 101.597 10.6305 101.597Z" fill="#2F2E41"/>
<path d="M49.9209 111.892L44.8293 104.42L46.9877 101.74L52.2783 109.427L49.9209 111.892Z" fill="#6A6AF4"/>
<path d="M49.7775 114.896L42.026 103.591L42.4083 103.128L50.1235 114.46L49.7775 114.896Z" fill="#E6E6E6"/>
<path d="M48.7786 115.996L41.0271 104.691L41.4094 104.228L49.1246 115.56L48.7786 115.996Z" fill="#E6E6E6"/>
<path d="M47.9277 116.806L40.1763 105.501L40.5586 105.037L48.2738 116.369L47.9277 116.806Z" fill="#E6E6E6"/>
<path d="M13.8507 89.4321H16.1002C17.2391 89.4321 18.3315 89.886 19.1368 90.694C19.9422 91.5019 20.3946 92.5977 20.3946 93.7403V93.7403H13.8507V89.4321Z" fill="#2F2E41"/>
<path d="M44.837 86.6901L44.4291 86.6597C44.4133 86.8724 44.402 87.0864 44.3886 87.2998L42.5581 87.2383L44.4782 90.8479L46.6346 87.3752L44.7974 87.3135C44.8106 87.1057 44.8215 86.8973 44.837 86.6901Z" fill="#3F3D56"/>
<path d="M55.5731 57.2679L55.8982 57.517C56.3859 56.8762 56.8953 56.2365 57.4122 55.6156L57.0983 55.3525C56.5775 55.978 56.0644 56.6224 55.5731 57.2679Z" fill="#3F3D56"/>
<path d="M58.7062 53.5067L59.0081 53.7834C59.5507 53.1873 60.1141 52.5953 60.6824 52.0236L60.3928 51.7339C59.8202 52.3097 59.2528 52.9062 58.7062 53.5067Z" fill="#3F3D56"/>
<path d="M62.1552 50.0371L62.4317 50.3394C63.0252 49.7928 63.6379 49.2528 64.2527 48.7345L63.9897 48.4204C63.3702 48.9425 62.753 49.4865 62.1552 50.0371Z" fill="#3F3D56"/>
<path d="M52.7816 61.2933L53.1273 61.5125C53.5572 60.8302 54.0086 60.1478 54.4689 59.4839L54.1332 59.2495C53.6694 59.9184 53.2147 60.6059 52.7816 61.2933Z" fill="#3F3D56"/>
<path d="M65.8929 46.8863L66.142 47.2117C66.781 46.7194 67.4385 46.2358 68.096 45.7742L67.8615 45.438C67.199 45.9031 66.5367 46.3903 65.8929 46.8863Z" fill="#3F3D56"/>
<path d="M50.3547 65.5518L50.7184 65.7393C51.0869 65.0205 51.4765 64.3003 51.8764 63.5988L51.5213 63.395C51.1184 64.1018 50.7259 64.8275 50.3547 65.5518Z" fill="#3F3D56"/>
<path d="M46.4097 77.1008L46.0137 76.9985C45.8116 77.7858 45.6245 78.5886 45.4575 79.3847L45.8577 79.4693C46.0235 78.6791 46.2092 77.8822 46.4097 77.1008Z" fill="#3F3D56"/>
<path d="M69.8912 44.0785L70.1107 44.4247C70.7886 43.992 71.4856 43.5686 72.1823 43.1662L71.9782 42.8105C71.2763 43.216 70.5741 43.6426 69.8912 44.0785Z" fill="#3F3D56"/>
<path d="M45.4113 81.86L45.0077 81.7935C44.8764 82.5944 44.7611 83.4106 44.6649 84.2194L45.0711 84.2679C45.1665 83.4653 45.281 82.6551 45.4113 81.86Z" fill="#3F3D56"/>
<path d="M48.3132 70.0121L48.6921 70.1665C48.9953 69.4177 49.3198 68.6652 49.6563 67.9301L49.2846 67.7588C48.9455 68.4996 48.6187 69.2577 48.3132 70.0121Z" fill="#3F3D56"/>
<path d="M46.675 74.6397L47.0663 74.7595C47.3021 73.9853 47.5584 73.2064 47.8281 72.4444L47.4427 72.3071C47.171 73.0747 46.9127 73.8596 46.675 74.6397Z" fill="#3F3D56"/>
<path d="M97.5579 35.9005C98.3597 35.8727 99.1761 35.8616 99.9837 35.8692L99.9873 35.4589C99.1741 35.4513 98.3514 35.4624 97.5439 35.4904L97.5579 35.9005Z" fill="#3F3D56"/>
<path d="M74.1188 41.6373L74.3069 42.0015C75.0211 41.6303 75.7523 41.2706 76.4802 40.9323L76.3082 40.5601C75.5749 40.9008 74.8383 41.2633 74.1188 41.6373Z" fill="#3F3D56"/>
<path d="M107.236 36.4122C108.034 36.5255 108.839 36.6581 109.629 36.8064L109.704 36.4031C108.908 36.2537 108.097 36.12 107.293 36.0059L107.236 36.4122Z" fill="#3F3D56"/>
<path d="M112.003 37.3072C112.786 37.4907 113.576 37.6947 114.352 37.9133L114.462 37.5183C113.681 37.298 112.885 37.0926 112.096 36.9077L112.003 37.3072Z" fill="#3F3D56"/>
<path d="M116.671 38.6236C117.434 38.8763 118.203 39.15 118.956 39.4371L119.102 39.0536C118.343 38.7643 117.568 38.4885 116.799 38.2339L116.671 38.6236Z" fill="#3F3D56"/>
<path d="M102.408 35.9439C103.214 35.9863 104.028 36.0472 104.827 36.1247L104.867 35.7164C104.061 35.6382 103.241 35.5768 102.43 35.5342L102.408 35.9439Z" fill="#3F3D56"/>
<path d="M92.6749 35.8744L92.7248 36.2817C93.5219 36.1834 94.3335 36.1013 95.1369 36.038L95.1049 35.6289C94.2953 35.6927 93.4777 35.7754 92.6749 35.8744Z" fill="#3F3D56"/>
<path d="M83.1335 37.927L83.2546 38.3188C84.0231 38.0801 84.8075 37.8555 85.5859 37.6513L85.4825 37.2544C84.6982 37.46 83.9079 37.6863 83.1335 37.927Z" fill="#3F3D56"/>
<path d="M78.5422 39.5816L78.6975 39.9613C79.4411 39.6551 80.2007 39.3621 80.9552 39.0902L80.817 38.7041C80.0567 38.978 79.2914 39.2733 78.5422 39.5816Z" fill="#3F3D56"/>
<path d="M87.8589 36.6878L87.9446 37.0891C88.7303 36.9201 89.5314 36.7664 90.3258 36.6322L90.2579 36.2275C89.4576 36.3628 88.6504 36.5176 87.8589 36.6878Z" fill="#3F3D56"/>
<path d="M125.059 41.9739L122.773 38.5854L121.97 40.245C121.775 40.1579 121.582 40.0688 121.387 39.9844L121.225 40.3611C121.415 40.4434 121.602 40.5298 121.791 40.6142L120.991 42.2659L125.059 41.9739Z" fill="#3F3D56"/>
</g>
<defs>
<clipPath id="clip0_1152_55791">
<rect width="185.172" height="150" fill="white"/>
</clipPath>
</defs>
</svg>
