<svg width="227" height="150" viewBox="0 0 227 150" fill="none" xmlns="http://www.w3.org/2000/svg">
<path d="M13.9264 4.99638C15.3079 4.99638 16.4279 3.8779 16.4279 2.49819C16.4279 1.11848 15.3079 0 13.9264 0C12.5448 0 11.4248 1.11848 11.4248 2.49819C11.4248 3.8779 12.5448 4.99638 13.9264 4.99638Z" fill="#E6E6E6"/>
<path d="M26.5895 4.99638C27.971 4.99638 29.091 3.8779 29.091 2.49819C29.091 1.11848 27.971 0 26.5895 0C25.2079 0 24.0879 1.11848 24.0879 2.49819C24.0879 3.8779 25.2079 4.99638 26.5895 4.99638Z" fill="#E6E6E6"/>
<path d="M39.2523 4.99638C40.6339 4.99638 41.7539 3.8779 41.7539 2.49819C41.7539 1.11848 40.6339 0 39.2523 0C37.8707 0 36.7507 1.11848 36.7507 2.49819C36.7507 3.8779 37.8707 4.99638 39.2523 4.99638Z" fill="#E6E6E6"/>
<path d="M51.9151 4.99638C53.2967 4.99638 54.4167 3.8779 54.4167 2.49819C54.4167 1.11848 53.2967 0 51.9151 0C50.5336 0 49.4136 1.11848 49.4136 2.49819C49.4136 3.8779 50.5336 4.99638 51.9151 4.99638Z" fill="#E6E6E6"/>
<path d="M64.578 4.99638C65.9596 4.99638 67.0795 3.8779 67.0795 2.49819C67.0795 1.11848 65.9596 0 64.578 0C63.1964 0 62.0764 1.11848 62.0764 2.49819C62.0764 3.8779 63.1964 4.99638 64.578 4.99638Z" fill="#E6E6E6"/>
<path d="M77.2408 4.99638C78.6224 4.99638 79.7424 3.8779 79.7424 2.49819C79.7424 1.11848 78.6224 0 77.2408 0C75.8592 0 74.7393 1.11848 74.7393 2.49819C74.7393 3.8779 75.8592 4.99638 77.2408 4.99638Z" fill="#E6E6E6"/>
<path d="M89.9037 4.99638C91.2852 4.99638 92.4052 3.8779 92.4052 2.49819C92.4052 1.11848 91.2852 0 89.9037 0C88.5221 0 87.4021 1.11848 87.4021 2.49819C87.4021 3.8779 88.5221 4.99638 89.9037 4.99638Z" fill="#E6E6E6"/>
<path d="M102.567 4.99638C103.948 4.99638 105.068 3.8779 105.068 2.49819C105.068 1.11848 103.948 0 102.567 0C101.185 0 100.065 1.11848 100.065 2.49819C100.065 3.8779 101.185 4.99638 102.567 4.99638Z" fill="#E6E6E6"/>
<path d="M115.229 4.99638C116.611 4.99638 117.731 3.8779 117.731 2.49819C117.731 1.11848 116.611 0 115.229 0C113.848 0 112.728 1.11848 112.728 2.49819C112.728 3.8779 113.848 4.99638 115.229 4.99638Z" fill="#E6E6E6"/>
<path d="M127.892 4.99638C129.274 4.99638 130.394 3.8779 130.394 2.49819C130.394 1.11848 129.274 0 127.892 0C126.511 0 125.391 1.11848 125.391 2.49819C125.391 3.8779 126.511 4.99638 127.892 4.99638Z" fill="#E6E6E6"/>
<path d="M13.9264 17.8016C15.3079 17.8016 16.4279 16.6831 16.4279 15.3034C16.4279 13.9237 15.3079 12.8052 13.9264 12.8052C12.5448 12.8052 11.4248 13.9237 11.4248 15.3034C11.4248 16.6831 12.5448 17.8016 13.9264 17.8016Z" fill="#E6E6E6"/>
<path d="M26.5895 17.8016C27.971 17.8016 29.091 16.6831 29.091 15.3034C29.091 13.9237 27.971 12.8052 26.5895 12.8052C25.2079 12.8052 24.0879 13.9237 24.0879 15.3034C24.0879 16.6831 25.2079 17.8016 26.5895 17.8016Z" fill="#E6E6E6"/>
<path d="M39.2523 17.8016C40.6339 17.8016 41.7539 16.6831 41.7539 15.3034C41.7539 13.9237 40.6339 12.8052 39.2523 12.8052C37.8707 12.8052 36.7507 13.9237 36.7507 15.3034C36.7507 16.6831 37.8707 17.8016 39.2523 17.8016Z" fill="#E6E6E6"/>
<path d="M51.9151 17.8016C53.2967 17.8016 54.4167 16.6831 54.4167 15.3034C54.4167 13.9237 53.2967 12.8052 51.9151 12.8052C50.5336 12.8052 49.4136 13.9237 49.4136 15.3034C49.4136 16.6831 50.5336 17.8016 51.9151 17.8016Z" fill="#6A6AF4"/>
<path d="M64.578 17.8016C65.9596 17.8016 67.0795 16.6831 67.0795 15.3034C67.0795 13.9237 65.9596 12.8052 64.578 12.8052C63.1964 12.8052 62.0764 13.9237 62.0764 15.3034C62.0764 16.6831 63.1964 17.8016 64.578 17.8016Z" fill="#E6E6E6"/>
<path d="M77.2408 17.8016C78.6224 17.8016 79.7424 16.6831 79.7424 15.3034C79.7424 13.9237 78.6224 12.8052 77.2408 12.8052C75.8592 12.8052 74.7393 13.9237 74.7393 15.3034C74.7393 16.6831 75.8592 17.8016 77.2408 17.8016Z" fill="#E6E6E6"/>
<path d="M89.9037 17.8016C91.2852 17.8016 92.4052 16.6831 92.4052 15.3034C92.4052 13.9237 91.2852 12.8052 89.9037 12.8052C88.5221 12.8052 87.4021 13.9237 87.4021 15.3034C87.4021 16.6831 88.5221 17.8016 89.9037 17.8016Z" fill="#E6E6E6"/>
<path d="M102.567 17.8016C103.948 17.8016 105.068 16.6831 105.068 15.3034C105.068 13.9237 103.948 12.8052 102.567 12.8052C101.185 12.8052 100.065 13.9237 100.065 15.3034C100.065 16.6831 101.185 17.8016 102.567 17.8016Z" fill="#E6E6E6"/>
<path d="M115.229 17.8016C116.611 17.8016 117.731 16.6831 117.731 15.3034C117.731 13.9237 116.611 12.8052 115.229 12.8052C113.848 12.8052 112.728 13.9237 112.728 15.3034C112.728 16.6831 113.848 17.8016 115.229 17.8016Z" fill="#E6E6E6"/>
<path d="M127.892 17.8016C129.274 17.8016 130.394 16.6831 130.394 15.3034C130.394 13.9237 129.274 12.8052 127.892 12.8052C126.511 12.8052 125.391 13.9237 125.391 15.3034C125.391 16.6831 126.511 17.8016 127.892 17.8016Z" fill="#E6E6E6"/>
<path d="M13.9264 30.6058C15.3079 30.6058 16.4279 29.4873 16.4279 28.1076C16.4279 26.7279 15.3079 25.6094 13.9264 25.6094C12.5448 25.6094 11.4248 26.7279 11.4248 28.1076C11.4248 29.4873 12.5448 30.6058 13.9264 30.6058Z" fill="#E6E6E6"/>
<path d="M26.5895 30.6058C27.971 30.6058 29.091 29.4873 29.091 28.1076C29.091 26.7279 27.971 25.6094 26.5895 25.6094C25.2079 25.6094 24.0879 26.7279 24.0879 28.1076C24.0879 29.4873 25.2079 30.6058 26.5895 30.6058Z" fill="#E6E6E6"/>
<path d="M39.2523 30.6058C40.6339 30.6058 41.7539 29.4873 41.7539 28.1076C41.7539 26.7279 40.6339 25.6094 39.2523 25.6094C37.8707 25.6094 36.7507 26.7279 36.7507 28.1076C36.7507 29.4873 37.8707 30.6058 39.2523 30.6058Z" fill="#E6E6E6"/>
<path d="M51.9151 30.6058C53.2967 30.6058 54.4167 29.4873 54.4167 28.1076C54.4167 26.7279 53.2967 25.6094 51.9151 25.6094C50.5336 25.6094 49.4136 26.7279 49.4136 28.1076C49.4136 29.4873 50.5336 30.6058 51.9151 30.6058Z" fill="#E6E6E6"/>
<path d="M64.578 30.6058C65.9596 30.6058 67.0795 29.4873 67.0795 28.1076C67.0795 26.7279 65.9596 25.6094 64.578 25.6094C63.1964 25.6094 62.0764 26.7279 62.0764 28.1076C62.0764 29.4873 63.1964 30.6058 64.578 30.6058Z" fill="#E6E6E6"/>
<path d="M77.2408 30.6058C78.6224 30.6058 79.7424 29.4873 79.7424 28.1076C79.7424 26.7279 78.6224 25.6094 77.2408 25.6094C75.8592 25.6094 74.7393 26.7279 74.7393 28.1076C74.7393 29.4873 75.8592 30.6058 77.2408 30.6058Z" fill="#E6E6E6"/>
<path d="M89.9037 30.6058C91.2852 30.6058 92.4052 29.4873 92.4052 28.1076C92.4052 26.7279 91.2852 25.6094 89.9037 25.6094C88.5221 25.6094 87.4021 26.7279 87.4021 28.1076C87.4021 29.4873 88.5221 30.6058 89.9037 30.6058Z" fill="#E6E6E6"/>
<path d="M102.567 30.6058C103.948 30.6058 105.068 29.4873 105.068 28.1076C105.068 26.7279 103.948 25.6094 102.567 25.6094C101.185 25.6094 100.065 26.7279 100.065 28.1076C100.065 29.4873 101.185 30.6058 102.567 30.6058Z" fill="#E6E6E6"/>
<path d="M115.229 30.6058C116.611 30.6058 117.731 29.4873 117.731 28.1076C117.731 26.7279 116.611 25.6094 115.229 25.6094C113.848 25.6094 112.728 26.7279 112.728 28.1076C112.728 29.4873 113.848 30.6058 115.229 30.6058Z" fill="#E6E6E6"/>
<path d="M127.892 30.6058C129.274 30.6058 130.394 29.4873 130.394 28.1076C130.394 26.7279 129.274 25.6094 127.892 25.6094C126.511 25.6094 125.391 26.7279 125.391 28.1076C125.391 29.4873 126.511 30.6058 127.892 30.6058Z" fill="#E6E6E6"/>
<path d="M13.9264 43.41C15.3079 43.41 16.4279 42.2915 16.4279 40.9118C16.4279 39.5321 15.3079 38.4136 13.9264 38.4136C12.5448 38.4136 11.4248 39.5321 11.4248 40.9118C11.4248 42.2915 12.5448 43.41 13.9264 43.41Z" fill="#E6E6E6"/>
<path d="M26.5895 43.41C27.971 43.41 29.091 42.2915 29.091 40.9118C29.091 39.5321 27.971 38.4136 26.5895 38.4136C25.2079 38.4136 24.0879 39.5321 24.0879 40.9118C24.0879 42.2915 25.2079 43.41 26.5895 43.41Z" fill="#E6E6E6"/>
<path d="M39.2523 43.41C40.6339 43.41 41.7539 42.2915 41.7539 40.9118C41.7539 39.5321 40.6339 38.4136 39.2523 38.4136C37.8707 38.4136 36.7507 39.5321 36.7507 40.9118C36.7507 42.2915 37.8707 43.41 39.2523 43.41Z" fill="#E6E6E6"/>
<path d="M51.9151 43.41C53.2967 43.41 54.4167 42.2915 54.4167 40.9118C54.4167 39.5321 53.2967 38.4136 51.9151 38.4136C50.5336 38.4136 49.4136 39.5321 49.4136 40.9118C49.4136 42.2915 50.5336 43.41 51.9151 43.41Z" fill="#E6E6E6"/>
<path d="M64.578 43.41C65.9596 43.41 67.0795 42.2915 67.0795 40.9118C67.0795 39.5321 65.9596 38.4136 64.578 38.4136C63.1964 38.4136 62.0764 39.5321 62.0764 40.9118C62.0764 42.2915 63.1964 43.41 64.578 43.41Z" fill="#E6E6E6"/>
<path d="M77.2408 43.41C78.6224 43.41 79.7424 42.2915 79.7424 40.9118C79.7424 39.5321 78.6224 38.4136 77.2408 38.4136C75.8592 38.4136 74.7393 39.5321 74.7393 40.9118C74.7393 42.2915 75.8592 43.41 77.2408 43.41Z" fill="#E6E6E6"/>
<path d="M89.9037 43.41C91.2852 43.41 92.4052 42.2915 92.4052 40.9118C92.4052 39.5321 91.2852 38.4136 89.9037 38.4136C88.5221 38.4136 87.4021 39.5321 87.4021 40.9118C87.4021 42.2915 88.5221 43.41 89.9037 43.41Z" fill="#E6E6E6"/>
<path d="M102.567 43.41C103.948 43.41 105.068 42.2915 105.068 40.9118C105.068 39.5321 103.948 38.4136 102.567 38.4136C101.185 38.4136 100.065 39.5321 100.065 40.9118C100.065 42.2915 101.185 43.41 102.567 43.41Z" fill="#E6E6E6"/>
<path d="M115.229 43.41C116.611 43.41 117.731 42.2915 117.731 40.9118C117.731 39.5321 116.611 38.4136 115.229 38.4136C113.848 38.4136 112.728 39.5321 112.728 40.9118C112.728 42.2915 113.848 43.41 115.229 43.41Z" fill="#E6E6E6"/>
<path d="M127.892 43.41C129.274 43.41 130.394 42.2915 130.394 40.9118C130.394 39.5321 129.274 38.4136 127.892 38.4136C126.511 38.4136 125.391 39.5321 125.391 40.9118C125.391 42.2915 126.511 43.41 127.892 43.41Z" fill="#E6E6E6"/>
<path d="M13.9264 56.2146C15.3079 56.2146 16.4279 55.0962 16.4279 53.7164C16.4279 52.3367 15.3079 51.2183 13.9264 51.2183C12.5448 51.2183 11.4248 52.3367 11.4248 53.7164C11.4248 55.0962 12.5448 56.2146 13.9264 56.2146Z" fill="#E6E6E6"/>
<path d="M26.5895 56.2146C27.971 56.2146 29.091 55.0962 29.091 53.7164C29.091 52.3367 27.971 51.2183 26.5895 51.2183C25.2079 51.2183 24.0879 52.3367 24.0879 53.7164C24.0879 55.0962 25.2079 56.2146 26.5895 56.2146Z" fill="#6A6AF4"/>
<path d="M39.2523 56.2146C40.6339 56.2146 41.7539 55.0962 41.7539 53.7164C41.7539 52.3367 40.6339 51.2183 39.2523 51.2183C37.8707 51.2183 36.7507 52.3367 36.7507 53.7164C36.7507 55.0962 37.8707 56.2146 39.2523 56.2146Z" fill="#E6E6E6"/>
<path d="M51.9151 56.2146C53.2967 56.2146 54.4167 55.0962 54.4167 53.7164C54.4167 52.3367 53.2967 51.2183 51.9151 51.2183C50.5336 51.2183 49.4136 52.3367 49.4136 53.7164C49.4136 55.0962 50.5336 56.2146 51.9151 56.2146Z" fill="#E6E6E6"/>
<path d="M64.578 56.2146C65.9596 56.2146 67.0795 55.0962 67.0795 53.7164C67.0795 52.3367 65.9596 51.2183 64.578 51.2183C63.1964 51.2183 62.0764 52.3367 62.0764 53.7164C62.0764 55.0962 63.1964 56.2146 64.578 56.2146Z" fill="#E6E6E6"/>
<path d="M77.2408 56.2146C78.6224 56.2146 79.7424 55.0962 79.7424 53.7164C79.7424 52.3367 78.6224 51.2183 77.2408 51.2183C75.8592 51.2183 74.7393 52.3367 74.7393 53.7164C74.7393 55.0962 75.8592 56.2146 77.2408 56.2146Z" fill="#E6E6E6"/>
<path d="M89.9037 56.2146C91.2852 56.2146 92.4052 55.0962 92.4052 53.7164C92.4052 52.3367 91.2852 51.2183 89.9037 51.2183C88.5221 51.2183 87.4021 52.3367 87.4021 53.7164C87.4021 55.0962 88.5221 56.2146 89.9037 56.2146Z" fill="#E6E6E6"/>
<path d="M102.567 56.2146C103.948 56.2146 105.068 55.0962 105.068 53.7164C105.068 52.3367 103.948 51.2183 102.567 51.2183C101.185 51.2183 100.065 52.3367 100.065 53.7164C100.065 55.0962 101.185 56.2146 102.567 56.2146Z" fill="#E6E6E6"/>
<path d="M115.229 56.2146C116.611 56.2146 117.731 55.0962 117.731 53.7164C117.731 52.3367 116.611 51.2183 115.229 51.2183C113.848 51.2183 112.728 52.3367 112.728 53.7164C112.728 55.0962 113.848 56.2146 115.229 56.2146Z" fill="#E6E6E6"/>
<path d="M127.892 56.2146C129.274 56.2146 130.394 55.0962 130.394 53.7164C130.394 52.3367 129.274 51.2183 127.892 51.2183C126.511 51.2183 125.391 52.3367 125.391 53.7164C125.391 55.0962 126.511 56.2146 127.892 56.2146Z" fill="#E6E6E6"/>
<path d="M13.9264 69.0193C15.3079 69.0193 16.4279 67.9008 16.4279 66.5211C16.4279 65.1414 15.3079 64.0229 13.9264 64.0229C12.5448 64.0229 11.4248 65.1414 11.4248 66.5211C11.4248 67.9008 12.5448 69.0193 13.9264 69.0193Z" fill="#E6E6E6"/>
<path d="M26.5895 69.0193C27.971 69.0193 29.091 67.9008 29.091 66.5211C29.091 65.1414 27.971 64.0229 26.5895 64.0229C25.2079 64.0229 24.0879 65.1414 24.0879 66.5211C24.0879 67.9008 25.2079 69.0193 26.5895 69.0193Z" fill="#E6E6E6"/>
<path d="M39.2523 69.0193C40.6339 69.0193 41.7539 67.9008 41.7539 66.5211C41.7539 65.1414 40.6339 64.0229 39.2523 64.0229C37.8707 64.0229 36.7507 65.1414 36.7507 66.5211C36.7507 67.9008 37.8707 69.0193 39.2523 69.0193Z" fill="#E6E6E6"/>
<path d="M51.9151 69.0193C53.2967 69.0193 54.4167 67.9008 54.4167 66.5211C54.4167 65.1414 53.2967 64.0229 51.9151 64.0229C50.5336 64.0229 49.4136 65.1414 49.4136 66.5211C49.4136 67.9008 50.5336 69.0193 51.9151 69.0193Z" fill="#E6E6E6"/>
<path d="M64.578 69.0193C65.9596 69.0193 67.0795 67.9008 67.0795 66.5211C67.0795 65.1414 65.9596 64.0229 64.578 64.0229C63.1964 64.0229 62.0764 65.1414 62.0764 66.5211C62.0764 67.9008 63.1964 69.0193 64.578 69.0193Z" fill="#E6E6E6"/>
<path d="M77.2408 69.0193C78.6224 69.0193 79.7424 67.9008 79.7424 66.5211C79.7424 65.1414 78.6224 64.0229 77.2408 64.0229C75.8592 64.0229 74.7393 65.1414 74.7393 66.5211C74.7393 67.9008 75.8592 69.0193 77.2408 69.0193Z" fill="#E6E6E6"/>
<path d="M89.9037 69.0193C91.2852 69.0193 92.4052 67.9008 92.4052 66.5211C92.4052 65.1414 91.2852 64.0229 89.9037 64.0229C88.5221 64.0229 87.4021 65.1414 87.4021 66.5211C87.4021 67.9008 88.5221 69.0193 89.9037 69.0193Z" fill="#E6E6E6"/>
<path d="M102.567 69.0193C103.948 69.0193 105.068 67.9008 105.068 66.5211C105.068 65.1414 103.948 64.0229 102.567 64.0229C101.185 64.0229 100.065 65.1414 100.065 66.5211C100.065 67.9008 101.185 69.0193 102.567 69.0193Z" fill="#E6E6E6"/>
<path d="M115.229 69.0193C116.611 69.0193 117.731 67.9008 117.731 66.5211C117.731 65.1414 116.611 64.0229 115.229 64.0229C113.848 64.0229 112.728 65.1414 112.728 66.5211C112.728 67.9008 113.848 69.0193 115.229 69.0193Z" fill="#E6E6E6"/>
<path d="M127.892 69.0193C129.274 69.0193 130.394 67.9008 130.394 66.5211C130.394 65.1414 129.274 64.0229 127.892 64.0229C126.511 64.0229 125.391 65.1414 125.391 66.5211C125.391 67.9008 126.511 69.0193 127.892 69.0193Z" fill="#E6E6E6"/>
<path d="M13.9264 81.824C15.3079 81.824 16.4279 80.7055 16.4279 79.3258C16.4279 77.9461 15.3079 76.8276 13.9264 76.8276C12.5448 76.8276 11.4248 77.9461 11.4248 79.3258C11.4248 80.7055 12.5448 81.824 13.9264 81.824Z" fill="#E6E6E6"/>
<path d="M26.5895 81.824C27.971 81.824 29.091 80.7055 29.091 79.3258C29.091 77.9461 27.971 76.8276 26.5895 76.8276C25.2079 76.8276 24.0879 77.9461 24.0879 79.3258C24.0879 80.7055 25.2079 81.824 26.5895 81.824Z" fill="#E6E6E6"/>
<path d="M39.2523 81.824C40.6339 81.824 41.7539 80.7055 41.7539 79.3258C41.7539 77.9461 40.6339 76.8276 39.2523 76.8276C37.8707 76.8276 36.7507 77.9461 36.7507 79.3258C36.7507 80.7055 37.8707 81.824 39.2523 81.824Z" fill="#6A6AF4"/>
<path d="M51.9151 81.824C53.2967 81.824 54.4167 80.7055 54.4167 79.3258C54.4167 77.9461 53.2967 76.8276 51.9151 76.8276C50.5336 76.8276 49.4136 77.9461 49.4136 79.3258C49.4136 80.7055 50.5336 81.824 51.9151 81.824Z" fill="#E6E6E6"/>
<path d="M64.578 81.824C65.9596 81.824 67.0795 80.7055 67.0795 79.3258C67.0795 77.9461 65.9596 76.8276 64.578 76.8276C63.1964 76.8276 62.0764 77.9461 62.0764 79.3258C62.0764 80.7055 63.1964 81.824 64.578 81.824Z" fill="#E6E6E6"/>
<path d="M77.2408 81.824C78.6224 81.824 79.7424 80.7055 79.7424 79.3258C79.7424 77.9461 78.6224 76.8276 77.2408 76.8276C75.8592 76.8276 74.7393 77.9461 74.7393 79.3258C74.7393 80.7055 75.8592 81.824 77.2408 81.824Z" fill="#E6E6E6"/>
<path d="M89.9037 81.824C91.2852 81.824 92.4052 80.7055 92.4052 79.3258C92.4052 77.9461 91.2852 76.8276 89.9037 76.8276C88.5221 76.8276 87.4021 77.9461 87.4021 79.3258C87.4021 80.7055 88.5221 81.824 89.9037 81.824Z" fill="#E6E6E6"/>
<path d="M102.567 81.824C103.948 81.824 105.068 80.7055 105.068 79.3258C105.068 77.9461 103.948 76.8276 102.567 76.8276C101.185 76.8276 100.065 77.9461 100.065 79.3258C100.065 80.7055 101.185 81.824 102.567 81.824Z" fill="#E6E6E6"/>
<path d="M115.229 81.824C116.611 81.824 117.731 80.7055 117.731 79.3258C117.731 77.9461 116.611 76.8276 115.229 76.8276C113.848 76.8276 112.728 77.9461 112.728 79.3258C112.728 80.7055 113.848 81.824 115.229 81.824Z" fill="#E6E6E6"/>
<path d="M127.892 81.824C129.274 81.824 130.394 80.7055 130.394 79.3258C130.394 77.9461 129.274 76.8276 127.892 76.8276C126.511 76.8276 125.391 77.9461 125.391 79.3258C125.391 80.7055 126.511 81.824 127.892 81.824Z" fill="#E6E6E6"/>
<path d="M13.9264 94.6282C15.3079 94.6282 16.4279 93.5097 16.4279 92.13C16.4279 90.7503 15.3079 89.6318 13.9264 89.6318C12.5448 89.6318 11.4248 90.7503 11.4248 92.13C11.4248 93.5097 12.5448 94.6282 13.9264 94.6282Z" fill="#E6E6E6"/>
<path d="M26.5895 94.6282C27.971 94.6282 29.091 93.5097 29.091 92.13C29.091 90.7503 27.971 89.6318 26.5895 89.6318C25.2079 89.6318 24.0879 90.7503 24.0879 92.13C24.0879 93.5097 25.2079 94.6282 26.5895 94.6282Z" fill="#E6E6E6"/>
<path d="M39.2523 94.6282C40.6339 94.6282 41.7539 93.5097 41.7539 92.13C41.7539 90.7503 40.6339 89.6318 39.2523 89.6318C37.8707 89.6318 36.7507 90.7503 36.7507 92.13C36.7507 93.5097 37.8707 94.6282 39.2523 94.6282Z" fill="#E6E6E6"/>
<path d="M51.9151 94.6282C53.2967 94.6282 54.4167 93.5097 54.4167 92.13C54.4167 90.7503 53.2967 89.6318 51.9151 89.6318C50.5336 89.6318 49.4136 90.7503 49.4136 92.13C49.4136 93.5097 50.5336 94.6282 51.9151 94.6282Z" fill="#E6E6E6"/>
<path d="M64.578 94.6282C65.9596 94.6282 67.0795 93.5097 67.0795 92.13C67.0795 90.7503 65.9596 89.6318 64.578 89.6318C63.1964 89.6318 62.0764 90.7503 62.0764 92.13C62.0764 93.5097 63.1964 94.6282 64.578 94.6282Z" fill="#E6E6E6"/>
<path d="M77.2408 94.6282C78.6224 94.6282 79.7424 93.5097 79.7424 92.13C79.7424 90.7503 78.6224 89.6318 77.2408 89.6318C75.8592 89.6318 74.7393 90.7503 74.7393 92.13C74.7393 93.5097 75.8592 94.6282 77.2408 94.6282Z" fill="#E6E6E6"/>
<path d="M89.9037 94.6282C91.2852 94.6282 92.4052 93.5097 92.4052 92.13C92.4052 90.7503 91.2852 89.6318 89.9037 89.6318C88.5221 89.6318 87.4021 90.7503 87.4021 92.13C87.4021 93.5097 88.5221 94.6282 89.9037 94.6282Z" fill="#E6E6E6"/>
<path d="M102.567 94.6282C103.948 94.6282 105.068 93.5097 105.068 92.13C105.068 90.7503 103.948 89.6318 102.567 89.6318C101.185 89.6318 100.065 90.7503 100.065 92.13C100.065 93.5097 101.185 94.6282 102.567 94.6282Z" fill="#E6E6E6"/>
<path d="M115.229 94.6282C116.611 94.6282 117.731 93.5097 117.731 92.13C117.731 90.7503 116.611 89.6318 115.229 89.6318C113.848 89.6318 112.728 90.7503 112.728 92.13C112.728 93.5097 113.848 94.6282 115.229 94.6282Z" fill="#E6E6E6"/>
<path d="M127.892 94.6282C129.274 94.6282 130.394 93.5097 130.394 92.13C130.394 90.7503 129.274 89.6318 127.892 89.6318C126.511 89.6318 125.391 90.7503 125.391 92.13C125.391 93.5097 126.511 94.6282 127.892 94.6282Z" fill="#E6E6E6"/>
<path d="M13.9264 107.432C15.3079 107.432 16.4279 106.314 16.4279 104.934C16.4279 103.555 15.3079 102.436 13.9264 102.436C12.5448 102.436 11.4248 103.555 11.4248 104.934C11.4248 106.314 12.5448 107.432 13.9264 107.432Z" fill="#E6E6E6"/>
<path d="M26.5895 107.432C27.971 107.432 29.091 106.314 29.091 104.934C29.091 103.555 27.971 102.436 26.5895 102.436C25.2079 102.436 24.0879 103.555 24.0879 104.934C24.0879 106.314 25.2079 107.432 26.5895 107.432Z" fill="#E6E6E6"/>
<path d="M39.2523 107.432C40.6339 107.432 41.7539 106.314 41.7539 104.934C41.7539 103.555 40.6339 102.436 39.2523 102.436C37.8707 102.436 36.7507 103.555 36.7507 104.934C36.7507 106.314 37.8707 107.432 39.2523 107.432Z" fill="#E6E6E6"/>
<path d="M51.9151 107.432C53.2967 107.432 54.4167 106.314 54.4167 104.934C54.4167 103.555 53.2967 102.436 51.9151 102.436C50.5336 102.436 49.4136 103.555 49.4136 104.934C49.4136 106.314 50.5336 107.432 51.9151 107.432Z" fill="#E6E6E6"/>
<path d="M64.578 107.432C65.9596 107.432 67.0795 106.314 67.0795 104.934C67.0795 103.555 65.9596 102.436 64.578 102.436C63.1964 102.436 62.0764 103.555 62.0764 104.934C62.0764 106.314 63.1964 107.432 64.578 107.432Z" fill="#E6E6E6"/>
<path d="M77.2408 107.432C78.6224 107.432 79.7424 106.314 79.7424 104.934C79.7424 103.555 78.6224 102.436 77.2408 102.436C75.8592 102.436 74.7393 103.555 74.7393 104.934C74.7393 106.314 75.8592 107.432 77.2408 107.432Z" fill="#E6E6E6"/>
<path d="M89.9037 107.432C91.2852 107.432 92.4052 106.314 92.4052 104.934C92.4052 103.555 91.2852 102.436 89.9037 102.436C88.5221 102.436 87.4021 103.555 87.4021 104.934C87.4021 106.314 88.5221 107.432 89.9037 107.432Z" fill="#E6E6E6"/>
<path d="M102.567 107.432C103.948 107.432 105.068 106.314 105.068 104.934C105.068 103.555 103.948 102.436 102.567 102.436C101.185 102.436 100.065 103.555 100.065 104.934C100.065 106.314 101.185 107.432 102.567 107.432Z" fill="#E6E6E6"/>
<path d="M115.229 107.432C116.611 107.432 117.731 106.314 117.731 104.934C117.731 103.555 116.611 102.436 115.229 102.436C113.848 102.436 112.728 103.555 112.728 104.934C112.728 106.314 113.848 107.432 115.229 107.432Z" fill="#E6E6E6"/>
<path d="M127.892 107.432C129.274 107.432 130.394 106.314 130.394 104.934C130.394 103.555 129.274 102.436 127.892 102.436C126.511 102.436 125.391 103.555 125.391 104.934C125.391 106.314 126.511 107.432 127.892 107.432Z" fill="#E6E6E6"/>
<path d="M13.9264 120.238C15.3079 120.238 16.4279 119.119 16.4279 117.739C16.4279 116.36 15.3079 115.241 13.9264 115.241C12.5448 115.241 11.4248 116.36 11.4248 117.739C11.4248 119.119 12.5448 120.238 13.9264 120.238Z" fill="#E6E6E6"/>
<path d="M26.5895 120.238C27.971 120.238 29.091 119.119 29.091 117.739C29.091 116.36 27.971 115.241 26.5895 115.241C25.2079 115.241 24.0879 116.36 24.0879 117.739C24.0879 119.119 25.2079 120.238 26.5895 120.238Z" fill="#E6E6E6"/>
<path d="M39.2523 120.238C40.6339 120.238 41.7539 119.119 41.7539 117.739C41.7539 116.36 40.6339 115.241 39.2523 115.241C37.8707 115.241 36.7507 116.36 36.7507 117.739C36.7507 119.119 37.8707 120.238 39.2523 120.238Z" fill="#E6E6E6"/>
<path d="M51.9151 120.238C53.2967 120.238 54.4167 119.119 54.4167 117.739C54.4167 116.36 53.2967 115.241 51.9151 115.241C50.5336 115.241 49.4136 116.36 49.4136 117.739C49.4136 119.119 50.5336 120.238 51.9151 120.238Z" fill="#E6E6E6"/>
<path d="M64.578 120.238C65.9596 120.238 67.0795 119.119 67.0795 117.739C67.0795 116.36 65.9596 115.241 64.578 115.241C63.1964 115.241 62.0764 116.36 62.0764 117.739C62.0764 119.119 63.1964 120.238 64.578 120.238Z" fill="#E6E6E6"/>
<path d="M77.2408 120.238C78.6224 120.238 79.7424 119.119 79.7424 117.739C79.7424 116.36 78.6224 115.241 77.2408 115.241C75.8592 115.241 74.7393 116.36 74.7393 117.739C74.7393 119.119 75.8592 120.238 77.2408 120.238Z" fill="#E6E6E6"/>
<path d="M89.9037 120.238C91.2852 120.238 92.4052 119.119 92.4052 117.739C92.4052 116.36 91.2852 115.241 89.9037 115.241C88.5221 115.241 87.4021 116.36 87.4021 117.739C87.4021 119.119 88.5221 120.238 89.9037 120.238Z" fill="#E6E6E6"/>
<path d="M102.567 120.238C103.948 120.238 105.068 119.119 105.068 117.739C105.068 116.36 103.948 115.241 102.567 115.241C101.185 115.241 100.065 116.36 100.065 117.739C100.065 119.119 101.185 120.238 102.567 120.238Z" fill="#E6E6E6"/>
<path d="M115.229 120.238C116.611 120.238 117.731 119.119 117.731 117.739C117.731 116.36 116.611 115.241 115.229 115.241C113.848 115.241 112.728 116.36 112.728 117.739C112.728 119.119 113.848 120.238 115.229 120.238Z" fill="#E6E6E6"/>
<path d="M127.892 120.238C129.274 120.238 130.394 119.119 130.394 117.739C130.394 116.36 129.274 115.241 127.892 115.241C126.511 115.241 125.391 116.36 125.391 117.739C125.391 119.119 126.511 120.238 127.892 120.238Z" fill="#E6E6E6"/>
<path d="M103.983 99.1365L133.673 47.1821H74.2619L44.541 98.591L74.2619 150H133.704L163.37 98.6873L103.983 99.1365Z" fill="#3F3D56"/>
<path d="M170.743 94.323L170.799 94.2267L141.078 42.8179H141.046L111.357 94.7722L170.743 94.323Z" fill="#00AC8C"/>
<path d="M213.741 44.9278C213.257 44.3628 213.014 43.5356 213.014 42.4461C213.014 41.3669 213.257 40.5447 213.741 39.9795C213.99 39.6959 214.301 39.4723 214.649 39.3256C214.997 39.1788 215.374 39.1126 215.752 39.1319C216.133 39.112 216.513 39.1779 216.865 39.3246C217.218 39.4713 217.532 39.6951 217.786 39.9795C218.275 40.5446 218.52 41.3669 218.52 42.4461C218.52 43.5357 218.275 44.3629 217.786 44.9278C217.532 45.2123 217.218 45.4361 216.866 45.5828C216.513 45.7296 216.133 45.7954 215.752 45.7756C215.374 45.7949 214.997 45.7287 214.649 45.5819C214.301 45.4351 213.99 45.2115 213.741 44.9278ZM216.624 44.0497C216.842 43.5447 216.936 42.9949 216.899 42.4461C216.935 41.904 216.838 41.3613 216.616 40.8653C216.534 40.7092 216.409 40.5797 216.256 40.4918C216.103 40.4039 215.928 40.3613 215.752 40.369C215.579 40.3622 215.407 40.4055 215.258 40.4935C215.109 40.5815 214.988 40.7106 214.911 40.8653C214.695 41.3629 214.6 41.9048 214.635 42.4461C214.599 42.9924 214.694 43.5393 214.911 44.042C214.988 44.1968 215.109 44.3259 215.258 44.414C215.407 44.5021 215.579 44.5453 215.752 44.5385C215.929 44.5486 216.105 44.5079 216.259 44.4213C216.414 44.3347 216.54 44.2058 216.624 44.0497V44.0497ZM215.645 50.1588L221.946 39.2846H223.643L217.327 50.1588H215.645ZM221.495 49.4181C221.01 48.853 220.768 48.0206 220.768 46.921C220.768 45.8419 221.01 45.0223 221.495 44.462C221.761 44.1958 222.076 43.9846 222.424 43.8404C222.772 43.6963 223.145 43.6221 223.521 43.6221C223.898 43.6221 224.27 43.6963 224.618 43.8404C224.966 43.9846 225.282 44.1958 225.547 44.462C226.031 45.0221 226.274 45.8469 226.274 46.9363C226.274 48.0259 226.032 48.8531 225.547 49.4181C225.283 49.6866 224.967 49.8998 224.62 50.0453C224.272 50.1908 223.898 50.2657 223.521 50.2657C223.144 50.2657 222.77 50.1908 222.423 50.0453C222.075 49.8998 221.759 49.6866 221.495 49.4181ZM224.377 48.5323C224.594 48.0296 224.689 47.4826 224.653 46.9363C224.689 46.3942 224.591 45.8516 224.37 45.3556C224.284 45.2049 224.16 45.0795 224.011 44.9923C223.861 44.9051 223.69 44.8591 223.517 44.8591C223.344 44.8591 223.173 44.9051 223.024 44.9923C222.874 45.0795 222.75 45.2049 222.664 45.3556C222.448 45.8532 222.354 46.395 222.389 46.9363C222.353 47.4825 222.448 48.0295 222.664 48.5323C222.751 48.6831 222.875 48.8084 223.026 48.8955C223.176 48.9827 223.347 49.0286 223.521 49.0286C223.695 49.0286 223.865 48.9827 224.016 48.8955C224.166 48.8084 224.291 48.6831 224.377 48.5323V48.5323Z" fill="#3F3D56"/>
<path d="M0.726477 138.73C0.242158 138.165 0 137.337 0 136.248C0 135.169 0.242158 134.346 0.726477 133.781C0.975949 133.498 1.28642 133.274 1.63466 133.127C1.98289 132.981 2.35986 132.914 2.73735 132.934C3.11835 132.914 3.49896 132.98 3.85107 133.126C4.20318 133.273 4.51779 133.497 4.7717 133.781C5.26081 134.346 5.50546 135.169 5.50564 136.248C5.50564 137.337 5.26099 138.165 4.7717 138.73C4.51782 139.014 4.20321 139.238 3.8511 139.385C3.49899 139.531 3.11837 139.597 2.73735 139.577C2.35985 139.597 1.98287 139.53 1.63463 139.384C1.28639 139.237 0.975921 139.013 0.726477 138.73V138.73ZM3.60945 137.851C3.8277 137.346 3.92206 136.797 3.88468 136.248C3.92061 135.706 3.82338 135.163 3.60145 134.667C3.51943 134.511 3.39462 134.381 3.24161 134.294C3.0886 134.206 2.9137 134.163 2.73736 134.171C2.56425 134.164 2.39287 134.207 2.24373 134.295C2.09459 134.383 1.97402 134.512 1.89647 134.667C1.68022 135.165 1.58579 135.707 1.62097 136.248C1.58498 136.794 1.6794 137.341 1.89647 137.844C1.97395 137.999 2.09449 138.128 2.24365 138.216C2.3928 138.304 2.56422 138.347 2.73736 138.34C2.91426 138.35 3.09037 138.31 3.2449 138.223C3.39943 138.136 3.52592 138.008 3.60945 137.851V137.851ZM2.63068 143.961L8.93133 133.086H10.6288L4.31272 143.961H2.63068ZM8.48035 143.22C7.99577 142.655 7.75361 141.822 7.75387 140.723C7.75387 139.644 7.99603 138.824 8.48035 138.264C8.74618 137.998 9.062 137.786 9.40972 137.642C9.75744 137.498 10.1302 137.424 10.5067 137.424C10.8832 137.424 11.2559 137.498 11.6037 137.642C11.9514 137.786 12.2672 137.998 12.533 138.264C13.0171 138.824 13.2592 139.649 13.2595 140.738C13.2595 141.828 13.0174 142.655 12.533 143.22C12.2685 143.488 11.953 143.701 11.6052 143.847C11.2573 143.993 10.8839 144.067 10.5067 144.067C10.1295 144.067 9.75612 143.993 9.40823 143.847C9.06035 143.701 8.74493 143.488 8.48035 143.22V143.22ZM11.3628 142.334C11.5798 141.831 11.6743 141.284 11.6383 140.738C11.6742 140.196 11.577 139.653 11.3553 139.157C11.2699 139.007 11.146 138.881 10.9962 138.794C10.8464 138.707 10.6761 138.661 10.5027 138.661C10.3293 138.661 10.159 138.707 10.0092 138.794C9.85941 138.881 9.73548 139.007 9.65007 139.157C9.43405 139.655 9.33971 140.197 9.37484 140.738C9.33894 141.284 9.43326 141.831 9.65007 142.334C9.73633 142.485 9.86097 142.61 10.0114 142.697C10.1618 142.784 10.3325 142.83 10.5064 142.83C10.6803 142.83 10.8511 142.784 11.0015 142.697C11.1519 142.61 11.2765 142.485 11.3628 142.334V142.334Z" fill="#3F3D56"/>
<path d="M142.577 76.1265L142.192 76.0243L150.583 44.5005H199.256V44.8979H150.889L142.577 76.1265Z" fill="#2F2E41"/>
<path d="M203.233 48.8693C202.407 48.8693 201.6 48.6247 200.913 48.1665C200.226 47.7083 199.691 47.057 199.375 46.295C199.059 45.5329 198.976 44.6944 199.137 43.8855C199.298 43.0765 199.696 42.3335 200.28 41.7503C200.864 41.167 201.608 40.7699 202.418 40.6089C203.228 40.448 204.068 40.5306 204.831 40.8463C205.594 41.1619 206.246 41.6964 206.705 42.3822C207.164 43.068 207.409 43.8743 207.409 44.6991C207.408 45.8047 206.967 46.8647 206.184 47.6465C205.402 48.4283 204.34 48.8681 203.233 48.8693V48.8693ZM203.233 40.926C202.486 40.926 201.755 41.1473 201.134 41.5619C200.513 41.9765 200.028 42.5657 199.742 43.2552C199.456 43.9446 199.382 44.7033 199.527 45.4352C199.673 46.1671 200.033 46.8394 200.561 47.367C201.09 47.8947 201.763 48.2541 202.496 48.3996C203.229 48.5452 203.988 48.4705 204.679 48.1849C205.369 47.8994 205.959 47.4158 206.374 46.7953C206.79 46.1748 207.011 45.4453 207.011 44.6991C207.01 43.6987 206.612 42.7397 205.903 42.0324C205.195 41.325 204.235 40.9271 203.233 40.926V40.926Z" fill="#2F2E41"/>
<path d="M203.233 46.2872C204.112 46.2872 204.824 45.5759 204.824 44.6985C204.824 43.8211 204.112 43.1099 203.233 43.1099C202.355 43.1099 201.642 43.8211 201.642 44.6985C201.642 45.5759 202.355 46.2872 203.233 46.2872Z" fill="#6A6AF4"/>
<path d="M81.1276 107.074L81.5122 107.176L73.1209 138.699H24.4485V138.302H72.8151L81.1276 107.074Z" fill="#2F2E41"/>
<path d="M20.4713 134.331C21.2972 134.331 22.1046 134.575 22.7913 135.033C23.478 135.492 24.0132 136.143 24.3293 136.905C24.6454 137.667 24.728 138.505 24.5669 139.314C24.4058 140.123 24.0081 140.866 23.4241 141.45C22.8401 142.033 22.096 142.43 21.286 142.591C20.4759 142.752 19.6363 142.669 18.8732 142.354C18.1102 142.038 17.458 141.503 16.9992 140.818C16.5403 140.132 16.2954 139.326 16.2954 138.501C16.2967 137.395 16.737 136.335 17.5199 135.553C18.3027 134.772 19.3642 134.332 20.4713 134.331V134.331ZM20.4713 142.274C21.2185 142.274 21.949 142.053 22.5703 141.638C23.1916 141.223 23.6759 140.634 23.9619 139.945C24.2478 139.255 24.3226 138.497 24.1769 137.765C24.0311 137.033 23.6712 136.361 23.1429 135.833C22.6145 135.305 21.9413 134.946 21.2084 134.8C20.4755 134.655 19.7158 134.729 19.0254 135.015C18.3351 135.301 17.745 135.784 17.3299 136.405C16.9147 137.025 16.6931 137.755 16.6931 138.501C16.6943 139.501 17.0927 140.46 17.801 141.168C18.5093 141.875 19.4696 142.273 20.4713 142.274V142.274Z" fill="#2F2E41"/>
<path d="M20.4712 140.09C21.3498 140.09 22.062 139.379 22.062 138.501C22.062 137.624 21.3498 136.913 20.4712 136.913C19.5926 136.913 18.8804 137.624 18.8804 138.501C18.8804 139.379 19.5926 140.09 20.4712 140.09Z" fill="#6A6AF4"/>
</svg>
