<svg width="194" height="200" viewBox="0 0 194 200" fill="none" xmlns="http://www.w3.org/2000/svg">
<g clip-path="url(#clip0_1149_54631)">
<path d="M0.303966 150.652L0 151.193L168.779 196.799L169.083 196.259L0.303966 150.652Z" fill="#CACACA"/>
<path d="M120.906 0.0890485L27.0905 17.2366C26.7153 17.3103 26.3689 17.4415 26.0767 17.6206C25.7508 17.8186 25.4727 18.0515 25.253 18.3105C25.0117 18.5909 24.8256 18.8925 24.6995 19.2072C24.5659 19.5368 24.4975 19.8775 24.4962 20.2199V116.716C24.4965 117.053 24.5649 117.388 24.6995 117.712C24.8232 118.013 25.0097 118.301 25.253 118.565C25.4714 118.805 25.7504 119.017 26.0767 119.188C26.3737 119.346 26.7219 119.449 27.0905 119.491L120.906 129.068C121.45 129.126 122.006 129.096 122.531 128.981C123.03 128.87 123.487 128.681 123.865 128.43C124.258 128.167 124.567 127.85 124.77 127.499C124.994 127.111 125.108 126.697 125.104 126.28V2.53927C125.11 2.13036 124.997 1.72484 124.77 1.34727C124.57 1.01595 124.26 0.722028 123.865 0.489369C123.481 0.266159 123.022 0.113338 122.531 0.0448984C121.992 -0.0273511 121.436 -0.0122407 120.906 0.0890485V0.0890485Z" fill="#F2F2F2"/>
<path d="M29.403 19.9445C29.1381 19.9984 28.8939 20.0927 28.6883 20.2204C28.4596 20.3601 28.2645 20.5243 28.1106 20.7067C27.9419 20.9052 27.8126 21.1185 27.7263 21.3409C27.6351 21.5731 27.5904 21.813 27.5936 22.0537V114.633C27.5898 114.87 27.6345 115.106 27.7263 115.334C27.811 115.547 27.9402 115.75 28.1099 115.937C28.2627 116.107 28.4582 116.256 28.6873 116.378C28.8964 116.49 29.1418 116.564 29.402 116.595L117.279 124.804C117.653 124.836 118.033 124.807 118.389 124.72C118.73 124.635 119.038 124.497 119.292 124.318C119.557 124.13 119.762 123.906 119.896 123.661C120.043 123.39 120.115 123.103 120.107 122.814V6.40622C120.116 6.12244 120.045 5.84015 119.896 5.57568C119.765 5.34347 119.558 5.13535 119.292 4.9675C119.035 4.80739 118.725 4.69429 118.389 4.63846C118.023 4.58004 117.643 4.58185 117.279 4.64375L29.403 19.9445Z" fill="white"/>
<path d="M33.1202 23.6456C32.9392 23.678 32.7728 23.7412 32.636 23.8296C32.4779 23.9305 32.3449 24.0488 32.2424 24.1798C32.1254 24.3269 32.0362 24.4838 31.9771 24.6468C31.9119 24.8213 31.8784 25.0008 31.8776 25.1811V38.0756C31.8762 38.2465 31.909 38.4168 31.9751 38.5814C32.0302 38.7218 32.1199 38.8544 32.2404 38.9735C32.3416 39.0746 32.4773 39.1567 32.6354 39.2126C32.7854 39.2637 32.955 39.2802 33.1196 39.26L111.664 29.8815C111.923 29.8485 112.169 29.7754 112.381 29.6677C112.611 29.5521 112.81 29.4099 112.969 29.2473C113.142 29.0732 113.276 28.882 113.367 28.6803C113.464 28.4691 113.513 28.2489 113.514 28.0273V12.2384C113.516 12.0301 113.467 11.8231 113.367 11.6265C113.282 11.4572 113.147 11.3021 112.969 11.1715C112.806 11.05 112.599 10.9612 112.369 10.9142C112.14 10.8673 111.896 10.864 111.664 10.9048L33.1202 23.6456Z" fill="#F2F2F2"/>
<path d="M33.1202 45.537C32.9416 45.5595 32.7735 45.6116 32.6301 45.6887C32.4726 45.7726 32.3378 45.8752 32.2321 45.9918C32.1152 46.1192 32.0258 46.2578 31.9668 46.4032C31.9044 46.5583 31.8743 46.7188 31.8773 46.8798V74.4399C31.8743 74.5974 31.9054 74.7544 31.9695 74.9055C32.0267 75.0413 32.1164 75.1695 32.2348 75.2847C32.3399 75.3882 32.4756 75.475 32.6327 75.5395C32.7812 75.6 32.9503 75.6317 33.1225 75.6314L111.666 74.0789C111.92 74.0705 112.167 74.0234 112.392 73.9409C112.618 73.8576 112.818 73.7446 112.982 73.6082C113.154 73.4661 113.288 73.3039 113.377 73.1293C113.472 72.9448 113.519 72.7502 113.515 72.5544V38.8079C113.52 38.6172 113.473 38.4275 113.377 38.2489C113.29 38.0879 113.156 37.9412 112.982 37.8182C112.817 37.7011 112.615 37.6119 112.392 37.5575C112.158 37.5015 111.909 37.4846 111.664 37.508L33.1202 45.537Z" fill="#F2F2F2"/>
<path d="M40.0018 24.3923L101.909 14.6611V17.9492L40.0018 27.2118V24.3923Z" fill="white"/>
<path d="M40.11 30.3183L102.056 21.5706V23.098L40.11 31.6276V30.3183Z" fill="white"/>
<path d="M40.11 32.6349L102.056 24.2729V25.8004L40.11 33.9444V32.6349Z" fill="white"/>
<path d="M40.11 34.9514L102.056 26.9753V28.5028L40.11 36.2609V34.9514Z" fill="white"/>
<path d="M74.4567 74.8686L105.871 74.2519C105.98 74.2497 106.088 74.2347 106.191 74.2077C106.294 74.1804 106.391 74.1421 106.477 74.0944C106.567 74.0447 106.646 73.9864 106.713 73.9212C106.782 73.8523 106.838 73.7771 106.878 73.6977C106.961 73.5371 106.983 73.3642 106.941 73.196C106.92 73.1149 106.885 73.036 106.834 72.9615C106.785 72.888 106.72 72.82 106.642 72.7596L85.9327 56.8415C85.8428 56.7709 85.7305 56.7159 85.6047 56.6805C85.4865 56.6482 85.3589 56.6356 85.2323 56.6437C85.1011 56.6525 84.9743 56.681 84.8605 56.7272C84.734 56.7788 84.6232 56.847 84.5342 56.9279L79.7163 61.2448C79.5352 61.4102 79.3085 61.5491 79.0494 61.6534C78.818 61.7462 78.5597 61.802 78.2933 61.8169C78.0359 61.8304 77.7776 61.8011 77.5398 61.7316C77.2853 61.6556 77.0594 61.5401 76.8796 61.394V61.394L62.6802 50.0813C62.6011 50.0169 62.5008 49.9668 62.3877 49.9351C62.2824 49.9063 62.1684 49.8963 62.0561 49.9059C61.9378 49.9165 61.8245 49.9454 61.7245 49.9905C61.6104 50.0419 61.5116 50.1079 61.4333 50.185L36.4865 74.2735C36.4306 74.328 36.3849 74.3873 36.3506 74.4499C36.3149 74.5146 36.2898 74.5818 36.2756 74.6504C36.261 74.7202 36.2572 74.791 36.2644 74.8615C36.2715 74.9317 36.29 75.0011 36.3197 75.0684C36.3476 75.1323 36.3872 75.1935 36.4375 75.2505C36.4826 75.3019 36.5385 75.3484 36.6033 75.3885C36.663 75.4254 36.7315 75.4547 36.8059 75.4752C36.8781 75.4947 36.9552 75.504 37.0327 75.5025L74.4938 74.7568L74.4567 74.8686Z" fill="white"/>
<path d="M42.4993 48.4303C42.9049 48.3922 43.3178 48.432 43.6931 48.5452C44.0754 48.6629 44.4123 48.8415 44.6764 49.0663C44.9719 49.3183 45.1969 49.6064 45.3397 49.9157C45.5048 50.2685 45.5873 50.6374 45.5841 51.0083C45.5843 51.3926 45.5019 51.7747 45.3397 52.1422C45.1908 52.4843 44.9672 52.8086 44.6764 53.1038C44.4133 53.3731 44.0805 53.6062 43.6948 53.7915C43.3398 53.9624 42.93 54.0707 42.501 54.107C42.0953 54.1392 41.6846 54.0938 41.3134 53.9759C40.9371 53.8532 40.607 53.6717 40.349 53.4457C40.06 53.1941 39.84 52.908 39.7 52.6013C39.54 52.2533 39.4601 51.89 39.4632 51.5248C39.4631 51.1466 39.5428 50.7704 39.7 50.4082C39.8453 50.0696 40.0636 49.7481 40.3473 49.4546C40.6055 49.1851 40.9323 48.9503 41.3117 48.7618C41.6633 48.5867 42.0707 48.473 42.4993 48.4303Z" fill="white"/>
<path d="M33.1201 82.1047C32.9466 82.1082 32.7775 82.1435 32.63 82.207C32.4732 82.275 32.3382 82.3646 32.2334 82.4703C32.1153 82.5877 32.0257 82.7177 31.9681 82.8552C31.9045 83.0072 31.8739 83.1649 31.8772 83.3231V110.883C31.8749 111.044 31.9059 111.204 31.9694 111.358C32.0281 111.502 32.1175 111.639 32.2347 111.764C32.3403 111.878 32.4751 111.978 32.6326 112.058C32.7768 112.132 32.945 112.181 33.1225 112.199L111.664 118.516C111.91 118.533 112.158 118.511 112.389 118.45C112.613 118.391 112.815 118.297 112.98 118.177C113.153 118.05 113.287 117.901 113.375 117.737C113.471 117.558 113.518 117.367 113.513 117.175V83.4302C113.517 83.2351 113.47 83.0411 113.375 82.8575C113.286 82.6853 113.152 82.526 112.98 82.3872C112.816 82.2544 112.615 82.1456 112.389 82.0674C112.164 81.9896 111.916 81.9478 111.664 81.9451L33.1201 82.1047Z" fill="#F2F2F2"/>
<path d="M74.4567 115.578L105.87 118.109C105.976 118.118 106.085 118.114 106.189 118.097C106.291 118.08 106.388 118.051 106.475 118.012C106.565 117.971 106.645 117.921 106.711 117.862C106.781 117.799 106.837 117.73 106.877 117.655C106.919 117.577 106.946 117.495 106.955 117.412C106.965 117.328 106.96 117.243 106.939 117.159C106.918 117.075 106.883 116.992 106.833 116.914C106.782 116.835 106.718 116.76 106.64 116.693L85.9327 98.7007C85.8431 98.6218 85.7314 98.5562 85.6044 98.5078C85.4897 98.4644 85.3625 98.4391 85.232 98.4338C85.1046 98.4289 84.9773 98.4447 84.8602 98.4798C84.7348 98.5181 84.6233 98.5755 84.5339 98.6476L79.7164 102.481C79.5345 102.629 79.3064 102.746 79.0494 102.823C78.811 102.893 78.5518 102.923 78.2933 102.911C78.028 102.897 77.7706 102.842 77.5399 102.75C77.2833 102.647 77.059 102.51 76.8799 102.346L62.6802 89.6097C62.6014 89.5376 62.5017 89.4779 62.3874 89.4342C62.2855 89.3956 62.1719 89.3743 62.0558 89.3719C61.9409 89.3702 61.8271 89.3878 61.7242 89.4232C61.6102 89.4626 61.5102 89.519 61.4313 89.5883L36.4866 111.179C36.4302 111.229 36.3844 111.284 36.3506 111.342C36.3146 111.404 36.2895 111.469 36.2757 111.535C36.261 111.605 36.2572 111.675 36.2644 111.745C36.2716 111.817 36.29 111.889 36.3194 111.958C36.3478 112.026 36.3873 112.091 36.4372 112.153C36.4827 112.209 36.5384 112.261 36.603 112.307C36.6622 112.35 36.7306 112.386 36.8056 112.414C36.876 112.441 36.953 112.458 37.0325 112.464L74.4942 115.471L74.4567 115.578Z" fill="white"/>
<path d="M42.4994 85.9376C42.9197 85.9428 43.331 86.0232 43.6932 86.1712C44.078 86.3296 44.4121 86.5408 44.6748 86.792C44.9675 87.0698 45.1916 87.3794 45.3381 87.7081C45.5014 88.0696 45.5839 88.4463 45.5825 88.8251C45.5845 89.2015 45.502 89.5758 45.3381 89.9346C45.1927 90.257 44.9684 90.5598 44.6748 90.8295C44.412 91.0722 44.0773 91.2731 43.6932 91.4188C43.3271 91.5559 42.9152 91.6234 42.4994 91.6145C42.0792 91.6029 41.6703 91.5168 41.3118 91.3643C40.933 91.2023 40.6051 90.9891 40.3474 90.7375C40.0617 90.4608 39.8431 90.1536 39.7001 89.8281C39.5418 89.4717 39.462 89.1008 39.4633 88.7278C39.4614 88.3573 39.5413 87.9888 39.7001 87.6349C39.842 87.3155 40.0609 87.015 40.3474 86.7462C40.605 86.5028 40.9336 86.2997 41.3118 86.15C41.674 86.0083 42.0835 85.935 42.4994 85.9376V85.9376Z" fill="white"/>
<path d="M55.2747 36.1962C54.979 36.2344 54.6997 36.3187 54.4579 36.4427C54.1982 36.5758 53.9737 36.7392 53.7946 36.9255C53.6 37.1258 53.4493 37.3449 53.3476 37.5758C53.2388 37.8185 53.1829 38.0711 53.1818 38.3252V142.589C53.1849 143.094 53.3971 143.588 53.7933 144.012C53.9728 144.206 54.1968 144.378 54.4565 144.521C54.6964 144.655 54.9753 144.75 55.2737 144.801L166.687 162.631C167.133 162.705 167.597 162.714 168.048 162.656C168.454 162.604 168.837 162.485 169.166 162.311C169.49 162.137 169.749 161.912 169.922 161.654C170.11 161.369 170.206 161.059 170.201 160.746V24.7947C170.205 24.4778 170.11 24.1641 169.922 23.875C169.748 23.6092 169.49 23.3743 169.166 23.1879C168.84 23.0019 168.458 22.8689 168.048 22.7986C167.602 22.7234 167.139 22.7139 166.687 22.7706L55.2747 36.1962Z" fill="#E6E6E6"/>
<path d="M57.8471 38.841C57.5456 38.882 57.2612 38.9696 57.0154 39.0974C56.752 39.2338 56.5247 39.4008 56.3438 39.5911C56.1484 39.7948 55.9981 40.0176 55.8978 40.2522C55.7912 40.4987 55.7389 40.755 55.7426 41.0124V140.843C55.7375 141.355 55.9463 141.857 56.3438 142.289C56.5251 142.487 56.752 142.664 57.0154 142.811C57.2592 142.948 57.5429 143.047 57.8471 143.102L162.104 159.222C162.546 159.288 163.004 159.288 163.446 159.222C163.847 159.162 164.222 159.036 164.539 158.856C164.857 158.675 165.107 158.445 165.27 158.184C165.449 157.895 165.536 157.583 165.525 157.269V29.1634C165.535 28.8459 165.448 28.5305 165.27 28.2379C165.106 27.9692 164.857 27.7296 164.541 27.5367C164.226 27.3438 163.851 27.2026 163.446 27.1237C163.009 27.0395 162.552 27.0207 162.104 27.0685L57.8471 38.841Z" fill="white"/>
<path d="M71.1576 52.4375C71.0171 52.449 70.8823 52.4827 70.7636 52.5361C70.6389 52.5922 70.5301 52.6638 70.4426 52.7472C70.3484 52.8364 70.2753 52.9354 70.2261 53.0406C70.1735 53.1519 70.1466 53.2683 70.1465 53.3855V57.3823C70.1458 57.4959 70.1727 57.6087 70.2261 57.7161C70.2738 57.8124 70.3471 57.9015 70.4423 57.979C70.53 58.0506 70.6397 58.1077 70.7633 58.1461C70.8871 58.1838 71.0226 58.1992 71.1573 58.1907L141.38 53.8953C141.571 53.8829 141.756 53.8437 141.925 53.7803C142.094 53.7171 142.244 53.6333 142.37 53.5329C142.499 53.4309 142.601 53.3142 142.671 53.188C142.744 53.0587 142.782 52.9212 142.783 52.7824V48.0622C142.784 47.9281 142.746 47.7952 142.672 47.6713C142.604 47.5565 142.501 47.4529 142.371 47.3671C142.244 47.2833 142.092 47.2195 141.926 47.1804C141.75 47.1393 141.564 47.1255 141.38 47.1397L71.1576 52.4375Z" fill="#6A6AF4"/>
<path d="M70.778 65.7152C70.7429 65.7167 70.7087 65.7241 70.6785 65.7366C70.6474 65.7496 70.6201 65.7666 70.5983 65.7867C70.5747 65.8083 70.5564 65.8325 70.5442 65.8582C70.531 65.8858 70.5243 65.9147 70.5243 65.9438V67.5055C70.5242 67.5341 70.5309 67.5624 70.5442 67.5894C70.5562 67.6139 70.5745 67.6367 70.5983 67.6566C70.6202 67.675 70.6475 67.6899 70.6785 67.7003C70.7095 67.7105 70.7437 67.7152 70.778 67.7138L142.257 65.0275C142.304 65.0256 142.351 65.017 142.393 65.0022C142.435 64.9874 142.473 64.9673 142.505 64.9429C142.571 64.8919 142.607 64.8258 142.607 64.7573V62.9162C142.608 62.8823 142.598 62.8487 142.58 62.8173C142.563 62.788 142.537 62.7613 142.505 62.7389C142.472 62.7165 142.433 62.6991 142.391 62.6879C142.348 62.6767 142.302 62.672 142.257 62.6741L70.778 65.7152Z" fill="#CCCCCC"/>
<path d="M70.778 70.7946C70.743 70.7957 70.7088 70.8026 70.6785 70.8148C70.6474 70.8274 70.6201 70.8442 70.5983 70.8641C70.5746 70.8854 70.5564 70.9093 70.5442 70.9349C70.531 70.9624 70.5243 70.9912 70.5243 71.0202V72.5819C70.5241 72.6106 70.5309 72.6391 70.5442 72.6663C70.556 72.6914 70.5744 72.7147 70.5983 72.7353C70.6202 72.7539 70.6475 72.7691 70.6785 72.7799C70.7094 72.7905 70.7436 72.7955 70.778 72.7946L142.257 71.0089C142.304 71.0079 142.35 71.0001 142.393 70.9859C142.435 70.9717 142.473 70.952 142.505 70.928C142.571 70.8777 142.607 70.8121 142.607 70.744V68.9018C142.608 68.8678 142.598 68.8342 142.58 68.8027C142.563 68.7731 142.537 68.7461 142.505 68.7233C142.473 68.701 142.435 68.6834 142.393 68.6716C142.35 68.6595 142.303 68.654 142.257 68.6555L70.778 70.7946Z" fill="#CCCCCC"/>
<path d="M70.778 75.8744C70.7431 75.8749 70.7089 75.8814 70.6785 75.8932C70.6478 75.9055 70.6208 75.9218 70.5992 75.9413C70.5756 75.9624 70.5573 75.9861 70.5452 76.0114C70.5319 76.0388 70.5252 76.0676 70.5253 76.0965V77.6582C70.5251 77.687 70.5319 77.7156 70.5452 77.7428C70.5572 77.7679 70.5755 77.7912 70.5992 77.8118C70.6211 77.8309 70.6484 77.8465 70.6795 77.8578C70.7102 77.8688 70.7444 77.8744 70.779 77.8739L142.257 76.9905C142.304 76.9896 142.35 76.9817 142.393 76.9675C142.435 76.9539 142.473 76.9347 142.505 76.9112C142.537 76.8871 142.562 76.8591 142.58 76.8286C142.598 76.7967 142.607 76.7627 142.607 76.7284V74.8877C142.608 74.8536 142.598 74.8198 142.58 74.7881C142.562 74.7583 142.537 74.731 142.505 74.7079C142.473 74.6848 142.435 74.6663 142.393 74.6536C142.35 74.6413 142.303 74.6355 142.257 74.6366L70.778 75.8744Z" fill="#CCCCCC"/>
<path d="M70.6516 86.02C70.617 86.0197 70.5828 86.0253 70.5521 86.0364C70.5211 86.0477 70.4938 86.0633 70.4719 86.0823C70.4485 86.103 70.4306 86.1264 70.4188 86.1513C70.4056 86.1785 70.3989 86.207 70.3989 86.2357V87.797C70.3989 87.8259 70.4056 87.8546 70.4188 87.8821C70.4311 87.907 70.4494 87.9303 70.4729 87.951C70.4947 87.9705 70.522 87.9868 70.5531 87.9989C70.5836 88.0105 70.6178 88.0168 70.6526 88.0173L142.083 88.9352C142.129 88.9358 142.176 88.9295 142.219 88.9168C142.261 88.9042 142.299 88.886 142.33 88.8632C142.363 88.8399 142.388 88.8125 142.406 88.7825C142.424 88.7508 142.433 88.717 142.433 88.6829V86.8427C142.433 86.8084 142.424 86.7744 142.406 86.7425C142.388 86.712 142.363 86.6841 142.33 86.6602C142.299 86.6367 142.261 86.6178 142.219 86.6043C142.176 86.5906 142.13 86.5834 142.083 86.5829L70.6516 86.02Z" fill="#CCCCCC"/>
<path d="M70.6516 91.0982C70.6172 91.0974 70.583 91.1027 70.5521 91.1134C70.521 91.1246 70.4936 91.1403 70.4719 91.1594C70.448 91.1799 70.4297 91.2033 70.4178 91.2284C70.4052 91.2549 70.3988 91.2827 70.3989 91.3107V92.872C70.3989 92.9009 70.4056 92.9298 70.4188 92.9573C70.431 92.9827 70.4493 93.0066 70.4729 93.0279C70.4948 93.0476 70.522 93.0642 70.5531 93.0766C70.5835 93.0887 70.6177 93.0955 70.6526 93.0964L142.082 94.9154C142.129 94.9166 142.176 94.9109 142.219 94.8986C142.261 94.8867 142.299 94.8689 142.33 94.8464C142.363 94.8235 142.388 94.7964 142.405 94.7667C142.424 94.7351 142.433 94.7013 142.433 94.6673V92.8267C142.433 92.7923 142.424 92.7582 142.405 92.7262C142.388 92.6955 142.362 92.6673 142.33 92.643C142.299 92.6191 142.261 92.5997 142.219 92.5857C142.176 92.5715 142.13 92.5637 142.082 92.5627L70.6516 91.0982Z" fill="#CCCCCC"/>
<path d="M70.6516 96.1759C70.6175 96.175 70.5837 96.1801 70.5531 96.1906C70.5222 96.201 70.4949 96.2158 70.4729 96.2341C70.4491 96.2541 70.4308 96.2769 70.4188 96.3014C70.4055 96.3284 70.3988 96.3568 70.3989 96.3854V97.9466C70.3989 97.9757 70.4056 98.0046 70.4188 98.0322C70.431 98.0578 70.4493 98.0819 70.4729 98.1034C70.4948 98.1234 70.522 98.1403 70.5531 98.1531C70.5834 98.1655 70.6175 98.1727 70.6526 98.174L142.082 100.894C142.128 100.896 142.174 100.891 142.217 100.88C142.259 100.868 142.298 100.851 142.33 100.828C142.363 100.806 142.388 100.779 142.405 100.75C142.424 100.718 142.433 100.685 142.433 100.651V98.81C142.433 98.742 142.396 98.6765 142.33 98.6261C142.299 98.6019 142.261 98.582 142.219 98.5675C142.176 98.5528 142.13 98.5443 142.082 98.5426L70.6516 96.1759Z" fill="#CCCCCC"/>
<path d="M70.6516 101.279C70.6175 101.277 70.5832 101.282 70.5521 101.292C70.5215 101.302 70.4945 101.317 70.4729 101.335C70.4491 101.355 70.4308 101.377 70.4188 101.402C70.4055 101.429 70.3988 101.457 70.3989 101.486V103.047C70.3989 103.076 70.4056 103.105 70.4188 103.133C70.431 103.159 70.4493 103.183 70.4729 103.205C70.4947 103.225 70.522 103.242 70.5531 103.255C70.5832 103.269 70.6173 103.276 70.6526 103.278L142.081 106.903C142.127 106.906 142.174 106.901 142.217 106.89C142.259 106.879 142.297 106.862 142.329 106.841C142.361 106.819 142.387 106.792 142.404 106.763C142.423 106.732 142.432 106.698 142.432 106.664V104.823C142.432 104.789 142.422 104.755 142.404 104.722C142.387 104.691 142.361 104.662 142.329 104.637C142.297 104.613 142.26 104.592 142.217 104.577C142.175 104.562 142.129 104.553 142.081 104.55L70.6516 101.279Z" fill="#CCCCCC"/>
<path d="M70.6516 106.357C70.6176 106.355 70.5833 106.359 70.5521 106.369C70.5215 106.379 70.4944 106.393 70.4729 106.411C70.4492 106.431 70.4309 106.453 70.4188 106.477C70.4055 106.503 70.3988 106.532 70.3989 106.56V108.121C70.399 108.151 70.4057 108.18 70.4188 108.207C70.4311 108.233 70.4493 108.258 70.4729 108.28C70.4948 108.301 70.522 108.318 70.5531 108.332C70.5833 108.345 70.6173 108.353 70.6526 108.355L142.081 112.882C142.127 112.885 142.174 112.881 142.217 112.871C142.259 112.86 142.297 112.844 142.329 112.823C142.361 112.801 142.387 112.775 142.404 112.746C142.423 112.715 142.432 112.681 142.432 112.648V110.807C142.432 110.772 142.422 110.738 142.404 110.705C142.386 110.674 142.361 110.645 142.329 110.619C142.297 110.594 142.26 110.573 142.217 110.558C142.175 110.542 142.129 110.532 142.081 110.529L70.6516 106.357Z" fill="#CCCCCC"/>
<path d="M70.6516 111.435C70.6178 111.432 70.5835 111.436 70.5522 111.445C70.5216 111.454 70.4946 111.468 70.4729 111.486C70.449 111.505 70.4307 111.527 70.4188 111.551C70.4054 111.578 70.3987 111.607 70.3989 111.635V113.196C70.399 113.226 70.4057 113.255 70.4188 113.282C70.4311 113.309 70.4494 113.333 70.4729 113.356C70.4947 113.377 70.5219 113.395 70.5531 113.409C70.5831 113.422 70.6172 113.431 70.6526 113.433L142.081 118.861C142.127 118.865 142.174 118.861 142.217 118.851C142.259 118.842 142.297 118.826 142.329 118.805C142.361 118.784 142.387 118.758 142.404 118.729C142.423 118.698 142.432 118.665 142.432 118.631V116.79C142.432 116.755 142.422 116.721 142.404 116.688C142.386 116.657 142.361 116.627 142.329 116.601C142.297 116.576 142.26 116.555 142.217 116.538C142.175 116.522 142.129 116.512 142.081 116.508L70.6516 111.435Z" fill="#CCCCCC"/>
<path d="M70.6516 116.538C70.6179 116.535 70.5837 116.539 70.5522 116.547C70.5218 116.556 70.4947 116.569 70.4729 116.586C70.4489 116.606 70.4305 116.628 70.4188 116.652C70.4055 116.679 70.3987 116.707 70.3989 116.735V118.296C70.399 118.326 70.4057 118.355 70.4188 118.383C70.4312 118.409 70.4494 118.434 70.4729 118.457C70.4948 118.478 70.5219 118.496 70.5531 118.511C70.583 118.524 70.617 118.533 70.6526 118.537L142.081 124.87C142.127 124.875 142.173 124.872 142.217 124.862C142.259 124.853 142.297 124.837 142.329 124.816C142.361 124.795 142.387 124.77 142.404 124.741C142.423 124.711 142.432 124.677 142.432 124.644V122.804C142.432 122.769 142.422 122.734 142.404 122.701C142.386 122.669 142.361 122.64 142.329 122.614C142.297 122.588 142.26 122.566 142.217 122.549C142.176 122.532 142.129 122.522 142.081 122.518L70.6516 116.538Z" fill="#CCCCCC"/>
<path d="M70.6516 121.616C70.6181 121.613 70.5838 121.616 70.5522 121.624C70.5218 121.633 70.4946 121.646 70.4729 121.663C70.449 121.682 70.4306 121.703 70.4188 121.727C70.4054 121.754 70.3987 121.782 70.3989 121.81V123.371C70.399 123.401 70.4057 123.43 70.4188 123.458C70.4312 123.484 70.4494 123.51 70.4729 123.532C70.4948 123.554 70.522 123.572 70.5531 123.587C70.5829 123.601 70.6169 123.611 70.6526 123.614L142.081 130.85C142.127 130.854 142.173 130.852 142.217 130.843C142.259 130.834 142.297 130.82 142.329 130.799C142.361 130.779 142.387 130.754 142.404 130.725C142.423 130.695 142.432 130.661 142.432 130.628V128.787C142.431 128.752 142.422 128.717 142.404 128.685C142.386 128.652 142.361 128.622 142.329 128.596C142.297 128.57 142.26 128.548 142.217 128.53C142.176 128.513 142.129 128.502 142.081 128.497L70.6516 121.616Z" fill="#CCCCCC"/>
<path d="M70.6516 126.694C70.6182 126.69 70.5839 126.693 70.5522 126.701C70.5218 126.709 70.4946 126.722 70.4729 126.739C70.449 126.757 70.4306 126.778 70.4188 126.802C70.4054 126.828 70.3987 126.856 70.3989 126.884V128.446C70.399 128.475 70.4057 128.505 70.4188 128.533C70.4312 128.56 70.4495 128.585 70.4729 128.608C70.4948 128.63 70.5219 128.649 70.5532 128.664C70.5829 128.679 70.6169 128.688 70.6526 128.692L142.081 136.829C142.126 136.834 142.173 136.832 142.217 136.824C142.259 136.816 142.297 136.801 142.329 136.782C142.361 136.761 142.387 136.736 142.404 136.708C142.423 136.678 142.432 136.645 142.432 136.612V134.771C142.431 134.735 142.422 134.7 142.404 134.668C142.386 134.635 142.361 134.605 142.329 134.578C142.297 134.551 142.26 134.528 142.217 134.511C142.176 134.493 142.129 134.481 142.081 134.475L70.6516 126.694Z" fill="#CCCCCC"/>
<path d="M101.507 151.554L100.036 137.414L102.679 124.164L95.1724 123.812L93.6907 138.449L97.8782 152.213C97.5216 152.555 97.326 152.965 97.3181 153.387C97.3103 153.809 97.4906 154.222 97.8344 154.57C98.1782 154.918 98.6687 155.184 99.2389 155.332C99.809 155.479 100.431 155.501 101.02 155.394C101.608 155.287 102.135 155.057 102.527 154.734C102.92 154.412 103.159 154.013 103.213 153.593C103.266 153.173 103.131 152.751 102.826 152.386C102.52 152.021 102.06 151.731 101.507 151.554V151.554Z" fill="#9F616A"/>
<path d="M94.2146 125.717L95.9772 120.428C96.3147 119.415 97.1981 118.53 98.4464 117.954C99.6947 117.378 101.213 117.155 102.691 117.33C104.169 117.506 105.494 118.067 106.395 118.898C107.296 119.729 107.704 120.767 107.536 121.8L106.565 127.777L94.2146 125.717Z" fill="#CBCBCB"/>
<path d="M108.111 197.622L111.65 197.621L113.333 188.157L108.111 188.158L108.111 197.622Z" fill="#9F616A"/>
<path d="M107.208 196.821L114.177 196.82H114.178C115.356 196.82 116.485 197.145 117.318 197.722C118.151 198.3 118.619 199.083 118.619 199.9V200L107.209 200L107.208 196.821Z" fill="#2F2E41"/>
<path d="M125.741 197.541L129.143 196.866L127.003 187.446L121.982 188.443L125.741 197.541Z" fill="#9F616A"/>
<path d="M124.555 196.943L131.255 195.613L131.255 195.613C132.387 195.388 133.602 195.484 134.632 195.88C135.662 196.276 136.423 196.94 136.747 197.725L136.787 197.821L125.818 200L124.555 196.943Z" fill="#2F2E41"/>
<path d="M106.198 194.186L107.844 165.518L103.569 152.544C97.8165 145.856 104.023 135.189 104.086 135.082L104.109 135.043L104.17 135.037L119.218 133.623L119.43 133.96C125.316 143.29 126.95 153.645 124.112 163.638L122.545 169.192L130.286 190.863L122.96 193.402L117.339 183.296L113.54 193.636L106.198 194.186Z" fill="#2F2E41"/>
<path d="M102.104 137.741L97.1949 127.767C94.1428 124.04 96.0787 120.732 98.2402 118.612C100.574 116.324 100.715 115.041 100.746 115.026L100.771 115.015L107.221 114.879L113.19 119.085C113.566 118.984 116.738 124.403 116.469 124.676L120.638 134.021L102.104 137.741Z" fill="#CBCBCB"/>
<path d="M141.856 139.466L125.684 130.792L113.212 120.586L107.827 124.229L122.563 134.759L140.144 141.78C140.273 142.192 140.583 142.567 141.031 142.852C141.479 143.138 142.043 143.32 142.646 143.375C143.25 143.43 143.863 143.354 144.402 143.158C144.94 142.962 145.379 142.655 145.657 142.28C145.934 141.904 146.038 141.479 145.954 141.061C145.869 140.643 145.601 140.253 145.185 139.945C144.769 139.637 144.226 139.426 143.63 139.34C143.034 139.254 142.415 139.298 141.856 139.466V139.466Z" fill="#9F616A"/>
<path d="M106.296 127.919L101.79 123.48C100.927 122.63 100.565 121.583 100.78 120.554C100.994 119.525 101.767 118.592 102.942 117.946C104.116 117.3 105.603 116.99 107.097 117.079C108.59 117.168 109.978 117.65 110.976 118.426L116.749 122.914L106.296 127.919Z" fill="#CBCBCB"/>
<path d="M103.237 113.656C107.467 113.656 110.897 111.279 110.897 108.346C110.897 105.412 107.467 103.035 103.237 103.035C99.0067 103.035 95.5774 105.412 95.5774 108.346C95.5774 111.279 99.0067 113.656 103.237 113.656Z" fill="#9F616A"/>
<path d="M111.025 105.651H98.8627V101.975C101.532 101.24 104.145 100.614 105.724 101.975C107.13 101.975 108.478 102.362 109.472 103.052C110.467 103.741 111.025 104.676 111.025 105.651V105.651Z" fill="#2F2E41"/>
<path d="M100.539 101.094C89.3954 100.883 91.5055 113.612 91.5055 113.612C91.5055 113.612 93.608 113.805 94.5673 113.918L95.7259 113.466L96.9725 114.033C97.5449 114.035 98.1463 114.027 98.7697 114.019L99.3412 113.203L100.616 114.004C102.935 114.007 109.231 114.051 109.231 114.051C109.231 114.051 113.025 101.33 100.539 101.094Z" fill="#2F2E41"/>
<path d="M55.64 122.903C55.684 122.654 55.6487 122.402 55.5367 122.163C55.4247 121.925 55.2386 121.706 54.9916 121.523C54.7446 121.34 54.4426 121.197 54.107 121.103C53.7714 121.009 53.4103 120.968 53.0492 120.982L50.6008 117.448L47.141 117.956L50.6995 122.912C50.7729 123.332 51.0655 123.718 51.5219 123.997C51.9782 124.277 52.5666 124.431 53.1756 124.429C53.7846 124.428 54.3718 124.272 54.826 123.991C55.2802 123.71 55.5698 123.323 55.64 122.903H55.64Z" fill="#FFB7B7"/>
<path d="M2.48938 163.929L5.36895 164.951L12.4237 157.736L8.1736 156.228L2.48938 163.929Z" fill="#FFB7B7"/>
<path d="M2.23627 163.017L7.90729 165.029L7.90752 165.029C8.86595 165.369 9.59026 165.959 9.92113 166.67C10.252 167.38 10.1623 168.153 9.67187 168.817L9.61176 168.899L0.32666 165.604L2.23627 163.017Z" fill="#2F2E41"/>
<path d="M35.7479 166.724H38.9825L40.5212 158.073L35.7471 158.074L35.7479 166.724Z" fill="#FFB7B7"/>
<path d="M34.9226 165.992L41.2931 165.992H41.2933C42.37 165.992 43.4026 166.289 44.1639 166.817C44.9253 167.345 45.353 168.06 45.3531 168.807V168.898L34.9228 168.899L34.9226 165.992Z" fill="#2F2E41"/>
<path d="M20.6167 96.1597C20.6167 96.1597 18.4505 95.009 18.4505 97.8197L18.1085 107.108L21.9278 115.882L24.151 113.037L23.2389 106.871L20.6167 96.1597Z" fill="#6A6AF4"/>
<path d="M43.7884 121.565C43.7884 121.565 46.3003 130.047 43.1185 137.007L41.3602 163.771L34.913 163.422L32.6523 143.568L30.4753 133.698L25.954 142.697L11.05 161.739L4.1842 158.023C4.1842 158.023 11.7927 143.629 17.4135 140.607L20.2325 118.345L43.7884 121.565Z" fill="#2F2E41"/>
<path d="M36.1462 84.8195C40.2062 84.8195 43.4974 82.5375 43.4974 79.7225C43.4974 76.9075 40.2062 74.6255 36.1462 74.6255C32.0863 74.6255 28.795 76.9075 28.795 79.7225C28.795 82.5375 32.0863 84.8195 36.1462 84.8195Z" fill="#FFB8B8"/>
<path d="M35.626 80.8036C36.5072 80.8831 37.1719 80.258 37.4802 79.6801C37.7885 79.1022 38.0234 78.4295 38.7896 78.1173C39.8364 77.6908 41.1756 78.2037 42.3726 78.063C43.7244 77.9041 44.6033 76.9108 44.6722 75.9614C44.7411 75.0119 44.1961 74.0987 43.6615 73.2234L43.4748 74.3113C43.4998 73.9425 43.3879 73.5756 43.1498 73.2454C42.9117 72.9152 42.5555 72.6329 42.1151 72.4255L42.3557 74.0219C42.3045 73.8016 42.1911 73.5906 42.0219 73.4008C41.8528 73.211 41.6313 73.0463 41.3701 72.916C41.1089 72.7858 40.8132 72.6926 40.4999 72.6418C40.1866 72.5909 39.8619 72.5835 39.5445 72.6199L39.5824 73.5711C38.0272 73.4048 36.4513 73.3514 34.8802 73.4115C33.2984 73.4749 31.7847 73.8793 30.5505 74.5682C28.7752 75.6378 28.1268 77.399 28.3445 79.0228C28.5622 80.6465 29.5289 82.1719 30.5364 83.6454C30.7899 84.0161 31.1405 84.4345 31.7283 84.4817C31.9948 84.4843 32.255 84.4254 32.4679 84.3141C32.6807 84.2029 32.8341 84.0457 32.904 83.8674C33.0305 83.5076 33.0256 83.1317 32.8897 82.7735C32.6816 82.2344 32.6152 81.6738 32.6936 81.1184C32.8332 80.57 33.4023 80.028 34.1996 79.9608C34.9969 79.8936 35.8128 80.5255 35.4294 81.0149L35.626 80.8036Z" fill="#2F2E41"/>
<path d="M29.1103 86.674L30.6494 85.1924C30.6494 85.1924 32.3698 85.5977 36.9769 87.1878L37.3024 88.5759L45.2996 122.681L30.7634 122.246L26.805 122.188L23.9122 122.145L20.0466 122.088L19.9896 112.286L21.2437 104.776L19.3055 97.7013C19.3055 97.7013 16.8667 91.2046 26.2601 87.7016L29.1103 86.674Z" fill="#6A6AF4"/>
<path d="M49.2562 121.089L49.7841 122.37L53.4778 120.701L52.0839 119.595L49.2562 121.089Z" fill="#CBCBCB"/>
<path d="M31.86 90.7959C31.86 90.7959 37.5861 85.7273 41.0469 91.3765L42.1381 97.2965C42.1381 97.2965 46.3307 104.655 46.4568 107.632C46.4568 107.632 49.2993 111.518 49.2731 113.559L53.478 120.16L49.1653 122.016L37.2293 109.327L31.86 90.7959Z" fill="#6A6AF4"/>
<path d="M37.0845 109.957C37.0845 108.417 36.3045 107.157 34.8845 106.437C35.9245 105.717 36.4845 104.617 36.4845 103.317C36.4845 101.017 34.5845 99.5565 32.0245 99.5565C29.7645 99.5565 28.1845 100.537 27.1645 102.197L29.3645 103.557C29.9445 102.557 30.7045 101.957 31.8245 101.957C32.9245 101.957 33.7245 102.557 33.7245 103.617C33.7245 104.697 32.8645 105.357 31.6845 105.357H29.5645V107.757H31.8645C33.3445 107.757 34.3445 108.557 34.3445 109.837C34.3445 111.137 33.3245 111.957 31.9645 111.957C30.5845 111.957 29.6445 111.277 28.8645 109.737L26.5045 111.197C27.6445 113.197 29.3445 114.357 31.9845 114.357C34.9045 114.357 37.0845 112.617 37.0845 109.957Z" fill="white"/>
</g>
<defs>
<clipPath id="clip0_1149_54631">
<rect width="193.237" height="200" fill="white"/>
</clipPath>
</defs>
</svg>
