<svg width="274" height="396" viewBox="0 0 274 396" fill="none" xmlns="http://www.w3.org/2000/svg">
  <path fill-rule="evenodd" clip-rule="evenodd" d="M212 172.5C210.621 172.5 209.5 171.379 209.5 170C209.5 168.621 210.621 167.5 212 167.5C213.379 167.5 214.5 168.621 214.5 170C214.5 171.379 213.379 172.5 212 172.5Z" fill="#ECECFE"/>
  <path fill-rule="evenodd" clip-rule="evenodd" d="M207 32.5C205.621 32.5 204.5 31.3785 204.5 30C204.5 28.6214 205.621 27.5 207 27.5C208.379 27.5 209.5 28.6214 209.5 30C209.5 31.3785 208.379 32.5 207 32.5Z" fill="#ECECFE"/>
  <path fill-rule="evenodd" clip-rule="evenodd" d="M72 172.5C70.6215 172.5 69.5 171.379 69.5 170C69.5 168.621 70.6215 167.5 72 167.5C73.3785 167.5 74.5 168.621 74.5 170C74.5 171.379 73.3785 172.5 72 172.5Z" fill="#ECECFE"/>
  <path fill-rule="evenodd" clip-rule="evenodd" d="M62 42.5C60.6215 42.5 59.5 41.3785 59.5 40C59.5 38.6214 60.6215 37.5 62 37.5C63.3785 37.5 64.5 38.6214 64.5 40C64.5 41.3785 63.3785 42.5 62 42.5Z" fill="#ECECFE"/>
  <path fill-rule="evenodd" clip-rule="evenodd" d="M77 82.5C77 78.3579 80.3579 75 84.5 75C88.6421 75 92 78.3579 92 82.5C92 86.6421 88.6421 90 84.5 90C80.3579 90 77 86.6421 77 82.5ZM87 82.5C87 81.1193 85.8807 80 84.5 80C83.1193 80 82 81.1193 82 82.5C82 83.8807 83.1193 85 84.5 85C85.8807 85 87 83.8807 87 82.5Z" fill="#E1000F"/>
  <path d="M84.5 85C85.7821 85 86.8388 85.9651 86.9832 87.2084L87 87.5V97.5C87 98.8807 85.8807 100 84.5 100C83.2179 100 82.1612 99.0349 82.0168 97.7916L82 97.5V87.5C82 86.1193 83.1193 85 84.5 85Z" fill="#E1000F"/>
  <path fill-rule="evenodd" clip-rule="evenodd" d="M132 72.5C132 68.3579 135.358 65 139.5 65C143.642 65 147 68.3579 147 72.5C147 76.6421 143.642 80 139.5 80C135.358 80 132 76.6421 132 72.5ZM142 72.5C142 71.1193 140.881 70 139.5 70C138.119 70 137 71.1193 137 72.5C137 73.8807 138.119 75 139.5 75C140.881 75 142 73.8807 142 72.5Z" fill="#E1000F"/>
  <path d="M139.5 75C140.782 75 141.839 75.9651 141.983 77.2084L142 77.5V87.5C142 88.8807 140.881 90 139.5 90C138.218 90 137.161 89.0349 137.017 87.7916L137 87.5V77.5C137 76.1193 138.119 75 139.5 75Z" fill="#E1000F"/>
  <path fill-rule="evenodd" clip-rule="evenodd" d="M177 42.5C177 38.3579 180.358 35 184.5 35C188.642 35 192 38.3579 192 42.5C192 46.6421 188.642 50 184.5 50C180.358 50 177 46.6421 177 42.5ZM187 42.5C187 41.1193 185.881 40 184.5 40C183.119 40 182 41.1193 182 42.5C182 43.8807 183.119 45 184.5 45C185.881 45 187 43.8807 187 42.5Z" fill="#E1000F"/>
  <path d="M184.5 45C185.782 45 186.839 45.9651 186.983 47.2084L187 47.5V57.5C187 58.8807 185.881 60 184.5 60C183.218 60 182.161 59.0349 182.017 57.7916L182 57.5V47.5C182 46.1193 183.119 45 184.5 45Z" fill="#E1000F"/>
  <path fill-rule="evenodd" clip-rule="evenodd" d="M157 97.5C157 93.3579 160.358 90 164.5 90C168.642 90 172 93.3579 172 97.5C172 101.642 168.642 105 164.5 105C160.358 105 157 101.642 157 97.5ZM167 97.5C167 96.1193 165.881 95 164.5 95C163.119 95 162 96.1193 162 97.5C162 98.8807 163.119 100 164.5 100C165.881 100 167 98.8807 167 97.5Z" fill="#E1000F"/>
  <path d="M164.5 100C165.782 100 166.839 100.965 166.983 102.208L167 102.5V112.5C167 113.881 165.881 115 164.5 115C163.218 115 162.161 114.035 162.017 112.792L162 112.5V102.5C162 101.119 163.119 100 164.5 100Z" fill="#E1000F"/>
  <path fill-rule="evenodd" clip-rule="evenodd" d="M122 122.5C122 118.358 125.358 115 129.5 115C133.642 115 137 118.358 137 122.5C137 126.642 133.642 130 129.5 130C125.358 130 122 126.642 122 122.5ZM132 122.5C132 121.119 130.881 120 129.5 120C128.119 120 127 121.119 127 122.5C127 123.881 128.119 125 129.5 125C130.881 125 132 123.881 132 122.5Z" fill="#E1000F"/>
  <path d="M129.5 125C130.782 125 131.839 125.965 131.983 127.208L132 127.5V137.5C132 138.881 130.881 140 129.5 140C128.218 140 127.161 139.035 127.017 137.792L127 137.5V127.5C127 126.119 128.119 125 129.5 125Z" fill="#E1000F"/>
  <path fill-rule="evenodd" clip-rule="evenodd" d="M162 147.5C162 143.358 165.358 140 169.5 140C173.642 140 177 143.358 177 147.5C177 151.642 173.642 155 169.5 155C165.358 155 162 151.642 162 147.5ZM172 147.5C172 146.119 170.881 145 169.5 145C168.119 145 167 146.119 167 147.5C167 148.881 168.119 150 169.5 150C170.881 150 172 148.881 172 147.5Z" fill="#E1000F"/>
  <path d="M169.5 150C170.782 150 171.839 150.965 171.983 152.208L172 152.5V162.5C172 163.881 170.881 165 169.5 165C168.218 165 167.161 164.035 167.017 162.792L167 162.5V152.5C167 151.119 168.119 150 169.5 150Z" fill="#E1000F"/>
  <path fill-rule="evenodd" clip-rule="evenodd" d="M194.602 60.0021L201.27 60.2747C201.698 60.2921 202.114 60.419 202.478 60.6431C205.696 62.6223 206.915 66.6527 205.349 69.9961L205.139 70.4103L203.172 74.0025L203.105 74.7251C203.066 75.1175 202.999 75.4956 202.899 75.8731L202.726 76.4404L201.295 80.4175L201.412 87.2676C201.455 89.3712 200.583 91.3657 199.024 92.7942L198.653 93.1136L195.746 95.4491C195.294 95.8111 194.801 96.12 194.277 96.3711L193.98 96.5L191.292 99.84L191.468 99.9929C192.292 100.757 192.943 101.704 193.351 102.78L193.511 103.249L193.91 104.565L194.407 105.177L196.043 107.527C197.333 109.399 197.655 111.706 197.022 113.79L196.877 114.203L197.692 115.141C198.814 116.447 199.441 118.073 199.477 119.772L199.47 120.284L199.331 122.848C199.261 124.023 198.906 125.15 198.317 126.143L198.167 126.375L198.368 126.709C198.98 127.818 199.296 129.073 199.27 130.362L199.247 130.76L199.622 130.799C201.944 131.112 204.055 132.466 205.244 134.585L205.456 134.991L206.295 136.745C207.408 139.087 207.187 141.804 205.788 143.876L205.747 143.93L205.745 144.244C205.662 146.156 204.816 147.975 203.362 149.313L202.986 149.637L197.854 153.741L197.608 153.914L196.457 154.623L196.433 154.788C196.357 155.166 196.252 155.537 196.117 155.899L195.893 156.432C195.133 158.079 193.755 159.4 192.063 160.135L191.594 160.321L187.052 161.936C186.636 162.074 186.268 162.173 185.906 162.241L185.543 162.298L182.179 162.761C181.228 162.892 180.24 162.845 179.305 162.619C177.963 162.296 177.137 160.946 177.46 159.603C177.76 158.357 178.946 157.556 180.189 157.707L180.476 157.758C180.693 157.811 180.925 157.836 181.155 157.833L181.496 157.808L184.876 157.343C184.984 157.329 185.093 157.306 185.22 157.271L185.425 157.208L189.912 155.612C190.563 155.379 191.092 154.902 191.359 154.325C191.476 154.075 191.546 153.809 191.567 153.539L191.572 153.269C191.538 152.466 191.892 151.703 192.51 151.21L192.754 151.038L194.86 149.733L199.854 145.739C200.45 145.258 200.766 144.58 200.751 143.883L200.724 143.584C200.637 143.035 200.735 142.477 200.998 141.995L201.175 141.716L201.507 141.264C201.981 140.659 202.118 139.895 201.898 139.193L201.782 138.897L200.95 137.158C200.435 136.093 199.199 135.528 197.986 135.794L197.684 135.878L197.041 136.098C196.408 136.315 195.72 136.267 195.128 135.976L194.84 135.81L194.235 135.405C193.077 134.629 192.79 133.073 193.544 131.943L193.722 131.708C194.036 131.339 194.222 130.895 194.263 130.417C194.316 129.805 194.126 129.214 193.724 128.742L193.506 128.516L193.145 128.185C192.064 127.194 192.077 125.513 193.11 124.533L193.347 124.334C193.85 123.961 194.19 123.423 194.302 122.853L194.339 122.565L194.476 120.027C194.5 119.542 194.365 119.062 194.09 118.648L193.908 118.408L191.983 116.193C191.28 115.383 191.178 114.227 191.699 113.315L191.874 113.049C192.404 112.345 192.48 111.42 192.097 110.653L191.932 110.374L190.426 108.196L189.732 107.355C189.592 107.185 189.475 106.997 189.385 106.797L189.269 106.489L188.727 104.7C188.506 103.976 187.93 103.391 187.173 103.116L186.881 103.028C185.201 102.618 184.461 100.69 185.352 99.2755L185.526 99.0316L190.511 92.8375C190.761 92.5261 191.082 92.2805 191.445 92.1196L191.724 92.0151C191.947 91.9466 192.157 91.8526 192.347 91.7373L192.617 91.549L195.519 89.2174C196.026 88.8092 196.331 88.2607 196.399 87.6635L196.413 87.3614L196.289 80.0484C196.286 79.847 196.307 79.6462 196.351 79.4505L196.436 79.1612L198.012 74.7726L198.086 74.5131L198.128 74.2459L198.241 73.029C198.262 72.8028 198.314 72.581 198.395 72.3698L198.537 72.0614L200.754 68.0088C201.198 67.1986 201.085 66.2136 200.52 65.4906L200.29 65.2375L194.398 64.9979C193.117 64.9456 192.1 63.9381 192.007 62.6899L192.002 62.3979C192.054 61.1169 193.062 60.1005 194.31 60.007L194.602 60.0021Z" fill="#000091"/>
  <path fill-rule="evenodd" clip-rule="evenodd" d="M139.317 30.218C142.232 29.5174 145.304 30.5383 147.139 32.8039L147.433 33.1929L148.24 34.33L148.68 34.3705C151.467 34.705 153.845 36.5074 154.84 39.1053L154.87 39.2C155.689 39.5543 156.42 40.0315 157.052 40.621L157.145 40.715L157.279 40.7552C157.442 40.8092 157.603 40.8686 157.761 40.9332L158.227 41.1423L160.287 42.133C160.936 42.4509 161.53 42.8507 162.054 43.3205L162.205 43.4675L162.376 43.4287C164.42 42.9342 166.616 43.3257 168.381 44.4782L168.813 44.7821C170.124 45.7781 171.048 47.14 171.476 48.6656L171.605 49.21L173.404 50.4314C173.669 50.6117 173.897 50.8409 174.075 51.1057L174.236 51.382L176.736 56.382C177.353 57.6169 176.853 59.1186 175.618 59.7361C174.471 60.3095 173.094 59.9188 172.409 58.8713L172.264 58.6181L170.055 54.2L167.842 52.6997C167.242 52.2926 166.853 51.6485 166.765 50.9388L166.725 50.3238C166.643 49.7175 166.319 49.1666 165.793 48.7665C165.249 48.3551 164.544 48.1641 163.865 48.236L163.528 48.2941L161.847 48.6838C160.909 48.9012 159.94 48.56 159.344 47.8275L159.159 47.569C158.964 47.2548 158.692 46.9832 158.362 46.775L158.104 46.6311L156.043 45.6401C155.896 45.5678 155.746 45.5104 155.593 45.4671L155.361 45.4129C154.874 45.3223 154.428 45.0896 154.076 44.7473L153.876 44.529C153.582 44.1662 153.184 43.8879 152.729 43.7269L152.378 43.6287C151.593 43.4647 150.941 42.9361 150.613 42.2168L150.506 41.9385L150.223 41.0474C149.931 40.1112 149.092 39.4448 148.054 39.3314L147.737 39.3142H146.935C146.226 39.3142 145.555 39.0133 145.085 38.4949L144.896 38.2596L143.35 36.0786C142.814 35.3179 141.821 34.9014 140.837 35.0156L140.51 35.0736L132.299 37.1355C131.639 37.3016 131.096 37.6894 130.754 38.2172L130.601 38.4924L128.803 42.29C128.683 42.5499 128.612 42.8323 128.593 43.1147L128.593 43.3964L128.923 48.3651C128.967 49.0286 128.745 49.6773 128.314 50.1722L128.082 50.4062L125.763 52.4503C125.595 52.599 125.407 52.7239 125.206 52.822L124.895 52.9487L116.245 55.8081C115.376 56.0928 114.755 56.7717 114.572 57.5768L114.525 57.884L114.477 58.4406C114.358 59.8181 113.152 60.8178 111.808 60.7198L111.519 60.6818L106.964 59.8153C106.559 59.7381 106.18 59.5619 105.861 59.3043L105.633 59.0962L102.129 55.4681C101.673 54.9984 101.017 54.7022 100.383 54.6689L100.069 54.6745L95.991 54.8744C95.1886 54.9178 94.4784 55.2881 94.0254 55.8858C93.6533 56.3725 93.4928 56.9589 93.5607 57.5403L93.6138 57.8301L94.9122 62.9325L96.6406 66.9236C97.3928 68.6617 96.0192 70.5331 94.1943 70.4128L93.9174 70.3795L92.5584 70.1428C92.169 70.0714 91.7652 70.0866 91.3794 70.1855L91.094 70.2753L90.7056 70.4225C89.8958 70.7295 88.993 70.5934 88.3136 70.0804L88.0699 69.8705L86.2212 68.0591C85.7695 67.6159 85.1348 67.3501 84.4479 67.3143L84.1007 67.3158L74.104 68.1822C73.9026 68.1983 73.7071 68.2366 73.5093 68.2992L73.2097 68.4118L65.9644 71.6708C64.8632 72.167 64.3126 73.2687 64.5579 74.3349L64.636 74.6003L65.7403 77.6633C65.8767 78.0401 66.1248 78.3911 66.4616 78.6772L66.7304 78.8791C67.5003 79.3887 67.9196 80.2751 67.8412 81.1789L67.7965 81.4804C67.6766 82.0479 67.7763 82.6415 68.112 83.1901L68.2999 83.5089L68.6431 84.0416C68.6965 84.1192 68.7478 84.1914 68.797 84.2585L69.0652 84.6006L69.2758 84.8303L69.4226 84.9596C69.4603 84.9872 69.4863 85 69.4997 85C70.8804 85 71.9997 86.1193 71.9997 87.5C71.9997 88.8807 70.8804 90 69.4997 90C67.1789 90 65.343 88.4168 63.8124 85.7411C63.2297 84.7926 62.8816 83.7288 62.779 82.6381L62.7472 82.045L62.7274 82.0263C62.1037 81.3936 61.5973 80.659 61.2366 79.8537L61.0378 79.3623L59.9317 76.2943C58.6796 72.813 60.227 69.0275 63.4945 67.3147L63.9118 67.1115L71.1888 63.8385C71.8528 63.5503 72.5138 63.3575 73.1842 63.2573L73.689 63.1995L83.7316 62.3298C85.823 62.2014 87.83 62.8472 89.3518 64.1498L89.7218 64.4891L90.4422 65.1975L90.2467 64.7385L90.1185 64.3628L88.7662 59.0552C88.2243 56.8934 88.6956 54.6249 90.0467 52.8576C91.2866 51.2214 93.1493 50.1741 95.2136 49.9262L95.7337 49.881L99.7096 49.6888C101.695 49.4998 103.798 50.2401 105.346 51.6293L105.721 51.99L108.677 55.05L110.065 55.315L110.143 55.1233C110.921 53.3765 112.372 51.9673 114.214 51.2291L114.682 51.0587L122.837 48.3625L123.85 47.4675L123.603 43.7163C123.539 42.6762 123.698 41.6351 124.071 40.6544L124.275 40.1693L126.082 36.3518C126.97 34.4784 128.596 33.0733 130.577 32.431L131.08 32.2865L139.317 30.218Z" fill="#000091"/>
  <path fill-rule="evenodd" clip-rule="evenodd" d="M87.9794 105.515C89.0755 104.676 90.6447 104.884 91.4843 105.98L91.2449 105.656L91.7295 105.856L92.7245 106.216L95.3979 107.107L95.8311 107.268C95.8928 107.293 95.9502 107.318 96.0048 107.342L98.4974 108.57C99.1258 108.881 99.5905 109.439 99.7867 110.103L99.854 110.393C99.8817 110.557 99.9283 110.718 99.993 110.873L100.104 111.103C100.611 112.023 100.485 113.15 99.8167 113.932L99.6002 114.156C99.0665 114.643 98.7766 115.299 98.7864 115.966C98.7905 116.252 98.852 116.54 98.9666 116.811L99.0986 117.076C99.378 117.558 99.4867 118.117 99.4129 118.663L99.309 119.151L99.2826 119.322L97.7661 132.082C97.7316 132.365 97.7489 132.643 97.8163 132.909L97.9003 133.171C98.1126 133.716 98.1273 134.318 97.9419 134.872L97.8921 135.037L97.8569 135.193L96.0242 144.849C95.9634 145.169 95.8408 145.473 95.6643 145.745L95.4702 146.005L92.1677 149.877C91.7015 150.425 91.5177 151.126 91.6514 151.808C91.7716 152.4 92.1231 152.927 92.643 153.292L92.9167 153.461L95.0389 154.588C95.3643 154.761 95.6464 155.003 95.8662 155.296L96.019 155.525L97.0331 157.243C97.248 157.608 97.5705 157.922 97.953 158.142L98.2503 158.289L103.213 160.346C103.421 160.432 103.616 160.546 103.793 160.683L104.044 160.908L105.531 162.429C105.946 162.855 106.522 163.131 107.136 163.201L107.446 163.218H109.647C109.972 163.218 110.293 163.282 110.592 163.404L110.883 163.545L112.36 164.385C112.568 164.505 112.786 164.595 113.015 164.656L113.367 164.724L122.052 165.853C122.816 165.959 123.585 165.737 124.156 165.254L124.311 165.112L124.446 164.965C124.973 164.344 125.764 164.023 126.564 164.091L126.863 164.135L127.704 164.31L128.111 164.432L130.12 165.224C130.72 165.461 131.202 165.919 131.47 166.497L131.586 166.796C131.758 167.34 132.138 167.82 132.648 168.135L132.913 168.279L135.343 169.416C135.749 169.603 136.222 169.686 136.684 169.657L137.027 169.614L139.107 169.204C139.306 169.165 139.509 169.151 139.711 169.16L140.013 169.193L144.363 169.952L144.905 170C145.065 170 145.225 169.987 145.375 169.961L145.592 169.914L151.052 168.515C151.727 168.337 152.302 167.908 152.624 167.356C152.891 166.905 152.993 166.372 152.92 165.863L152.855 165.562L151.528 161.064C151.377 160.552 151.395 160.008 151.574 159.511L151.701 159.218L153.065 156.552C153.694 155.323 155.2 154.836 156.429 155.465C157.571 156.049 158.072 157.389 157.634 158.562L157.516 158.829L156.605 160.605L157.653 164.155C158.169 165.924 157.989 167.826 157.173 169.452L156.935 169.888C156.028 171.445 154.542 172.627 152.793 173.21L152.31 173.354L146.864 174.75C146.375 174.882 145.844 174.963 145.212 174.986L144.718 174.993L143.753 174.909L139.622 174.198L137.976 174.523C136.561 174.792 135.088 174.667 133.741 174.161L133.242 173.954L130.795 172.808C129.367 172.141 128.195 171.051 127.436 169.715L127.32 169.495L127.005 169.37C125.526 170.467 123.702 170.993 121.881 170.861L121.385 170.808L112.727 169.683C111.916 169.579 111.136 169.349 110.41 169.005L109.876 168.725L108.987 168.218L107.446 168.218C105.55 168.218 103.715 167.52 102.322 166.275L101.953 165.922L100.827 164.768L96.3356 162.908C94.9933 162.351 93.8333 161.415 93.016 160.235L92.7258 159.782L92.0697 158.673L90.5616 157.872C88.7363 156.892 87.4083 155.245 86.8668 153.283L86.748 152.786C86.3509 150.76 86.8226 148.69 88.0409 147.039L88.361 146.636L91.2322 143.265L92.943 134.269L92.9722 134.138L92.9391 134.013C92.7842 133.353 92.7232 132.674 92.7579 131.994L92.8019 131.485L94.3247 118.67L94.3064 118.624C94.0434 117.967 93.8768 117.274 93.8142 116.569L93.7869 116.038C93.7679 114.738 94.0991 113.473 94.7246 112.357L94.7572 112.298L93.9457 111.897L91.0939 110.943L89.8705 110.504C88.6096 110.028 88.0319 109.695 87.515 109.02C86.6754 107.924 86.8833 106.355 87.9794 105.515Z" fill="#000091"/>
  <path fill-rule="evenodd" clip-rule="evenodd" d="M124.5 90C125.88 90 127 91.1193 127 92.5C127 93.7821 126.035 94.8388 124.791 94.9832L124.5 95H119.5C118.119 95 117 93.8807 117 92.5C117 91.2179 117.965 90.1613 119.208 90.0168L119.5 90H124.5Z" fill="#000091"/>
  <path fill-rule="evenodd" clip-rule="evenodd" d="M174.5 75C175.88 75 177 76.1193 177 77.5C177 78.7821 176.035 79.8388 174.791 79.9832L174.5 80H169.5C168.119 80 167 78.8807 167 77.5C167 76.2179 167.965 75.1613 169.208 75.0168L169.5 75H174.5Z" fill="#000091"/>
  <path fill-rule="evenodd" clip-rule="evenodd" d="M159.5 125C160.88 125 162 126.119 162 127.5C162 128.782 161.035 129.839 159.791 129.983L159.5 130H154.5C153.119 130 152 128.881 152 127.5C152 126.218 152.965 125.161 154.208 125.017L154.5 125H159.5Z" fill="#000091"/>
  <path d="M28.32 240.68V250.2H44.08V258.84H28.32V268.36H19.68V258.84H3.84V250.2H19.68V240.68H28.32ZM44.08 281H3.84V272.36H44.08V281ZM86.6513 280.92V236.04L75.0513 242.6L69.6913 234.92L86.9713 224.92H97.4513V280.92H86.6513ZM152.047 223.4C166.767 223.4 173.647 236.2 173.647 253C173.647 269.8 166.767 282.6 152.047 282.6C137.327 282.6 130.447 269.8 130.447 253C130.447 236.2 137.327 223.4 152.047 223.4ZM152.047 233.4C144.927 233.4 141.487 241.24 141.487 253C141.487 264.84 144.927 272.6 152.047 272.6C159.087 272.6 162.527 264.76 162.527 253C162.527 241.16 159.087 233.4 152.047 233.4ZM200.719 223.4C215.439 223.4 222.319 236.2 222.319 253C222.319 269.8 215.439 282.6 200.719 282.6C185.999 282.6 179.119 269.8 179.119 253C179.119 236.2 185.999 223.4 200.719 223.4ZM200.719 233.4C193.599 233.4 190.159 241.24 190.159 253C190.159 264.84 193.599 272.6 200.719 272.6C207.759 272.6 211.199 264.76 211.199 253C211.199 241.16 207.759 233.4 200.719 233.4ZM249.391 223.4C264.111 223.4 270.991 236.2 270.991 253C270.991 269.8 264.111 282.6 249.391 282.6C234.671 282.6 227.791 269.8 227.791 253C227.791 236.2 234.671 223.4 249.391 223.4ZM249.391 233.4C242.271 233.4 238.831 241.24 238.831 253C238.831 264.84 242.271 272.6 249.391 272.6C256.431 272.6 259.871 264.76 259.871 253C259.871 241.16 256.431 233.4 249.391 233.4Z" fill="#161616"/>
  <path d="M29.7122 323.62L30.9122 322.6C31.6122 323.48 32.4522 323.98 33.4722 323.98C34.5922 323.98 35.2322 323.3 35.2322 322.42C35.2322 320.16 30.1922 320.96 30.1922 317.4C30.1922 315.82 31.5322 314.52 33.4722 314.52C34.9122 314.52 36.1522 315.2 36.8522 316.18L35.6722 317.18C35.1322 316.42 34.3722 315.94 33.4922 315.94C32.4122 315.94 31.8322 316.58 31.8322 317.36C31.8322 319.62 36.8922 318.9 36.8922 322.34C36.8722 324.22 35.3722 325.4 33.4922 325.4C31.8922 325.4 30.6322 324.76 29.7122 323.62ZM40.3175 321.62V316.46H38.4175V314.92H40.3175V312.4H42.0375V314.92H45.5375V316.46H42.0375V321.62C42.0375 323.2 42.8375 323.64 44.0575 323.64C44.7175 323.64 45.1775 323.56 45.5575 323.4V324.92C45.0775 325.12 44.5375 325.2 43.8175 325.2C41.5775 325.2 40.3175 324.08 40.3175 321.62ZM48.1359 325V314.92H49.8359V316.18C50.5759 315.3 51.4959 314.72 52.7759 314.72C53.0959 314.72 53.3959 314.76 53.6359 314.84V316.5C53.3359 316.42 53.0359 316.38 52.6359 316.38C51.3159 316.38 50.4559 317.06 49.8359 318.08V325H48.1359ZM63.2614 320.68V314.92H64.9614V320.62C64.9614 323.64 63.2214 325.4 60.4814 325.4C57.7614 325.4 56.0214 323.64 56.0214 320.62V314.92H57.7214V320.68C57.7214 322.66 58.7814 323.8 60.5014 323.8C62.1814 323.8 63.2614 322.66 63.2614 320.68ZM72.9517 323.8C74.1917 323.8 75.2117 323.2 75.8317 322.32L77.1717 323.34C76.2317 324.6 74.7717 325.4 72.9317 325.4C69.5917 325.4 67.4517 322.9 67.4517 319.96C67.4517 317.02 69.5917 314.52 72.9317 314.52C74.7517 314.52 76.2317 315.34 77.1717 316.58L75.8317 317.6C75.2117 316.72 74.1917 316.12 72.9317 316.12C70.7717 316.12 69.2317 317.82 69.2317 319.96C69.2317 322.12 70.7717 323.8 72.9517 323.8ZM80.0441 321.62V316.46H78.1441V314.92H80.0441V312.4H81.7641V314.92H85.2641V316.46H81.7641V321.62C81.7641 323.2 82.5641 323.64 83.7841 323.64C84.4441 323.64 84.9041 323.56 85.2841 323.4V324.92C84.8041 325.12 84.2641 325.2 83.5441 325.2C81.3041 325.2 80.0441 324.08 80.0441 321.62ZM94.8239 320.68V314.92H96.5239V320.62C96.5239 323.64 94.7839 325.4 92.0439 325.4C89.3239 325.4 87.5839 323.64 87.5839 320.62V314.92H89.2839V320.68C89.2839 322.66 90.3439 323.8 92.0639 323.8C93.7439 323.8 94.8239 322.66 94.8239 320.68ZM99.8742 325V314.92H101.574V316.18C102.314 315.3 103.234 314.72 104.514 314.72C104.834 314.72 105.134 314.76 105.374 314.84V316.5C105.074 316.42 104.774 316.38 104.374 316.38C103.054 316.38 102.194 317.06 101.574 318.08V325H99.8742ZM116.178 323.34C115.238 324.6 113.738 325.4 111.858 325.4C108.458 325.4 106.358 322.9 106.358 319.96C106.358 316.9 108.318 314.52 111.438 314.52C114.178 314.52 115.958 316.44 115.958 318.92C115.958 319.32 115.898 319.7 115.838 319.98H108.098C108.158 322.4 109.698 323.86 111.858 323.86C113.158 323.86 114.258 323.26 114.918 322.36L116.178 323.34ZM111.398 315.96C109.738 315.96 108.578 316.94 108.218 318.68H114.258C114.198 317.2 113.178 315.96 111.398 315.96ZM117.681 323.62L118.881 322.6C119.581 323.48 120.421 323.98 121.441 323.98C122.561 323.98 123.201 323.3 123.201 322.42C123.201 320.16 118.161 320.96 118.161 317.4C118.161 315.82 119.501 314.52 121.441 314.52C122.881 314.52 124.121 315.2 124.821 316.18L123.641 317.18C123.101 316.42 122.341 315.94 121.461 315.94C120.381 315.94 119.801 316.58 119.801 317.36C119.801 319.62 124.861 318.9 124.861 322.34C124.841 324.22 123.341 325.4 121.461 325.4C119.861 325.4 118.601 324.76 117.681 323.62ZM133.879 312.3C133.219 312.3 132.679 311.76 132.679 311.1C132.679 310.46 133.219 309.92 133.879 309.92C134.539 309.92 135.059 310.46 135.059 311.1C135.059 311.76 134.539 312.3 133.879 312.3ZM133.019 325V314.92H134.719V325H133.019ZM138.312 325V314.92H140.012V316.06C140.832 315.16 141.872 314.52 143.372 314.52C145.632 314.52 147.312 316.04 147.312 318.9V325H145.612V318.96C145.612 317.16 144.592 316.12 143.032 316.12C141.572 316.12 140.652 316.96 140.012 318.02V325H138.312ZM149.654 323.62L150.854 322.6C151.554 323.48 152.394 323.98 153.414 323.98C154.534 323.98 155.174 323.3 155.174 322.42C155.174 320.16 150.134 320.96 150.134 317.4C150.134 315.82 151.474 314.52 153.414 314.52C154.854 314.52 156.094 315.2 156.794 316.18L155.614 317.18C155.074 316.42 154.314 315.94 153.434 315.94C152.354 315.94 151.774 316.58 151.774 317.36C151.774 319.62 156.834 318.9 156.834 322.34C156.814 324.22 155.314 325.4 153.434 325.4C151.834 325.4 150.574 324.76 149.654 323.62ZM164.124 323.8C165.364 323.8 166.384 323.2 167.004 322.32L168.344 323.34C167.404 324.6 165.944 325.4 164.104 325.4C160.764 325.4 158.624 322.9 158.624 319.96C158.624 317.02 160.764 314.52 164.104 314.52C165.924 314.52 167.404 315.34 168.344 316.58L167.004 317.6C166.384 316.72 165.364 316.12 164.104 316.12C161.944 316.12 160.404 317.82 160.404 319.96C160.404 322.12 161.944 323.8 164.124 323.8ZM170.675 325V314.92H172.375V316.18C173.115 315.3 174.035 314.72 175.315 314.72C175.635 314.72 175.935 314.76 176.175 314.84V316.5C175.875 316.42 175.575 316.38 175.175 316.38C173.855 316.38 172.995 317.06 172.375 318.08V325H170.675ZM179.484 312.3C178.824 312.3 178.284 311.76 178.284 311.1C178.284 310.46 178.824 309.92 179.484 309.92C180.144 309.92 180.664 310.46 180.664 311.1C180.664 311.76 180.144 312.3 179.484 312.3ZM178.624 325V314.92H180.324V325H178.624ZM184.497 321.62V316.46H182.597V314.92H184.497V312.4H186.217V314.92H189.717V316.46H186.217V321.62C186.217 323.2 187.017 323.64 188.237 323.64C188.897 323.64 189.357 323.56 189.737 323.4V324.92C189.257 325.12 188.717 325.2 187.997 325.2C185.757 325.2 184.497 324.08 184.497 321.62ZM201.08 323.34C200.14 324.6 198.64 325.4 196.76 325.4C193.36 325.4 191.26 322.9 191.26 319.96C191.26 316.9 193.22 314.52 196.34 314.52C199.08 314.52 200.86 316.44 200.86 318.92C200.86 319.32 200.8 319.7 200.74 319.98H193C193.06 322.4 194.6 323.86 196.76 323.86C198.06 323.86 199.16 323.26 199.82 322.36L201.08 323.34ZM196.3 315.96C194.64 315.96 193.48 316.94 193.12 318.68H199.16C199.1 317.2 198.08 315.96 196.3 315.96ZM202.583 323.62L203.783 322.6C204.483 323.48 205.323 323.98 206.343 323.98C207.463 323.98 208.103 323.3 208.103 322.42C208.103 320.16 203.063 320.96 203.063 317.4C203.063 315.82 204.403 314.52 206.343 314.52C207.783 314.52 209.023 315.2 209.723 316.18L208.543 317.18C208.003 316.42 207.243 315.94 206.363 315.94C205.283 315.94 204.703 316.58 204.703 317.36C204.703 319.62 209.763 318.9 209.763 322.34C209.743 324.22 208.243 325.4 206.363 325.4C204.763 325.4 203.503 324.76 202.583 323.62ZM216.841 323.62L218.041 322.6C218.741 323.48 219.581 323.98 220.601 323.98C221.721 323.98 222.361 323.3 222.361 322.42C222.361 320.16 217.321 320.96 217.321 317.4C217.321 315.82 218.661 314.52 220.601 314.52C222.041 314.52 223.281 315.2 223.981 316.18L222.801 317.18C222.261 316.42 221.501 315.94 220.621 315.94C219.541 315.94 218.961 316.58 218.961 317.36C218.961 319.62 224.021 318.9 224.021 322.34C224.001 324.22 222.501 325.4 220.621 325.4C219.021 325.4 217.761 324.76 216.841 323.62ZM233.808 320.68V314.92H235.508V320.62C235.508 323.64 233.768 325.4 231.028 325.4C228.308 325.4 226.568 323.64 226.568 320.62V314.92H228.268V320.68C228.268 322.66 229.328 323.8 231.048 323.8C232.728 323.8 233.808 322.66 233.808 320.68ZM238.859 325V314.92H240.559V316.18C241.299 315.3 242.219 314.72 243.499 314.72C243.819 314.72 244.119 314.76 244.359 314.84V316.5C244.059 316.42 243.759 316.38 243.359 316.38C242.039 316.38 241.179 317.06 240.559 318.08V325H238.859ZM10.9125 357V355.28L19.5925 344.72H11.1125V343H21.8725V344.72L13.1925 355.28H22.0725V357H10.9125ZM29.7013 345.32H28.0413L30.1213 342H32.0413L29.7013 345.32ZM33.5413 355.34C32.6013 356.6 31.1013 357.4 29.2213 357.4C25.8213 357.4 23.7213 354.9 23.7213 351.96C23.7213 348.9 25.6813 346.52 28.8013 346.52C31.5413 346.52 33.3213 348.44 33.3213 350.92C33.3213 351.32 33.2613 351.7 33.2013 351.98H25.4613C25.5213 354.4 27.0613 355.86 29.2213 355.86C30.5213 355.86 31.6213 355.26 32.2813 354.36L33.5413 355.34ZM28.7613 347.96C27.1013 347.96 25.9413 348.94 25.5813 350.68H31.6213C31.5613 349.2 30.5413 347.96 28.7613 347.96ZM36.2023 357V346.92H37.9023V348.18C38.6423 347.3 39.5623 346.72 40.8423 346.72C41.1623 346.72 41.4623 346.76 41.7023 346.84V348.5C41.4023 348.42 41.1023 348.38 40.7023 348.38C39.3823 348.38 38.5223 349.06 37.9023 350.08V357H36.2023ZM48.1461 346.52C51.3861 346.52 53.6061 349.02 53.6061 351.96C53.6061 354.9 51.3861 357.4 48.1461 357.4C44.8861 357.4 42.6861 354.9 42.6861 351.96C42.6861 349.02 44.8861 346.52 48.1461 346.52ZM48.1661 355.8C50.2661 355.8 51.8061 354.04 51.8061 351.96C51.8061 349.86 50.2661 348.12 48.1661 348.12C46.0061 348.12 44.4661 349.86 44.4661 351.96C44.4661 354.06 46.0061 355.8 48.1661 355.8ZM62.1497 357V343H64.0297V355.28H69.6697V357H62.1497ZM76.6617 346.52C79.9017 346.52 82.1217 349.02 82.1217 351.96C82.1217 354.9 79.9017 357.4 76.6617 357.4C73.4017 357.4 71.2017 354.9 71.2017 351.96C71.2017 349.02 73.4017 346.52 76.6617 346.52ZM76.6817 355.8C78.7817 355.8 80.3217 354.04 80.3217 351.96C80.3217 349.86 78.7817 348.12 76.6817 348.12C74.5217 348.12 72.9817 349.86 72.9817 351.96C72.9817 354.06 74.5217 355.8 76.6817 355.8ZM83.6166 358.82C83.6166 357.8 84.1166 356.98 85.1166 356.28C84.6566 355.92 84.4166 355.38 84.4166 354.84C84.4166 354.04 84.8366 353.38 85.6166 352.88C84.7366 352.22 84.2166 351.2 84.2166 350.08C84.2166 348.14 85.7366 346.5 88.1366 346.5C88.8766 346.5 89.5366 346.66 90.0766 346.92H93.8166V348.4H91.6366C91.9166 348.9 92.0566 349.48 92.0566 350.08C92.0566 352 90.5566 353.64 88.1366 353.64C87.6366 353.64 87.1566 353.56 86.7366 353.44C86.3166 353.74 86.0766 354.1 86.0766 354.48C86.0766 354.9 86.2966 355.2 86.9166 355.2H89.7966C92.4566 355.2 93.6966 356.5 93.6966 358.3C93.6966 360.42 91.5766 362 88.5566 362C85.5766 362 83.6166 360.84 83.6166 358.82ZM88.1566 352.3C89.6166 352.3 90.4566 351.3 90.4566 350.08C90.4566 348.84 89.6166 347.84 88.1566 347.84C86.6566 347.84 85.8366 348.84 85.8366 350.08C85.8366 351.32 86.6566 352.3 88.1566 352.3ZM85.2766 358.62C85.2766 359.84 86.5366 360.58 88.5366 360.58C90.6566 360.58 91.9966 359.74 91.9966 358.42C91.9966 357.46 91.4566 356.7 89.6566 356.7H86.3966C85.6966 357.22 85.2766 357.82 85.2766 358.62ZM104.401 355.34C103.461 356.6 101.961 357.4 100.081 357.4C96.6806 357.4 94.5806 354.9 94.5806 351.96C94.5806 348.9 96.5406 346.52 99.6606 346.52C102.401 346.52 104.181 348.44 104.181 350.92C104.181 351.32 104.121 351.7 104.061 351.98H96.3206C96.3806 354.4 97.9206 355.86 100.081 355.86C101.381 355.86 102.481 355.26 103.141 354.36L104.401 355.34ZM99.6206 347.96C97.9606 347.96 96.8006 348.94 96.4406 350.68H102.481C102.421 349.2 101.401 347.96 99.6206 347.96ZM107.062 357V346.92H108.762V348.02C109.522 347.14 110.522 346.52 111.922 346.52C113.382 346.52 114.582 347.18 115.202 348.46C116.002 347.36 117.062 346.52 118.802 346.52C120.962 346.52 122.542 347.96 122.542 350.7V357H120.842V350.76C120.842 349.08 119.902 348.12 118.462 348.12C117.182 348.12 116.282 348.84 115.622 350.02C115.642 350.24 115.662 350.46 115.662 350.7V357H113.962V350.76C113.962 349.08 113.042 348.12 111.582 348.12C110.202 348.12 109.342 348.98 108.762 350.02V357H107.062ZM134.928 355.34C133.988 356.6 132.488 357.4 130.608 357.4C127.208 357.4 125.108 354.9 125.108 351.96C125.108 348.9 127.068 346.52 130.188 346.52C132.928 346.52 134.708 348.44 134.708 350.92C134.708 351.32 134.648 351.7 134.588 351.98H126.848C126.908 354.4 128.448 355.86 130.608 355.86C131.908 355.86 133.008 355.26 133.668 354.36L134.928 355.34ZM130.148 347.96C128.488 347.96 127.328 348.94 126.968 350.68H133.008C132.948 349.2 131.928 347.96 130.148 347.96ZM137.589 357V346.92H139.289V348.06C140.109 347.16 141.149 346.52 142.649 346.52C144.909 346.52 146.589 348.04 146.589 350.9V357H144.889V350.96C144.889 349.16 143.869 348.12 142.309 348.12C140.849 348.12 139.929 348.96 139.289 350.02V357H137.589ZM150.591 353.62V348.46H148.691V346.92H150.591V344.4H152.311V346.92H155.811V348.46H152.311V353.62C152.311 355.2 153.111 355.64 154.331 355.64C154.991 355.64 155.451 355.56 155.831 355.4V356.92C155.351 357.12 154.811 357.2 154.091 357.2C151.851 357.2 150.591 356.08 150.591 353.62ZM162.54 343H164.54L169.38 355.1L174.22 343H176.22L170.62 357H168.14L162.54 343ZM180.114 357.28C178.134 357.28 176.794 356.18 176.794 354.46C176.794 352.94 177.954 351.86 180.094 351.5L183.494 350.94V350.24C183.494 348.84 182.494 348.04 181.054 348.04C179.894 348.04 178.954 348.58 178.334 349.44L177.054 348.46C177.934 347.26 179.354 346.52 181.114 346.52C183.674 346.52 185.194 348.02 185.194 350.24V357H183.494V355.72C182.734 356.7 181.414 357.28 180.114 357.28ZM178.514 354.4C178.514 355.26 179.214 355.88 180.394 355.88C181.734 355.88 182.834 355.24 183.494 354.16V352.18L180.514 352.68C179.134 352.92 178.514 353.54 178.514 354.4ZM193.245 355.8C194.485 355.8 195.505 355.2 196.125 354.32L197.465 355.34C196.525 356.6 195.065 357.4 193.225 357.4C189.885 357.4 187.745 354.9 187.745 351.96C187.745 349.02 189.885 346.52 193.225 346.52C195.045 346.52 196.525 347.34 197.465 348.58L196.125 349.6C195.505 348.72 194.485 348.12 193.225 348.12C191.065 348.12 189.525 349.82 189.525 351.96C189.525 354.12 191.065 355.8 193.245 355.8ZM202.399 357.28C200.419 357.28 199.079 356.18 199.079 354.46C199.079 352.94 200.239 351.86 202.379 351.5L205.779 350.94V350.24C205.779 348.84 204.779 348.04 203.339 348.04C202.179 348.04 201.239 348.58 200.619 349.44L199.339 348.46C200.219 347.26 201.639 346.52 203.399 346.52C205.959 346.52 207.479 348.02 207.479 350.24V357H205.779V355.72C205.019 356.7 203.699 357.28 202.399 357.28ZM200.799 354.4C200.799 355.26 201.499 355.88 202.679 355.88C204.019 355.88 205.119 355.24 205.779 354.16V352.18L202.799 352.68C201.419 352.92 200.799 353.54 200.799 354.4ZM210.89 357V346.92H212.59V348.06C213.41 347.16 214.45 346.52 215.95 346.52C218.21 346.52 219.89 348.04 219.89 350.9V357H218.19V350.96C218.19 349.16 217.17 348.12 215.61 348.12C214.15 348.12 213.23 348.96 212.59 350.02V357H210.89ZM223.892 353.62V348.46H221.992V346.92H223.892V344.4H225.612V346.92H229.112V348.46H225.612V353.62C225.612 355.2 226.412 355.64 227.632 355.64C228.292 355.64 228.752 355.56 229.132 355.4V356.92C228.652 357.12 228.112 357.2 227.392 357.2C225.152 357.2 223.892 356.08 223.892 353.62ZM236.021 355.62L237.221 354.6C237.921 355.48 238.761 355.98 239.781 355.98C240.901 355.98 241.541 355.3 241.541 354.42C241.541 352.16 236.501 352.96 236.501 349.4C236.501 347.82 237.841 346.52 239.781 346.52C241.221 346.52 242.461 347.2 243.161 348.18L241.981 349.18C241.441 348.42 240.681 347.94 239.801 347.94C238.721 347.94 238.141 348.58 238.141 349.36C238.141 351.62 243.201 350.9 243.201 354.34C243.181 356.22 241.681 357.4 239.801 357.4C238.201 357.4 236.941 356.76 236.021 355.62ZM252.988 352.68V346.92H254.688V352.62C254.688 355.64 252.948 357.4 250.208 357.4C247.488 357.4 245.748 355.64 245.748 352.62V346.92H247.448V352.68C247.448 354.66 248.508 355.8 250.228 355.8C251.908 355.8 252.988 354.66 252.988 352.68ZM258.038 357V346.92H259.738V348.18C260.478 347.3 261.398 346.72 262.678 346.72C262.998 346.72 263.298 346.76 263.538 346.84V348.5C263.238 348.42 262.938 348.38 262.538 348.38C261.218 348.38 260.358 349.06 259.738 350.08V357H258.038ZM19.3898 385.62V380.46H17.4898V378.92H19.3898V376.4H21.1098V378.92H24.6098V380.46H21.1098V385.62C21.1098 387.2 21.9098 387.64 23.1298 387.64C23.7898 387.64 24.2498 387.56 24.6298 387.4V388.92C24.1498 389.12 23.6098 389.2 22.8898 389.2C20.6498 389.2 19.3898 388.08 19.3898 385.62ZM31.6129 378.52C34.8529 378.52 37.0729 381.02 37.0729 383.96C37.0729 386.9 34.8529 389.4 31.6129 389.4C28.3529 389.4 26.1529 386.9 26.1529 383.96C26.1529 381.02 28.3529 378.52 31.6129 378.52ZM31.6329 387.8C33.7329 387.8 35.2729 386.04 35.2729 383.96C35.2729 381.86 33.7329 380.12 31.6329 380.12C29.4729 380.12 27.9329 381.86 27.9329 383.96C27.9329 386.06 29.4729 387.8 31.6329 387.8ZM46.8259 384.68V378.92H48.5259V384.62C48.5259 387.64 46.7859 389.4 44.0459 389.4C41.3259 389.4 39.5859 387.64 39.5859 384.62V378.92H41.2859V384.68C41.2859 386.66 42.3459 387.8 44.0659 387.8C45.7459 387.8 46.8259 386.66 46.8259 384.68ZM52.5343 385.62V380.46H50.6343V378.92H52.5343V376.4H54.2543V378.92H57.7543V380.46H54.2543V385.62C54.2543 387.2 55.0543 387.64 56.2743 387.64C56.9343 387.64 57.3943 387.56 57.7743 387.4V388.92C57.2943 389.12 56.7543 389.2 56.0343 389.2C53.7943 389.2 52.5343 388.08 52.5343 385.62ZM65.7434 389V374H67.4434V389H65.7434ZM79.9963 387.34C79.0563 388.6 77.5563 389.4 75.6763 389.4C72.2763 389.4 70.1763 386.9 70.1763 383.96C70.1763 380.9 72.1363 378.52 75.2563 378.52C77.9963 378.52 79.7763 380.44 79.7763 382.92C79.7763 383.32 79.7163 383.7 79.6563 383.98H71.9163C71.9763 386.4 73.5163 387.86 75.6763 387.86C76.9763 387.86 78.0763 387.26 78.7363 386.36L79.9963 387.34ZM75.2163 379.96C73.5563 379.96 72.3963 380.94 72.0363 382.68H78.0763C78.0163 381.2 76.9963 379.96 75.2163 379.96ZM88.628 385.62V380.46H86.728V378.92H88.628V376.4H90.348V378.92H93.848V380.46H90.348V385.62C90.348 387.2 91.148 387.64 92.368 387.64C93.028 387.64 93.488 387.56 93.868 387.4V388.92C93.388 389.12 92.848 389.2 92.128 389.2C89.888 389.2 88.628 388.08 88.628 385.62ZM105.211 387.34C104.271 388.6 102.771 389.4 100.891 389.4C97.4912 389.4 95.3912 386.9 95.3912 383.96C95.3912 380.9 97.3512 378.52 100.471 378.52C103.211 378.52 104.991 380.44 104.991 382.92C104.991 383.32 104.931 383.7 104.871 383.98H97.1312C97.1912 386.4 98.7312 387.86 100.891 387.86C102.191 387.86 103.291 387.26 103.951 386.36L105.211 387.34ZM100.431 379.96C98.7712 379.96 97.6112 380.94 97.2512 382.68H103.291C103.231 381.2 102.211 379.96 100.431 379.96ZM107.872 389V378.92H109.572V380.18C110.312 379.3 111.232 378.72 112.512 378.72C112.832 378.72 113.132 378.76 113.372 378.84V380.5C113.072 380.42 112.772 380.38 112.372 380.38C111.052 380.38 110.192 381.06 109.572 382.08V389H107.872ZM115.821 389V378.92H117.521V380.18C118.261 379.3 119.181 378.72 120.461 378.72C120.781 378.72 121.081 378.76 121.321 378.84V380.5C121.021 380.42 120.721 380.38 120.321 380.38C119.001 380.38 118.141 381.06 117.521 382.08V389H115.821ZM124.631 376.3C123.971 376.3 123.431 375.76 123.431 375.1C123.431 374.46 123.971 373.92 124.631 373.92C125.291 373.92 125.811 374.46 125.811 375.1C125.811 375.76 125.291 376.3 124.631 376.3ZM123.771 389V378.92H125.471V389H123.771ZM129.644 385.62V380.46H127.744V378.92H129.644V376.4H131.364V378.92H134.864V380.46H131.364V385.62C131.364 387.2 132.164 387.64 133.384 387.64C134.044 387.64 134.504 387.56 134.884 387.4V388.92C134.404 389.12 133.864 389.2 133.144 389.2C130.904 389.2 129.644 388.08 129.644 385.62ZM141.867 378.52C145.107 378.52 147.327 381.02 147.327 383.96C147.327 386.9 145.107 389.4 141.867 389.4C138.607 389.4 136.407 386.9 136.407 383.96C136.407 381.02 138.607 378.52 141.867 378.52ZM141.887 387.8C143.987 387.8 145.527 386.04 145.527 383.96C145.527 381.86 143.987 380.12 141.887 380.12C139.727 380.12 138.187 381.86 138.187 383.96C138.187 386.06 139.727 387.8 141.887 387.8ZM150.92 376.3C150.26 376.3 149.72 375.76 149.72 375.1C149.72 374.46 150.26 373.92 150.92 373.92C151.58 373.92 152.1 374.46 152.1 375.1C152.1 375.76 151.58 376.3 150.92 376.3ZM150.06 389V378.92H151.76V389H150.06ZM155.353 389V378.92H157.053V380.18C157.793 379.3 158.713 378.72 159.993 378.72C160.313 378.72 160.613 378.76 160.853 378.84V380.5C160.553 380.42 160.253 380.38 159.853 380.38C158.533 380.38 157.673 381.06 157.053 382.08V389H155.353ZM171.656 387.34C170.716 388.6 169.216 389.4 167.336 389.4C163.936 389.4 161.836 386.9 161.836 383.96C161.836 380.9 163.796 378.52 166.916 378.52C169.656 378.52 171.436 380.44 171.436 382.92C171.436 383.32 171.376 383.7 171.316 383.98H163.576C163.636 386.4 165.176 387.86 167.336 387.86C168.636 387.86 169.736 387.26 170.396 386.36L171.656 387.34ZM166.876 379.96C165.216 379.96 164.056 380.94 163.696 382.68H169.736C169.676 381.2 168.656 379.96 166.876 379.96ZM179.708 389V378.92H181.408V380.06C182.228 379.16 183.268 378.52 184.768 378.52C187.028 378.52 188.708 380.04 188.708 382.9V389H187.008V382.96C187.008 381.16 185.988 380.12 184.428 380.12C182.968 380.12 182.048 380.96 181.408 382.02V389H179.708ZM194.87 389.28C192.89 389.28 191.55 388.18 191.55 386.46C191.55 384.94 192.71 383.86 194.85 383.5L198.25 382.94V382.24C198.25 380.84 197.25 380.04 195.81 380.04C194.65 380.04 193.71 380.58 193.09 381.44L191.81 380.46C192.69 379.26 194.11 378.52 195.87 378.52C198.43 378.52 199.95 380.02 199.95 382.24V389H198.25V387.72C197.49 388.7 196.17 389.28 194.87 389.28ZM193.27 386.4C193.27 387.26 193.97 387.88 195.15 387.88C196.49 387.88 197.59 387.24 198.25 386.16V384.18L195.27 384.68C193.89 384.92 193.27 385.54 193.27 386.4ZM203.941 385.62V380.46H202.041V378.92H203.941V376.4H205.661V378.92H209.161V380.46H205.661V385.62C205.661 387.2 206.461 387.64 207.681 387.64C208.341 387.64 208.801 387.56 209.181 387.4V388.92C208.701 389.12 208.161 389.2 207.441 389.2C205.201 389.2 203.941 388.08 203.941 385.62ZM212.619 376.3C211.959 376.3 211.419 375.76 211.419 375.1C211.419 374.46 211.959 373.92 212.619 373.92C213.279 373.92 213.799 374.46 213.799 375.1C213.799 375.76 213.279 376.3 212.619 376.3ZM211.759 389V378.92H213.459V389H211.759ZM221.652 378.52C224.892 378.52 227.112 381.02 227.112 383.96C227.112 386.9 224.892 389.4 221.652 389.4C218.392 389.4 216.192 386.9 216.192 383.96C216.192 381.02 218.392 378.52 221.652 378.52ZM221.672 387.8C223.772 387.8 225.312 386.04 225.312 383.96C225.312 381.86 223.772 380.12 221.672 380.12C219.512 380.12 217.972 381.86 217.972 383.96C217.972 386.06 219.512 387.8 221.672 387.8ZM229.845 389V378.92H231.545V380.06C232.365 379.16 233.405 378.52 234.905 378.52C237.165 378.52 238.845 380.04 238.845 382.9V389H237.145V382.96C237.145 381.16 236.125 380.12 234.565 380.12C233.105 380.12 232.185 380.96 231.545 382.02V389H229.845ZM245.007 389.28C243.027 389.28 241.687 388.18 241.687 386.46C241.687 384.94 242.847 383.86 244.987 383.5L248.387 382.94V382.24C248.387 380.84 247.387 380.04 245.947 380.04C244.787 380.04 243.847 380.58 243.227 381.44L241.947 380.46C242.827 379.26 244.247 378.52 246.007 378.52C248.567 378.52 250.087 380.02 250.087 382.24V389H248.387V387.72C247.627 388.7 246.307 389.28 245.007 389.28ZM243.407 386.4C243.407 387.26 244.107 387.88 245.287 387.88C246.627 387.88 247.727 387.24 248.387 386.16V384.18L245.407 384.68C244.027 384.92 243.407 385.54 243.407 386.4ZM253.497 389V374H255.197V389H253.497Z" fill="#161616"/>
</svg>
