<svg width="321" height="152" viewBox="0 0 321 152" fill="none" xmlns="http://www.w3.org/2000/svg">
<g clip-path="url(#clip0_10857_10042)">
<path d="M212.58 118.554V111.246H245.623V118.554H233.189V150.899H225.014V118.554H212.58Z" fill="#000091"/>
<path d="M168.522 150.899V111.246H178.907L196.767 139.909V111.246H204.87V150.899H194.484L176.624 122.236V150.899H168.522Z" fill="#000091"/>
<path d="M122.261 150.899L136.937 111.246H147.237L161.913 150.899H153.551L149.84 140.589H134.334L130.623 150.899H122.261ZM136.77 133.735H147.403L142.087 118.837L136.77 133.735Z" fill="#000091"/>
<path d="M103.008 144.477C107.632 144.477 111.273 142.271 113.585 139.048L120.058 143.912C116.359 148.833 110.348 152 103.008 152C90.2346 152 81.5073 142.385 81.5073 131.072C81.5073 119.76 90.2346 110.145 103.008 110.145C110.348 110.145 116.359 113.369 120.058 118.177L113.585 123.097C111.273 119.873 107.632 117.667 103.008 117.667C95.3786 117.667 89.9457 123.493 89.9457 131.072C89.9457 138.652 95.3786 144.477 103.008 144.477Z" fill="#000091"/>
<path d="M38.5507 150.899L53.6341 111.246H64.2209L79.3043 150.899H70.7097L66.8961 140.589H50.9589L47.1454 150.899H38.5507ZM53.4634 133.735H64.3917L58.9275 118.837L53.4634 133.735Z" fill="#000091"/>
<path d="M0 111.246H8.59469L20.3768 142.232L32.1589 111.246H40.7536L25.6702 150.899H15.0834L0 111.246Z" fill="#000091"/>
<path d="M288.58 68.9885V61.6812H320.522V68.9885H308.502V101.333H300.6V68.9885H288.58Z" fill="#000091"/>
<path d="M244.522 101.333V61.6812H254.907L272.767 90.344V61.6812H280.87V101.333H270.484L252.624 72.6705V101.333H244.522Z" fill="#000091"/>
<path d="M211.478 101.333V61.6812H234.609V68.3654H219.529V77.7686H232.341V84.4528H219.529V94.6491H234.609V101.333H211.478Z" fill="#000091"/>
<path d="M160.812 101.333V61.6812H170.615L180.087 78.3351L189.558 61.6812H199.362V101.333H191.497V72.897L182.856 87.7383H177.317L168.677 72.897V101.333H160.812Z" fill="#000091"/>
<path d="M127.768 101.333V61.6812H150.899V68.3654H135.818V77.7686H148.631V84.4528H135.818V94.6491H150.899V101.333H127.768Z" fill="#000091"/>
<path d="M100.74 93.8107C104.444 93.8107 107.642 92.5098 109.887 90.3605V83.4601H99.8984V76.6162H117.855V93.2451C114.208 98.1659 108.091 101.333 100.74 101.333C88.0021 101.333 79.3043 91.718 79.3043 80.4058C79.3043 69.0936 87.7776 59.4783 100.179 59.4783C107.306 59.4783 113.141 62.7022 116.733 67.5099L110.448 72.4307C108.203 69.2067 104.668 67.0009 100.179 67.0009C92.7718 67.0009 87.4971 72.8266 87.4971 80.4058C87.4971 87.985 93.0524 93.8107 100.74 93.8107Z" fill="#000091"/>
<path d="M51.7963 59.4783C64.1894 59.4783 72.6956 69.0936 72.6956 80.4058C72.6956 91.718 64.1894 101.333 51.7963 101.333C39.3468 101.333 30.8406 91.718 30.8406 80.4058C30.8406 69.0936 39.3468 59.4783 51.7963 59.4783ZM51.7963 93.8107C59.1758 93.8107 64.4711 87.985 64.4711 80.4058C64.4711 72.8266 59.1758 67.0009 51.7963 67.0009C44.3604 67.0009 39.0651 72.8266 39.0651 80.4058C39.0651 87.985 44.3604 93.8107 51.7963 93.8107Z" fill="#000091"/>
<path d="M5.50726 101.333V61.6812H13.5576V94.026H28.6377V101.333H5.50726Z" fill="#000091"/>
<path d="M135.506 9.91302C147.912 9.91302 156.406 19.5284 156.406 30.8406C156.406 42.1527 147.912 51.7681 135.506 51.7681C123.045 51.7681 114.551 42.1527 114.551 30.8406C114.551 19.5284 123.045 9.91302 135.506 9.91302ZM135.506 42.3224C141.709 42.3224 146.18 37.4582 146.18 30.8406C146.18 24.1664 141.709 19.3587 135.506 19.3587C129.248 19.3587 124.777 24.2229 124.777 30.8406C124.777 37.5147 129.248 42.3224 135.506 42.3224Z" fill="#4B9F6C"/>
<path d="M79.3043 50.6666V11.0145H92.5892C101.86 11.0145 107.57 15.6028 107.57 23.3633C107.57 28.1782 105.309 31.8035 101.352 33.8428L113.449 50.6666H101.691L91.7412 35.6555H89.3669V50.6666H79.3043ZM93.211 19.3414H89.3669V27.3285H93.211C95.7549 27.3285 97.2248 25.6858 97.2248 23.25C97.2248 20.9842 95.7549 19.3414 93.211 19.3414Z" fill="#4B9F6C"/>
<path d="M61.5945 7.64246H52.5075L58.8459 0H68.9426L61.5945 7.64246ZM45.1594 50.6667V11.0391H69.3913V19.3609H55.1439V26.324H67.1476V34.6458H55.1439V42.3449H69.3913V50.6667H45.1594Z" fill="#4B9F6C"/>
<path d="M3.30432 50.6666V41.5466L23.2094 20.1345H3.8682V11.0145H35.7839V20.1345L15.9353 41.5466H36.3478V50.6666H3.30432Z" fill="#4B9F6C"/>
</g>
<defs>
<clipPath id="clip0_10857_10042">
<rect width="321" height="152" fill="white"/>
</clipPath>
</defs>
</svg>
