<svg width="163" height="150" viewBox="0 0 163 150" fill="none" xmlns="http://www.w3.org/2000/svg">
<g clip-path="url(#clip0_1152_55558)">
<path d="M133.334 137.402L41.1518 137.563C39.3872 137.561 37.6955 136.859 36.448 135.61C35.2005 134.361 34.4991 132.668 34.4978 130.902L34.3894 102.273C34.2356 102.448 34.183 102.668 34.0172 102.836V130.902C34.0189 132.795 34.7711 134.611 36.1086 135.95C37.4462 137.289 39.2599 138.042 41.1518 138.044H115.66C133.334 138.044 133.402 137.563 133.334 137.402ZM34.4978 31.9137C34.4991 30.1477 35.2005 28.4545 36.448 27.2055C37.6955 25.9566 39.3872 25.254 41.1518 25.252H65.9077C65.862 25.0909 65.8187 24.9321 65.7779 24.771H41.1518C39.2599 24.7734 37.4462 25.5267 36.1086 26.8658C34.7711 28.2049 34.0189 30.0203 34.0172 31.9137L33.8514 103.078C34.1734 129.598 34.4978 102.836 34.4978 76.2491V31.9137ZM134.262 37.5317L118.738 25.2255C118.368 24.9315 117.909 24.7713 117.436 24.771H103.621C103.582 24.9321 103.539 25.0933 103.493 25.252H117.436C117.8 25.2529 118.154 25.3756 118.44 25.6007L133.964 37.9093C134.111 38.0256 134.23 38.1739 134.312 38.3431C134.393 38.5123 134.435 38.6978 134.435 38.8857L134.271 98.4327C134.432 98.4375 134.915 98.4327 135.076 98.4447L134.915 38.8857C134.916 38.6252 134.858 38.3678 134.745 38.1332C134.631 37.8987 134.466 37.6929 134.262 37.5317Z" fill="#3F3D56"/>
<path d="M134.057 38.1669H121.531C121.078 38.1669 120.63 38.0776 120.211 37.9042C119.793 37.7308 119.413 37.4767 119.093 37.1562C118.772 36.8358 118.518 36.4554 118.345 36.0368C118.172 35.6181 118.083 35.1694 118.083 34.7163V25.4574C118.083 25.4168 118.094 25.3771 118.116 25.3428C118.137 25.3084 118.168 25.2809 118.204 25.2632C118.241 25.2456 118.282 25.2386 118.322 25.243C118.362 25.2474 118.4 25.2631 118.432 25.2883L134.19 37.7822C134.225 37.81 134.251 37.848 134.263 37.891C134.276 37.934 134.275 37.9799 134.26 38.0221C134.245 38.0644 134.218 38.1011 134.181 38.127C134.145 38.153 134.101 38.1669 134.057 38.1669Z" fill="#E6E6E6"/>
<path d="M134.056 38.4077H121.531C120.553 38.4066 119.615 38.0173 118.924 37.3253C118.232 36.6334 117.844 35.6951 117.842 34.7165V25.4577C117.842 25.3719 117.867 25.2879 117.912 25.2153C117.958 25.1427 118.023 25.0843 118.1 25.047C118.177 25.0097 118.263 24.9948 118.348 25.0042C118.433 25.0136 118.514 25.0468 118.581 25.1L134.339 37.594C134.414 37.6528 134.468 37.7333 134.494 37.8242C134.521 37.9152 134.518 38.0121 134.487 38.1015C134.456 38.191 134.398 38.2685 134.321 38.3234C134.243 38.3783 134.151 38.4077 134.056 38.4077V38.4077ZM118.323 25.509V34.7165C118.324 35.5676 118.662 36.3836 119.264 36.9854C119.865 37.5872 120.68 37.9257 121.531 37.9267H133.985L118.323 25.509Z" fill="#3F3D56"/>
<path d="M109.192 54.1264H72.3432C71.886 54.1264 71.4475 53.9446 71.1242 53.6211C70.8009 53.2975 70.6193 52.8587 70.6193 52.4011C70.6193 51.9435 70.8009 51.5047 71.1242 51.1811C71.4475 50.8576 71.886 50.6758 72.3432 50.6758H109.192C109.649 50.6758 110.088 50.8576 110.411 51.1811C110.734 51.5047 110.916 51.9435 110.916 52.4011C110.916 52.8587 110.734 53.2975 110.411 53.6211C110.088 53.9446 109.649 54.1264 109.192 54.1264Z" fill="#CCCCCC"/>
<path d="M116.303 59.9492H72.3432C71.886 59.9492 71.4475 59.7674 71.1242 59.4438C70.8009 59.1203 70.6193 58.6814 70.6193 58.2239C70.6193 57.7663 70.8009 57.3274 71.1242 57.0039C71.4475 56.6803 71.886 56.4985 72.3432 56.4985H116.303C116.761 56.4985 117.199 56.6803 117.522 57.0039C117.846 57.3274 118.027 57.7663 118.027 58.2239C118.027 58.6814 117.846 59.1203 117.522 59.4438C117.199 59.7674 116.761 59.9492 116.303 59.9492H116.303Z" fill="#CCCCCC"/>
<path d="M109.192 80.2216H72.3432C71.886 80.2216 71.4475 80.0399 71.1242 79.7163C70.8009 79.3927 70.6193 78.9539 70.6193 78.4963C70.6193 78.0387 70.8009 77.5999 71.1242 77.2763C71.4475 76.9528 71.886 76.771 72.3432 76.771H109.192C109.649 76.771 110.088 76.9528 110.411 77.2763C110.734 77.5999 110.916 78.0387 110.916 78.4963C110.916 78.9539 110.734 79.3927 110.411 79.7163C110.088 80.0399 109.649 80.2216 109.192 80.2216Z" fill="#CCCCCC"/>
<path d="M116.303 86.0444H72.3432C71.886 86.0444 71.4475 85.8626 71.1242 85.539C70.8009 85.2155 70.6193 84.7766 70.6193 84.3191C70.6193 83.8615 70.8009 83.4226 71.1242 83.0991C71.4475 82.7755 71.886 82.5938 72.3432 82.5938H116.303C116.761 82.5938 117.199 82.7755 117.522 83.0991C117.846 83.4226 118.027 83.8615 118.027 84.3191C118.027 84.7766 117.846 85.2155 117.522 85.539C117.199 85.8626 116.761 86.0444 116.303 86.0444H116.303Z" fill="#CCCCCC"/>
<path d="M109.192 106.317H72.3432C72.1168 106.317 71.8926 106.272 71.6835 106.186C71.4743 106.099 71.2843 105.972 71.1242 105.812C70.9641 105.651 70.8371 105.461 70.7505 105.252C70.6639 105.042 70.6193 104.818 70.6193 104.592C70.6193 104.365 70.6639 104.141 70.7505 103.931C70.8371 103.722 70.9641 103.532 71.1242 103.372C71.2843 103.211 71.4743 103.084 71.6835 102.998C71.8926 102.911 72.1168 102.866 72.3432 102.866H109.192C109.649 102.866 110.088 103.048 110.411 103.372C110.734 103.695 110.916 104.134 110.916 104.592C110.916 105.049 110.734 105.488 110.411 105.812C110.088 106.135 109.649 106.317 109.192 106.317V106.317Z" fill="#CCCCCC"/>
<path d="M116.303 112.14H72.3432C72.1168 112.14 71.8926 112.095 71.6835 112.009C71.4743 111.922 71.2843 111.795 71.1242 111.635C70.9641 111.475 70.8371 111.284 70.7505 111.075C70.6639 110.866 70.6193 110.641 70.6193 110.415C70.6193 110.188 70.6639 109.964 70.7505 109.755C70.8371 109.545 70.9641 109.355 71.1242 109.195C71.2843 109.035 71.4743 108.907 71.6835 108.821C71.8926 108.734 72.1168 108.689 72.3432 108.689H116.303C116.53 108.689 116.754 108.734 116.963 108.821C117.172 108.907 117.362 109.035 117.522 109.195C117.682 109.355 117.809 109.545 117.896 109.755C117.983 109.964 118.027 110.188 118.027 110.415C118.027 110.641 117.983 110.866 117.896 111.075C117.809 111.284 117.682 111.475 117.522 111.635C117.362 111.795 117.172 111.922 116.963 112.009C116.754 112.095 116.53 112.14 116.303 112.14H116.303Z" fill="#CCCCCC"/>
<path d="M56.9983 61.4104C60.3634 61.4104 63.0914 58.6802 63.0914 55.3124C63.0914 51.9445 60.3634 49.2144 56.9983 49.2144C53.6331 49.2144 50.9052 51.9445 50.9052 55.3124C50.9052 58.6802 53.6331 61.4104 56.9983 61.4104Z" fill="#6A6AF4"/>
<path d="M56.3946 57.6388C56.2575 57.6391 56.1241 57.5947 56.0144 57.5124L56.0076 57.5073L54.5756 56.411C54.5092 56.3602 54.4534 56.2967 54.4114 56.2243C54.3695 56.1518 54.3422 56.0718 54.3312 55.9888C54.3202 55.9059 54.3257 55.8215 54.3472 55.7406C54.3688 55.6597 54.4061 55.5839 54.457 55.5175C54.5079 55.451 54.5714 55.3953 54.6438 55.3534C54.7163 55.3116 54.7963 55.2844 54.8792 55.2735C54.9621 55.2626 55.0464 55.2682 55.1272 55.2899C55.208 55.3116 55.2837 55.3491 55.35 55.4001L56.2775 56.112L58.4693 53.2503C58.5201 53.1839 58.5835 53.1282 58.6558 53.0864C58.7281 53.0446 58.808 53.0174 58.8908 53.0065C58.9736 52.9955 59.0577 53.001 59.1384 53.0226C59.2191 53.0442 59.2948 53.0815 59.3611 53.1324L59.3613 53.1325L59.3477 53.1514L59.3616 53.1325C59.4954 53.2354 59.5829 53.3872 59.6049 53.5545C59.627 53.7219 59.5818 53.8912 59.4793 54.0252L56.9013 57.3897C56.8417 57.4672 56.765 57.53 56.6772 57.573C56.5894 57.6161 56.4929 57.6384 56.3952 57.6381L56.3946 57.6388Z" fill="white"/>
<path d="M56.9983 87.5056C60.3634 87.5056 63.0914 84.7755 63.0914 81.4076C63.0914 78.0398 60.3634 75.3096 56.9983 75.3096C53.6331 75.3096 50.9052 78.0398 50.9052 81.4076C50.9052 84.7755 53.6331 87.5056 56.9983 87.5056Z" fill="#E6E6E6"/>
<path d="M56.3946 83.7341C56.2575 83.7343 56.124 83.6899 56.0144 83.6076L56.0076 83.6025L54.5756 82.5062C54.4417 82.4034 54.354 82.2516 54.3319 82.0842C54.3098 81.9167 54.3551 81.7473 54.4577 81.6133C54.5604 81.4793 54.7121 81.3915 54.8794 81.3694C55.0468 81.3473 55.216 81.3926 55.3499 81.4954L56.2775 82.2072L58.4692 79.3455C58.5201 79.2791 58.5834 79.2235 58.6558 79.1816C58.7281 79.1398 58.8079 79.1126 58.8908 79.1017C58.9736 79.0907 59.0577 79.0962 59.1384 79.1178C59.2191 79.1394 59.2948 79.1767 59.3611 79.2276L59.3612 79.2277L59.3476 79.2466L59.3616 79.2277C59.4954 79.3306 59.5829 79.4824 59.6049 79.6497C59.627 79.8171 59.5818 79.9864 59.4793 80.1204L56.9013 83.4849C56.8416 83.5625 56.7649 83.6252 56.6772 83.6683C56.5894 83.7113 56.4929 83.7336 56.3951 83.7333L56.3946 83.7341Z" fill="white"/>
<path d="M56.9983 113.601C60.3634 113.601 63.0914 110.871 63.0914 107.503C63.0914 104.135 60.3634 101.405 56.9983 101.405C53.6331 101.405 50.9052 104.135 50.9052 107.503C50.9052 110.871 53.6331 113.601 56.9983 113.601Z" fill="#E6E6E6"/>
<path d="M56.3946 109.829C56.2575 109.829 56.1241 109.785 56.0144 109.703L56.0076 109.698L54.5756 108.601C54.5092 108.551 54.4534 108.487 54.4114 108.415C54.3695 108.342 54.3422 108.262 54.3312 108.179C54.3202 108.096 54.3257 108.012 54.3472 107.931C54.3688 107.85 54.4061 107.774 54.457 107.708C54.5079 107.641 54.5714 107.586 54.6438 107.544C54.7163 107.502 54.7963 107.475 54.8792 107.464C54.9621 107.453 55.0464 107.459 55.1272 107.48C55.208 107.502 55.2837 107.54 55.35 107.591L56.2775 108.302L58.4693 105.441C58.5201 105.374 58.5835 105.319 58.6558 105.277C58.7281 105.235 58.808 105.208 58.8908 105.197C58.9736 105.186 59.0577 105.191 59.1384 105.213C59.2191 105.235 59.2948 105.272 59.3611 105.323L59.3613 105.323L59.3477 105.342L59.3616 105.323C59.4954 105.426 59.5829 105.578 59.6049 105.745C59.627 105.912 59.5818 106.082 59.4793 106.216L56.9013 109.58C56.8417 109.658 56.765 109.72 56.6772 109.763C56.5894 109.807 56.4929 109.829 56.3952 109.828L56.3946 109.829Z" fill="white"/>
<path d="M145.874 135.645C145.53 135.825 145.18 135.995 144.825 136.156C144.501 136.302 144.172 136.44 143.838 136.569C143.716 136.615 143.591 136.662 143.467 136.708C142.485 137.065 141.476 137.343 140.451 137.541C139.943 137.641 139.428 137.719 138.907 137.776C138.477 137.825 138.042 137.86 137.603 137.88C137.29 137.896 136.977 137.903 136.662 137.903C135.415 137.903 134.17 137.786 132.945 137.554C132.625 137.496 132.312 137.428 132 137.352C130.487 136.989 129.022 136.448 127.637 135.741C127.513 135.678 127.388 135.612 127.264 135.547C127.08 135.45 126.9 135.348 126.721 135.241C126.807 135.121 126.9 135.004 126.996 134.888C128.034 133.601 129.331 132.547 130.803 131.795C132.275 131.043 133.889 130.61 135.54 130.524C137.19 130.438 138.84 130.701 140.382 131.297C141.925 131.892 143.324 132.805 144.49 133.978C144.894 134.384 145.269 134.819 145.612 135.279C145.703 135.399 145.789 135.521 145.874 135.645Z" fill="#00AC8C"/>
<path d="M137.105 125.894C142.484 125.894 146.844 121.53 146.844 116.146C146.844 110.763 142.484 106.399 137.105 106.399C131.726 106.399 127.365 110.763 127.365 116.146C127.365 121.53 131.726 125.894 137.105 125.894Z" fill="#2F2E41"/>
<path d="M139.695 125.908C143.208 123.986 144.499 119.578 142.579 116.062C140.658 112.547 136.254 111.255 132.741 113.176C129.228 115.098 127.937 119.506 129.858 123.022C131.778 126.538 136.182 127.83 139.695 125.908Z" fill="#A0616A"/>
<path d="M143.835 114.979C142.179 116.121 140.212 116.729 138.201 116.721C138.918 117.219 139.735 117.556 140.595 117.707C137.92 118.281 135.156 118.297 132.475 117.753C131.879 117.657 131.304 117.46 130.775 117.169C130.511 117.021 130.282 116.82 130.101 116.578C129.92 116.336 129.792 116.059 129.726 115.764C129.548 114.746 130.341 113.82 131.165 113.196C132.427 112.256 133.882 111.608 135.424 111.3C136.967 110.991 138.559 111.03 140.085 111.412C141.082 111.67 142.08 112.106 142.727 112.907C143.374 113.708 143.566 114.942 142.949 115.767L143.835 114.979Z" fill="#2F2E41"/>
<path d="M137.724 98.2844C137.565 98.2723 137.404 98.2627 137.243 98.2555C136.919 98.2387 136.592 98.2314 136.263 98.2314C132.989 98.2315 129.766 99.0373 126.877 100.578C123.988 102.118 121.522 104.346 119.695 107.065C117.869 109.784 116.739 112.911 116.405 116.17C116.071 119.429 116.543 122.72 117.779 125.754C117.844 125.915 117.911 126.076 117.983 126.235C119.634 129.979 122.387 133.13 125.874 135.268L126.002 135.342C126.11 135.407 126.216 135.47 126.321 135.528C126.502 135.636 126.682 135.737 126.864 135.835C126.989 135.9 127.114 135.965 127.237 136.028C128.623 136.736 130.088 137.277 131.601 137.639C131.913 137.716 132.226 137.783 132.545 137.841C133.771 138.073 135.015 138.19 136.263 138.19C136.577 138.19 136.89 138.183 137.205 138.168C137.642 138.149 138.077 138.113 138.507 138.065C139.029 138.007 139.544 137.928 140.052 137.829C141.078 137.631 142.086 137.353 143.068 136.997C143.193 136.949 143.318 136.903 143.438 136.855C143.775 136.728 144.101 136.591 144.426 136.444C144.781 136.283 145.131 136.112 145.476 135.932C148.928 134.121 151.782 131.348 153.692 127.947C153.7 127.929 153.71 127.911 153.721 127.894C155.346 124.962 156.208 121.666 156.227 118.313C156.245 114.959 155.419 111.655 153.825 108.704C152.231 105.754 149.921 103.253 147.107 101.432C144.293 99.6111 141.066 98.5285 137.724 98.2843L137.724 98.2844ZM155.439 121.877C155.053 123.894 154.35 125.838 153.355 127.634C153.339 127.666 153.322 127.697 153.305 127.726C151.434 131.077 148.621 133.803 145.214 135.566C144.873 135.744 144.527 135.911 144.178 136.066C143.887 136.196 143.589 136.321 143.289 136.437C143.164 136.485 143.034 136.535 142.907 136.579C142.058 136.889 141.189 137.138 140.305 137.324C139.649 137.464 138.986 137.569 138.32 137.637C137.909 137.682 137.493 137.714 137.072 137.728C136.803 137.74 136.534 137.747 136.263 137.747C135.056 137.748 133.851 137.635 132.665 137.411C131.944 137.278 131.23 137.103 130.529 136.886C129.461 136.557 128.423 136.136 127.427 135.629C127.311 135.568 127.196 135.508 127.083 135.446C126.92 135.359 126.756 135.27 126.598 135.176C126.478 135.109 126.357 135.037 126.24 134.967C126.17 134.926 126.103 134.885 126.033 134.842C122.713 132.788 120.08 129.792 118.468 126.235C118.396 126.076 118.327 125.915 118.259 125.754C117.017 122.785 116.528 119.555 116.834 116.351C117.14 113.147 118.233 110.069 120.014 107.389C121.796 104.71 124.211 102.512 127.046 100.992C129.881 99.4721 133.047 98.6766 136.263 98.6764C136.592 98.6764 136.919 98.6836 137.243 98.7028C137.404 98.7076 137.565 98.7197 137.724 98.7317C140.466 98.9397 143.133 99.7247 145.551 101.035C147.969 102.346 150.083 104.153 151.755 106.338C153.428 108.523 154.62 111.036 155.255 113.714C155.89 116.392 155.952 119.173 155.439 121.877L155.439 121.877Z" fill="#3F3D56"/>
<path d="M132.173 106.534C132.068 105.431 130.718 104.752 129.662 105.085C128.607 105.418 127.913 106.482 127.704 107.57C127.603 108.028 127.594 108.501 127.676 108.963C127.759 109.425 127.931 109.866 128.184 110.261C128.718 111.029 129.698 111.509 130.613 111.314C131.657 111.091 132.38 110.071 132.587 109.023C132.794 107.975 132.589 106.894 132.384 105.846L132.173 106.534Z" fill="#2F2E41"/>
<path d="M147.03 108.109C146.925 107.006 145.575 106.327 144.52 106.66C143.464 106.993 142.771 108.057 142.561 109.145C142.46 109.603 142.451 110.077 142.533 110.538C142.616 111 142.789 111.441 143.042 111.836C143.575 112.605 144.556 113.084 145.47 112.889C146.514 112.666 147.238 111.646 147.445 110.598C147.652 109.55 147.446 108.469 147.241 107.421L147.03 108.109Z" fill="#2F2E41"/>
<path d="M95.3471 36.6145C92.2569 38.5948 88.6768 39.6747 85.0079 39.7331C81.3389 39.7916 77.7262 38.8262 74.5747 36.9453C75.1291 35.9124 75.8316 34.9664 76.6598 34.1372C77.9377 32.8522 79.4928 31.8774 81.2059 31.2878C82.9189 30.6982 84.7442 30.5095 86.5414 30.7361C88.3387 30.9627 90.0602 31.5985 91.5736 32.5949C93.087 33.5912 94.3521 34.9215 95.2716 36.4835C95.296 36.5257 95.3226 36.5701 95.3471 36.6145Z" fill="#FFB6B6"/>
<path d="M84.0937 25.9988C89.5084 25.9988 93.898 21.6058 93.898 16.1867C93.898 10.7676 89.5084 6.37451 84.0937 6.37451C78.679 6.37451 74.2894 10.7676 74.2894 16.1867C74.2894 21.6058 78.679 25.9988 84.0937 25.9988Z" fill="#2F2E41"/>
<path d="M90.4277 23.1076C92.3608 19.5686 91.0612 15.1313 87.525 13.1967C83.9888 11.2621 79.5551 12.5627 77.6221 16.1018C75.689 19.6408 76.9886 24.0781 80.5248 26.0127C84.061 27.9473 88.4947 26.6467 90.4277 23.1076Z" fill="#FFB8B8"/>
<path d="M77.3186 15.0113C78.9861 16.1615 80.9653 16.7736 82.9904 16.7655C82.268 17.2668 81.4456 17.6054 80.5799 17.758C83.2725 18.3361 86.0553 18.3517 88.7542 17.804C89.3541 17.7077 89.933 17.5088 90.4654 17.2158C90.7308 17.0675 90.9619 16.865 91.1439 16.6214C91.3259 16.3779 91.4546 16.0987 91.5217 15.8021C91.701 14.7767 90.9027 13.8451 90.073 13.2173C88.8028 12.2707 87.3382 11.6185 85.7852 11.3079C84.2322 10.9973 82.6296 11.0361 81.0934 11.4214C80.0903 11.6809 79.0854 12.1194 78.4339 12.9256C77.7824 13.7318 77.5894 14.9747 78.2101 15.8049L77.3186 15.0113Z" fill="#2F2E41"/>
<path d="M84.6945 0C79.4019 0.00588945 74.3277 2.11252 70.585 5.85777C66.8423 9.60303 64.7368 14.6811 64.7302 19.978C64.731 21.5938 64.9296 23.2035 65.3214 24.7711C65.3622 24.9322 65.403 25.0933 65.4463 25.2521C66.5978 29.4774 69.1062 33.2064 72.5846 35.864C76.063 38.5217 80.3184 39.9604 84.6945 39.9584C89.0716 39.9583 93.3274 38.519 96.8073 35.8619C100.287 33.2047 102.798 29.477 103.955 25.2521C103.998 25.0909 104.039 24.9322 104.077 24.7711C104.801 21.8281 104.847 18.7588 104.211 15.7955C103.576 12.8321 102.275 10.0522 100.408 7.6659C98.5407 5.27964 96.1558 3.34949 93.4336 2.02142C90.7113 0.693351 87.723 0.00212034 84.6945 0V0ZM103.621 24.7711C103.582 24.9322 103.539 25.0933 103.493 25.2521C102.683 28.1419 101.218 30.806 99.2122 33.0379C97.2067 35.2697 94.7145 37.0093 91.9288 38.1217C89.1432 39.2341 86.139 39.6894 83.1492 39.4524C80.1593 39.2154 77.2642 38.2924 74.6883 36.755C70.4072 34.1767 67.2677 30.0638 65.9077 25.2521C65.8621 25.0909 65.8187 24.9322 65.7779 24.7711C65.3775 23.2049 65.1749 21.5946 65.1748 19.978C65.1779 17.2107 65.7685 14.4757 66.9074 11.954C68.0463 9.43236 69.7075 7.18167 71.781 5.351C73.8546 3.52032 76.2931 2.15146 78.9351 1.33508C81.5771 0.51869 84.3623 0.273414 87.1061 0.615493C89.85 0.957571 92.4899 1.87919 94.851 3.31932C97.2121 4.75945 99.2406 6.68522 100.802 8.96906C102.363 11.2529 103.422 13.8427 103.908 16.5669C104.394 19.2911 104.296 22.0876 103.621 24.7711H103.621Z" fill="#3F3D56"/>
<path d="M12.3786 50.9471L11.8981 50.9414C11.9038 50.4605 11.9176 49.9723 11.9392 49.4907L12.4193 49.5123C12.398 49.9886 12.3843 50.4714 12.3786 50.9471Z" fill="#E6E6E6"/>
<path d="M53.1972 8.70143L53.1757 8.22091C53.6571 8.1993 54.1447 8.18544 54.6252 8.17969L54.6309 8.66068C54.1557 8.66632 53.6733 8.68006 53.1972 8.70143Z" fill="#E6E6E6"/>
<path d="M124.987 13.4575C124.564 13.2347 124.138 13.0158 123.709 12.8007L123.924 12.3706C124.356 12.587 124.785 12.8074 125.211 13.0318L124.987 13.4575Z" fill="#E6E6E6"/>
<path d="M157.645 102.231L157.201 102.049C157.562 101.166 157.91 100.265 158.234 99.3712L158.686 99.5352C158.36 100.435 158.009 101.342 157.645 102.231ZM159.616 96.7992L159.158 96.6537C159.446 95.7454 159.719 94.8191 159.969 93.9005L160.433 94.0272C160.181 94.9521 159.906 95.8847 159.616 96.7992V96.7992ZM161.136 91.2237L160.667 91.1162C160.88 90.1868 161.076 89.2411 161.25 88.3055L161.722 88.3935C161.547 89.3355 161.35 90.2877 161.136 91.2237V91.2237ZM162.192 85.5414L161.716 85.473C161.851 84.5299 161.969 83.5711 162.065 82.6235L162.543 82.6723C162.446 83.6264 162.328 84.5918 162.192 85.5414V85.5414ZM162.776 79.7909L162.296 79.762C162.354 78.8114 162.392 77.8463 162.41 76.8932L162.891 76.9024C162.872 77.8619 162.834 78.8337 162.776 79.7909V79.7909ZM162.886 74.0117L162.406 74.0222C162.396 73.6038 162.383 73.1859 162.367 72.7683C162.345 72.2327 162.317 71.6894 162.283 71.1534L162.763 71.1231C162.797 71.6627 162.825 72.2097 162.847 72.749C162.864 73.1694 162.877 73.5903 162.886 74.0117L162.886 74.0117ZM162.044 68.2937C161.945 67.346 161.825 66.3879 161.688 65.4458L162.164 65.3762C162.302 66.3248 162.423 67.2895 162.522 68.2437L162.044 68.2937ZM161.216 62.6143C161.04 61.6786 160.843 60.7332 160.629 59.8043L161.097 59.6962C161.313 60.6315 161.512 61.5834 161.688 62.5255L161.216 62.6143ZM159.928 57.0203C159.677 56.1006 159.403 55.1743 159.114 54.2669L159.572 54.1211C159.863 55.0347 160.138 55.9674 160.392 56.8934L159.928 57.0203ZM158.19 51.5488C157.864 50.653 157.516 49.7518 157.155 48.8702L157.599 48.6876C157.963 49.5754 158.314 50.4827 158.641 51.3845L158.19 51.5488ZM156.012 46.2357C155.615 45.3692 155.194 44.4992 154.763 43.6499L155.191 43.4317C155.626 44.2868 156.049 45.1627 156.449 46.0351L156.012 46.2357ZM153.409 41.117C152.943 40.2859 152.453 39.4531 151.953 38.6415L152.362 38.3891C152.865 39.2062 153.359 40.0448 153.828 40.8816L153.409 41.117ZM150.396 36.2275C149.864 35.4369 149.307 34.6468 148.743 33.8792L149.13 33.594C149.698 34.3669 150.258 35.1625 150.795 35.9586L150.396 36.2275ZM146.993 31.6004C146.397 30.8557 145.777 30.1139 145.152 29.3957L145.514 29.0796C146.144 29.8028 146.768 30.5497 147.368 31.2996L146.993 31.6004ZM143.221 27.2684C142.565 26.5752 141.886 25.8869 141.203 25.2224L141.538 24.8776C142.226 25.5466 142.909 26.2398 143.57 26.9376L143.221 27.2684ZM139.103 23.2612C138.392 22.6248 137.659 21.9946 136.923 21.3883L137.228 21.0169C137.969 21.6275 138.708 22.262 139.423 22.9029L139.103 23.2612ZM134.667 19.6068C133.909 19.0331 133.127 18.4663 132.343 17.9223L132.617 17.527C133.407 18.0748 134.194 18.6455 134.957 19.2231L134.667 19.6068ZM129.953 16.3348C129.151 15.8253 128.326 15.3245 127.5 14.846L127.741 14.4297C128.572 14.9114 129.403 15.4157 130.211 15.9287L129.953 16.3348Z" fill="#E6E6E6"/>
<path d="M155.879 106.196L155.446 105.987C155.655 105.554 155.859 105.12 156.058 104.686L156.495 104.886C156.294 105.324 156.089 105.76 155.879 106.196Z" fill="#E6E6E6"/>
<path d="M124.311 15.0775L124.764 14.9176L123.974 12.6817L126.261 12.0564L126.133 11.5923L123.349 12.3542L124.311 15.0775Z" fill="#E6E6E6"/>
<path d="M154.533 103.817L154.99 103.666L155.729 105.919L157.921 105.017L158.103 105.462L155.434 106.561L154.533 103.817Z" fill="#E6E6E6"/>
</g>
<defs>
<clipPath id="clip0_1152_55558">
<rect width="162.891" height="150" fill="white"/>
</clipPath>
</defs>
</svg>
