<?xml version="1.0" encoding="utf-8"?>
<!-- Generator: Adobe Illustrator 19.0.1, SVG Export Plug-In . SVG Version: 6.00 Build 0)  -->
<!DOCTYPE svg PUBLIC "-//W3C//DTD SVG 1.1//EN" "http://www.w3.org/Graphics/SVG/1.1/DTD/svg11.dtd">
<svg version="1.1" id="Calque_1" xmlns="http://www.w3.org/2000/svg" xmlns:xlink="http://www.w3.org/1999/xlink" x="0px" y="0px"
	 viewBox="0 0 198.8 279" enable-background="new 0 0 198.8 279" xml:space="preserve">
<g>
	<linearGradient id="SVGID_1_" gradientUnits="userSpaceOnUse" x1="98.8041" y1="270.3526" x2="98.8041" y2="34.5113">
		<stop  offset="0" style="stop-color:#002566"/>
		<stop  offset="7.133025e-02" style="stop-color:#003573"/>
		<stop  offset="0.1822" style="stop-color:#004B87"/>
		<stop  offset="0.2982" style="stop-color:#00609A"/>
		<stop  offset="0.4181" style="stop-color:#0070AA"/>
		<stop  offset="0.5431" style="stop-color:#007CB7"/>
		<stop  offset="0.6754" style="stop-color:#0084BF"/>
		<stop  offset="0.82" style="stop-color:#0089C5"/>
		<stop  offset="1" style="stop-color:#008BC6"/>
	</linearGradient>
	<polygon fill="url(#SVGID_1_)" stroke="#FFFFFF" stroke-width="1.1338" points="12.1,34.5 185.5,34.5 185.5,270.4 12.1,270.4 
		12.1,34.5 	"/>
	<linearGradient id="SVGID_2_" gradientUnits="userSpaceOnUse" x1="98.8041" y1="268.6524" x2="98.8041" y2="36.2119">
		<stop  offset="0" style="stop-color:#002566"/>
		<stop  offset="7.133025e-02" style="stop-color:#003573"/>
		<stop  offset="0.1822" style="stop-color:#004B87"/>
		<stop  offset="0.2982" style="stop-color:#00609A"/>
		<stop  offset="0.4181" style="stop-color:#0070AA"/>
		<stop  offset="0.5431" style="stop-color:#007CB7"/>
		<stop  offset="0.6754" style="stop-color:#0084BF"/>
		<stop  offset="0.82" style="stop-color:#0089C5"/>
		<stop  offset="1" style="stop-color:#008BC6"/>
	</linearGradient>
	<polygon fill="url(#SVGID_2_)" stroke="#AAADCC" stroke-width="2.2677" points="13.8,36.2 183.8,36.2 183.8,268.7 13.8,268.7 
		13.8,36.2 	"/>
	<linearGradient id="SVGID_3_" gradientUnits="userSpaceOnUse" x1="98.8041" y1="266.417" x2="98.8041" y2="38.5117">
		<stop  offset="0" style="stop-color:#002566"/>
		<stop  offset="3.989577e-03" style="stop-color:#002566"/>
		<stop  offset="0.2765" style="stop-color:#005090"/>
		<stop  offset="0.5219" style="stop-color:#0075B7"/>
		<stop  offset="0.7318" style="stop-color:#0090D4"/>
		<stop  offset="0.8981" style="stop-color:#00A1E5"/>
		<stop  offset="1" style="stop-color:#00A6EB"/>
	</linearGradient>
	<polygon fill="url(#SVGID_3_)" stroke="#002566" stroke-width="2.2677" points="16,38.5 181.6,38.5 181.6,266.4 16,266.4 16,38.5 	
		"/>
	<g>
		<path fill-rule="evenodd" clip-rule="evenodd" fill="#FFD100" stroke="#FFFFFF" stroke-width="1.1339" d="M54,181.9
			c48-1.4,102.3-28.1,124.7-63.1c24.2-37.6,2.7-70.4-47.7-73.2l-1.4,0c44.9,2.5,63.8,31.4,42.4,65c-19.9,30.5-66.7,54.1-108.9,55.9
			L54,181.9L54,181.9z"/>
		<path fill-rule="evenodd" clip-rule="evenodd" fill="#FFD100" stroke="#FFFFFF" stroke-width="1.1339" d="M77.7,149.4
			c33.7-0.8,71.5-19.5,87.4-44.2c17-26.2,1.9-49.3-33.3-51.2l-1.1-0.1c31.4,1.7,44.9,22.2,29.8,45.5c-13.9,21.5-46.7,38.1-76.2,39.1
			L77.7,149.4L77.7,149.4z"/>
		<path fill-rule="evenodd" clip-rule="evenodd" fill="#FFD100" stroke="#FFFFFF" stroke-width="1.1339" d="M91.9,128.8
			c23.5-0.6,50-13.7,61-30.9c11.8-18.5,1.4-34.5-23.4-35.8l-0.6-0.1c22,1,31.2,15.3,20.8,31.7c-9.6,15-32.7,26.5-53.4,27.4
			L91.9,128.8L91.9,128.8z"/>
	</g>
	<g>
		<path fill-rule="evenodd" clip-rule="evenodd" fill="#F29300" stroke="#FFFFFF" stroke-width="1.1339" d="M143.6,13.5
			c-48.1,1.1-102,28-124.7,63.1c-24.2,37.6-2.7,70.4,47.7,73.2l1.4,0c-44.9-2.5-63.8-31.4-42.4-65c19.9-30.5,66.7-54.1,108.9-55.9
			L143.6,13.5L143.6,13.5z"/>
		<path fill-rule="evenodd" clip-rule="evenodd" fill="#F29300" stroke="#FFFFFF" stroke-width="1.1339" d="M118.3,45.3
			c-33.6,1-71.5,19.5-87.2,44.2c-16.9,26.4-1.9,49.3,33.4,51.4l0.8,0c-31.4-1.7-44.7-22.3-29.6-45.6c13.9-21.5,46.7-37.8,76.2-39.1
			L118.3,45.3L118.3,45.3z"/>
		<path fill-rule="evenodd" clip-rule="evenodd" fill="#F29300" stroke="#FFFFFF" stroke-width="1.1339" d="M103.8,67.3
			c-23.7,0.7-50.3,13.8-61.2,31c-11.8,18.5-1.4,34.5,23.4,35.8l0.6,0.1c-22.1-1.3-31.3-15.5-20.8-31.7C55.6,87.4,78.5,75.9,99.2,75
			L103.8,67.3L103.8,67.3z"/>
	</g>
	<g>
		<path fill="#FFFFFF" d="M23.6,207.4c0-7.6,4.3-9.4,11.5-9.4h9.4c11.4,0,12.9,2.4,12.8,9.8h-8v-0.7c0-1.9-1.4-2.4-3.7-2.4h-8.7
			c-4.2,0-5,2-5,5.2v2.8c0,3.8,0.8,5.2,4.6,5.2h8.5c3.6,0,4.7-0.4,4.7-3.6h8v2.4c0,4.4-1.6,7.8-9.6,7.8H35c-7.2,0-11.5-1.8-11.5-9.4
			V207.4z"/>
		<path fill="#FFFFFF" d="M73.9,198.3h10.4l14.3,26.1h-8.9l-2.5-4.6H71.1l-2.3,4.6h-8.9L73.9,198.3z M74.1,214.1h10.2l-5.2-9.8
			L74.1,214.1z"/>
		<path fill="#FFFFFF" d="M101.5,198.3h23c6.4,0,9.5,1.7,9.5,6.8c0,4.5-1.6,5.3-3.9,6v0.1c3.5,0.4,4.8,2.3,4.8,6.2
			c0,5.7-3.4,6.9-8,6.9h-25.5V198.3z M109.5,208.6h14.1c1.5,0,2.3-0.5,2.3-2c0-1.5-0.9-2.1-2.3-2.1h-14.1V208.6z M109.5,218.1h14.3
			c1.7,0,2.9-0.4,2.9-1.9c0-1.8-1.2-2.2-2.9-2.2h-14.3V218.1z"/>
		<path fill="#FFFFFF" d="M151.3,198.3h10.4l14.3,26.1h-8.9l-2.5-4.6h-16.2l-2.3,4.6h-8.9L151.3,198.3z M151.4,214.1h10.2l-5.2-9.8
			L151.4,214.1z"/>
	</g>
	<g>
		<path fill="#FFFFFF" d="M28.3,237.7v-0.4c0-0.9-0.4-1-1.7-1c-1.5,0-1.8,0.2-1.8,1.8v1.7c0,1.6,0.2,1.9,1.8,1.9
			c1.2,0,1.7,0,1.7-1.2v-0.4h1.5v0.5c0,2.3-1.3,2.3-3.2,2.3c-2.7,0.1-3.2-0.8-3.3-3.1v-1.8c0-2.5,1-3.1,3.3-3.1c1.9,0,3.1,0,3.2,2.2
			v0.4H28.3z"/>
		<path fill="#FFFFFF" d="M35.9,240.1c0,2.1-0.3,2.8-2.6,2.8c-2.3,0-2.6-0.7-2.6-2.8c0-2.1,0.3-2.8,2.6-2.8
			C35.6,237.3,35.9,238,35.9,240.1z M32,240.2c0,1.5,0.1,1.8,1.3,1.8c1.2,0,1.3-0.3,1.3-1.8c0-1.5-0.1-1.8-1.3-1.8
			C32.1,238.3,32,238.7,32,240.2z"/>
		<path fill="#FFFFFF" d="M38.2,237.4v0.8h0c0.3-0.7,1-0.9,1.7-0.9c0.7,0,1.5,0.2,1.6,1h0c0.2-0.8,1-1,1.7-1c1.4,0,1.9,0.5,1.9,1.8
			v3.7H44v-3.6c0-0.7-0.2-1-0.9-1c-1.1,0-1.3,0.5-1.3,1.4v3.1h-1.3v-3.6c0-0.7-0.2-1-0.9-1c-1.1,0-1.3,0.5-1.3,1.4v3.1H37v-5.5H38.2
			z"/>
		<path fill="#FFFFFF" d="M47.9,237.4v0.8h0c0.3-0.7,1-0.9,1.7-0.9s1.5,0.2,1.6,1h0c0.2-0.8,1-1,1.7-1c1.4,0,1.9,0.5,1.9,1.8v3.7
			h-1.3v-3.6c0-0.7-0.2-1-0.9-1c-1.1,0-1.3,0.5-1.3,1.4v3.1h-1.3v-3.6c0-0.7-0.2-1-0.9-1c-1.1,0-1.3,0.5-1.3,1.4v3.1h-1.3v-5.5H47.9
			z"/>
		<path fill="#FFFFFF" d="M59.8,242.9V242h0c-0.3,0.7-1,0.9-1.7,0.9c-1.1,0-1.8-0.4-1.8-1.6v-4h1.3v3.4c0,0.8,0.1,1.1,0.9,1.1
			c1,0,1.3-0.4,1.3-1.4v-3.2h1.3v5.5H59.8z"/>
		<path fill="#FFFFFF" d="M63.7,237.4v0.8h0c0.3-0.8,0.9-0.9,1.7-0.9c1.4,0,1.9,0.6,1.9,1.9v3.6H66v-3.5c0-0.8-0.2-1.1-1-1.1
			c-1.1,0-1.3,0.5-1.3,1.5v3h-1.3v-5.5H63.7z"/>
		<path fill="#FFFFFF" d="M72.1,242.2L72.1,242.2c-0.3,0.7-1.1,0.7-1.7,0.7c-1.2,0-2-0.3-2-1.7c0-1.3,0.7-1.7,2-1.7
			c0.7,0,1.3,0,1.6,0.6h0v-0.7c0-0.9-0.1-1.2-1.2-1.2c-0.6,0-1,0.1-1,0.8h-1.3c0-1.6,1.1-1.7,2.3-1.7c1.7,0,2.5,0.3,2.5,2.1v3.4
			h-1.3L72.1,242.2z M69.7,241.2c0,0.8,0.3,0.8,1.2,0.8c0.7,0,1.2-0.1,1.2-0.8c0-0.8-0.6-0.8-1.2-0.8
			C70.2,240.4,69.7,240.4,69.7,241.2z"/>
		<path fill="#FFFFFF" d="M78.3,242.9V242h0c-0.3,0.7-1,0.9-1.7,0.9c-1.1,0-1.8-0.4-1.8-1.6v-4H76v3.4c0,0.8,0.1,1.1,0.9,1.1
			c1,0,1.3-0.4,1.3-1.4v-3.2h1.3v5.5H78.3z"/>
		<path fill="#FFFFFF" d="M80.2,237.4h0.7v-1.2h1.3v1.2h2.1v1h-2.1v2.8c0,0.5,0,0.7,0.6,0.7c0.7,0,0.7-0.6,0.7-1.2h1.2
			c0,1.7-0.4,2.2-1.8,2.2c-1.4,0-1.9-0.3-1.9-1.7v-2.8h-0.7V237.4z"/>
		<path fill="#FFFFFF" d="M90.1,241.1c0,1.7-1,1.8-2.5,1.8c-2.1,0-2.5-0.7-2.5-2.8c0-2,0.3-2.8,2.5-2.8c2.2,0,2.5,0.7,2.5,3h-3.8
			c0,1.2,0,1.5,1.2,1.5c0.7,0,1.2,0,1.2-0.8H90.1z M88.8,239.6c0-1.1-0.2-1.2-1.2-1.2c-1.1,0-1.2,0.2-1.2,1.2H88.8z M89,236l-2,0.9
			l-0.3-0.5l1.8-1.2L89,236z"/>
		<path fill="#FFFFFF" d="M98.5,242L98.5,242c-0.4,0.7-1,0.9-1.7,0.9c-2,0-2.1-1.3-2.1-3c0-1.6,0.2-2.6,2.1-2.6
			c0.7,0,1.4,0.1,1.6,0.8h0.1v-3.1h1.3v7.8h-1.3L98.5,242z M96,240c0,1.2,0,2,1.2,2c1.3,0,1.3-0.7,1.3-2c0-1.2-0.2-1.6-1.3-1.6
			C96.2,238.3,96,238.6,96,240z"/>
		<path fill="#FFFFFF" d="M102.3,235.1v1.4l-0.4,1.3h-0.6l-0.4-1.3v-1.4H102.3z"/>
		<path fill="#FFFFFF" d="M104.9,241.4l-0.5,1.5h-1.5l2.6-7.8h2.2l2.6,7.8h-1.5l-0.5-1.5H104.9z M106.6,236.2L106.6,236.2l-1.4,4
			h2.7L106.6,236.2z"/>
		<path fill="#FFFFFF" d="M114.5,242.1L114.5,242.1c-0.4,0.7-1.1,0.8-1.7,0.8c-1.9,0-2.1-1-2.1-2.6c0-1.7,0.1-3,2.1-3
			c0.8,0,1.4,0.2,1.7,0.9h0l-0.1-0.8h1.3v5.4c0,2-0.6,2.4-2.6,2.4c-1.3,0-2.3-0.2-2.2-1.9h1.2c0,0.7,0.3,0.9,1,0.9
			c1.1,0,1.4-0.2,1.4-1.2V242.1z M112,240c0,1.2,0,2,1.2,2c1.3,0,1.3-0.7,1.3-2c0-1.2-0.2-1.6-1.3-1.6
			C112.3,238.3,112,238.6,112,240z"/>
		<path fill="#FFFFFF" d="M120.7,242.1L120.7,242.1c-0.4,0.7-1.1,0.8-1.7,0.8c-1.9,0-2.1-1-2.1-2.6c0-1.7,0.1-3,2.1-3
			c0.8,0,1.4,0.2,1.7,0.9h0l-0.1-0.8h1.3v5.4c0,2-0.6,2.4-2.6,2.4c-1.3,0-2.3-0.2-2.2-1.9h1.2c0,0.7,0.3,0.9,1,0.9
			c1.1,0,1.4-0.2,1.4-1.2V242.1z M118.2,240c0,1.2,0,2,1.2,2c1.3,0,1.3-0.7,1.3-2c0-1.2-0.2-1.6-1.3-1.6
			C118.4,238.3,118.2,238.6,118.2,240z"/>
		<path fill="#FFFFFF" d="M124.6,242.9h-1.3v-7.8h1.3V242.9z"/>
		<path fill="#FFFFFF" d="M130.8,240.1c0,2.1-0.3,2.8-2.6,2.8s-2.6-0.7-2.6-2.8c0-2.1,0.3-2.8,2.6-2.8S130.8,238,130.8,240.1z
			 M127,240.2c0,1.5,0.1,1.8,1.3,1.8c1.2,0,1.3-0.3,1.3-1.8c0-1.5-0.1-1.8-1.3-1.8C127.1,238.3,127,238.7,127,240.2z"/>
		<path fill="#FFFFFF" d="M133.2,237.4v0.8h0c0.3-0.7,1-0.9,1.7-0.9c0.7,0,1.5,0.2,1.6,1h0c0.2-0.8,1-1,1.7-1c1.4,0,1.9,0.5,1.9,1.8
			v3.7h-1.3v-3.6c0-0.7-0.2-1-0.9-1c-1.1,0-1.3,0.5-1.3,1.4v3.1h-1.3v-3.6c0-0.7-0.2-1-0.9-1c-1.1,0-1.3,0.5-1.3,1.4v3.1h-1.3v-5.5
			H133.2z"/>
		<path fill="#FFFFFF" d="M146.4,241.1c0,1.7-1,1.8-2.5,1.8c-2.1,0-2.5-0.7-2.5-2.8c0-2,0.3-2.8,2.5-2.8c2.2,0,2.5,0.7,2.5,3h-3.8
			c0,1.2,0,1.5,1.2,1.5c0.7,0,1.2,0,1.2-0.8H146.4z M145.1,239.6c0-1.1-0.2-1.2-1.2-1.2c-1.1,0-1.2,0.2-1.2,1.2H145.1z M145.2,236
			l-2,0.9l-0.3-0.5l1.8-1.2L145.2,236z"/>
		<path fill="#FFFFFF" d="M148.6,237.4l0,0.7h0.1c0.3-0.6,0.8-0.8,1.5-0.8c1.2,0,1.4,0.7,1.4,1.7v0.4h-1.2v-0.3
			c0-0.6-0.1-0.9-0.7-0.9c-0.8,0-1,0.4-1,1.2v3.4h-1.3v-5.5H148.6z"/>
		<path fill="#FFFFFF" d="M155.9,242.2L155.9,242.2c-0.3,0.7-1.1,0.7-1.7,0.7c-1.2,0-2-0.3-2-1.7c0-1.3,0.7-1.7,2-1.7
			c0.7,0,1.3,0,1.6,0.6h0v-0.7c0-0.9-0.1-1.2-1.2-1.2c-0.6,0-1,0.1-1,0.8h-1.3c0-1.6,1.1-1.7,2.3-1.7c1.7,0,2.5,0.3,2.5,2.1v3.4
			h-1.3L155.9,242.2z M153.5,241.2c0,0.8,0.3,0.8,1.2,0.8c0.7,0,1.2-0.1,1.2-0.8c0-0.8-0.6-0.8-1.2-0.8
			C154,240.4,153.5,240.4,153.5,241.2z"/>
		<path fill="#FFFFFF" d="M157.8,237.4h0.7v-1.2h1.3v1.2h2.1v1h-2.1v2.8c0,0.5,0,0.7,0.6,0.7c0.7,0,0.7-0.6,0.7-1.2h1.2
			c0,1.7-0.4,2.2-1.8,2.2c-1.4,0-1.9-0.3-1.9-1.7v-2.8h-0.7V237.4z"/>
		<path fill="#FFFFFF" d="M164.1,236.2h-1.3v-1.1h1.3V236.2z M164.1,242.9h-1.3v-5.5h1.3V242.9z"/>
		<path fill="#FFFFFF" d="M170.3,240.1c0,2.1-0.3,2.8-2.6,2.8c-2.3,0-2.6-0.7-2.6-2.8c0-2.1,0.3-2.8,2.6-2.8
			C170,237.3,170.3,238,170.3,240.1z M166.5,240.2c0,1.5,0.1,1.8,1.3,1.8c1.2,0,1.3-0.3,1.3-1.8c0-1.5-0.1-1.8-1.3-1.8
			C166.6,238.3,166.5,238.7,166.5,240.2z"/>
		<path fill="#FFFFFF" d="M172.7,237.4v0.8h0c0.3-0.8,0.9-0.9,1.7-0.9c1.4,0,1.9,0.6,1.9,1.9v3.6H175v-3.5c0-0.8-0.2-1.1-1-1.1
			c-1.1,0-1.3,0.5-1.3,1.5v3h-1.3v-5.5H172.7z"/>
		<path fill="#FFFFFF" d="M54.2,254.5L54.2,254.5c-0.4,0.7-1,0.9-1.7,0.9c-2,0-2.1-1.3-2.1-3c0-1.6,0.2-2.6,2.1-2.6
			c0.7,0,1.4,0.1,1.6,0.8h0.1v-3.1h1.3v7.8h-1.3L54.2,254.5z M51.7,252.5c0,1.2,0,2,1.2,2c1.3,0,1.3-0.7,1.3-2
			c0-1.2-0.2-1.6-1.3-1.6C51.9,250.8,51.7,251.1,51.7,252.5z"/>
		<path fill="#FFFFFF" d="M60.4,255.4v-0.8h0c-0.3,0.7-1,0.9-1.7,0.9c-1.1,0-1.8-0.4-1.8-1.6v-4h1.3v3.4c0,0.8,0.1,1.1,0.9,1.1
			c1,0,1.3-0.4,1.3-1.4v-3.2h1.3v5.5H60.4z"/>
		<path fill="#FFFFFF" d="M66.6,255.4v-7.8h3.9c1.5,0,2.3,0.3,2.3,2c0,0.9-0.2,1.5-1.1,1.7v0c1.1,0.1,1.3,0.8,1.3,1.8
			c0,1.7-0.7,2.2-2.4,2.2H66.6z M68.1,250.8h2.2c0.8,0,1-0.3,1-1.1c0-0.8-0.3-0.9-1.1-0.9h-2.1V250.8z M68.1,254.1h2
			c0.9,0,1.3-0.1,1.3-1c0-0.9-0.2-1.1-1.1-1.1h-2.3V254.1z"/>
		<path fill="#FFFFFF" d="M77.6,254.7L77.6,254.7c-0.3,0.7-1.1,0.7-1.7,0.7c-1.2,0-2-0.3-2-1.7c0-1.3,0.7-1.7,2-1.7
			c0.7,0,1.3,0,1.6,0.6h0v-0.7c0-0.9-0.1-1.2-1.2-1.2c-0.6,0-1,0.1-1,0.8H74c0-1.6,1.1-1.7,2.3-1.7c1.7,0,2.5,0.3,2.5,2.1v3.4h-1.3
			L77.6,254.7z M75.1,253.7c0,0.8,0.3,0.8,1.2,0.8c0.7,0,1.2-0.1,1.2-0.8c0-0.8-0.6-0.8-1.2-0.8C75.7,252.9,75.1,252.9,75.1,253.7z"
			/>
		<path fill="#FFFFFF" d="M83.5,251.4c0-0.7-0.3-0.7-1-0.7s-1.2,0-1.2,0.7c0,0.5,0.1,0.6,1.3,0.6c1.3,0.1,2.4,0,2.4,1.7
			c0,1.5-1.2,1.6-2.5,1.6c-1.5,0-2.5,0-2.5-1.8h1.3c0,0.8,0.2,0.9,1.2,0.9c0.8,0,1.2,0,1.2-0.7c0-0.5,0-0.7-1.4-0.7
			c-2,0-2.4-0.3-2.4-1.7c0-1.5,1.1-1.5,2.5-1.5c1.1,0,2.4,0,2.4,1.5H83.5z"/>
		<path fill="#FFFFFF" d="M89.3,251.4c0-0.7-0.3-0.7-1-0.7c-0.7,0-1.2,0-1.2,0.7c0,0.5,0.1,0.6,1.3,0.6c1.3,0.1,2.4,0,2.4,1.7
			c0,1.5-1.2,1.6-2.5,1.6c-1.5,0-2.5,0-2.5-1.8h1.3c0,0.8,0.2,0.9,1.2,0.9c0.8,0,1.2,0,1.2-0.7c0-0.5,0-0.7-1.4-0.7
			c-2,0-2.4-0.3-2.4-1.7c0-1.5,1.1-1.5,2.5-1.5c1.1,0,2.4,0,2.4,1.5H89.3z"/>
		<path fill="#FFFFFF" d="M93,248.7h-1.3v-1.1H93V248.7z M93,255.4h-1.3v-5.5H93V255.4z"/>
		<path fill="#FFFFFF" d="M95.5,249.9v0.8h0c0.3-0.8,0.9-0.9,1.7-0.9c1.4,0,1.9,0.6,1.9,1.9v3.6h-1.3v-3.5c0-0.8-0.2-1.1-1-1.1
			c-1.1,0-1.3,0.5-1.3,1.5v3h-1.3v-5.5H95.5z"/>
		<path fill="#FFFFFF" d="M107.7,254.5L107.7,254.5c-0.4,0.7-1,0.9-1.7,0.9c-2,0-2.1-1.3-2.1-3c0-1.6,0.2-2.6,2.1-2.6
			c0.7,0,1.4,0.1,1.6,0.8h0.1v-3.1h1.3v7.8h-1.3L107.7,254.5z M105.2,252.5c0,1.2,0,2,1.2,2c1.3,0,1.3-0.7,1.3-2
			c0-1.2-0.2-1.6-1.3-1.6C105.4,250.8,105.2,251.1,105.2,252.5z"/>
		<path fill="#FFFFFF" d="M111.6,247.6v1.4l-0.4,1.3h-0.6l-0.4-1.3v-1.4H111.6z"/>
		<path fill="#FFFFFF" d="M114.1,253.9l-0.5,1.5H112l2.6-7.8h2.2l2.6,7.8H118l-0.5-1.5H114.1z M115.8,248.7L115.8,248.7l-1.4,4h2.7
			L115.8,248.7z"/>
		<path fill="#FFFFFF" d="M123.7,255.4v-0.8h0c-0.3,0.7-1,0.9-1.7,0.9c-1.1,0-1.8-0.4-1.8-1.6v-4h1.3v3.4c0,0.8,0.1,1.1,0.9,1.1
			c1,0,1.3-0.4,1.3-1.4v-3.2h1.3v5.5H123.7z"/>
		<path fill="#FFFFFF" d="M127.4,249.9l0,0.7h0.1c0.3-0.6,0.8-0.8,1.5-0.8c1.2,0,1.4,0.7,1.4,1.7v0.4h-1.2v-0.3
			c0-0.6-0.1-0.9-0.7-0.9c-0.8,0-1,0.4-1,1.2v3.4h-1.3v-5.5H127.4z"/>
		<path fill="#FFFFFF" d="M132.4,248.7h-1.3v-1.1h1.3V248.7z M132.4,255.4h-1.3v-5.5h1.3V255.4z"/>
		<path fill="#FFFFFF" d="M134.9,255.4h-1.3v-7.8h1.3V255.4z"/>
		<path fill="#FFFFFF" d="M137.6,255.4h-1.3v-7.8h1.3V255.4z"/>
		<path fill="#FFFFFF" d="M142.4,254.7L142.4,254.7c-0.3,0.7-1.1,0.7-1.7,0.7c-1.2,0-2-0.3-2-1.7c0-1.3,0.7-1.7,2-1.7
			c0.7,0,1.3,0,1.6,0.6h0v-0.7c0-0.9-0.1-1.2-1.2-1.2c-0.6,0-1,0.1-1,0.8h-1.3c0-1.6,1.1-1.7,2.3-1.7c1.7,0,2.5,0.3,2.5,2.1v3.4
			h-1.3L142.4,254.7z M140,253.7c0,0.8,0.3,0.8,1.2,0.8c0.7,0,1.2-0.1,1.2-0.8c0-0.8-0.6-0.8-1.2-0.8
			C140.5,252.9,140,252.9,140,253.7z"/>
		<path fill="#FFFFFF" d="M149.7,253.3c0,1.8-0.6,2.1-2.5,2.1c-2,0-2.4-0.6-2.4-2.8c0-1.9,0.3-2.8,2.4-2.8c1.6,0,2.5,0.2,2.5,2h-1.3
			c0-0.8-0.3-1-1.2-1c-1.1,0-1.1,0.4-1.1,1.8c0,1.4,0,1.8,1.1,1.8c1.1,0,1.2-0.2,1.2-1.1H149.7z"/>
	</g>
</g>
</svg>
