<svg width="231" height="200" viewBox="0 0 231 200" fill="none" xmlns="http://www.w3.org/2000/svg">
<g clip-path="url(#clip0_1149_54589)">
<path d="M73.7068 27.6162C71.8518 17.6185 74.7723 6.24446 82.8898 0.192871C82.4298 11.2435 85.8661 22.1017 92.591 30.8466C95.1966 34.2096 98.4424 37.6769 98.3416 41.9413C98.2789 44.5946 96.8539 47.0665 94.976 48.9287C93.0979 50.791 90.7846 52.1336 88.4989 53.4554L88.1431 54.0127C81.4429 46.4022 75.5619 37.6138 73.7068 27.6162Z" fill="#F0F0F0"/>
<path d="M83.0376 0.345838C79.6272 8.03191 78.7085 16.6047 80.4119 24.8465C80.7473 26.6273 81.3594 28.3438 82.2256 29.9327C83.1191 31.453 84.4005 32.7047 85.9368 33.5576C87.3534 34.3819 88.8973 35.0598 90.0902 36.2165C90.6921 36.8177 91.1611 37.5402 91.4662 38.3367C91.7714 39.1332 91.9059 39.9857 91.8609 40.8382C91.8038 42.9654 90.9911 44.945 90.1295 46.8531C89.1729 48.9716 88.1459 51.1569 88.2079 53.5388C88.2155 53.8274 87.7703 53.8222 87.7628 53.5341C87.6549 49.39 90.6301 46.0619 91.293 42.0856C91.6024 40.2301 91.3583 38.2695 90.0629 36.8313C88.9301 35.5736 87.3387 34.8732 85.8972 34.0511C84.3864 33.2411 83.0955 32.071 82.1373 30.6428C81.1935 29.1035 80.5168 27.4136 80.136 25.6456C79.2158 21.6791 78.9207 17.5915 79.2614 13.5326C79.6248 8.89806 80.7727 4.36027 82.6556 0.115546C82.7723 -0.147127 83.1535 0.0848769 83.0376 0.345832L83.0376 0.345838Z" fill="white"/>
<path d="M79.7085 22.2252C78.2965 22.3253 76.8952 21.9167 75.7547 21.0724C74.6143 20.2281 73.809 19.003 73.4827 17.616C73.4177 17.3352 73.8481 17.2202 73.9132 17.5014C74.2147 18.7935 74.9649 19.9346 76.0285 20.7186C77.092 21.5027 78.3989 21.878 79.7131 21.777C79.9988 21.7554 79.9925 22.2037 79.7085 22.2252Z" fill="white"/>
<path d="M85.1639 33.2348C87.0807 31.0521 88.1101 28.222 88.0468 25.309C88.0403 25.0204 88.4855 25.0254 88.492 25.3137C88.5522 28.3452 87.475 31.2881 85.4754 33.5551C85.2846 33.771 84.9742 33.4496 85.1639 33.2348V33.2348Z" fill="white"/>
<path d="M80.1463 9.17651C80.7006 9.25243 81.265 9.18851 81.7888 8.9905C82.3125 8.79249 82.7792 8.46657 83.147 8.04204C83.3349 7.82375 83.6452 8.14546 83.4584 8.36231C83.05 8.82945 82.5341 9.18875 81.9559 9.40882C81.3777 9.62888 80.7548 9.70302 80.1416 9.62475C80.0832 9.62225 80.0279 9.59745 79.987 9.55539C79.9461 9.51332 79.9226 9.45715 79.9214 9.39829C79.9223 9.33894 79.9464 9.28236 79.9886 9.24083C80.0307 9.1993 80.0873 9.17619 80.1463 9.17651V9.17651Z" fill="white"/>
<path d="M116.086 8.46254C115.972 8.6022 115.859 8.74186 115.746 8.88517C114.23 10.7707 112.868 12.7771 111.675 14.8846C111.58 15.0461 111.486 15.2112 111.396 15.3751C108.575 20.4835 106.719 26.0751 105.924 31.8656C105.61 34.1701 105.471 36.4953 105.507 38.821C105.557 42.0331 105.865 45.5117 104.887 48.4658C104.789 48.7752 104.671 49.0781 104.536 49.3728L88.8459 54.4066C88.8046 54.4001 88.7642 54.3971 88.7226 54.3906L88.1053 54.6204C88.0951 54.5006 88.0871 54.3761 88.077 54.2563C88.0708 54.1868 88.0681 54.1162 88.0619 54.0467C88.0589 54.0001 88.056 53.9533 88.0506 53.9114C88.0495 53.8958 88.0486 53.8802 88.0487 53.8683C88.0433 53.8264 88.0428 53.7868 88.0385 53.7485C87.9919 53.0527 87.9487 52.3558 87.9129 51.6566C87.9117 51.653 87.9117 51.653 87.9141 51.6483C87.6448 46.3227 87.8146 40.9278 88.7922 35.7303C88.8217 35.5739 88.8498 35.414 88.8865 35.2553C89.34 32.915 89.9828 30.616 90.8083 28.3811C91.2643 27.1588 91.7814 25.9605 92.3576 24.7909C93.8524 21.7716 95.8095 19.0079 98.1571 16.6011C102.838 11.8038 108.99 8.56728 115.582 8.46537C115.751 8.46287 115.916 8.46142 116.086 8.46254Z" fill="#F0F0F0"/>
<path d="M116.114 8.67444C108.796 12.7437 102.936 19.0315 99.3689 26.6449C98.5719 28.2701 98.0344 30.0117 97.7761 31.8055C97.5805 33.5611 97.8553 35.3374 98.572 36.9499C99.2102 38.4669 100.038 39.9442 100.299 41.591C100.42 42.4359 100.362 43.2971 100.129 44.1181C99.8969 44.9391 99.4947 45.7013 98.9491 46.3547C97.6317 48.0185 95.7991 49.1064 93.9704 50.1075C91.9399 51.2191 89.8134 52.3413 88.4388 54.2807C88.2723 54.5156 87.9199 54.2417 88.0862 54.007C90.4777 50.6328 94.8431 49.7793 97.7498 47.0063C99.1062 45.7124 100.084 43.9991 99.9091 42.0653C99.7566 40.3743 98.9047 38.8502 98.2453 37.3199C97.5233 35.7572 97.1922 34.0402 97.281 32.319C97.4478 30.5177 97.9178 28.7582 98.6709 27.1157C100.308 23.3907 102.516 19.9481 105.215 16.9139C108.276 13.4338 111.905 10.5066 115.947 8.25897C116.197 8.11996 116.363 8.53634 116.114 8.67444V8.67444Z" fill="white"/>
<path d="M100.374 24.1254C99.1871 23.3492 98.3125 22.1734 97.9067 20.8078C97.5009 19.4423 97.5904 17.9759 98.1592 16.6707C98.2751 16.407 98.6875 16.576 98.5714 16.8401C98.0396 18.0546 97.9563 19.4205 98.3368 20.6913C98.7172 21.9621 99.5362 23.0542 100.646 23.7703C100.887 23.9262 100.614 24.2804 100.374 24.1254V24.1254Z" fill="white"/>
<path d="M98.1477 36.2237C100.983 35.643 103.497 34.0075 105.188 31.6432C105.356 31.4088 105.708 31.6827 105.541 31.9168C103.777 34.3738 101.157 36.0705 98.2049 36.6682C97.9235 36.725 97.8679 36.2802 98.1477 36.2237V36.2237Z" fill="white"/>
<path d="M108.526 13.9722C108.923 14.3689 109.412 14.66 109.948 14.8195C110.485 14.9789 111.052 15.0016 111.6 14.8856C111.88 14.8253 111.936 15.2702 111.657 15.3302C111.052 15.4555 110.425 15.4296 109.832 15.2548C109.238 15.08 108.697 14.7615 108.254 14.3272C108.209 14.2898 108.179 14.2365 108.172 14.1781C108.164 14.1197 108.179 14.0607 108.213 14.0129C108.25 13.9661 108.303 13.9355 108.361 13.9279C108.42 13.9203 108.479 13.9362 108.526 13.9722V13.9722Z" fill="white"/>
<path d="M163.267 75.7884C163.308 75.9717 163.335 76.158 163.348 76.3455L177.839 84.7638L181.361 82.7219L185.116 87.672L179.229 91.8969C178.754 92.2383 178.181 92.415 177.597 92.4007C177.013 92.3864 176.45 92.1817 175.991 91.8175L161.049 79.9467C160.374 80.1981 159.64 80.2367 158.943 80.0575C158.247 79.8784 157.621 79.4898 157.149 78.9436C156.676 78.3974 156.381 77.7195 156.301 76.9999C156.221 76.2803 156.36 75.5532 156.7 74.9153C157.04 74.2774 157.566 73.7589 158.206 73.4288C158.846 73.0988 159.57 72.9728 160.283 73.0676C160.996 73.1623 161.663 73.4734 162.196 73.9595C162.729 74.4455 163.103 75.0834 163.267 75.7884V75.7884Z" fill="#FFB6B6"/>
<path d="M178.04 83.8344C178.086 83.6197 178.177 83.4175 178.308 83.2416C178.439 83.0657 178.605 82.9202 178.797 82.8152L185.487 79.1445C186.378 78.4673 187.499 78.1736 188.605 78.3277C189.711 78.4818 190.71 79.0712 191.385 79.9666C192.06 80.862 192.355 81.9904 192.204 83.1042C192.054 84.218 191.471 85.2263 190.584 85.9081L185.222 91.3934C185.069 91.5499 184.884 91.6714 184.68 91.7496C184.476 91.8277 184.258 91.8607 184.041 91.8463C183.823 91.8319 183.611 91.7704 183.419 91.666C183.227 91.5616 183.06 91.4168 182.928 91.2414L178.312 85.0777C178.18 84.9024 178.088 84.7005 178.041 84.486C177.994 84.2714 177.994 84.0492 178.04 83.8344V83.8344Z" fill="#3F3D56"/>
<path d="M189.69 62.7923C190.652 59.7031 192.841 56.8698 195.868 55.8255C198.896 54.7812 203.329 56.372 205.605 58.6561C209.768 62.8343 209.896 67.949 207.036 72.4848C206.467 72.4545 204.504 72.4321 203.928 72.4104L203.113 69.6765V72.3834C198.619 72.2436 193.94 72.3311 189.258 72.4217C188.839 69.2103 188.727 65.8814 189.69 62.7923Z" fill="#2F2E41"/>
<path d="M188.704 192.162H184.605L182.655 176.24L188.705 176.24L188.704 192.162Z" fill="#FFB6B6"/>
<path d="M213.968 192.162H209.869L207.919 176.24L213.969 176.24L213.968 192.162Z" fill="#FFB6B6"/>
<path d="M201.999 94.3694L202.928 96.8013L202.742 99.2335L184.563 105.574L185.465 94.9309L187.509 92.499L201.999 94.3694Z" fill="#FFB6B6"/>
<path d="M196.251 72.4851C199.837 72.4851 202.744 69.5579 202.744 65.947C202.744 62.3361 199.837 59.4089 196.251 59.4089C192.665 59.4089 189.758 62.3361 189.758 65.947C189.758 69.5579 192.665 72.4851 196.251 72.4851Z" fill="#FFB7B7"/>
<path d="M206.069 105.528V109.684C206.069 109.684 210.899 116.004 208.298 120.868L215.75 185.596H207.948L194.923 130.97L189.371 184.473H182.683L181.886 141.921C181.676 130.728 183.532 119.593 187.359 109.083V109.083L206.069 105.528Z" fill="#2F2E41"/>
<path d="M191.79 57.4334C193.037 56.6675 194.466 56.2533 195.927 56.2339C197.388 56.2145 198.827 56.5907 200.095 57.3231C201.362 58.0556 202.41 59.1175 203.13 60.3976C203.85 61.6778 204.216 63.1293 204.188 64.6003C200.559 64.7684 196.747 64.8121 192.881 64.8197L191.967 62.5681L191.429 64.8214C190.251 64.8212 189.071 64.8197 187.888 64.8167C187.84 63.3498 188.175 61.8958 188.86 60.6002C189.544 59.3045 190.555 58.2126 191.79 57.4334V57.4334Z" fill="#2F2E41"/>
<path d="M190.538 200H187.629L187.11 197.235L185.78 200H178.065C177.695 200 177.335 199.881 177.037 199.66C176.74 199.44 176.52 199.129 176.41 198.773C176.299 198.418 176.305 198.036 176.426 197.684C176.546 197.332 176.776 197.028 177.08 196.817L183.241 192.532V189.736L189.721 190.126L190.538 200Z" fill="#2F2E41"/>
<path d="M216.174 200H213.265L212.746 197.235L211.416 200H203.701C203.332 200 202.971 199.881 202.674 199.66C202.376 199.44 202.156 199.129 202.046 198.773C201.936 198.418 201.941 198.036 202.062 197.684C202.182 197.332 202.412 197.028 202.716 196.817L208.877 192.532V189.736L215.357 190.126L216.174 200Z" fill="#2F2E41"/>
<path d="M209.023 118.855C209.384 113.861 209.012 108.841 207.919 103.957C206.54 97.792 204.788 89.9479 204.754 89.7452C204.753 89.7412 204.753 89.7372 204.753 89.7332L204.219 78.2432C204.217 78.2098 204.203 78.1783 204.18 78.1549C204.156 78.1314 204.125 78.1178 204.092 78.1167L200.397 77.9916C200.363 77.9905 200.331 77.976 200.307 77.9512C200.283 77.9265 200.27 77.8934 200.27 77.8589V77.8589C200.27 77.5818 200.216 77.3073 200.11 77.0513C200.005 76.7953 199.851 76.5626 199.656 76.3666C199.462 76.1707 199.23 76.0152 198.976 75.9092C198.722 75.8031 198.449 75.7485 198.174 75.7485H190.796C190.318 75.7487 189.857 75.9246 189.498 76.243C189.14 76.5615 188.909 77.0007 188.85 77.4782C188.847 77.5111 188.831 77.5415 188.806 77.5634C188.782 77.5852 188.75 77.597 188.717 77.5962L185.846 77.499C185.817 77.4981 185.789 77.5066 185.765 77.5234C185.742 77.5402 185.725 77.5642 185.716 77.5919L185.516 78.2308C182.618 87.6298 181.813 97.5568 183.159 107.305C183.507 109.899 183.349 113.799 183.218 115.972C183.205 116.185 183.233 116.398 183.302 116.599C183.371 116.8 183.479 116.985 183.619 117.145C183.76 117.304 183.93 117.433 184.12 117.526C184.31 117.619 184.517 117.673 184.728 117.685C190.066 117.994 205.178 125.358 208.796 121.842C208.805 121.834 208.901 120.537 209.023 118.855Z" fill="#3F3D56"/>
<path d="M179.422 75.7884C179.464 75.9717 179.491 76.158 179.503 76.3455L193.994 84.7638L197.516 82.7219L201.271 87.672L195.385 91.8969C194.909 92.2383 194.336 92.415 193.752 92.4007C193.169 92.3864 192.605 92.1817 192.147 91.8175L177.204 79.9467C176.53 80.1981 175.795 80.2367 175.099 80.0575C174.402 79.8784 173.776 79.4898 173.304 78.9436C172.832 78.3974 172.536 77.7195 172.456 76.9999C172.376 76.2803 172.515 75.5532 172.855 74.9153C173.196 74.2774 173.721 73.7589 174.361 73.4288C175.001 73.0988 175.725 72.9728 176.438 73.0676C177.151 73.1623 177.819 73.4734 178.352 73.9595C178.885 74.4455 179.258 75.0834 179.422 75.7884V75.7884Z" fill="#FFB6B6"/>
<path d="M194.195 83.8343C194.241 83.6196 194.333 83.4174 194.463 83.2415C194.594 83.0656 194.761 82.9201 194.952 82.8151L201.643 79.1444C202.533 78.4675 203.655 78.174 204.76 78.3283C205.866 78.4825 206.865 79.0719 207.54 79.9671C208.214 80.8624 208.509 81.9905 208.359 83.1042C208.209 84.2178 207.627 85.2261 206.739 85.908L201.377 91.3933C201.224 91.5498 201.04 91.6713 200.836 91.7494C200.632 91.8276 200.414 91.8606 200.196 91.8462C199.978 91.8318 199.766 91.7703 199.574 91.6659C199.382 91.5615 199.215 91.4167 199.084 91.2413L194.467 85.0776C194.336 84.9023 194.243 84.7004 194.196 84.4858C194.149 84.2713 194.149 84.0491 194.195 83.8343Z" fill="#3F3D56"/>
<path d="M16.9062 177.318C26.2433 177.318 33.8125 169.696 33.8125 160.293C33.8125 150.891 26.2433 143.269 16.9062 143.269C7.56918 143.269 0 150.891 0 160.293C0 169.696 7.56918 177.318 16.9062 177.318Z" fill="#F0F0F0"/>
<path d="M166.302 101.216L43.7851 157.86C42.0411 158.663 40.0518 158.738 38.2534 158.067C36.455 157.395 34.9945 156.033 34.1923 154.279L3.95813 87.9656C3.15987 86.2095 3.08595 84.2062 3.75259 82.3953C4.41922 80.5844 5.77199 79.1136 7.51409 78.3058L130.031 21.6624C131.775 20.8586 133.764 20.7842 135.563 21.4555C137.361 22.1268 138.822 23.489 139.624 25.2433L169.858 91.5564C170.656 93.3125 170.73 95.3158 170.064 97.1268C169.397 98.9377 168.044 100.408 166.302 101.216V101.216Z" fill="white"/>
<path d="M9.55178 82.7756C8.98583 83.038 8.54636 83.5158 8.3298 84.1041C8.11323 84.6924 8.13725 85.3432 8.39658 85.9137L38.6308 152.227C38.8914 152.797 39.3659 153.239 39.9501 153.457C40.5343 153.676 41.1806 153.651 41.7471 153.39L164.264 96.7468C164.83 96.4844 165.27 96.0066 165.486 95.4183C165.703 94.83 165.679 94.1792 165.419 93.6087L135.185 27.2955C134.925 26.7256 134.45 26.283 133.866 26.065C133.282 25.8469 132.635 25.8711 132.069 26.1322L9.55178 82.7756Z" fill="#E4E4E4"/>
<path d="M166.302 101.216L43.7851 157.86C42.0411 158.663 40.0518 158.738 38.2534 158.067C36.455 157.395 34.9945 156.033 34.1923 154.279L3.95813 87.9656C3.15987 86.2095 3.08595 84.2062 3.75259 82.3953C4.41922 80.5844 5.77199 79.1136 7.51409 78.3058L130.031 21.6624C131.775 20.8586 133.764 20.7842 135.563 21.4555C137.361 22.1268 138.822 23.489 139.624 25.2433L169.858 91.5564C170.656 93.3125 170.73 95.3158 170.064 97.1268C169.397 98.9377 168.044 100.408 166.302 101.216V101.216ZM7.82757 78.9934C6.2664 79.7174 5.05414 81.0353 4.45675 82.6582C3.85935 84.281 3.92562 86.0762 4.64098 87.6499L34.8752 153.963C35.5941 155.535 36.9029 156.756 38.5145 157.357C40.126 157.959 41.9088 157.892 43.4716 157.172L165.989 100.529C167.55 99.8047 168.762 98.4867 169.359 96.8639C169.957 95.241 169.891 93.4458 169.175 91.8721L138.941 25.559C138.222 23.9869 136.913 22.7661 135.302 22.1646C133.69 21.563 131.907 21.6297 130.345 22.3501L7.82757 78.9934Z" fill="#CACACA"/>
<path d="M135.688 71.1246L38.3556 116.124C37.5717 116.485 36.6962 116.594 35.8487 116.435C35.0011 116.277 34.2229 115.859 33.6201 115.238L5.14261 85.8301C4.67556 85.3478 4.33033 84.7596 4.13592 84.115C3.94151 83.4704 3.90362 82.7883 4.02542 82.1259C4.14722 81.4635 4.42515 80.8402 4.83586 80.3084C5.24657 79.7767 5.77804 79.352 6.38561 79.07L131.123 21.1662C131.723 20.888 132.379 20.7568 133.039 20.7834C133.699 20.81 134.343 20.9936 134.918 21.3191C135.494 21.6446 135.985 22.1029 136.351 22.6563C136.717 23.2097 136.947 23.8425 137.023 24.5029L137.04 24.5025L138.122 67.1929C138.144 68.0164 137.924 68.828 137.492 69.527C137.059 70.226 136.432 70.7815 135.688 71.1246V71.1246ZM131.442 21.8513L6.70005 79.7572C6.20173 79.9885 5.76581 80.3368 5.42895 80.7729C5.09209 81.2091 4.86413 81.7203 4.76423 82.2636C4.66433 82.8068 4.6954 83.3663 4.85485 83.895C5.01429 84.4237 5.29745 84.9061 5.68051 85.3017L34.158 114.71C34.6523 115.219 35.2907 115.562 35.9859 115.692C36.681 115.822 37.3992 115.733 38.0422 115.437L135.375 70.437C135.984 70.1556 136.499 69.6999 136.854 69.1266C137.209 68.5532 137.389 67.8876 137.371 67.2122L136.298 24.9L136.449 24.8963L136.298 24.9C136.284 24.3291 136.129 23.7706 135.847 23.2748C135.566 22.779 135.166 22.3613 134.685 22.0592C134.204 21.757 133.655 21.5799 133.089 21.5436C132.523 21.5073 131.957 21.6131 131.442 21.8513V21.8513Z" fill="#CACACA"/>
<path d="M74.6519 132.001L44.3272 146.022C44.1071 146.123 43.8693 146.181 43.6272 146.19C43.3852 146.2 43.1436 146.161 42.9165 146.076C42.6893 145.991 42.4809 145.863 42.3032 145.697C42.1256 145.531 41.9821 145.331 41.881 145.11C41.78 144.888 41.7233 144.649 41.7142 144.405C41.7051 144.161 41.7438 143.918 41.8281 143.689C41.9124 143.46 42.0407 143.251 42.2055 143.072C42.3704 142.893 42.5686 142.749 42.7888 142.647L73.1136 128.627C73.5578 128.422 74.0647 128.404 74.5227 128.575C74.9808 128.746 75.3526 129.093 75.5565 129.541C75.7604 129.988 75.7796 130.498 75.61 130.96C75.4404 131.421 75.0958 131.796 74.6519 132.001V132.001Z" fill="white"/>
<path d="M96.8368 88.6704C97.3574 89.8093 97.65 91.0404 97.6978 92.2932C97.7456 93.546 97.5478 94.7961 97.1156 95.9719C96.6834 97.1476 96.0253 98.2261 95.179 99.1457C94.3326 100.065 93.3146 100.808 92.1831 101.331C91.0516 101.854 89.8288 102.147 88.5847 102.194C87.3405 102.241 86.0993 102.041 84.9321 101.605C83.7649 101.168 82.6945 100.505 81.7822 99.6514C80.8698 98.7983 80.1334 97.7725 79.615 96.6326" fill="#CACACA"/>
<path d="M165.209 191.413H30.3967C28.4788 191.411 26.64 190.643 25.2838 189.277C23.9276 187.912 23.1647 186.06 23.1626 184.129V111.16C23.1648 109.229 23.9277 107.377 25.2838 106.012C26.64 104.646 28.4788 103.878 30.3967 103.875H165.209C167.127 103.878 168.966 104.646 170.322 106.012C171.679 107.377 172.441 109.229 172.444 111.16V184.129C172.441 186.06 171.679 187.912 170.322 189.277C168.966 190.643 167.127 191.411 165.209 191.413Z" fill="white"/>
<path d="M30.3967 108.794C29.7737 108.794 29.1763 109.044 28.7357 109.488C28.2952 109.931 28.0473 110.533 28.0466 111.16V184.129C28.0473 184.756 28.2952 185.358 28.7357 185.801C29.1763 186.245 29.7737 186.494 30.3967 186.495H165.209C165.833 186.494 166.43 186.245 166.87 185.801C167.311 185.358 167.559 184.756 167.56 184.129V111.16C167.559 110.533 167.311 109.931 166.87 109.488C166.43 109.044 165.833 108.794 165.209 108.794H30.3967Z" fill="#6A6AF4"/>
<path d="M165.209 191.413H30.3967C28.4788 191.411 26.64 190.643 25.2838 189.277C23.9276 187.912 23.1647 186.06 23.1626 184.129V111.16C23.1648 109.229 23.9277 107.377 25.2838 106.012C26.64 104.646 28.4788 103.878 30.3967 103.875H165.209C167.127 103.878 168.966 104.646 170.322 106.012C171.679 107.377 172.441 109.229 172.444 111.16V184.129C172.441 186.06 171.679 187.912 170.322 189.277C168.966 190.643 167.127 191.411 165.209 191.413ZM30.3967 104.632C28.678 104.634 27.0302 105.322 25.8149 106.546C24.5996 107.77 23.9159 109.429 23.914 111.16V184.129C23.9159 185.859 24.5996 187.519 25.8149 188.742C27.0302 189.966 28.678 190.655 30.3967 190.657H165.209C166.928 190.655 168.576 189.966 169.791 188.742C171.007 187.519 171.69 185.859 171.692 184.129V111.16C171.69 109.429 171.007 107.77 169.791 106.546C168.576 105.322 166.928 104.634 165.209 104.632H30.3967Z" fill="#3F3D56"/>
<path d="M149.856 151.203H42.7557C41.8936 151.202 41.0529 150.933 40.3484 150.432C39.6439 149.932 39.1099 149.225 38.8192 148.408L25.1242 109.717C24.8996 109.082 24.8295 108.403 24.9199 107.735C25.0103 107.068 25.2585 106.432 25.6437 105.881C26.0289 105.33 26.5397 104.881 27.1333 104.57C27.7269 104.259 28.3858 104.097 29.0548 104.096L166.408 103.883C167.068 103.882 167.719 104.039 168.307 104.34C168.896 104.642 169.405 105.079 169.793 105.617C170.182 106.154 170.438 106.777 170.541 107.434C170.644 108.09 170.592 108.762 170.387 109.395L170.403 109.401L153.697 148.653C153.376 149.41 152.84 150.056 152.157 150.509C151.474 150.962 150.674 151.204 149.856 151.203V151.203ZM166.413 104.64L29.0558 104.852C28.5071 104.853 27.9667 104.986 27.4798 105.241C26.993 105.496 26.574 105.865 26.2581 106.317C25.9422 106.768 25.7386 107.29 25.6644 107.837C25.5903 108.385 25.6477 108.942 25.8319 109.463L39.5269 148.154C39.7653 148.824 40.2033 149.404 40.7812 149.814C41.359 150.225 42.0486 150.445 42.7557 150.446H149.856C150.527 150.447 151.183 150.249 151.744 149.877C152.304 149.505 152.743 148.976 153.007 148.355L169.564 109.451L169.702 109.511L169.564 109.451C169.787 108.926 169.878 108.353 169.827 107.784C169.777 107.216 169.587 106.668 169.275 106.191C168.963 105.714 168.538 105.323 168.038 105.052C167.539 104.782 166.981 104.64 166.413 104.64V104.64Z" fill="#18181A"/>
<path d="M69.1628 180.882H35.7947C35.3057 180.882 34.8368 180.687 34.4911 180.339C34.1454 179.991 33.9512 179.518 33.9512 179.026C33.9512 178.534 34.1454 178.062 34.4911 177.713C34.8368 177.365 35.3057 177.17 35.7947 177.17H69.1628C69.6517 177.17 70.1206 177.365 70.4663 177.713C70.8121 178.062 71.0063 178.534 71.0063 179.026C71.0063 179.518 70.8121 179.991 70.4663 180.339C70.1206 180.687 69.6517 180.882 69.1628 180.882V180.882Z" fill="white"/>
<path d="M107.278 150.825C107.278 153.355 106.28 155.782 104.503 157.572C102.726 159.361 100.316 160.366 97.8032 160.366C95.2903 160.366 92.8802 159.361 91.1033 157.572C89.3264 155.782 88.3281 153.355 88.3281 150.825" fill="#3F3D56"/>
<path d="M47.3375 41.1218C49.205 41.1218 50.7188 39.5974 50.7188 37.7169C50.7188 35.8364 49.205 34.312 47.3375 34.312C45.4701 34.312 43.9563 35.8364 43.9563 37.7169C43.9563 39.5974 45.4701 41.1218 47.3375 41.1218Z" fill="#F0F0F0"/>
<path d="M3.38125 122.84C5.24866 122.84 6.7625 121.315 6.7625 119.435C6.7625 117.554 5.24866 116.03 3.38125 116.03C1.51384 116.03 0 117.554 0 119.435C0 121.315 1.51384 122.84 3.38125 122.84Z" fill="#F0F0F0"/>
<path d="M172.444 58.9031C174.311 58.9031 175.825 57.3786 175.825 55.4982C175.825 53.6177 174.311 52.0933 172.444 52.0933C170.576 52.0933 169.062 53.6177 169.062 55.4982C169.062 57.3786 170.576 58.9031 172.444 58.9031Z" fill="#F0F0F0"/>
<path d="M230.322 200H165.968C165.849 200 165.735 199.953 165.651 199.868C165.568 199.784 165.52 199.669 165.52 199.55C165.52 199.43 165.568 199.316 165.651 199.231C165.735 199.147 165.849 199.099 165.968 199.099H230.322C230.44 199.099 230.554 199.147 230.637 199.232C230.721 199.316 230.768 199.43 230.768 199.55C230.768 199.669 230.721 199.783 230.637 199.868C230.554 199.952 230.44 200 230.322 200V200Z" fill="#CACACA"/>
<path d="M93.4677 137.577H103.148V135.137H96.7677L100.148 131.877C101.528 130.537 102.788 129.057 102.788 127.137C102.788 124.737 100.828 123.177 98.3877 123.177C95.9477 123.177 94.2077 124.377 93.0277 126.297L95.2277 127.637C95.9677 126.397 96.7877 125.577 98.1277 125.577C99.2277 125.577 100.028 126.257 100.028 127.417C100.028 128.557 99.3477 129.317 98.2677 130.417L93.4677 135.137V137.577Z" fill="#FCFBFB"/>
</g>
<defs>
<clipPath id="clip0_1149_54589">
<rect width="230.769" height="200" fill="white"/>
</clipPath>
</defs>
</svg>
